<?xml version="1.0" standalone="no"?>
<!DOCTYPE svg PUBLIC "-//W3C//DTD SVG 20010904//EN"
 "http://www.w3.org/TR/2001/REC-SVG-20010904/DTD/svg10.dtd">
<svg version="1.0" xmlns="http://www.w3.org/2000/svg"
 width="256.000000pt" height="256.000000pt" viewBox="0 0 256.000000 256.000000"
 preserveAspectRatio="xMidYMid meet">
<metadata>
Created by potrace 1.11, written by Peter Selinger 2001-2013
</metadata>
<g transform="translate(0.000000,256.000000) scale(0.100000,-0.100000)"
fill="#000000" stroke="none">
<path d="M0 1280 l0 -1280 1280 0 1280 0 0 1280 0 1280 -1280 0 -1280 0 0
-1280z m2440 0 l0 -1160 -1160 0 -1160 0 0 1160 0 1160 1160 0 1160 0 0 -1160z"/>
<path d="M705 2117 c-68 -23 -100 -44 -151 -100 -61 -66 -84 -133 -84 -240 0
-135 39 -200 291 -487 269 -306 308 -371 309 -511 0 -135 -63 -217 -182 -234
-142 -21 -251 80 -293 270 l-17 73 -59 -20 c-67 -22 -65 -13 -29 -138 20 -70
74 -167 118 -213 15 -15 55 -42 89 -59 60 -29 66 -30 165 -26 83 3 112 9 148
27 79 41 118 79 152 148 27 55 33 80 36 152 3 57 -1 105 -11 144 -29 109 -65
158 -418 572 -132 156 -169 226 -169 326 0 94 33 149 114 191 58 30 168 23
223 -14 54 -36 98 -105 120 -189 11 -44 22 -68 29 -65 7 3 31 10 54 17 l42 13
-6 50 c-8 67 -65 185 -113 233 -63 63 -120 85 -227 89 -58 3 -105 -1 -131 -9z"/>
<path d="M1390 1280 l0 -831 238 3 c236 3 237 3 288 30 118 62 172 181 181
398 8 201 -33 339 -126 423 -23 21 -46 37 -52 37 -6 0 9 19 33 43 83 81 127
220 114 366 -15 168 -76 275 -187 327 -64 29 -65 29 -276 32 l-213 3 0 -831z
m410 690 c70 -36 108 -114 117 -245 10 -145 -29 -270 -97 -306 -29 -16 -57
-19 -162 -19 l-128 0 0 295 0 295 115 0 c96 0 123 -3 155 -20z m50 -712 c76
-39 110 -138 110 -318 -1 -199 -39 -315 -119 -357 -40 -21 -57 -23 -178 -23
l-133 0 0 360 0 360 138 0 c123 0 142 -2 182 -22z"/>
</g>
</svg>
