<svg version="1.1" id="Layer_1" xmlns="http://www.w3.org/2000/svg" xmlns:xlink="http://www.w3.org/1999/xlink" x="0px" y="0px"
	 width="400px" height="400px" viewBox="0 0 60 60" style="enable-background:new 0 0 60 60;" xml:space="preserve">
<path d="M54.792,45.868c0.802,5.221-0.78,7.376-6,8.178L16.51,59L7.962,6.156l32.306-4.96c5.219-0.8,7.375,0.781,8.176,6.001L54.792,45.868    z"/>
<path d="M9.297,17.402c-2.054,0.292-3.958-1.139-4.249-3.193c-0.291-2.055,1.139-3.957,3.192-4.248c2.058-0.291,3.958,1.139,4.249,3.192"/>
<path d="M10.831,27.066c-2.055,0.292-3.957-1.138-4.249-3.192c-0.289-2.055,1.14-3.957,3.193-4.249c2.057-0.29,3.957,1.138,4.249,3.194"/>
<path d="M12.452,37.205c-2.054,0.29-3.956-1.141-4.249-3.195c-0.29-2.053,1.14-3.956,3.195-4.247c2.054-0.292,3.955,1.137,4.247,3.194"/>
<path d="M14.108,47.33c-2.054,0.292-3.957-1.139-4.249-3.193c-0.29-2.054,1.14-3.955,3.193-4.248c2.057-0.291,3.958,1.139,4.249,3.193"/>
<path d="M15.729,57.465c-2.054,0.292-3.956-1.139-4.247-3.193s1.139-3.957,3.193-4.248c2.054-0.289,3.956,1.14,4.249,3.194"/>
<path d="M17.21,16.146l25.591-4.05l2.361,14.926l-25.59,4.05L17.21,16.146z"/>
<path d="M 38.585 17.559 L 22.478 20.132"/>
<path d="M 39.146 21.441 L 23.04 24.014"/>
</svg>