<svg version="1.1" id="Layer_1" xmlns="http://www.w3.org/2000/svg" xmlns:xlink="http://www.w3.org/1999/xlink" x="0px" y="0px"
	 width="400px" height="400px" viewBox="0 0 60 60" style="enable-background:new 0 0 60 60;" xml:space="preserve">
<path d="M44.166,17.25c-1.29-4.001-5.043-6.897-9.474-6.897c-1.615,0-3.141,0.389-4.49,1.071c-2.152-3.42-5.959-5.696-10.299-5.696
				c-5.577,0-10.267,3.76-11.701,8.878C4.102,15.387,1,18.986,1,23.313c0,2.77,1.269,5.243,3.258,6.87"/>
<path d="M39.567,32.083h6.312c0.439,0,1.262-0.002,1.262-0.002c3.279-0.221,5.919-2.973,6.265-6.217"/>
<path d="M37.205,33.035c10.894-4.308,19.568-8.867,19.568-8.867c1.72-1.05,3.252-2.484,1.347-4.308c-2.774-2.65-4.617-0.953-9.132-2.587
				c-2.208-0.798-6.911,0.233-9.121,1.183c0,0-26.944,14.033-29.96,14.162c-2.32-1.741-4.022-3.25-5.401-2.657
				c-0.685,0.295-0.087,1.684,0.345,2.692l2.929,6.508c0.529,1.229,2.112,2.168,3.342,1.639c0,0,9.178-1.979,17.812-4.766"/>
<path d="M37.442,27.535c0,0-7.655,2.913-8.037,3.055c-0.381,0.143-0.608,0.497-0.595,0.97c0.091,3.202,0.459,16.075,0.721,22.508
				c0.027,0.662,2.303-0.448,2.818-0.98c3.206-3.321,5.118-22.143,5.414-25.254C37.79,27.55,37.442,27.535,37.442,27.535z"/>
<path d="M46.399,17.899c-0.36,0.147-0.531,0.559-0.384,0.918l0.802,1.955c0.148,0.359,0.56,0.532,0.918,0.384l6.329-2.906
			c0.044-0.018,0.086-0.041,0.125-0.066"/>
</svg>