<svg version="1.1" id="Layer_1" xmlns="http://www.w3.org/2000/svg" xmlns:xlink="http://www.w3.org/1999/xlink" x="0px" y="0px"
	 width="400px" height="400px" viewBox="0 0 60 60" style="enable-background:new 0 0 60 60;" xml:space="preserve">
<path d= "M20.529,22.186c-2.167,0.591-2.85,1.611-2.85,1.611c-1.068-4.171-1.011-5.141-1.011-5.141          c-3.629,0.194-4.908,3.007-4.908,3.007c0.388-3.201,1.554-6.694,1.554-6.694c-1.066-0.678-3.59-0.485-3.59-0.485          c1.357-3.686,5.918-3.783,5.918-3.783c-2.328-2.038-4.947-1.844-4.947-1.844c2.424-4.269,6.013-2.425,6.013-2.425          C16.611,5.56,13.8,2.165,13.8,2.165c2.812-0.097,5.529,2.813,5.529,2.813C19.231,3.523,20.395,1,20.395,1          c3.3,0.68,6.693,3.687,6.693,3.687l0.777-2.813l1.74,3.147l1.041-2.08c0.675,1.248,1.03,2.807,1.03,2.807          c2.065-5.535,9.674-4.456,9.674-4.456c-1.844,1.068-1.359,2.813-1.359,2.813c3.881-1.745,7.372,1.165,7.372,1.165          c-3.298,0.097-4.366,1.357-4.366,1.357c6.308-0.194,7.278,4.075,7.278,4.075c-3.301-0.485-3.688,1.552-3.688,1.552          c4.559,1.357,3.203,6.209,3.203,6.209c-1.262-1.941-3.493-1.747-3.493-1.747c2.037,3.201,0.194,4.851,0.194,4.851          c-0.484-2.329-3.187-2.729-3.187-2.729c1.361,1.346-1.081,5.154-1.081,5.154c-0.547-0.857-2.029-1.65-2.592-1.93" />
<path d="M32.234,28.04"/>
<path d="M32.877,5.938V1h-5.672v4.938"/>
<path d="M49.829,51.639l3.19,3.193c0.445,0.445-0.092,1.704-1.201,2.812l0,0c-1.106,1.106-2.367,1.646-2.811,1.197l-3.639-3.638"/>
<path d="M14.522,55.053l-3.705,3.706c-0.444,0.443-1.703-0.093-2.812-1.2l0,0c-1.11-1.107-1.647-2.367-1.202-2.812l3.327-3.326"/>
<path d="M5.161,23.978C1.012,19.956,0.468,13.612,3.599,8.986c0,0,4.783-6.247,11.803-4.986c2.219,0.398,4.35,1.436,6.091,3.124"/>
<path d="M54.839,23.978c4.149-4.021,4.693-10.365,1.562-14.991c0,0-4.782-6.247-11.803-4.986c-2.219,0.398-4.35,1.436-6.091,3.124"/>
<path d="M29.967,28.041c2.243,0,4.061,1.818,4.061,4.061c0,2.243-1.817,4.062-4.061,4.062c-2.243,0-4.061-1.818-4.061-4.062
			C25.906,29.859,27.724,28.041,29.967,28.041z"/>
<path d="M29.967,32.102l13.279-13.278"/>
<path d="M29.695,32.189h18.778"/>
<path d="M29.967,5.911c14.465,0,26.191,11.726,26.191,26.19c0,14.465-11.727,26.191-26.191,26.191S3.776,46.566,3.776,32.102
		C3.776,17.637,15.502,5.911,29.967,5.911z"/>
</svg>