<svg version="1.1" id="Layer_1" xmlns="http://www.w3.org/2000/svg" xmlns:xlink="http://www.w3.org/1999/xlink" x="0px" y="0px"
	 width="400px" height="400px" viewBox="0 0 60 60" style="enable-background:new 0 0 60 60;" xml:space="preserve">
<path d="M45.874,33.98l-6.788,8.312l3.747-0.018c-0.752,5.134-5.098,9.268-10.645,10.11l-0.111-27.521l4.956-0.022
			c1.081-0.006,1.918-0.974,1.911-2.206c-0.006-1.229-0.846-2.188-1.928-2.186l-4.957,0.026l-0.024-5.602
			c2.796-1.036,4.716-3.712,4.706-6.742C36.729,4.181,33.455,0.979,29.451,1c-3.997,0.014-7.246,3.241-7.227,7.193
			c0.013,3.163,2.146,5.903,5.143,6.804l0.022,5.492l-4.466,0.021c-1.078,0.003-1.918,0.971-1.911,2.201
			c0.005,1.234,0.849,2.197,1.931,2.188l4.462-0.014l0.113,27.397c-5.299-1.003-9.347-4.972-10.104-9.9l3.497-0.014l-6.399-8.256
			l-6.788,8.31l4.003-0.018c1.313,8.123,7.892,14.34,16.218,15.283c0.417,0.817,1.12,1.317,1.932,1.314
			c0.789-0.001,1.477-0.481,1.893-1.268c8.537-0.744,15.46-7.169,16.748-15.479l3.76-0.017L45.874,33.98z M30.96,7.477
			c0.002,0.674-2.949,0.782-2.951,0.013"/>
</svg>