<svg version="1.1" id="Layer_1" xmlns="http://www.w3.org/2000/svg" xmlns:xlink="http://www.w3.org/1999/xlink" x="0px" y="0px"
	 width="400px" height="400px" viewBox="0 0 60 60" style="enable-background:new 0 0 60 60;" xml:space="preserve">
<path d="M59,44.627c0,1.732-1.402,3.138-3.135,3.138H4.135C2.402,47.765,1,46.359,1,44.627V15.371    
c0-1.732,1.402-3.136,3.135-3.136h51.73c1.732,0,3.135,1.403,3.135,3.136V44.627z"/>
<path d="M 42.193 41.959 L 42.193 18.554"/>
<path d="M 52.927 41.959 L 52.927 18.554"/>
<path d="M 25.774 18.554 L 25.774 41.959"/>
<path d="M 33.77 18.554 L 33.77 41.959"/>
<path d="M 46.637 18.554 L 46.637 41.959"/>
<path d="M 29.816 18.554 L 29.816 41.959"/>
<path d="M 16.361 18.554 L 16.361 41.959"/>
<path d="M 11.221 18.554 L 11.221 41.959"/>
<path d="M 7.869 41.959 L 7.869 18.554"/>
<path d="M 21.636 41.959 L 21.636 18.554"/>
<path d="M 37.887 18.554 L 37.887 41.959"/>
</svg>