<svg version="1.1" id="Layer_1" xmlns="http://www.w3.org/2000/svg" xmlns:xlink="http://www.w3.org/1999/xlink" x="0px" y="0px"
	 width="400px" height="400px" viewBox="0 0 60 60" style="enable-background:new 0 0 60 60;" xml:space="preserve">
<path d="M51.171,22.359v-6.184c0-3.932-3.187-7.117-7.12-7.117H15.948c-3.933,0-7.121,3.186-7.121,7.117v6.184"/>
<path d="M18.839,8.902V7.461c0-0.746,0.604-1.35,1.348-1.35h19.64c0.746,0,1.348,0.604,1.348,1.35v1.441"/>
<path d="M58.58,27c0.259-0.447,0.42-0.959,0.42-1.514c0-1.664-1.351-3.016-3.016-3.016H4.017
					C2.351,22.471,1,23.822,1,25.486c0,0.498,0.131,0.959,0.346,1.373l6.891,25.115c0.033,0.127,0.085,0.242,0.138,0.357
					c0.298,0.902,1.138,1.557,2.139,1.557h38.976c1.116,0,2.037-0.813,2.223-1.875c0.003-0.014,0.011-0.025,0.015-0.039L58.58,27z
					 M47.751,49.365h-7.672l1.271-9.494h9.007L47.751,49.365z M12.211,49.365l-2.604-9.494h9.105l1.271,9.494H12.211z
					 M17.188,28.502l1.119,8.354H8.78l-2.293-8.354H17.188z M53.477,28.502l-2.293,8.354h-9.427l1.119-8.354H53.477z"/>
<path d="M25.01,49.365l-1.004-9.494h12.066l-1.004,9.494H25.01z"/>
<path d="M23.688,36.855l-0.882-8.354h14.468l-0.884,8.354H23.688z"/>
</svg>