<svg version="1.1" id="Layer_1" xmlns="http://www.w3.org/2000/svg" xmlns:xlink="http://www.w3.org/1999/xlink" x="0px" y="0px"
	 width="400px" height="400px" viewBox="0 0 60 60" style="enable-background:new 0 0 60 60;" xml:space="preserve">
<path  d="M51.977,56.936c-0.014,0-0.024,0-0.039,0c-0.188-0.011-1.858-0.135-2.803-0.844c-0.936-0.701-1.561-2.066-1.63-2.24"/>
<path  d="M12.673,53.852c0,0-0.975,1.539-1.91,2.239c-0.943,0.708-2.615,0.833-2.802,0.845c-0.014,0-0.026,0-0.039,0"/>
<path  d="M57.74,38.031c0,0-3.329,15.816-7.756,15.818H9.912c-4.427,0-7.755-15.818-7.755-15.818"/>
<path  d="M57.512,38.018c1.092,0,1.488-0.539,1.488-1.205c0-0.664-0.396-1.205-1.488-1.205H2.488C1.397,35.607,1,36.146,1,36.812
			s0.397,1.205,1.488,1.205"/>
<path  d="M51.941,6.033c-0.082-0.029-5.221,0.958-5.221,0.958l4.495,4.492L51.941,6.033z"/>
<path  d="M49.458,13.953l-1.028,2.676"/>
<path  d="M46.376,20.331l-1.028,2.677"/>
<path  d="M44.068,26.354l-1.027,2.676"/>
<path  d="M44.555,9.26l-2.449,1.493"/>
<path  d="M38.434,12.45l-2.449,1.494"/>
<path  d="M31.986,16.56l-2.447,1.493"/>
<path  d="M40.354,15.621l-2.19,1.849"/>
<path  d="M35.301,19.974l-2.191,1.85"/>
<path  d="M46.818,11.892l-2.146,2.624"/>
<path  d="M43.104,17.993l-1.707,2.305"/>
<path  d="M39.157,23.454l-1.704,2.306"/>
<path  d="M56.68,35.471V3.064l-4.738,2.969"/>
</svg>