<svg version="1.1" id="Layer_1" xmlns="http://www.w3.org/2000/svg" xmlns:xlink="http://www.w3.org/1999/xlink" x="0px" y="0px"
	 width="400px" height="400px" viewBox="0 0 60 60" style="enable-background:new 0 0 60 60;" xml:space="preserve">
<path d="M54.604,19.885h2.262c1.178,0,2.135,0.956,2.135,2.137v15.956c0,1.181-0.957,2.137-2.135,2.137h-2.262"/>
<path d="M51.27,14.27H4.322C2.486,14.27,1,15.754,1,17.59v24.819c0,1.832,1.486,3.321,3.322,3.321H51.27
						c1.836,0,3.32-1.489,3.32-3.321V17.59C54.59,15.754,53.105,14.27,51.27,14.27z"/>
<path d="M 13.879 19.853 L 13.879 39.533"/>
<path d="M 27.09 19.853 L 27.09 39.533"/>
<path d="M 40.57 19.853 L 40.57 39.533"/>
</svg>