<svg version="1.1" id="Layer_1" xmlns="http://www.w3.org/2000/svg" xmlns:xlink="http://www.w3.org/1999/xlink" x="0px" y="0px"
	 width="400px" height="400px" viewBox="0 0 60 60" style="enable-background:new 0 0 60 60;" xml:space="preserve">
<path d="M11.285,17.39L9.103,49.306c0,0-1.097,4.314-1.097,4.541C8.006,56.9,17.126,59,27.403,59
					s19.398-2.1,19.398-5.154c0-0.226-1.083-4.279-1.083-4.279l-2.525-36.952c0-0.985-0.493-1.836-1.207-2.231"/>
<path d="M41.669,11.191"/>
<path d="M8.978,49.728c0,2.659,9.212,4.917,18.289,4.917c9.076,0,18.441-2.502,18.441-5.161"/>
<path d="M45.741,49.37c4.867-4.057,8.241-9.5,7.808-15.313c-0.62-8.317-2.846-13.527-9.934-15.356"/>
<path d="M14.036,15.47c2.503-0.374,8.089-1.121,13.374-1.121c7.05,0,15.988,1.555,15.988,1.555"/>
<path d="M7,8.957c0,0-1.851,4.289,1.023,7.401c2.874,3.114,5.814-0.765,7.474-2.492
					c7.383-7.679,26.506-3.353,26.506-3.353c0.369-3.623-0.444-7.788-6.673-8.982c-5.316-1.019-8.724,0.959-10.573,0.719
					c-1.847-0.241-6.781-1.914-9.75-0.959C10.183,2.848,7.82,7.042,7,8.957z"/>
<path d="M22.951,41.457c-0.961,0-1.744-0.784-1.744-1.746c0-0.961,0.783-1.743,1.744-1.743
				c0.963,0,1.746,0.782,1.746,1.743C24.697,40.673,23.914,41.457,22.951,41.457z"/>
<path d="M29.146,35.675c-0.911,0-1.652-0.743-1.652-1.656c0-0.911,0.741-1.654,1.652-1.654
				c0.912,0,1.654,0.743,1.654,1.654C30.8,34.933,30.058,35.675,29.146,35.675z"/>
<path d="M29.628,27.506c-1.25,0-2.266-1.016-2.266-2.267c0-1.248,1.016-2.266,2.266-2.266s2.267,1.018,2.267,2.266
				C31.895,26.49,30.878,27.506,29.628,27.506z"/>
</svg>