<svg version="1.1" id="Layer_1" xmlns="http://www.w3.org/2000/svg" xmlns:xlink="http://www.w3.org/1999/xlink" x="0px" y="0px"
	 width="400px" height="400px" viewBox="0 0 60 60" style="enable-background:new 0 0 60 60;" xml:space="preserve">
<path d="M6.292,30.492C3.118,32.441,1,35.945,1,39.943c0,6.119,4.96,11.08,11.078,11.08c4.744,0,8.805-3.062,10.388-7.256
					 M15.287,29.338c-1-0.293-2.122-0.475-3.209-0.475c-1.755,0-3.527,0.445-5.002,1.174 M22.508,36.188
					c-1.026-2.838-3.232-5.153-5.965-6.378"/>
<path d="M44.557,29.34C40,30.803,36.773,35,36.773,39.943c0,6.137,4.976,11.113,11.113,11.113C54.023,51.057,59,46.08,59,39.943
					c0-6.139-4.977-11.115-11.113-11.115c-0.715,0-1.412,0.068-2.088,0.197"/>
<path d="M18.941,25.279H4.87c-0.326,0-0.593,0.365-0.593,0.816 M21.11,14.957c2.305-0.268,4.085-1.064,4.01-1.813
					c-0.049-0.48-1.26-1.199-2.747-1.613c-0.364-0.121-0.789-0.207-1.254-0.256c-0.52-0.068-1.877,0.006-2.035,0.039
					c-2.175,0.285-3.82,1.271-3.719,2.266c0.102,1.012,1.969,1.652,4.204,1.467c0.072,0,0.149-0.006,0.225-0.006L21.11,14.957z
					 M43.178,11.467l-2.285,2.238c-0.012,0.008-0.019,0.02-0.029,0.027l-0.313,0.289c-0.067,0.063-0.014,0.234,0.118,0.42
					l0.991,3.793H20.925 M50.286,17.125l-0.938-2.275c0,0-0.441-0.795-0.604-0.77c0,0-10.045-5.141-10.107-5.137l-3.244,0.193
					 M41.658,18.234l5.604,21.439 M29.103,42.908c1.56-0.701,2.198-1.766,2.198-2.936c0-0.05-0.007-0.097-0.009-0.146
					 M43.043,23.539L31.292,39.828c0,0-0.386-1.508-1.12-2.133c-0.734-0.625-2.115-1.152-4.041-1.387l-2.769-0.156
					c-3.93,0-8.586,0.758-11.271,1.883l-2.06,1.098c-0.135,0.27-0.151,0.705-0.151,0.84c0,2.111,7.569,3.82,13.482,3.82
					c1.968,0,3.735-0.207,4.943-0.592"/>
<path d="M25.769,39.631l3.413,6.4"/>
<path d="M31.061,46.031h-3.755"/>
<path d="M20.91,21.664l3.851,14.529"/>
<path d="M12.091,38.035l8.819-16.371"/>
<path d="M4.277,26.096c0,0.307,5.979,12.619,5.979,12.619"/>
<path d="M20.91,21.664v-6.676"/>
</svg>