<svg version="1.1" id="Layer_1" xmlns="http://www.w3.org/2000/svg" xmlns:xlink="http://www.w3.org/1999/xlink" x="0px" y="0px"
	 width="400px" height="400px" viewBox="0 0 60 60" style="enable-background:new 0 0 60 60;" xml:space="preserve">
<path d="M36.292,14.768c9.397,2.724,16.271,11.395,16.271,21.671C52.562,48.896,42.458,59,30,59C17.539,59,7.438,48.896,7.438,36.438
				c0-9.911,6.391-18.329,15.275-21.357"/>
<path d="M28.247,9.48c0.026-1.708,0.197-3.27,1.271-4.346c0.799-0.801,1.962-1.188,3.56-1.188h7.474"/>
<path d="M36.301,16.818c0,1.874-13.583,1.874-13.583,0v-3.927c0-1.877,1.521-3.396,3.396-3.396h6.792c1.875,0,3.396,1.52,3.396,3.396
			L36.301,16.818L36.301,16.818z"/>
<path d="M45.634,1.797l-0.926,2.724l1.722,2.306l-2.875-0.035L41.893,9.14l-0.854-2.745l-2.747-0.857l2.35-1.66L40.604,1l2.307,1.721
				L45.634,1.797z"/>
<path d="M14.825,29.727c-0.759-2.274,2.199-5.957,5.24-6.972"/>
</svg>