<svg version="1.1" id="Layer_1" xmlns="http://www.w3.org/2000/svg" xmlns:xlink="http://www.w3.org/1999/xlink" x="0px" y="0px"
	 width="400px" height="400px" viewBox="0 0 60 60" style="enable-background:new 0 0 60 60;" xml:space="preserve">
<path d="M1,58.351V10.697c0-3.626,2.939-6.565,6.565-6.565h8.548"/>
<path d="M43.377,4.132h9.056c3.627,0,6.567,2.939,6.567,6.565v47.989"/>
<path d="M 16.095,1.31 L 16.095,37.705 29.739,28.006 43.384,37.705 43.384,20.221 43.386,20.212 43.386,1.313         z"/>
<path d="M24.567,22.633c-0.125,0-0.252-0.039-0.358-0.115c-0.187-0.138-0.281-0.368-0.241-0.597l0.935-5.444
				l-3.956-3.854c-0.166-0.161-0.225-0.403-0.153-0.624c0.073-0.22,0.262-0.382,0.492-0.414l5.464-0.796l2.445-4.951
				c0.205-0.414,0.886-0.414,1.091,0l2.444,4.951l5.467,0.796c0.229,0.032,0.42,0.194,0.491,0.414
				c0.07,0.221,0.011,0.463-0.154,0.624l-3.956,3.854l0.934,5.444c0.041,0.229-0.054,0.459-0.242,0.597
				c-0.187,0.135-0.435,0.153-0.641,0.044l-4.89-2.569l-4.887,2.569C24.761,22.608,24.665,22.633,24.567,22.633z"/>
<path d="M 45.919 4.136 L 43.386 1.313"/>
<path d="M 13.572 4.136 L 16.106 1.313"/>
</svg>