<svg version="1.1" id="Layer_1" xmlns="http://www.w3.org/2000/svg" xmlns:xlink="http://www.w3.org/1999/xlink" x="0px" y="0px"
	 width="400px" height="400px" viewBox="0 0 60 60" style="enable-background:new 0 0 60 60;" xml:space="preserve">
<path d="M30.094,58.288L1.105,46.034V14.39"/>
<path d="M59,14.39v31.644L30.013,58.288V26.64"/>
<path d="M58.975,14.39L29.986,1.712L1,14.39l28.986,12.254L58.975,14.39z"/>
<path d="M49.635,18.39l0.105,11.695l-9.758,4.029V22.458"/>
<path d="M30.063,9.325l-8.532-3.951"/>
<path d="M49.635,18.39l-10.14-4.729"/>
<path d="M30.163,17.917l9.819,4.541"/>
<path d="M12.192,9.53l8.567,4.033"/>
<path d="M10.359,18.421v22.127l9.757,4.027V22.448"/>
<path d="M10.359,18.421L38.568,5.515"/>
<path d="M48.102,9.624L20.116,22.448"/>
</svg>