<svg version="1.1" id="Layer_1" xmlns="http://www.w3.org/2000/svg" xmlns:xlink="http://www.w3.org/1999/xlink" x="0px" y="0px"
	 width="400px" height="400px" viewBox="0 0 60 60" style="enable-background:new 0 0 60 60;" xml:space="preserve">
<path d="M27.194,49.718H2.827c-1.317,0-2.39-1.071-2.39-2.388v-6.962c0-1.316,1.072-2.388,2.39-2.388h24.367
				c1.317,0,2.389,1.071,2.389,2.388v6.962C29.583,48.646,28.512,49.718,27.194,49.718z M2.827,39.48c-0.49,0-0.89,0.398-0.89,0.888
				v6.962c0,0.489,0.399,0.888,0.89,0.888h24.367c0.49,0,0.889-0.398,0.889-0.888v-6.962c0-0.489-0.398-0.888-0.889-0.888H2.827z"/>
<path d="M57.549,49.718H33.667c-1.317,0-2.389-1.071-2.389-2.388v-6.962c0-1.316,1.071-2.388,2.389-2.388h23.882
				c1.317,0,2.389,1.071,2.389,2.388v6.962C59.938,48.646,58.866,49.718,57.549,49.718z M33.667,39.48
				c-0.49,0-0.889,0.398-0.889,0.888v6.962c0,0.489,0.398,0.888,0.889,0.888h23.882c0.49,0,0.889-0.398,0.889-0.888v-6.962
				c0-0.489-0.398-0.888-0.889-0.888H33.667z"/>
<path d="M27.194,23.145H2.827c-1.317,0-2.39-1.071-2.39-2.388v-6.962c0-1.316,1.072-2.388,2.39-2.388h24.367
				c1.317,0,2.389,1.071,2.389,2.388v6.962C29.583,22.073,28.512,23.145,27.194,23.145z M2.827,12.907
				c-0.49,0-0.89,0.398-0.89,0.888v6.962c0,0.489,0.399,0.888,0.89,0.888h24.367c0.49,0,0.889-0.398,0.889-0.888v-6.962
				c0-0.489-0.398-0.888-0.889-0.888H2.827z"/>
<path d="M57.549,23.145H33.667c-1.317,0-2.389-1.071-2.389-2.388v-6.962c0-1.316,1.071-2.388,2.389-2.388h23.882
				c1.317,0,2.389,1.071,2.389,2.388v6.962C59.938,22.073,58.866,23.145,57.549,23.145z M33.667,12.907
				c-0.49,0-0.889,0.398-0.889,0.888v6.962c0,0.489,0.398,0.888,0.889,0.888h23.882c0.49,0,0.889-0.398,0.889-0.888v-6.962
				c0-0.489-0.398-0.888-0.889-0.888H33.667z"/>
<path d="M41.527,36.235H18.593c-1.316,0-2.387-1.071-2.387-2.388v-6.961c0-1.317,1.07-2.388,2.387-2.388h22.935
				c1.317,0,2.389,1.071,2.389,2.388v6.961C43.916,35.164,42.845,36.235,41.527,36.235z M18.593,25.998
				c-0.489,0-0.887,0.398-0.887,0.888v6.961c0,0.49,0.397,0.888,0.887,0.888h22.935c0.49,0,0.889-0.398,0.889-0.888v-6.961
				c0-0.49-0.398-0.888-0.889-0.888H18.593z"/>
<path d="M59.034,36.235h-10.92c-1.316,0-2.388-1.071-2.388-2.388v-6.961c0-1.317,1.071-2.388,2.388-2.388h10.92
				c0.414,0,0.75,0.336,0.75,0.75v10.237C59.784,35.899,59.448,36.235,59.034,36.235z M48.114,25.998
				c-0.489,0-0.888,0.398-0.888,0.888v6.961c0,0.49,0.398,0.888,0.888,0.888h10.17v-8.737H48.114z"/>
<path d="M12.301,36.235H1.21c-0.414,0-0.75-0.336-0.75-0.75V25.248c0-0.414,0.336-0.75,0.75-0.75h11.091
				c1.316,0,2.388,1.071,2.388,2.388v6.961C14.688,35.164,13.617,36.235,12.301,36.235z M1.96,34.735h10.341
				c0.489,0,0.888-0.398,0.888-0.888v-6.961c0-0.49-0.398-0.888-0.888-0.888H1.96V34.735z"/>
</svg>