<svg version="1.1" id="Layer_1" xmlns="http://www.w3.org/2000/svg" xmlns:xlink="http://www.w3.org/1999/xlink" x="0px" y="0px"
	 width="400px" height="400px" viewBox="0 0 60 60" style="enable-background:new 0 0 60 60;" xml:space="preserve">
<path class="st1" d="M58.998,29.618V19.392c0-4.052-3.991-3.873-3.991-3.873H4.791C0.861,15.52,1,19.392,1,19.392v10.043
					 M33.831,31.977h-7.744c0,0,0-0.865,0-1.936c0-1.068,0.868-1.937,1.936-1.937h3.873c1.069,0,1.936,0.868,1.936,1.937
					C33.831,31.112,33.831,31.977,33.831,31.977z M58.998,48.351V29.618c0,0-12.563,6.271-29.201,6.271
					C14.493,35.89,1,29.435,1,29.435v18.916c0,3.933,3.73,3.873,3.73,3.873h50.336C59.239,52.224,58.998,48.351,58.998,48.351z
					 M33.77,40.374c0,1.066-0.866,1.873-1.936,1.873h-3.873c-1.068,0-1.935-0.807-1.935-1.873c0-1.072,0-1.998,0-1.998l7.743,0
					V40.374z"/>
<path class="st1" d="M39.578,15.52v-3.931c0-3.993-3.75-3.812-3.75-3.812H24.091c-3.691,0-3.811,3.872-3.811,3.872v3.87H39.578z
			 M24.091,13.464c0-1.754,1.936-1.875,1.936-1.875h7.804c2.058,0,1.937,2.116,1.937,2.116l-0.06,1.814H24.091V13.464z"/>
</svg>