<svg version="1.1" id="Layer_1" xmlns="http://www.w3.org/2000/svg" xmlns:xlink="http://www.w3.org/1999/xlink" x="0px" y="0px"
	 width="400px" height="400px" viewBox="0 0 60 60" style="enable-background:new 0 0 60 60;" xml:space="preserve">
<path d="M25.652,15.593c-0.554-1.533-1.819-2.609-3.301-2.609H4.617C2.62,12.983,1,14.931,1,17.326v2.535v7.79v18.797
			c0,1.973,1.603,3.573,3.574,3.573h20.224"/>
<path d="M35.296,50.021h20.13c1.971,0,3.574-1.601,3.574-3.573V19.861c0-1.975-1.603-3.572-3.574-3.572H35.923"/>
<path d="M47.806,33.064c0-9.832-7.971-17.808-17.806-17.808s-17.811,7.976-17.811,17.808
			c0,9.836,7.976,17.811,17.811,17.811S47.806,42.9,47.806,33.064"/>
<path d="M40.546,33.064c0-5.77-4.677-10.443-10.445-10.443s-10.444,4.674-10.444,10.443s4.676,10.446,10.444,10.446
			S40.546,38.834,40.546,33.064"/>
<path d="M8.343,12.986v-2.773c0-0.601,0.486-1.088,1.087-1.088h7.122c0.6,0,1.086,0.487,1.086,1.088v2.773"/>
</svg>