<svg version="1.1" id="Layer_1" xmlns="http://www.w3.org/2000/svg" xmlns:xlink="http://www.w3.org/1999/xlink" x="0px" y="0px"
	 width="400px" height="400px" viewBox="0 0 60 60" style="enable-background:new 0 0 60 60;" xml:space="preserve">
<path d="M29.688,23.232"/>
<path d="M53.169,22.544h0.035c-0.009-0.186-0.03-0.367-0.065-0.543C53.155,22.181,53.169,22.361,53.169,22.544
			L53.169,22.544z"/>
<path d="M1.042,22.543c0-0.148,0.013-0.297,0.024-0.444c-0.043,0.247-0.072,0.502-0.065,0.767
			c0.019,0.689,0.041,9.108,0.041,9.742c0,6.762,11.668,12.242,26.064,12.242V34.785C12.71,34.785,1.042,29.305,1.042,22.543z"/>
<path d="M58.949,37.457c0-0.635,0.026-9.056,0.05-9.748c0.004-0.107-0.009-0.211-0.015-0.316h-0.035
			c0,6.76-11.669,12.241-26.063,12.241v10.064C47.281,49.698,58.949,44.218,58.949,37.457z"/>
<path d="M32.886,39.634c14.395,0,26.063-5.481,26.063-12.241H32.886V39.634z"/>
<path d="M53.139,22.001c-0.604-6.509-12.026-11.699-26.032-11.699c-14.079,0-25.542,5.242-26.04,11.797
			c-0.012,0.147-0.024,0.296-0.024,0.444c0,6.762,11.668,12.242,26.064,12.242V22.544h26.063v-0.001
			C53.169,22.361,53.155,22.181,53.139,22.001z"/>
</svg>