<svg version="1.1" id="Layer_1" xmlns="http://www.w3.org/2000/svg" xmlns:xlink="http://www.w3.org/1999/xlink" x="0px" y="0px"
	 width="400px" height="400px" viewBox="0 0 60 60" style="enable-background:new 0 0 60 60;" xml:space="preserve">
<path d="M33.081,41.674v11.643c0,3.769-1.918,5.685-5.687,5.685H8.063c-3.769,0-5.687-1.916-5.687-5.685V6.686
			C2.376,2.917,4.294,1,8.063,1h19.332c3.769,0,5.687,1.917,5.687,5.686v9.208"/>
<path d="M18.147,55.922h-0.671c-0.152,0-0.294-0.059-0.4-0.168c-0.107-0.107-0.167-0.25-0.164-0.402v-0.668
		c0-0.311,0.253-0.562,0.564-0.562h0.671c0.154,0,0.295,0.057,0.401,0.163s0.164,0.25,0.163,0.401v0.666
		C18.712,55.668,18.458,55.922,18.147,55.922z"/>
<path d="M14.79,4.6h5.876"/>
<path d="M3.797,8.249h27.721"/>
<path d="M31.518,50.611H3.797"/>
<path d="M39.773,15.208c-9.857,0-17.851,6.083-17.851,13.581c0,2.495,0.9,4.822,2.439,6.83l-2.382,8.004l9.938-2.65
		c2.373,0.885,5.032,1.397,7.854,1.397c9.859,0,17.851-6.08,17.851-13.581C57.624,21.291,49.634,15.208,39.773,15.208z"/>
<path d="M33.785,28.105c0.409,0,0.74,0.332,0.74,0.741c0,0.409-0.331,0.741-0.74,0.741s-0.741-0.332-0.741-0.741
			C33.044,28.437,33.376,28.105,33.785,28.105z"/>
<path d="M39.826,28.105c0.409,0,0.74,0.332,0.74,0.741c0,0.409-0.331,0.741-0.74,0.741s-0.741-0.332-0.741-0.741
			C39.085,28.437,39.417,28.105,39.826,28.105z"/>
<path d="M45.698,28.105c0.409,0,0.741,0.332,0.741,0.741c0,0.409-0.332,0.741-0.741,0.741s-0.741-0.332-0.741-0.741
		C44.957,28.437,45.289,28.105,45.698,28.105z"/>
</svg>