<svg version="1.1" id="Layer_1" xmlns="http://www.w3.org/2000/svg" xmlns:xlink="http://www.w3.org/1999/xlink" x="0px" y="0px"
	 width="400px" height="400px" viewBox="0 0 60 60" style="enable-background:new 0 0 60 60;" xml:space="preserve">
<path d="M24.762,20.41c-0.921-0.219-1.877-0.334-2.857-0.334c-6.167,0-11.353,4.586-12.938,10.83
		C4.43,31.859,1,36.25,1,41.531c0,5.979,4.391,10.822,9.808,10.822c0.604,0,1.192-0.066,1.767-0.184
		c0.221,0.037,0.447,0.064,0.68,0.064h37.379c0.486,0,0.955-0.088,1.395-0.242C55.922,51.701,59,48.135,59,43.766
		c0-4.561-3.349-8.256-7.48-8.256c-0.836,0-1.637,0.158-2.386,0.439c-0.834-5.801-5.382-10.23-10.872-10.23
		c-1.787,0-3.473,0.473-4.966,1.307"/>
<path d="M39.114,34.992c-2.615,2.617-9.77,8.623-9.77,8.623s-7.152-6.027-9.768-8.643"/>
<path d="M29.344,43.615V7.646"/>
</svg>