<svg version="1.1" id="Layer_1" xmlns="http://www.w3.org/2000/svg" xmlns:xlink="http://www.w3.org/1999/xlink" x="0px" y="0px"
	 width="400px" height="400px" viewBox="0 0 60 60" style="enable-background:new 0 0 60 60;" xml:space="preserve">
<path d="M43.12,29.532c0,0,0.13-4.091,0.13-4.674c0-6.209-5.035-11.242-11.243-11.242c-4.013,0-7.532,2.104-9.521,5.266
				c-1.247-0.632-2.657-0.991-4.151-0.991c-4.588,0-8.39,3.358-9.087,7.749c-0.625-0.211-1.296-0.33-1.993-0.33
				C3.801,25.311,1,28.11,1,31.565c0,3.309,2.573,6.011,5.827,6.231c0.368,0.12,0.76,0.184,1.166,0.184h10.488"/>
<path d="M53.766,35.704c-0.583,0-1.144,0.101-1.668,0.276c-0.583-3.675-3.765-6.486-7.605-6.486c-1.25,0-2.429,0.301-3.473,0.829
				c-1.666-2.646-4.61-4.407-7.968-4.407c-4.316,0-7.943,2.909-9.055,6.87c-3.172,0.604-5.571,3.388-5.571,6.736
				c0,3.789,3.071,6.862,6.86,6.862c0.423,0,0.834-0.042,1.236-0.116c0.156,0.023,0.313,0.039,0.476,0.039h26.15
				c0.34,0,0.667-0.053,0.976-0.154C56.846,45.969,59,43.708,59,40.938C59,38.048,56.657,35.704,53.766,35.704z"/>
</svg>