<svg version="1.1" id="Layer_1" xmlns="http://www.w3.org/2000/svg" xmlns:xlink="http://www.w3.org/1999/xlink" x="0px" y="0px"
	 width="400px" height="400px" viewBox="0 0 60 60" style="enable-background:new 0 0 60 60;" xml:space="preserve">
<path d="M51.52,29.296c-0.837,0-1.638,0.157-2.387,0.438c-0.831-5.798-5.382-10.23-10.87-10.23
		c-1.786,0-3.475,0.474-4.968,1.306c-2.376-4.173-6.59-6.949-11.388-6.949c-6.17,0-11.354,4.59-12.941,10.834
		C4.43,25.646,1,30.037,1,35.317c0,5.977,4.392,10.823,9.808,10.823c0.603,0,1.193-0.068,1.767-0.186
		c0.221,0.038,0.448,0.064,0.68,0.064h37.38c0.488,0,0.958-0.085,1.396-0.245C55.922,45.486,59,41.92,59,37.552
		C59,32.989,55.653,29.296,51.52,29.296z"/>
</svg>