<svg version="1.1" id="Layer_1" xmlns="http://www.w3.org/2000/svg" xmlns:xlink="http://www.w3.org/1999/xlink" x="0px" y="0px"
	 width="400px" height="400px" viewBox="0 0 60 60" style="enable-background:new 0 0 60 60;" xml:space="preserve">
<path d="M9.611,31.885C8.6,29.524,8.04,26.924,8.04,24.193c0-10.798,8.752-19.552,19.551-19.552
			c10.797,0,19.549,8.754,19.549,19.552c0,1.703-0.218,3.354-0.626,4.93"/>
<path d="M18.616,47.446c1.145,0.71,2.469,1.268,3.912,1.636c1.609,3.622,6.021,6.276,11.38,6.276
			c4.864,0,8.984-2.179,10.931-5.269c1.25,0.417,2.615,0.664,4.07,0.664c5.571,0,10.091-3.39,10.091-7.578
			c0-1.72-0.902-3.231-2.192-4.505c0.041-0.298,0.235-0.554,0.235-0.862c0-4.708-5.092-8.527-11.375-8.527
			c-0.822,0-1.554,0.229-2.33,0.354c-1.883-2.503-5.319-4.264-9.43-4.264c-5.32,0-9.548,2.895-10.548,6.667
			c-1.756,0.349-3.366,0.97-4.726,1.802"/>
<path d="M26.818,39.592c0.024-0.181,0.142-0.336,0.142-0.523c0-2.86-3.093-5.18-6.911-5.18
			c-0.5,0-0.943,0.139-1.415,0.214c-1.144-1.52-3.23-2.59-5.728-2.59c-3.232,0-5.801,1.758-6.408,4.05
			C3.365,36.187,1,38.23,1,40.779c0,2.413,2.108,4.4,4.993,5.137c0.978,2.199,3.658,3.813,6.914,3.813
			c2.954,0,5.458-1.323,6.639-3.2c0.76,0.253,1.589,0.404,2.473,0.404c3.383,0,6.13-2.062,6.13-4.604
			C28.149,41.283,27.601,40.365,26.818,39.592z"/>
</svg>