<svg version="1.1" id="Layer_1" xmlns="http://www.w3.org/2000/svg" xmlns:xlink="http://www.w3.org/1999/xlink" x="0px" y="0px"
	 width="400px" height="400px" viewBox="0 0 60 60" style="enable-background:new 0 0 60 60;" xml:space="preserve">
<path d="M37.449,5.578C32.368,3.42,28.165,1,26.321,1c-1.896,0-3.434,1.424-3.434,3.183c0,0.313,5.218,31.829,5.218,31.829"/>
<path d="M29.815,38.92c1.152-0.97,15.531-16.21,15.531-19.094c0-2.047-1.941-2.288-4.335-2.288H15.575c-2.394,0-4.335,0.241-4.335,2.288
				c0,2.884,14.379,18.124,15.531,19.094H29.815z"/>
<path d="M45.188,20.454l2.698,1.404c2.01-4.033,0.438-8.95-3.571-11.056c-4.009-2.105-8.949-0.609-11.13,3.333l6.355,3.416"/>
<path d="M28.246,39.014V59"/>
<path d="M20.646,59h15.202"/>
</svg>