<svg version="1.1" id="Layer_1" xmlns="http://www.w3.org/2000/svg" xmlns:xlink="http://www.w3.org/1999/xlink" x="0px" y="0px"
	 width="400px" height="400px" viewBox="0 0 60 60" style="enable-background:new 0 0 60 60;" xml:space="preserve">
<path d="M14.21,27.366L8.35,30.66l5.86,3.296c0.81,0.455,1.216,1.274,1.216,2.458c0,0.752-0.176,1.41-0.525,1.973
						c-0.352,0.565-0.785,0.848-1.301,0.848c-0.24,0-0.481-0.065-0.721-0.201L2.494,33.195C1.498,32.633,1,31.786,1,30.66
						s0.498-1.973,1.494-2.536l10.385-5.837c0.239-0.133,0.48-0.2,0.721-0.2c0.516,0,0.949,0.281,1.301,0.845
						c0.35,0.565,0.525,1.223,0.525,1.977C15.426,26.09,15.02,26.909,14.21,27.366z"/>
<path d="M44.573,24.908c0-0.754,0.176-1.411,0.526-1.977c0.35-0.563,0.785-0.845,1.301-0.845c0.24,0,0.481,0.067,0.721,0.2
						l10.383,5.837C58.502,28.688,59,29.534,59,30.66s-0.498,1.973-1.496,2.535l-10.383,5.838c-0.239,0.136-0.48,0.201-0.721,0.201
						c-0.516,0-0.951-0.282-1.301-0.848c-0.351-0.563-0.526-1.221-0.526-1.973c0-1.184,0.405-2.003,1.217-2.458l5.86-3.296
						l-5.86-3.294C44.979,26.909,44.573,26.09,44.573,24.908z"/>
<path d="M30.783,42.312c-0.526,1.146-1.883,1.648-3.028,1.122l0,0c-1.146-0.526-1.649-1.882-1.121-3.027l10.433-22.718
					c0.523-1.146,1.88-1.648,3.026-1.122l0,0c1.146,0.526,1.648,1.883,1.122,3.027L30.783,42.312z"/>
</svg>