<svg version="1.1" id="Layer_1" xmlns="http://www.w3.org/2000/svg" xmlns:xlink="http://www.w3.org/1999/xlink" x="0px" y="0px"
	 width="400px" height="400px" viewBox="0 0 60 60" style="enable-background:new 0 0 60 60;" xml:space="preserve">
<path d="M35.188,30.648c-0.181,0,5.315-1.934,5.78-4.877c0.542-3.431-2.529-7.044-4.877-9.392
						c-5.998-5.996-2.709-10.115-2.709-10.115"/>
<path d="M30.311,30.106c4.711-7.654-0.717-10.46-5.133-15.366C18.719,7.564,30.672,1,30.672,1"/>
<path d="M23.361,29.964c1.326-6.854-2.272-8.835-6.826-11.19c-6.658-3.446,0.23-11.49,0.23-11.49"/>
<path d="M38.934,54.328c2.487-1.31,4.188-3.194,5.351-5.34c4.023-0.526,6.473-3.677,6.473-7.497
						c0-2.944-1.052-6.665-3.971-7.631H13.215c0,5.509-0.37,16.128,7.843,20.461"/>
<path d="M52.742,54.318C52.742,57.919,38.304,59,29.82,59c-6.86,0-22.562-1.441-22.562-4.682H52.742z"/>
<path d="M 46.183 37.807 L 44.716 44.694"/>
</svg>