<svg version="1.1" id="Layer_1" xmlns="http://www.w3.org/2000/svg" xmlns:xlink="http://www.w3.org/1999/xlink" x="0px" y="0px"
	 width="400px" height="400px" viewBox="0 0 60 60" style="enable-background:new 0 0 60 60;" xml:space="preserve">
<path d="M58.996,25.993c0.027,1.286-0.09,2.655-0.09,4.074c0,7.501-12.947,13.583-28.92,13.583c-15.971,0-28.917-6.082-28.917-13.583
			c0-1.295-0.086-2.547-0.065-3.733"/>
<path d="M29.987,11.051c15.972,0,28.919,6.081,28.919,13.582c0,7.502-12.947,13.582-28.919,13.582c-15.971,0-28.919-6.08-28.919-13.582
			C1.068,17.132,14.016,11.051,29.987,11.051z"/>
<path d="M16.709,42.115l-0.046-5.389"/>
<path d="M40.409,19.533c0,1.016-2.199,1.738-2.329,1.648c-1.639-0.994-4.439-1.738-7.286-1.738c-2.889,0-4.657,0.677-4.657,1.692
		c0,1.171,2.372,1.488,5.691,1.873c3.968,0.451,9.186,1.285,9.186,4.24c0,2.279-3.02,3.857-8.063,4.264v0.879
		c0,1.036-0.777,1.533-2.5,1.533h-0.216c-1.81,0-2.459-0.474-2.459-1.533v-0.836c-5.216-0.293-8.191-1.531-8.191-2.796
		c0-0.969,2.07-1.668,2.243-1.578c1.638,1.038,4.828,1.895,8.191,1.895c3.063,0,4.83-0.677,4.83-1.694
		c0-1.239-2.673-1.577-5.82-1.962c-3.794-0.428-8.796-1.217-8.796-4.195c0-2.165,2.932-3.722,7.589-4.172v-0.834
		c0-1.038,0.733-1.535,2.458-1.535h0.258c1.77,0,2.459,0.475,2.459,1.535v0.766C37.779,17.255,40.409,18.383,40.409,19.533z"/>
</svg>