<svg version="1.1" id="Layer_1" xmlns="http://www.w3.org/2000/svg" xmlns:xlink="http://www.w3.org/1999/xlink" x="0px" y="0px"
	 width="400px" height="400px" viewBox="0 0 60 60" style="enable-background:new 0 0 60 60;" xml:space="preserve">
<path d="M50.413,15.265c5.088,2.022,8.08,6.885,8.08,14.238c0,15.708-12.87,28.44-28.747,28.44
							C13.871,57.943,1,45.212,1,29.503c0-13.35,6.854-21.22,18.771-22.403c7.665-0.763,7.122,8.888,10.587,9.295
							c5.206,0.612,5.956-1.418,11.35-2.038c0.298-0.034,0.593-0.063,0.886-0.086"/>
<path d="M8.543,21.697a5.301,4.689 0 1,0 10.602,0a5.301,4.689 0 1,0 -10.602,0"/>
<path d="M53.795,24.335c1.243,1.552,0.284,4.587-2.175,4.878c-2.165,0.258-4.489,0.187-5.058-1.718
							c-1.025-3.431,0.177-4.005,2.175-4.878C50.735,21.745,52.502,22.721,53.795,24.335z"/>
<path d="M52.184,36.813c0.824,1.81-0.853,4.516-3.308,4.195c-2.161-0.283-4.396-0.923-4.48-2.91
							c-0.15-3.576,1.157-3.837,3.307-4.193C49.853,33.55,51.326,34.931,52.184,36.813z"/>
<path d="M43.121,47.862c-0.421,1.942-3.383,3.111-5.159,1.384c-1.563-1.519-2.974-3.367-1.853-5.011
							c2.019-2.956,3.223-2.385,5.159-1.383C43.204,43.853,43.56,45.84,43.121,47.862z"/>
<path d="M30.559,50.895c-0.823,1.811-3.964,2.328-5.335,0.267c-1.208-1.815-2.196-3.92-0.753-5.29
							c2.595-2.464,3.652-1.652,5.333-0.265C31.485,46.995,31.414,49.012,30.559,50.895z"/>
<path d="M33.998,22.571c3.519-2.939,3.753-1.186,4.798-0.142c1.025,1.025,2.698,1.253-0.142,4.797
						c-2.826,3.527-10.939,6.283-10.939,6.283S30.532,25.466,33.998,22.571z"/>
<path d="M38.378,22.654"/>
<path d="M 40.184 23.921 L 59 7.896"/>
<path d="M 53.12 2.057 L 37.01 20.928"/>
<path d="M 54.354 11.813 L 49.185 6.662"/>
</svg>