<svg version="1.1" id="Layer_1" xmlns="http://www.w3.org/2000/svg" xmlns:xlink="http://www.w3.org/1999/xlink" x="0px" y="0px"
	 width="400px" height="400px" viewBox="0 0 60 60" style="enable-background:new 0 0 60 60;" xml:space="preserve">
<path d="M30,59.75c-0.263,0-0.523-0.068-0.753-0.196L2.855,44.773c-0.487-0.274-0.789-0.789-0.789-1.345
			s0.301-1.072,0.786-1.347l13.034-7.299c0.363-0.201,0.819-0.073,1.021,0.288c0.203,0.362,0.074,0.819-0.288,1.021L3.588,43.389
			l26.39,14.855l26.433-14.78l-13.09-7.473c-0.36-0.204-0.488-0.661-0.284-1.022c0.203-0.36,0.661-0.489,1.022-0.284l13.088,7.396
			c0.485,0.276,0.786,0.792,0.786,1.347c0,0.555-0.301,1.07-0.787,1.344L30.753,59.553C30.526,59.682,30.265,59.75,30,59.75z"/>
<path d="M30.301,51.545c-9.517,0-16.695-6.892-16.996-7.185c-0.364-0.352-0.496-0.894-0.333-1.379L27.18,1.02
			c0.067-0.199,0.216-0.361,0.408-0.446c0.123-0.054,0.82-0.324,2.46-0.324c1.634,0,2.355,0.267,2.483,0.321
			c0.199,0.083,0.353,0.249,0.421,0.454l14.074,41.958c0.157,0.463,0.046,0.975-0.291,1.334
			C46.456,44.614,39.808,51.545,30.301,51.545z M14.428,43.358c0.825,0.779,7.364,6.687,15.873,6.687
			c8.471,0,14.521-5.913,15.272-6.682L31.659,1.881c-0.293-0.059-0.816-0.131-1.61-0.131c-0.782,0-1.289,0.069-1.575,0.127
			L14.428,43.358z"/>
<path d="M30.282,37.167c-6.851,0-11.89-3.438-13.271-4.492c-0.329-0.251-0.393-0.722-0.141-1.051
				c0.25-0.329,0.721-0.392,1.051-0.141c1.287,0.981,5.98,4.184,12.361,4.184c6.102,0,10.314-2.851,11.842-4.077
				c0.323-0.258,0.796-0.207,1.054,0.116c0.259,0.323,0.208,0.795-0.116,1.054C41.411,34.085,36.859,37.167,30.282,37.167z"/>
<path d="M30.301,32.003c-3.92,0-7.898-1.146-11.822-3.406c-0.359-0.207-0.482-0.666-0.275-1.024
				c0.207-0.36,0.665-0.482,1.024-0.275c7.296,4.202,14.666,4.259,21.628,0.14c0.357-0.209,0.816-0.093,1.027,0.264
				c0.211,0.356,0.093,0.816-0.264,1.027C37.947,30.901,34.139,32.003,30.301,32.003z"/>
<path d="M30.26,18.417c-2.73,0-5.386-0.643-7.682-1.86c-0.366-0.194-0.505-0.648-0.311-1.014
				c0.195-0.366,0.648-0.504,1.014-0.311c2.079,1.103,4.492,1.686,6.979,1.686c2.432,0,4.645-0.52,6.579-1.544
				c0.366-0.194,0.82-0.055,1.014,0.312c0.194,0.366,0.055,0.82-0.312,1.014C35.389,17.839,32.939,18.417,30.26,18.417z"/>
<path d="M30.301,14.399c-2.13,0-4.314-0.349-6.491-1.039c-0.395-0.125-0.614-0.546-0.489-0.941
				c0.125-0.395,0.544-0.614,0.941-0.489c3.936,1.246,7.796,1.286,11.619,0.115c0.397-0.122,0.815,0.102,0.937,0.498
				c0.121,0.396-0.102,0.815-0.498,0.937C34.327,14.09,32.302,14.399,30.301,14.399z"/>
</svg>