<svg version="1.1" id="Layer_1" xmlns="http://www.w3.org/2000/svg" xmlns:xlink="http://www.w3.org/1999/xlink" x="0px" y="0px"
	 width="400px" height="400px" viewBox="0 0 60 60" style="enable-background:new 0 0 60 60;" xml:space="preserve">
<path d="M17.747,37.635H3.397C2.073,37.635,1,36.562,1,35.24V13.369c0-1.322,1.073-2.396,2.397-2.396h36.449
				c1.323,0,2.396,1.073,2.396,2.396v8.962"/>
<path d="M1,15.214h41.242"/>
<path d="M42.242,19.485H1"/>
<path d="M17.747,26.846H4.984"/>
<path d="M59,46.63c0,1.323-1.073,2.396-2.396,2.396h-36.45c-1.323,0-2.396-1.072-2.396-2.396V24.76c0-1.323,1.073-2.396,2.396-2.396h36.45
			c1.323,0,2.396,1.073,2.396,2.396V46.63z"/>
<path d="M21.568,25.958h7.415v5.204h-7.415V25.958z"/>
<path d="M27.09,42.782h-5.54"/>
<path d="M36.311,42.782h-5.539"/>
<path d="M45.791,42.782h-5.539"/>
<path d="M55.217,42.785h-5.552"/>
<path d="M51.21,26.601c-0.87,0-1.662,0.332-2.258,0.872c-0.567-0.479-1.3-0.768-2.101-0.768c-1.797,0-3.254,1.457-3.254,3.254
			s1.457,3.253,3.254,3.253c0.801,0,1.532-0.29,2.101-0.767c0.596,0.541,1.388,0.871,2.258,0.871c1.853,0,3.356-1.502,3.356-3.356
			C54.566,28.104,53.062,26.601,51.21,26.601z"/>
</svg>