<svg version="1.1" id="Layer_1" xmlns="http://www.w3.org/2000/svg" xmlns:xlink="http://www.w3.org/1999/xlink" x="0px" y="0px"
	 width="400px" height="400px" viewBox="0 0 60 60" style="enable-background:new 0 0 60 60;" xml:space="preserve">
<path d="M5.679,14.986c2.584,0,4.679,2.095,4.679,4.679s-2.095,4.679-4.679,4.679C3.095,24.344,1,22.249,1,19.665S3.095,14.986,5.679,14.986
	z"/>
<path d="M30.411,9.795c2.584,0,4.679,2.095,4.679,4.679c0,2.584-2.095,4.679-4.679,4.679c-2.584,0-4.679-2.095-4.679-4.679
		C25.732,11.89,27.827,9.795,30.411,9.795z"/>
<path d="M54.32,14.883c2.585,0,4.68,2.095,4.68,4.679s-2.095,4.679-4.68,4.679c-2.584,0-4.678-2.095-4.678-4.679
		S51.736,14.883,54.32,14.883z"/>
<path d="M5.205,24.263c0.051,0.135,0.113,0.268,0.186,0.396L11.086,35.3l4.297,11.207c0,2.043,1.658,3.699,3.701,3.699h21.932
	c2.047,0,3.703-1.656,3.703-3.699L49.016,35.3l5.695-10.641c0.074-0.137,0.139-0.275,0.193-0.416"/>
<path d="M26.916,17.585c-6.553,7.049-14.424,3.789-16.561,2.699"/>
<path d="M49.643,20.358c-0.078,0.061-0.154,0.127-0.227,0.193c-2.6,1.424-9.371,4.014-15.438-3.164"/>
<path d="M30.41,29.757v13.632"/>
<path d="M38.617,30.878L34.758,43.95"/>
<path d="M22.439,31.021l3.86,13.071"/>
</svg>