<svg version="1.1" id="Layer_1" xmlns="http://www.w3.org/2000/svg" xmlns:xlink="http://www.w3.org/1999/xlink" x="0px" y="0px"
	 width="400px" height="400px" viewBox="0 0 60 60" style="enable-background:new 0 0 60 60;" xml:space="preserve">
<path d="M50.125,30.822l-3.794,24.73c0,1.574-1.483,2.852-3.315,2.852H17.744c-1.83,0-3.314-1.276-3.314-2.852L10.652,30.92"/>
<path d="M59,19.894c0-5.622-5.298-10.181-11.834-10.181c-0.773,0-1.529,0.066-2.264,0.188C42.35,5.006,36.641,1.595,30,1.595
				c-6.64,0-12.35,3.411-14.901,8.306c-0.734-0.122-1.49-0.188-2.264-0.188C6.298,9.713,1,14.271,1,19.894
				c0,0.203,0.022,0.401,0.035,0.6C1.022,20.693,1,20.891,1,21.094c0,5.622,5.298,10.182,11.834,10.182
				c3.129,0,5.968-1.052,8.083-2.759c2.597,1.498,5.72,2.373,9.082,2.373c3.362,0,6.485-0.875,9.082-2.373
				c2.116,1.707,4.954,2.759,8.083,2.759c6.536,0,11.834-4.56,11.834-10.182c0-0.203-0.021-0.4-0.035-0.601
				C58.979,20.295,59,20.097,59,19.894z"/>
<path d="M30.431,53.052v-12.67"/>
<path d="M35.995,53.02l1.296-12.604"/>
<path d="M24.663,53.02l-1.296-12.604"/>
</svg>