<svg version="1.1" id="Layer_1" xmlns="http://www.w3.org/2000/svg" xmlns:xlink="http://www.w3.org/1999/xlink" x="0px" y="0px"
	 width="400px" height="400px" viewBox="0 0 60 60" style="enable-background:new 0 0 60 60;" xml:space="preserve">
<path d="M54.668,31.348c-3.713-3.715-8.911-5.036-13.686-3.973c2.454-2.64,3.956-6.176,3.956-10.063
			c0-6.397-4.061-11.844-9.746-13.905c3.924,1.881,6.632,5.891,6.632,10.533c0,6.446-5.226,11.675-11.674,11.675
			c-6.447,0-11.675-5.229-11.675-11.675c0-4.643,2.711-8.652,6.635-10.533c-5.685,2.061-9.748,7.508-9.748,13.905
			c0,3.934,1.539,7.504,4.043,10.152c-4.879-1.226-10.26,0.068-14.074,3.884c-4.525,4.523-5.504,11.245-2.941,16.724
			c-1.444-4.104-0.527-8.856,2.756-12.139c4.56-4.56,11.952-4.56,16.511,0c4.559,4.561,4.559,11.952,0,16.511
			c-3.283,3.283-8.034,4.202-12.14,2.758c5.478,2.563,12.202,1.581,16.726-2.94c1.837-1.84,3.087-4.039,3.756-6.374
			c0.668,2.335,1.918,4.536,3.756,6.374c4.523,4.521,11.248,5.501,16.723,2.94c-4.104,1.442-8.855,0.525-12.137-2.758
			c-4.559-4.559-4.559-11.95,0-16.511c4.559-4.56,11.951-4.56,16.511,0c3.284,3.282,4.202,8.034,2.757,12.139
			C60.172,42.595,59.193,35.872,54.668,31.348z"/>
<path d="M40.982,27.375c0.021-0.005,0.042-0.008,0.062-0.013c-0.006-0.011-0.013-0.021-0.02-0.034
				C41.012,27.343,40.997,27.359,40.982,27.375z"/>
<path d="M14.309,32.553c-0.017,0.293-0.026,0.59-0.026,0.888c0,6.72,4.167,12.483,10.051,14.849"/>
<path d="M39.763,20.564c-2.656-1.962-5.935-3.122-9.482-3.122c-3.622,0-6.965,1.212-9.65,3.248"/>
<path d="M35.74,48.479c6.141-2.236,10.541-8.135,10.541-15.039c0-0.309-0.012-0.614-0.029-0.918"/>
<path d="M24.271,33.311a5.491,5.491 0 1,0 10.982,0a5.491,5.491 0 1,0 -10.982,0" />
</svg>