<svg version="1.1" id="Layer_1" xmlns="http://www.w3.org/2000/svg" xmlns:xlink="http://www.w3.org/1999/xlink" x="0px" y="0px"
	 width="400px" height="400px" viewBox="0 0 60 60" style="enable-background:new 0 0 60 60;" xml:space="preserve">
<path d="M33.09,22.095c0,0.749-0.608,1.357-1.357,1.357h-20.02c-0.749,0-1.356-0.608-1.356-1.357V8.692         c0-0.75,0.608-1.357,1.356-1.357h20.02c0.749,0,1.357,0.607,1.357,1.357V22.095z" />
<path d= "M 33.09 19.736 L 10.356 19.736" />
<path d= "M33.09,22.095c0,0.749-0.608,1.357-1.357,1.357h-20.02c-0.749,0-1.356-0.608-1.356-1.357V8.692          c0-0.75,0.608-1.357,1.356-1.357h20.02c0.749,0,1.357,0.607,1.357,1.357V22.095z" />
<path d= "M 53.248,35.89 L 34.818,35.896 34.818,31.105     " />
<path d= "M56.754,26.65c1.239,0,2.246,1.006,2.246,2.246s-1.007,2.245-2.246,2.245h-0.072v19.793      c0,0.955-0.774,1.731-1.731,1.731c-0.954,0-1.729-0.776-1.729-1.731V31.141H7.091v19.793c0,0.955-0.776,1.731-1.73,1.731      c-0.957,0-1.731-0.776-1.731-1.731V31.141H3.245C2.005,31.141,1,30.136,1,28.896s1.005-2.246,2.245-2.246H56.754z" />
<path d= "M45.231,15.508l-0.454,3.757c0,0.051-0.02,0.102-0.058,0.142c-0.078,0.077-0.202,0.079-0.281,0.001      c0,0,0-0.001-0.001-0.001l-3.938-3.884c-0.056-0.055-0.075-0.134-0.049-0.207c0.025-0.072,0.089-0.124,0.166-0.133l3.956-0.445      L45.231,15.508z" />
<path d= "M 21.563 23.607 L 21.563 26.498" />
<path d= "M44.915,15.122c0,0,5.093-1.54,5.093,5.029v6.347" />
</svg>