<svg version="1.1" id="Layer_1" xmlns="http://www.w3.org/2000/svg" xmlns:xlink="http://www.w3.org/1999/xlink" x="0px" y="0px"
	 width="400px" height="400px" viewBox="0 0 60 60" style="enable-background:new 0 0 60 60;" xml:space="preserve">
<path d= "M32.717,42.4l-0.024,3.597l1.942,3.383c0,0.458-0.373,0.353-0.832,0.353H20.584c-0.461,0-0.832,0.105-0.832-0.353l1.943-3.401       l-0.024-3.545" />
<path d= "M37.592,42.388H4.128C2.4,42.388,1,40.987,1,39.262V8.377c0-1.726,1.4-3.126,3.128-3.126h46.13c1.727,0,3.127,1.4,3.127,3.126        v5.828" />
<path d= "M1,35.502h20.16h16.376" />
<path d= "M59,50.785c0,2.629-1.337,3.964-3.965,3.964H41.557c-2.627,0-3.965-1.335-3.965-3.964V18.277c0-2.625,1.338-3.961,3.965-3.961      h13.479c2.628,0,3.965,1.336,3.965,3.961V50.785z" />
<path d= "M 57.91 48.902 L 38.584 48.902" />
<path d= "M 38.584 19.369 L 57.91 19.369" />
</svg>