<svg version="1.1" id="Layer_1" xmlns="http://www.w3.org/2000/svg" xmlns:xlink="http://www.w3.org/1999/xlink" x="0px" y="0px"
	 width="400px" height="400px" viewBox="0 0 60 60" style="enable-background:new 0 0 60 60;" xml:space="preserve">
<path d="M20.603,20.994c-0.169,0.026-0.317,0.067-0.485,0.098l-2.791-5.703l-8.275,0.947
		l3.373,6.937c-17.448,7.249-9.718,24.338-9.718,24.338l26.624-7.708l-7.315-14.938c13.13-3.796,24.092,3.964,24.092,3.964
		l-9.036,2.456l-2.603-4.862c-2.448-0.456-5.235-0.595-8.204-0.098l6.152,12.577L59,31.301C59,31.301,49.359,16.07,20.603,20.994z
		 M9.91,38.758c0,0-2.565-5.697,4.9-10.576l3.969,8.171L9.91,38.758z"/>
</svg>