<svg version="1.1" id="Layer_1" xmlns="http://www.w3.org/2000/svg" xmlns:xlink="http://www.w3.org/1999/xlink" x="0px" y="0px"
	 width="400px" height="400px" viewBox="0 0 60 60" style="enable-background:new 0 0 60 60;" xml:space="preserve">
<path d= "M 29.976 54.056 L 59 19.612" />
<path d= "M 49.886 21.452 L 29.976 54.154" />
<path d= "       M29.976,54.154" />
<path d= "       M29.976,54.154" />
<path d= "M 48.04 10.747 L 58.991 19.604" />
<path d= "        M30.209,25.475" />
<path d= "      M48.043,10.74c0,0-4.962-2.532-9.6-4.353h-8.445" />
<path d= "M 29.998 14.328 L 29.998 54.154" />
<path d= "M 49.886 21.452 L 48.043 10.749" />
<path d= "M 49.886 21.452 L 39.285 12.485" />
<path d= "M 39.285 12.485 L 39.938 23.519" />
<path d= "M 39.938 23.519 L 29.998 14.328" />
<path d= "      M39.938,23.519" />
<path d= "M 30.209 25.475 L 59 19.612" />
<path d= "M 29.998 14.328 L 48.043 10.74" />
<path d= "M 39.926 23.514 L 29.976 54.154" />
<path d= "M 30.025 54.104 L 1 19.612" />
<path d= "M 10.116 21.452 L 30.025 54.154" />
<path d= "       M30.025,54.154" />
<path d= "       M30.025,54.154" />
<path d= "M 11.961 10.747 L 1.01 19.604" />
<path d= "        M29.793,25.475" />
<path d= "      M11.958,10.74c0,0,4.962-2.532,9.602-4.353h8.443" />
<path d= "      M30.003,54.154" />
<path d= "      M30.003,6.387" />
<path d= "M 10.116 21.452 L 11.958 10.749" />
<path d= "M 10.116 21.452 L 20.716 12.485" />
<path d= "M 20.716 12.485 L 20.063 23.519" />
<path d= "M 20.063 23.519 L 29.998 14.328" />
<path d= "      M20.063,23.519" />
<path d= "M 29.793 25.475 L 1 19.612" />
<path d= "    M29.998,14.328c0-0.01-18.04-3.588-18.04-3.588" />
<path d= "M 20.074 23.514 L 30.025 54.154" />
</svg>