<svg version="1.1" id="Layer_1" xmlns="http://www.w3.org/2000/svg" xmlns:xlink="http://www.w3.org/1999/xlink" x="0px" y="0px"
	 width="400px" height="400px" viewBox="0 0 60 60" style="enable-background:new 0 0 60 60;" xml:space="preserve">
<path d="M10.62,10.762v9.619H1v0.409v4.535v9.247l0,0v5.047l0,0l0,0h5.635l0,0h3.811l0,0h5.584V25.428
			v-5.336v-9.33H10.62z M6.412,34.81v-9.62h4.208v9.62H6.412z M19.011,20.381h5.411v19.238h-5.411V20.381z M19.011,10.762h5.411
			v5.41h-5.411V10.762z M41.59,20.381L41.59,20.381H27.161v5.047l0,0v14.191h9.017v4.208h-9.017v5.411h9.023h5.406v-9.394v-5.447
			V20.381L41.59,20.381z M32.571,34.81v-9.62h3.607v9.62H32.571z M59,20.381H44.571l0,0l0,0v14.191v5.047h9.619v4.208h-9.619v5.411
			h9.465H59v-5.768v-3.563v-5.335v-9.145l0,0V20.381z M54.189,34.81h-4.208v-9.62h4.208V34.81z"/>
</svg>