<svg version="1.1" id="Layer_1" xmlns="http://www.w3.org/2000/svg" xmlns:xlink="http://www.w3.org/1999/xlink" x="0px" y="0px"
	 width="400px" height="400px" viewBox="0 0 60 60" style="enable-background:new 0 0 60 60;" xml:space="preserve">
<path d="M32.63,53.047c3.494,0.393,6.022,1.545,6.022,2.904c0,1.686-3.881,3.049-8.668,3.049c-4.788,0-8.667-1.363-8.667-3.049
				c0-1.377,2.597-2.543,6.163-2.922"/>
<path d="M51.001,17.928H32.635v7.604h18.366c1.422,0,2.576-3.801,2.576-3.801S52.423,17.928,51.001,17.928z"/>
<path d="M8.999,9.913c-1.422,0-2.576,3.802-2.576,3.802s1.153,3.803,2.576,3.803h18.485V9.913H8.999z"/>
<path d="M8.999,27.139c-1.422,0-2.576,3.802-2.576,3.802s1.153,3.802,2.576,3.802h18.485v-7.604H8.999z"/>
<path d="M32.635,17.928V5.785C32.635,3.143,31.482,1,30.06,1c-1.423,0-2.576,2.143-2.576,4.785v4.128"/>
<path d="M27.484,34.742v19.613c0,2.643,5.151,2.643,5.151,0V25.531"/>
<path d="M27.484,17.518v9.621"/>
<path d="M36.128,21.674h12.339"/>
<path d="M11.452,30.805H23.79"/>
<path d="M11.452,13.531H23.79"/>
</svg>