<svg version="1.1" id="Layer_1" xmlns="http://www.w3.org/2000/svg" xmlns:xlink="http://www.w3.org/1999/xlink" x="0px" y="0px"
	 width="400px" height="400px" viewBox="0 0 60 60" style="enable-background:new 0 0 60 60;" xml:space="preserve">
<path d="M1,42.835c0,4.003,0,8.007,0,12.011c0,0.828,0.284,1.469,0.713,1.945c0.477,0.636,1.225,1.077,2.266,1.077
				c17.333,0,34.666,0,51.998,0c0.828,0,1.47-0.283,1.945-0.714C58.558,56.678,59,55.93,59,54.889c0-4.004,0-8.008,0-12.013"/>
<path d="M45.139,33.754c-4.052,4.055-15.141,13.363-15.141,13.363s-11.084-9.341-15.137-13.395"/>
<path d="M29.998,47.117V2.132"/>
</svg>