<svg version="1.1" id="Layer_1" xmlns="http://www.w3.org/2000/svg" xmlns:xlink="http://www.w3.org/1999/xlink" x="0px" y="0px"
	 width="400px" height="400px" viewBox="0 0 60 60" style="enable-background:new 0 0 60 60;" xml:space="preserve">
<path d="M20.529,22.186c-2.167,0.591-2.85,1.611-2.85,1.611c-1.068-4.171-1.011-5.141-1.011-5.141
									c-3.629,0.194-4.908,3.007-4.908,3.007c0.388-3.201,1.554-6.694,1.554-6.694c-1.066-0.678-3.59-0.485-3.59-0.485
									c1.357-3.686,5.918-3.783,5.918-3.783c-2.328-2.038-4.947-1.844-4.947-1.844c2.424-4.269,6.013-2.425,6.013-2.425
									C16.611,5.56,13.8,2.165,13.8,2.165c2.812-0.097,5.529,2.813,5.529,2.813C19.231,3.523,20.395,1,20.395,1
									c3.3,0.68,6.693,3.687,6.693,3.687l0.777-2.813l1.74,3.147l1.041-2.08c0.675,1.248,1.03,2.807,1.03,2.807
									c2.065-5.535,9.674-4.456,9.674-4.456c-1.844,1.068-1.359,2.813-1.359,2.813c3.881-1.745,7.372,1.165,7.372,1.165
									c-3.298,0.097-4.366,1.357-4.366,1.357c6.308-0.194,7.278,4.075,7.278,4.075c-3.301-0.485-3.688,1.552-3.688,1.552
									c4.559,1.357,3.203,6.209,3.203,6.209c-1.262-1.941-3.493-1.747-3.493-1.747c2.037,3.201,0.194,4.851,0.194,4.851
									c-0.484-2.329-3.187-2.729-3.187-2.729c1.361,1.346-1.081,5.154-1.081,5.154c-0.547-0.857-2.029-1.65-2.592-1.93"/>
<path d="M32.118,4.798c5.294,0.968,9.305,5.605,9.305,11.178c0,6.28-5.088,11.368-11.365,11.368
											s-11.365-5.087-11.365-11.368c0-6.064,4.75-11.019,10.731-11.348"/>
<path d="M32.306,14.469a1.579,1.579 0 1,0 3.158,0a1.579,1.579 0 1,0 -3.158,0"/>
<path d="M25.541999999999998,14.469a1.579,1.579 0 1,0 3.158,0a1.579,1.579 0 1,0 -3.158,0"/>
<path d="M32.748,18.603c2.246,0.818,3.53,2.502,3.351,2.873c-0.117,0.238-0.38-0.259-1.41-0.148
										c-1.111,0.122-2.651,0.842-4.408,0.842c-1.817,0-3.448-0.699-4.615-0.818c-1.011-0.104-1.278,0.395-1.412,0.125
										c-0.219-0.442,1.151-2.132,3.479-2.917"/>
<path d="M 31.791 10.397 L 36.105 11.333"/>
<path d="M 28.357 10.397 L 24.044 11.333"/>
<path d="M43.531,52.806c0,3.421-2.525,6.194-5.64,6.194h-15.39c-3.115,0-5.641-2.773-5.641-6.194
							c0,0,1.293-13.419,2.351-16.777c1.057-3.353,2.524-6.193,5.64-6.193h1.904h3.322h3.907h2.028c3.112,0,4.816,2.064,5.638,6.193
							C42.475,40.159,43.531,52.806,43.531,52.806z"/>
<path d="M 35.555 37.528 L 37.892 59"/>
<path d="M 25.58 37.684 L 22.381 58.991"/>
<path d="M 30.366 29.835 L 30.366 58.991"/>
<path d="M 16.861 52.806 L 23.264 52.806"/>
<path d="M 37.188 52.806 L 43.531 52.806"/>
</svg> 