<svg version="1.1" id="Layer_1" xmlns="http://www.w3.org/2000/svg" xmlns:xlink="http://www.w3.org/1999/xlink" x="0px" y="0px"
	 width="400px" height="400px" viewBox="0 0 60 60" style="enable-background:new 0 0 60 60;" xml:space="preserve">
<path d= "M 4.562 10.907 L 46.362 10.907"/>
<path d="M46.519,17.872V8.77c0-5.149-2.622-7.77-7.772-7.77H12.327c-5.15,0-7.772,2.62-7.772,7.77V59"/>
<path d="M 46.519 58.854 L 46.519 41.558"/>
<path d="M30.458,6.827L30.458,6.827c0-0.501-0.406-0.905-0.905-0.905h-8.03c-0.501,0-0.907,0.404-0.907,0.905l0,0
					H30.458z"/>
<path d="M25.4,36.934c0,0.742,0.604,1.345,1.346,1.345H54.1c0.743,0,1.346-0.603,1.346-1.345V23.01l-14.921,7.807
				l-15.121-7.779L25.4,36.934z"/>
<path d="M55.445,23.053v-1.116c0-0.742-0.603-1.347-1.346-1.347H26.746c-0.741,0-1.346,0.604-1.346,1.347v1.144"/>
</svg>