<svg class="line-drawing2" version="1.1" id="Layer_1" xmlns="http://www.w3.org/2000/svg" xmlns:xlink="http://www.w3.org/1999/xlink" x="0px" y="0px"
	 width="400px" height="400px" viewBox="0 0 60 60" enable-background="new 0 0 60 60" xml:space="preserve">
<path d="M58.017,17.361L41.938,1.896C41.34,1.32,40.544,1,39.715,1H20.284c-0.829,0-1.624,0.319-2.221,0.896
		L1.983,17.361C1.354,17.965,1,18.801,1,19.671v20.655c0,0.871,0.354,1.705,0.983,2.31l16.08,15.469
		C18.66,58.678,19.455,59,20.284,59h19.431c0.83,0,1.625-0.321,2.223-0.895l16.079-15.469C58.645,42.032,59,41.198,59,40.327V19.671
		C59,18.801,58.645,17.965,58.017,17.361z"/>
<path d="M34.161,30.289l12.462-12.463c1-1.002,1-2.625,0-3.627c-1-0.999-2.624-0.999-3.625,0L30.535,26.662
		L18.072,14.199c-1.002-0.999-2.625-0.999-3.625,0c-1.001,1.002-1.001,2.625,0,3.627l12.462,12.463L14.447,42.75
		c-1.001,1.002-1.001,2.624,0,3.626c0.5,0.5,1.156,0.751,1.812,0.751c0.656,0,1.312-0.251,1.813-0.751l12.463-12.463l12.463,12.463
		c0.501,0.5,1.156,0.751,1.813,0.751s1.312-0.251,1.813-0.751c1-1.002,1-2.624,0-3.626L34.161,30.289z"/>
</svg> 