<svg version="1.1" id="Layer_1" xmlns="http://www.w3.org/2000/svg" xmlns:xlink="http://www.w3.org/1999/xlink" x="0px" y="0px"
	 width="400px" height="400px" viewBox="0 0 60 60" style="enable-background:new 0 0 60 60;" xml:space="preserve">
<path d="M16.605,13.081l-8.578-0.009L18.775,2.258l0.001,8.722L16.605,13.081z M50.259,8.792
		c-1.003-1.727-6.245-3.717-8.968-3.717c-2.716,0-7.011,0-7.011,0S32.029,1,26.738,1c-5.296,0-4.94,2.361-4.94,4.377v8.149
		l-2.4,2.534H8.312c0,0-3.122,2.065-3.122,6.529c0,4.465,1.386,20.024,10.688,21.463c11.008,1.704,12.892-3.411,12.892-4.025
		c0-2.591,0.065-6.516,0.065-6.516s3.223,6.158,8.091,6.158s7.698,2.795,7.698,5.676c0,2.882,0,5.328,0,5.328
		s-0.182,3.334-3.043,3.334c-2.865,0-6.108,0-6.108,0s-2.005-1.561-2.005-3.721c0-2.158,0.98-2.745,2.125-2.745
		c1.144,0,2.083,0.133,2.083,0.133v-4.541c0,0-9.218-0.061-9.218,6.999c0,7.057,4.819,8.87,8.687,8.87c3.861,0,6.297,0,6.297,0
		s11.369-1.461,11.369-23.924C54.811,12.611,51.26,10.521,50.259,8.792z M38.951,28.928c0,0,0.553-3.705,2.701-3.705
		s5.099,4.947,5.099,4.947S40.021,28.928,38.951,28.928z"/>
</svg>