<svg version="1.1" id="Layer_1" xmlns="http://www.w3.org/2000/svg" xmlns:xlink="http://www.w3.org/1999/xlink" x="0px" y="0px"
	 width="400px" height="400px" viewBox="0 0 60 60" style="enable-background:new 0 0 60 60;" xml:space="preserve">
<path d="M30,1c16.016,0,29,12.984,29,29c0,16.016-12.984,29-29,29C13.984,59,1,46.016,1,30C1,13.984,13.984,1,30,1z"/>
<path d="M30.048,20.597v26.818"/>
<path d="M30.054,15.145c-0.242,0-0.454-0.078-0.635-0.235c-0.182-0.158-0.272-0.378-0.272-0.66c0-0.251,0.088-0.462,0.263-0.633
	c0.175-0.171,0.39-0.258,0.645-0.258c0.251,0,0.462,0.087,0.634,0.258c0.17,0.171,0.256,0.382,0.256,0.633
	c0,0.279-0.09,0.498-0.27,0.658C30.497,15.065,30.29,15.145,30.054,15.145z"/>
</svg>