<svg version="1.1" id="Layer_1" xmlns="http://www.w3.org/2000/svg" xmlns:xlink="http://www.w3.org/1999/xlink" x="0px" y="0px"
	 width="400px" height="400px" viewBox="0 0 60 60" style="enable-background:new 0 0 60 60;" xml:space="preserve">
<path d="M59,52.841c0,3.4-2.758,6.158-6.159,6.158H7.159C3.758,59,1,56.242,1,52.841V7.16C1,3.758,3.758,1,7.159,1h45.682
		C56.242,1,59,3.758,59,7.16V52.841z"/>
<path d="M50.305,22.148c0.024,0-0.001-12.448-0.001-12.448s-12.468-0.009-12.459,0"/>
<path d= "M 50.304 9.701 L 33.915 26.088" />
<path d="M9.694,37.851c-0.025,0,0.001,12.448,0.001,12.448s12.468,0.009,12.459,0"/>
<path d="M 9.695 50.299 L 26.084 33.912"/>
</svg>