<svg version="1.1" id="Layer_1" xmlns="http://www.w3.org/2000/svg" xmlns:xlink="http://www.w3.org/1999/xlink" x="0px" y="0px"
	 width="400px" height="400px" viewBox="0 0 60 60" style="enable-background:new 0 0 60 60;" xml:space="preserve">
<path d="M58.098,27.36C44.656,10.973,30.679,11.646,30,11.691c-0.682-0.045-14.656-0.718-28.098,15.669
				c0.138-0.138-0.944,1.097-0.901,2.639l0,0c0,0,0,0,0,0.006c-0.043,1.537,1.039,2.769,0.901,2.632
				C15.344,49.024,29.318,48.353,30,48.31c0.679,0.043,14.656,0.714,28.098-15.672c-0.137,0.137,0.944-1.096,0.901-2.632
				c0-0.006,0-0.006,0-0.006l0,0C59.042,28.457,57.961,27.222,58.098,27.36z"/>
<path d="M30.234,16.869c7.303,0,13.223,5.92,13.223,13.223s-5.92,13.223-13.223,13.223c-7.303,0-13.223-5.92-13.223-13.223
		S22.931,16.869,30.234,16.869z"/>
<path d="M30.284,26.479c2.022,0,3.663,1.64,3.663,3.663s-1.641,3.663-3.663,3.663c-2.023,0-3.663-1.64-3.663-3.663
		S28.261,26.479,30.284,26.479z"/>
</svg>