<svg version="1.1" id="Layer_1" xmlns="http://www.w3.org/2000/svg" xmlns:xlink="http://www.w3.org/1999/xlink" x="0px" y="0px"
	 width="400px" height="400px" viewBox="0 0 60 60" style="enable-background:new 0 0 60 60;" xml:space="preserve">
<path d="M45.771,38.807V14.363L31.861,1H9.701C8.108,1,6.814,2.292,6.814,3.886v46.169c0,1.594,1.293,2.887,2.887,2.887h23.814"/>
<path d="M45.771,14.363H34.747c-1.593,0-2.886-1.291-2.886-2.885V1"/>
<path d="M42.884,38.396c5.69,0,10.302,4.611,10.302,10.302C53.186,54.388,48.574,59,42.884,59c-5.689,0-10.302-4.612-10.302-10.302
					C32.582,43.008,37.194,38.396,42.884,38.396z"/>
<path d="M11.648,22.384h28.143"/>
<path d="M11.648,28.067h28.143"/>
<path d="M11.648,33.75H26.26"/>
<path d="M42.884,55.396V42.936"/>
<path d="M38.225,47.602l4.666-4.666l4.66,4.666"/>
</svg>