<svg version="1.1" id="Layer_1" xmlns="http://www.w3.org/2000/svg" xmlns:xlink="http://www.w3.org/1999/xlink" x="0px" y="0px"
	 width="400px" height="400px" viewBox="0 0 60 60" style="enable-background:new 0 0 60 60;" xml:space="preserve">
<path d="M45.771,38.807V14.363L31.861,1H9.701C8.108,1,6.814,2.292,6.814,3.886v46.169         c0,1.594,1.293,2.886,2.887,2.886h23.815"/>
<path d="M45.771,14.363H34.747c-1.593,0-2.885-1.291-2.885-2.885V1"/>
<path d="M32.582,48.698a10.302,10.302 0 1,0 20.604,0a10.302,10.302 0 1,0 -20.604,0"/>
<path d="M 11.648 22.384 L 39.791 22.384"/>
<path d="M 11.648 28.067 L 39.791 28.067"/>
<path d="M 11.648 33.75 L 26.26 33.75"/>
<path d="M 38.148 53.435 L 47.62 43.963"/>
<path d="M 38.149 43.963 L 47.621 53.435"/>
</svg>