<svg version="1.1" id="Layer_1" xmlns="http://www.w3.org/2000/svg" xmlns:xlink="http://www.w3.org/1999/xlink" x="0px" y="0px"
	 width="400px" height="400px" viewBox="0 0 60 60" style="enable-background:new 0 0 60 60;" xml:space="preserve">
<path d="M45.771,38.807V14.363L31.862,1H9.701C8.107,1,6.815,2.292,6.815,3.886v46.169         c0,1.594,1.292,2.886,2.886,2.886h23.815"/>
<path d="M45.771,14.363H34.747c-1.594,0-2.885-1.291-2.885-2.885V1"/>
<path d="M 11.649 22.384 L 39.79 22.384"/>
<path d="M32.583,48.698a10.301,10.301 0 1,0 20.602,0a10.301,10.301 0 1,0 -20.602,0"/>
<path d="M 11.649 28.067 L 39.79 28.067"/>
<path d="M 11.649 33.75 L 26.26 33.75"/>
<path d="M 42.883 55.397 L 42.883 42.002"/>
<path d="M 36.187 48.699 L 49.582 48.699"/>
</svg>