<svg version="1.1" id="Layer_1" xmlns="http://www.w3.org/2000/svg" xmlns:xlink="http://www.w3.org/1999/xlink" x="0px" y="0px"
	 width="400px" height="400px" viewBox="0 0 60 60" style="enable-background:new 0 0 60 60;" xml:space="preserve">
<path d="M21.412,19.279C24.212,12.002,23.672,1,23.672,1s7.441,3.119,12.582,11.684
			c4.829,8.05,0.265,20.041,0.265,20.041c3.56-3.559,4.879-7.118,5.001-11.391c3.996,6.38,7.086,13.692,7.086,21.092
			c0,9.155-8.326,16.569-18.606,16.574c-10.274-0.005-18.604-7.419-18.604-16.574C11.395,33.516,18.111,27.862,21.412,19.279z"/>
<path d="M26.802,39.43c0.974-2.8,0.785-7.025,0.785-7.025s9.343,7.109,8.677,15.921
				c-0.267,3.507-2.898,6.365-6.475,6.368c-3.575-0.003-6.473-2.852-6.473-6.368C23.316,44.898,25.655,42.728,26.802,39.43z"/>
</svg>