<svg version="1.1" id="Layer_1" xmlns="http://www.w3.org/2000/svg" xmlns:xlink="http://www.w3.org/1999/xlink" x="0px" y="0px"
	 width="400px" height="400px" viewBox="0 0 60 60" style="enable-background:new 0 0 60 60;" xml:space="preserve">
<path d="M30.714,25.67l-3.779-7.757c-0.119-0.377-0.464-0.63-0.893-0.63c-0.001,0-0.001,0-0.002,0c-0.404,0.016-0.752,0.303-0.841,0.698
	l-2.916,8.263l-2.609-12.557c-0.086-0.408-0.436-0.701-0.882-0.715c-0.4,0-0.756,0.27-0.865,0.658L15.43,22.6l-2.468-2.467
	c-0.34-0.34-0.931-0.34-1.271,0L7.821,24"/>
<path d="M59,39.529c0,1.914-1.549,3.464-3.461,3.464H4.463C2.551,42.993,1,41.441,1,39.529V5.335c0-1.913,1.551-3.462,3.463-3.462h51.076
				C57.451,1.873,59,3.422,59,5.335V39.529z"/>
<path d="M39.876,15.417h13.915"/>
<path d="M39.876,26.884h13.915"/>
<path d="M39.876,21.086h13.915"/>
<path d="M29.827,48.527v-5.195"/>
<path d="M29.827,48.527l9.598,9.6"/>
<path d="M29.827,48.527l-9.598,9.6"/>
</svg>