<svg version="1.1" id="Layer_1" xmlns="http://www.w3.org/2000/svg" xmlns:xlink="http://www.w3.org/1999/xlink" x="0px" y="0px"
	 width="400px" height="400px" viewBox="0 0 60 60" style="enable-background:new 0 0 60 60;" xml:space="preserve">
<path d="M59,39.53c0,1.913-1.548,3.463-3.461,3.463H4.464C2.551,42.993,1,41.442,1,39.53V5.335c0-1.913,1.551-3.462,3.464-3.462
							h51.075C57.452,1.873,59,3.422,59,5.335V39.53z"/>
<path d="M19.231,18.521"/>
<path d="M6.554,18.36c0.008,0.304,0.018,4.026,0.018,4.303c0,2.989,5.155,5.411,11.52,5.411v-4.448"/>
<path d="M6.572,18.216"/>
<path d="M32.809,26.253c0-0.28,0.013-4.002,0.023-4.307c0-0.048-0.004-0.095-0.007-0.14h-0.017c0,2.987-5.156,5.41-11.517,5.41v4.446
							C27.653,31.663,32.809,29.241,32.809,26.253z"/>
<path d="M32.809,21.807H21.292v5.41"/>
<path d="M29.593,17.977c-0.266-2.876-5.314-5.169-11.502-5.169c-6.222,0-11.288,2.317-11.508,5.213
						c-0.005,0.065-0.012,0.129-0.012,0.195c0,2.988,5.155,5.41,11.52,5.41v-5.409h11.516v-0.001
						C29.607,18.137,29.601,18.057,29.593,17.977z"/>
<path d="M39.876,15.417h13.915"/>
<path d="M39.876,26.884h13.915"/>
<path d="M39.876,21.086h13.915"/>
<path d="M29.827,48.527v-5.195"/>
<path d="M29.827,48.527l9.599,9.6"/>
<path d="M29.827,48.527l-9.598,9.6"/>
</svg>