<svg version="1.1" id="Layer_1" xmlns="http://www.w3.org/2000/svg" xmlns:xlink="http://www.w3.org/1999/xlink" x="0px" y="0px"
	 width="400px" height="400px" viewBox="0 0 60 60" style="enable-background:new 0 0 60 60;" xml:space="preserve">
<path d="M29.236,54.072c0.045,0.055,0.088,0.111,0.137,0.164c1.65,1.704,4.652,1.475,6.709-0.513
				c3.791-3.666,4.07-9.906,4.07-9.906c-4.592,2.156-7.289,1.075-10.039,3.732c-0.344,0.333-0.633,0.692-0.877,1.07"/>
<path d="M29.047,48.634c-0.248-0.382-0.541-0.749-0.889-1.084c-2.748-2.657-5.447-1.576-10.039-3.732
				c0,0,0.277,6.24,4.07,9.906c2.057,1.987,5.059,2.217,6.707,0.513c0.055-0.057,0.1-0.115,0.15-0.176"/>
<path d="M48.945,19.81c0-2.995-1.234-5.458-5.268-5.751c2.516-3.007,1.648-5.58-0.441-7.669
				c-2.105-2.106-4.701-2.974-7.738-0.384C35.115,2.187,32.701,1,29.773,1c-2.867,0-5.242,1.141-5.697,4.78
				c-2.879-2.223-5.354-1.348-7.375,0.673c-2.078,2.076-2.945,4.632-0.484,7.616c-3.945,0.33-5.162,2.772-5.162,5.74
				c0,2.911,1.174,5.311,4.939,5.715c-2.504,3-1.637,5.569,0.449,7.657c2.07,2.069,4.617,2.938,7.586,0.508
				c0.316,3.979,2.766,5.2,5.744,5.2c3.041,0,5.527-1.277,5.76-5.458c3.131,2.822,5.803,1.969,7.959-0.188
				c2.1-2.098,2.967-4.685,0.408-7.708C47.75,25.167,48.945,22.747,48.945,19.81z"/>
<path d="M22.277,19.99a7.769,7.769 0 1,0 15.538,0a7.769,7.769 0 1,0 -15.538,0"/>
<path d="M27.064999999999998,19.99a2.981,2.981 0 1,0 5.962,0a2.981,2.981 0 1,0 -5.962,0"/>
<path d="M 29.129 59 L 29.129 39.043"/>
</svg>