<svg version="1.1" id="Layer_1" xmlns="http://www.w3.org/2000/svg" xmlns:xlink="http://www.w3.org/1999/xlink" x="0px" y="0px"
	 width="400px" height="400px" viewBox="0 0 60 60" style="enable-background:new 0 0 60 60;" xml:space="preserve">
<path d="M56.384,24.317C52.34,9.823,46.991,6.111,42.054,7.49c-1.19,0.332-2.248,0.933-3.11,1.852
					c-2.4,0.722-5.604,1.47-8.598,1.47c-3.191,0-6.622-0.849-9.06-1.611c-0.904-1.066-2.041-1.747-3.339-2.11
					C13.009,5.713,7.659,9.424,3.616,23.918c-4.044,14.495-3.319,27.359,1.618,28.74c4.091,1.14,9.787-5.966,13.922-16.678
					c2.205-0.674,7.057-2.016,10.792-2.016c3.364,0,7.998,1.09,10.66,1.799c4.15,11.056,9.99,18.455,14.159,17.293
					C59.703,51.677,60.428,38.811,56.384,24.317z"/>
<path d="M11.085,16.05a3.542,3.542 0 1,0 7.084,0a3.542,3.542 0 1,0 -7.084,0"/>
<path d="M27.969,24.998h-3.242v-3.36c-0.539-0.19-1.115-0.297-1.717-0.297c-0.573,0-1.124,0.097-1.639,0.268
										v3.39h-3.32c-0.149,0.486-0.231,0.999-0.231,1.532c0,0.629,0.118,1.229,0.323,1.787h3.229v3.135
										c0.515,0.171,1.065,0.269,1.639,0.269c0.603,0,1.178-0.107,1.717-0.298v-3.105h3.151c0.204-0.558,0.321-1.158,0.321-1.787
										C28.199,25.997,28.119,25.484,27.969,24.998z"/>
<path d="M34.889,28.177a3.54,3.54 0 1,0 7.08,0a3.54,3.54 0 1,0 -7.08,0"/>
<path d="M28.933,16.649a1.412,1.412 0 1,0 2.824,0a1.412,1.412 0 1,0 -2.824,0"/>
<path d="M40.254,16.338a0.773,0.773 0 1,0 1.546,0a0.773,0.773 0 1,0 -1.546,0"/>
<path d="M43.943,12.467a0.774,0.774 0 1,0 1.548,0a0.774,0.774 0 1,0 -1.548,0"/>
<path d="M47.888999999999996,16.338a0.773,0.773 0 1,0 1.546,0a0.773,0.773 0 1,0 -1.546,0"/>
<path d="M43.943,20.136a0.774,0.774 0 1,0 1.548,0a0.774,0.774 0 1,0 -1.548,0"/>
</svg>