<svg version="1.1" id="Layer_1" xmlns="http://www.w3.org/2000/svg" xmlns:xlink="http://www.w3.org/1999/xlink" x="0px" y="0px"
	 width="400px" height="400px" viewBox="0 0 60 60" style="enable-background:new 0 0 60 60;" xml:space="preserve">
<path d="M30.056,16.531c0,0,5.975-1.991,6.494-6.664c0.52-4.671-5.234-7.899-9.246-5.256
								C23.021,7.434,30,16.542,30,16.542"/>
<path d="M30,16.542c0,0,6.757-4.587,11.429-5.106c4.672-0.519,7.9,5.236,5.256,9.247
									c-2.822,4.282-16.629-4.151-16.629-4.151"/>
<path d="M30,16.542c0,0-5.322-4.835-10.013-4.532c-4.691,0.301-6.868,6.529-3.566,10.019
									c3.524,3.726,13.635-5.497,13.635-5.497"/>
<path d="M2.851,31.029v23.72c0,0.877,0.712,1.59,1.59,1.59h25.507h0.104h25.506c0.879,0,1.59-0.713,1.59-1.59V31.088"/>
<path d="M 30.056 26.324 L 30.06 56.339"/>
<path d="M59,28.463v-4.091v-0.925c0-0.938-0.76-1.699-1.699-1.699l-27.245-5.195v-0.021L30,16.542l-0.056-0.011
				v0.021L2.699,21.748C1.761,21.748,1,22.509,1,23.447v0.925v4.091v0.926c0,0.211,0.043,0.41,0.114,0.598
				c0.005,0.018,0.011,0.038,0.018,0.056c0.003,0.008,0.007,0.015,0.01,0.023c0.026,0.069,0.059,0.129,0.097,0.177
				c0.295,0.504,0.836,0.846,1.46,0.846L30,25.881l27.3,5.207c0.939,0,1.699-0.761,1.699-1.699v-0.449
				C59,28.786,59,28.627,59,28.463z"/>
</svg>