<svg version="1.1" id="Layer_1" xmlns="http://www.w3.org/2000/svg" xmlns:xlink="http://www.w3.org/1999/xlink" x="0px" y="0px"
	 width="400px" height="400px" viewBox="0 0 60 60" style="enable-background:new 0 0 60 60;" xml:space="preserve">
<path d="M5.168999999999997,26.972a22.629,22.629 0 1,0 45.258,0a22.629,22.629 0 1,0 -45.258,0"/>
<path d="M36.82,21.185c0,0-2.937,0.087-4.319-0.715c0,0-0.922-1.294-3.514-0.186c0,0-4.551,2.957-4.609,5.912
										c0,0-1.267,5.85,3.516,6.649c0,0,5.01-1.784,5.646,0.309c0,0,0.171,2.587,0.633,3.14c0,0,0.747,1.19,0.69,1.908
										c0,0-0.519,2.402,0.172,4.25c0,0,0.462,1.601,0.405,2.095c0,0,4.378-1.356,5.758-5.79c0,0,0.808-3.079,0.866-3.878
										c0,0,1.15-3.57,1.438-4.68c0,0,1.037-3.326-0.69-2.895c0,0-1.211-1.231-2.074-2.155S37.282,21.493,36.82,21.185z"/>
<path d="M50.086,23.273c0,0-1.826-6.014-3.054-6.372c0,0-0.652,0.429-1.085,0.358
										c-0.436-0.072-2.604-1.431-2.746-1.073c-0.146,0.358,2.746,7.508,1.154,6.22l-6.071-5.576c0,0,1.299-1.144,0.868-1.79
										c-0.436-0.643-1.374,0.217-2.169,0.217s-1.88,0.643-2.313,0.07c-0.433-0.573-0.724-0.43-1.156-0.07
										c-0.436,0.356-1.229,0.928-1.303,0.571c-0.071-0.357-1.372-0.214-1.447-0.571c-0.069-0.36-2.817,1.573-3.325,1.573
										c-0.505,0-1.806,0.284-2.022-0.145c-0.216-0.429-0.65-1.859-0.216-2.288c0.433-0.43,2.556,0.023,2.457-0.5
										c-0.098-0.525-0.349-1.676-0.029-1.838c0.318-0.165,1.187-2.022,1.764-2.238c0.577-0.217,2.098,0.571,2.315,0.072
										c0,0,0.07-1.502-0.218-1.718c-0.291-0.213,1.083-1.786,1.228-2.145c0.146-0.356-2.054-1.554-2.706-1.554"/>
<path d="M5.391,26.34c0.795-0.357,1.035-0.433,1.735,0.286c0.699,0.721,1.663,1.932,2.022,2.574
										c0.362,0.644,1.663,1.43,1.663,1.931c0,0.502-0.289,1.717,0,2.287c0.29,0.574,0.726,0.645,1.374,0.931
										c0.652,0.286,1.88,0.716,2.604,1.359c0.722,0.644,1.734,1.431,1.519,2.289c-0.218,0.857-0.65,2.145-0.506,2.646
										c0.144,0.499,0.65,1.357,0.073,1.714c-0.58,0.36-1.015,0.287-0.941,0.931c0.073,0.642,0.797,2.644,1.015,3"/>
<path d="M36.297,6.052 M19.957,48.728l-1.566,3.923c3.2,1.123,6.469,1.612,9.671,1.541l2.476-0.167
			c9.656-1.101,18.361-7.326,22.242-16.818c0.176-0.433,0.344-0.871,0.5-1.317C57.5,23.868,52.83,10.88,42.718,4.099
			c-0.006-0.003-0.013-0.009-0.019-0.013c-0.372-0.249-0.753-0.492-1.143-0.724c-0.002-0.001-0.002-0.002-0.004-0.003
			c-0.359-0.215-0.728-0.422-1.1-0.621c-0.031-0.018-0.061-0.037-0.092-0.053c-0.362-0.192-0.732-0.375-1.106-0.553
			c-0.044-0.022-0.086-0.045-0.128-0.065c-0.345-0.162-0.698-0.314-1.054-0.463c-0.076-0.03-0.146-0.067-0.225-0.099
			c-0.334-0.136-0.675-0.262-1.019-0.389c-0.098-0.035-0.194-0.075-0.294-0.11l0,0C36.529,1.004,36.525,1.003,36.519,1l-1.57,4.004"
			/>
<path d="M 28.28 50.365 L 28.28 59"/>
<path d="M 33.528 59 L 23.031 59"/>
</svg>