<svg version="1.1" id="Layer_1" xmlns="http://www.w3.org/2000/svg" xmlns:xlink="http://www.w3.org/1999/xlink" x="0px" y="0px"
	 width="400px" height="400px" viewBox="0 0 60 60" style="enable-background:new 0 0 60 60;" xml:space="preserve">
<path d="M12.851,27.241l-0.572,7.066c0,0,2.644,8.712,17.547,8.712s17.641-8.712,17.641-8.712l-0.536-6.934"/>
<path d="M32.127,31.892c-1.174,0.359-3.079,0.359-4.253,0L1.881,23.939c-1.174-0.36-1.174-0.942,0-1.301l25.993-7.954   c1.174-0.36,3.079-0.36,4.252,0l25.993,7.954c1.174,0.359,1.174,0.941,0,1.302L32.127,31.892z"/>
<path d="M 44.682 45.585 L 44.682 28.059"/>
<path d="M 31.846 24.166 L 44.682 28.059"/>
<path d="M31.142,23.743c0.042-0.416-0.461-0.814-1.132-0.89c-0.672-0.075-1.255,0.201-1.302,0.617   c-0.046,0.415,0.461,0.814,1.132,0.889c0.36,0.04,0.691-0.022,0.931-0.151C30.771,24.208,31.106,24.082,31.142,23.743z"/>
</svg>