<svg version="1.1" id="Layer_1" xmlns="http://www.w3.org/2000/svg" xmlns:xlink="http://www.w3.org/1999/xlink" x="0px" y="0px"
	 width="400px" height="400px" viewBox="0 0 60 60" style="enable-background:new 0 0 60 60;" xml:space="preserve">
<path d="M17.511,56.687c0,1.277-1.035,2.313-2.315,2.313H6.066c-1.277,0-2.315-1.036-2.315-2.313V46.181
					c0-1.277,1.038-2.312,2.315-2.312h9.129c1.28,0,2.315,1.034,2.315,2.312V56.687z"/>
<path d="M36.635,56.687c0,1.277-1.036,2.313-2.314,2.313h-9.131c-1.277,0-2.314-1.036-2.314-2.313V34.781
					c0-1.28,1.037-2.314,2.314-2.314h9.131c1.278,0,2.314,1.034,2.314,2.314V56.687z"/>
<path d="M56.249,56.687c0,1.277-1.036,2.313-2.315,2.313h-9.131c-1.276,0-2.314-1.036-2.314-2.313V20.571
					c0-1.278,1.038-2.313,2.314-2.313h9.131c1.279,0,2.315,1.035,2.315,2.313V56.687z"/>
<path d="M 42.59 1.012 L 10.801 32.799"/>
<path d="M 42.588 1 L 31.434 1"/>
<path d="M 42.588 1.021 L 42.588 12.174"/>
</svg>