<svg version="1.1" id="Layer_1" xmlns="http://www.w3.org/2000/svg" xmlns:xlink="http://www.w3.org/1999/xlink" x="0px" y="0px"
	 width="400px" height="400px" viewBox="0 0 60 60" style="enable-background:new 0 0 60 60;" xml:space="preserve">
<path d="M42.487,58.92c0.053-0.463,0.09-0.94,0.09-1.455c0-4.35-3.787-7.328-3.787-10.645s1.222-4.286,1.222-6.941
						c0-5.035-3.313-6.707-7.752-7.076"/>
<path d="M27.61,32.813c-4.375,0.394-7.622,2.08-7.622,7.065c0,2.655,1.222,3.729,1.222,6.941
						c0,3.211-3.787,6.295-3.787,10.645c0,0.545,0.041,1.049,0.102,1.535"/>
<path d="M28.074,37.596l-0.92,0.418c-1.297,0.886-2.148,2.376-2.148,4.065c0,2.718,2.202,4.919,4.919,4.919
					s4.919-2.201,4.919-4.919c0-1.698-0.86-3.195-2.169-4.079l-0.901-0.496"/>
<path d="M31.742,46.609V9.271c0.281-0.417,1.162-0.928,1.162-1.488v-4.57c0-0.866-0.525-1.371-1.324-1.627
			C31.301,1.325,30.911,1,30.7,1c-0.363,0.002-0.678,0.172-0.787,0.172c-0.099,0-0.443-0.174-0.824-0.168
			c-0.215,0.003-0.594,0.33-0.861,0.588c-0.787,0.259-1.305,0.762-1.305,1.621v4.57c0,0.604,0.908,1.151,1.234,1.583v37.311"/>
<path d="M 35.997,55.30 L 35.997,55.303 24.183,55.303 24.183,55.303"/>
</svg>