<svg version="1.1" id="Layer_1" xmlns="http://www.w3.org/2000/svg" xmlns:xlink="http://www.w3.org/1999/xlink" x="0px" y="0px"
	 width="400px" height="400px" viewBox="0 0 60 60" style="enable-background:new 0 0 60 60;" xml:space="preserve">
<path d="M15.234,52.005c-3.381,1.989-8.413-21.046-4.749-21.944"/>
<path d="M57.188,34.576C55.662,18.132,48.583,6.007,30.026,6.007c-17.829,0-25.792,11.94-27.597,28.258
			c-1.811,2.662-1.652,7.062-0.888,10.725c1.329,6.364,5.929,10.806,11.484,8.284c5.692-2.582,4.974-6.275,3.646-12.639
			c-1.331-6.366-2.578-11.843-8.455-10.407c-0.045,0.011-0.087,0.028-0.131,0.04c4.08-10.441,12.253-16.906,21.683-16.906
			c9.444,0,17.629,6.489,21.702,16.952c-0.094-0.027-0.183-0.062-0.279-0.085c-5.876-1.437-7.123,4.041-8.453,10.407
			c-1.326,6.364-2.044,10.057,3.646,12.639c5.555,2.522,10.973-2.736,12.302-9.1C59.421,40.652,58.843,37.201,57.188,34.576z"/>
<path d="M44.215,51.976c3.379,1.988,8.5-21.074,4.835-21.972"/>
</svg>