<svg version="1.1" id="Layer_1" xmlns="http://www.w3.org/2000/svg" xmlns:xlink="http://www.w3.org/1999/xlink" x="0px" y="0px"
	 width="400px" height="400px" viewBox="0 0 60 60" style="enable-background:new 0 0 60 60;" xml:space="preserve">
<path d="M56.419,20.336c0-8.065-5.994-13.386-13.387-13.386c-4.674,0-8.82,2.349-11.24,5.917l-1.91,2.426l-1.72-2.197
			C25.78,9.4,21.628,6.95,16.903,6.95c-7.394,0-13.389,5.103-13.389,13.386c0,12.42,24.418,31.937,24.418,31.937
			c1.036,1.036,2.711,1.036,3.748,0C31.681,52.273,56.419,32.434,56.419,20.336z"/>
<path d="M59,26.332H34.58l-3.085-3.686c-0.261-0.311-0.793-0.311-1.051,0l-2.778,3.315l-2.489-2.867
				c-0.145-0.167-0.363-0.256-0.58-0.233c-0.22,0.019-0.416,0.144-0.529,0.334l-4.675,7.924L14.05,17.26
				c-0.105-0.269-0.376-0.458-0.651-0.439c-0.289,0.005-0.542,0.189-0.637,0.461l-3.134,9.049H1"/>
</svg>