<svg version="1.1" id="Layer_1" xmlns="http://www.w3.org/2000/svg" xmlns:xlink="http://www.w3.org/1999/xlink" x="0px" y="0px"
	 width="400px" height="400px" viewBox="0 0 60 60" style="enable-background:new 0 0 60 60;" xml:space="preserve">
<path d="M30,1c16.016,0,29,12.984,29,29c0,16.016-12.984,29-29,29C13.984,59,1,46.016,1,30C1,13.984,13.984,1,30,1z"/>
<path d="M15.558,20.924c0-1.753,0.563-3.531,1.69-5.332c1.126-1.799,2.769-3.29,4.929-4.472c2.161-1.182,4.681-1.772,7.562-1.772
 				c2.678,0,5.041,0.494,7.09,1.481c2.05,0.988,3.634,2.331,4.75,4.03c1.116,1.698,1.676,3.545,1.676,5.538
 				c0,1.569-0.317,2.945-0.955,4.127s-1.396,2.203-2.272,3.062c-0.875,0.858-2.449,2.303-4.721,4.333
 				c-0.627,0.573-1.132,1.076-1.51,1.511c-0.379,0.434-0.658,0.831-0.845,1.19c-0.185,0.358-0.331,0.719-0.431,1.079
 				c-0.279,1.025-0.465,6.068-0.457,6.06 M32.143,47.742c-0.242,0-0.455-0.078-0.637-0.235s-0.271-0.378-0.271-0.659
 				c0-0.252,0.088-0.463,0.264-0.634s0.389-0.258,0.645-0.258c0.252,0,0.463,0.087,0.633,0.258c0.172,0.171,0.259,0.382,0.259,0.634
 				c0,0.277-0.091,0.498-0.271,0.656C32.584,47.663,32.377,47.742,32.143,47.742z"/>
</svg>