<svg version="1.1" id="Layer_1" xmlns="http://www.w3.org/2000/svg" xmlns:xlink="http://www.w3.org/1999/xlink" x="0px" y="0px"
	 width="400px" height="400px" viewBox="0 0 60 60" style="enable-background:new 0 0 60 60;" xml:space="preserve">
<path class="st0" d="M47.296,55.977c0,1.668-1.352,3.023-3.022,3.023H15.728c-1.67,0-3.023-1.355-3.023-3.023L8.758,20.002
					c0-1.669,42.485-1.669,42.485,0L47.296,55.977z"/>
<path class="st0" d="M51.243,20.002c0,0,0.726-19.002-21.258-19.002C8.003,1,8.758,20.002,8.758,20.002"/>
<path class="st0" d="M12.017,19.314c0,0,6.158,16.287,13.19,5.735c0,0,2.652-3.21,5.439,0.153
					c2.787,3.365,2.126,7.451,2.653,9.48c0.399,1.531,3.657,4.98,4.712-1.835c1.326-8.563,4.047-7.875,5.507-6.881
					c1.459,0.995,3.238,0.402,3.847-2.447c0.609-2.85,0.78-4.226,0.78-4.226"/>
</svg>