<svg version="1.1" id="Layer_1" xmlns="http://www.w3.org/2000/svg" xmlns:xlink="http://www.w3.org/1999/xlink" x="0px" y="0px"
	 width="400px" height="400px" viewBox="0 0 60 60" style="enable-background:new 0 0 60 60;" xml:space="preserve">
<path d="M24.826,49.943c-0.01,0.099-0.017,0.197-0.017,0.299v0.639c0,0.32,0.095,0.561,0.266,0.748l-0.266,0.529
			c0,0.226,0.046,0.414,0.125,0.573l-0.125,0.705c0,0.321,0.101,0.568,0.28,0.763l-0.096,0.552c0,0.492,0.201,0.803,0.581,1.004
			l-0.061,0.377c0,0.748,0.511,1.028,1.458,1.128l-0.045,0.364c0,1.051,1.179,1.376,3.23,1.376c2.054,0,3.435-0.325,3.435-1.376
			l-0.047-0.383c0.925-0.115,1.462-0.4,1.462-1.109l-0.067-0.413c0.379-0.201,0.586-0.506,0.586-0.968l-0.09-0.523
			c0.177-0.197,0.274-0.453,0.274-0.792l-0.13-0.729c0.083-0.155,0.13-0.334,0.13-0.548l-0.263-0.522
			c0.17-0.188,0.263-0.432,0.263-0.755v-0.639c0-0.091-0.005-0.183-0.014-0.272"/>
<path d="M21.749,30.507c-0.759,0.306-1.226,1.021-1.258,1.789c0,0.014-0.004,0.025-0.004,0.04
				c0,0.001,0,0.002,0,0.003c-0.001,0.035,0.006,0.069,0.007,0.104c0.024,1.064,0.87,1.939,1.947,1.973
				c0.047,0.001,0.209,0.005,0.465,0.005"/>
<path d="M21.749,24.85c-0.79,0.319-1.264,1.079-1.259,1.882c-0.01,1.094,0.853,2.001,1.951,2.036
				c0.047,0.001,0.208,0.006,0.465,0.006c1.126,0,4.094-0.084,7.354-0.852c0.955,0.13,1.853,0.323,2.651,0.536"/>
<path d="M21.749,19.191c-0.618,0.249-1.038,0.771-1.192,1.369c-0.005,0.018-0.013,0.034-0.017,0.053
				c-0.023,0.1-0.033,0.202-0.041,0.305c-0.002,0.032-0.011,0.061-0.012,0.093c0,0.003,0,0.005,0,0.009
				c-0.001,0.055,0.008,0.109,0.012,0.163c0.057,1.034,0.887,1.874,1.942,1.908c0.047,0.001,0.208,0.005,0.465,0.005
				c1.121,0,4.063-0.083,7.301-0.838c0.979,0.13,1.901,0.328,2.717,0.545"/>
<path d="M21.918,13.471c-0.695,0.209-1.23,0.78-1.385,1.503c-0.009,0.042-0.01,0.086-0.017,0.13
				c-0.011,0.076-0.027,0.15-0.029,0.229c0,0.007,0.002,0.014,0.002,0.021c-0.004,0.095,0.008,0.189,0.019,0.285
				c0.005,0.036,0.003,0.073,0.009,0.107c0.02,0.111,0.053,0.22,0.091,0.328c0.006,0.018,0.009,0.035,0.015,0.051
				c0.004,0.012,0.006,0.023,0.01,0.035c0.324,0.806,1.112,1.28,1.934,1.255c0.08,0.001,0.192,0.003,0.341,0.003
				c1.114,0,4.029-0.083,7.248-0.827c0.99,0.129,1.919,0.326,2.743,0.546"/>
<path d="M21.749,7.847c-0.075,0.03-0.139,0.072-0.208,0.109c-0.039,0.022-0.08,0.039-0.119,0.063
				c-0.088,0.056-0.165,0.121-0.242,0.188c-0.02,0.017-0.042,0.032-0.063,0.051c-0.07,0.067-0.133,0.142-0.192,0.219
				c-0.021,0.026-0.046,0.05-0.065,0.079c-0.049,0.069-0.088,0.142-0.127,0.216c-0.023,0.043-0.05,0.084-0.07,0.13
				c-0.03,0.066-0.049,0.137-0.071,0.206c-0.019,0.056-0.04,0.111-0.053,0.169c-0.019,0.076-0.023,0.153-0.031,0.231
				c-0.006,0.051-0.018,0.098-0.02,0.15c0,0.005,0.001,0.011,0.001,0.015c-0.002,0.075,0.009,0.149,0.015,0.225
				c0.005,0.06,0.005,0.121,0.015,0.179c0.007,0.038,0.023,0.075,0.032,0.113c0.021,0.093,0.045,0.186,0.079,0.274
				c0.001,0.004,0.001,0.008,0.003,0.012c0.019,0.044,0.045,0.083,0.066,0.124c0.034,0.073,0.067,0.146,0.111,0.213
				c0.039,0.06,0.086,0.113,0.13,0.168c0.036,0.046,0.071,0.095,0.112,0.137c0.05,0.052,0.104,0.095,0.159,0.141
				c0.046,0.038,0.09,0.079,0.138,0.113c0.055,0.038,0.113,0.067,0.17,0.098c0.057,0.033,0.11,0.067,0.172,0.094
				c0.062,0.026,0.127,0.044,0.19,0.065c0.061,0.019,0.117,0.043,0.179,0.057c0.093,0.021,0.187,0.029,0.28,0.036
				c0.034,0.003,0.067,0.013,0.102,0.014c0.005,0,0.016,0,0.021,0c0.006,0,0.011,0.001,0.016,0.001
				c0.07,0.002,0.212,0.005,0.429,0.005c1.117,0,4.046-0.083,7.274-0.832c0.983,0.129,1.911,0.327,2.73,0.545"/>
<path d="M38.507,35.24c0.077-0.073,0.151-0.147,0.228-0.221c0.362-0.364,0.549-0.831,0.576-1.306
				c0.002-0.023,0.006-0.047,0.008-0.07c0.001-0.056-0.004-0.11-0.008-0.167c-0.025-0.717-0.424-1.399-1.113-1.739
				c-0.089-0.044-0.681-0.332-1.639-0.693c0.783-0.5,1.52-1.073,2.176-1.731c0.007-0.007,0.012-0.017,0.021-0.024
				c0.08-0.084,0.154-0.174,0.221-0.272c0.021-0.03,0.035-0.062,0.055-0.093c0.027-0.047,0.058-0.092,0.083-0.141
				c0.01-0.02,0.013-0.04,0.022-0.06c0.033-0.073,0.059-0.146,0.084-0.223c0.017-0.053,0.033-0.105,0.045-0.159
				c0.018-0.071,0.026-0.143,0.035-0.215c0.007-0.058,0.015-0.117,0.017-0.175c0.002-0.071-0.003-0.141-0.009-0.212
				c-0.004-0.058-0.008-0.115-0.017-0.173c-0.011-0.071-0.03-0.141-0.05-0.211c-0.015-0.055-0.028-0.108-0.048-0.16
				c-0.024-0.068-0.056-0.133-0.089-0.198c-0.025-0.053-0.052-0.106-0.082-0.157c-0.035-0.057-0.075-0.11-0.117-0.165
				c-0.04-0.054-0.081-0.107-0.129-0.158c-0.018-0.019-0.03-0.041-0.047-0.059c-0.03-0.029-0.064-0.049-0.095-0.076
				c-0.051-0.045-0.102-0.088-0.157-0.128c-0.06-0.043-0.123-0.081-0.187-0.116c-0.032-0.019-0.06-0.042-0.094-0.059
				c-0.089-0.044-0.677-0.33-1.629-0.689c0.778-0.499,1.512-1.068,2.166-1.725c0.144-0.144,0.251-0.308,0.343-0.479
				c0.011-0.021,0.024-0.04,0.036-0.062c0.004-0.009,0.006-0.018,0.01-0.026c0.044-0.095,0.079-0.192,0.109-0.291
				c0.01-0.035,0.021-0.069,0.03-0.104c0.02-0.082,0.03-0.165,0.039-0.25c0.005-0.051,0.015-0.102,0.015-0.154
				c0.002-0.067-0.003-0.134-0.009-0.202c-0.004-0.065-0.008-0.13-0.019-0.196c-0.008-0.054-0.024-0.105-0.036-0.158
				c-0.02-0.077-0.041-0.153-0.068-0.227c-0.014-0.038-0.033-0.074-0.051-0.112c-0.039-0.087-0.081-0.171-0.134-0.252
				c-0.014-0.022-0.028-0.042-0.044-0.063c-0.064-0.094-0.136-0.182-0.217-0.265c-0.004-0.005-0.007-0.01-0.01-0.014
				c-0.008-0.006-0.017-0.011-0.022-0.018c-0.086-0.084-0.18-0.161-0.283-0.23c-0.012-0.008-0.024-0.015-0.036-0.023
				c-0.062-0.04-0.121-0.084-0.19-0.118c-0.089-0.045-0.685-0.335-1.648-0.697c0.724-0.461,1.403-0.985,2.022-1.581
				c0.22-0.179,0.407-0.406,0.542-0.677c0.015-0.031,0.021-0.063,0.035-0.095c0.022-0.05,0.039-0.101,0.057-0.152
				c0.024-0.073,0.048-0.144,0.064-0.216c0.013-0.06,0.021-0.12,0.028-0.181c0.008-0.064,0.017-0.129,0.019-0.196
				c0.002-0.073-0.003-0.146-0.01-0.22c-0.003-0.051-0.007-0.101-0.014-0.15c-0.014-0.09-0.037-0.176-0.062-0.264
				c-0.01-0.032-0.019-0.064-0.03-0.097c-0.032-0.096-0.076-0.187-0.124-0.279c-0.013-0.022-0.023-0.044-0.035-0.066
				c-0.053-0.091-0.115-0.177-0.184-0.261c-0.016-0.019-0.03-0.037-0.047-0.055c-0.029-0.034-0.052-0.071-0.082-0.102
				c-0.052-0.051-0.109-0.089-0.165-0.133c-0.012-0.01-0.023-0.02-0.035-0.029c-0.158-0.122-0.326-0.223-0.505-0.291
				c-0.258-0.121-0.775-0.351-1.494-0.621c0.794-0.504,1.54-1.083,2.204-1.75c0.007-0.008,0.012-0.016,0.02-0.024
				c0.08-0.083,0.155-0.174,0.222-0.273c0.021-0.029,0.035-0.062,0.054-0.092c0.028-0.047,0.059-0.092,0.084-0.142
				c0.01-0.019,0.013-0.041,0.022-0.06c0.033-0.073,0.059-0.147,0.084-0.223c0.017-0.053,0.033-0.105,0.045-0.159
				c0.018-0.072,0.026-0.143,0.035-0.216c0.007-0.058,0.015-0.115,0.017-0.175c0.002-0.071-0.003-0.14-0.009-0.21
				c-0.004-0.058-0.008-0.116-0.017-0.173c-0.011-0.071-0.03-0.142-0.05-0.211c-0.015-0.055-0.029-0.109-0.048-0.161
				c-0.024-0.068-0.056-0.132-0.089-0.197c-0.025-0.053-0.052-0.106-0.083-0.157c-0.034-0.057-0.074-0.11-0.116-0.163
				c-0.04-0.055-0.081-0.109-0.129-0.159c-0.018-0.02-0.03-0.041-0.047-0.059c-0.03-0.029-0.064-0.049-0.095-0.076
				c-0.051-0.044-0.102-0.088-0.156-0.127c-0.062-0.044-0.125-0.081-0.188-0.118c-0.032-0.018-0.06-0.041-0.093-0.057
				c-0.09-0.045-0.689-0.337-1.657-0.701c0.789-0.503,1.532-1.079,2.194-1.743c0.408-0.411,0.599-0.952,0.582-1.488
				c0-0.052-0.01-0.101-0.015-0.152c-0.009-0.08-0.018-0.158-0.036-0.236c-0.021-0.096-0.049-0.188-0.083-0.28
				c-0.007-0.02-0.016-0.039-0.024-0.059c-0.027-0.072-0.049-0.148-0.086-0.216l0.029-0.016c-0.093-0.172-3.404-3.331-11.681-3.182
				c-1.853,0.047-3.79,0.366-5.672,1.125c-0.006,0.002-0.011,0.005-0.016,0.007c-0.072,0.031-0.139,0.071-0.207,0.11
				c-0.049,0.027-0.103,0.049-0.148,0.08c-0.029,0.02-0.054,0.045-0.081,0.067c-0.183,0.136-0.343,0.296-0.467,0.479
				c-0.125,0.185-0.213,0.395-0.271,0.617c-0.008,0.033-0.022,0.062-0.03,0.094c-0.013,0.059-0.013,0.123-0.021,0.184
				C20.5,3.839,20.488,3.91,20.487,3.982c0,0.006-0.002,0.012-0.002,0.019c0,0.063,0.014,0.123,0.019,0.184
				c0.006,0.065,0.007,0.129,0.02,0.196c0.02,0.095,0.048,0.184,0.08,0.274c0.011,0.033,0.016,0.067,0.028,0.101
				c0.001,0.003,0.005,0.005,0.007,0.009c0.036,0.093,0.086,0.179,0.137,0.264c0.019,0.031,0.031,0.064,0.051,0.094
				c0.04,0.06,0.09,0.111,0.136,0.165c0.124,0.147,0.257,0.28,0.412,0.386c0.169,0.113,0.357,0.193,0.557,0.252
				c0.053,0.015,0.103,0.038,0.157,0.048c0.048,0.01,0.1,0.011,0.149,0.017c0.083,0.011,0.166,0.025,0.25,0.025
				c0.007,0,0.012,0.002,0.017,0.002c2.436,0,4.231-0.516,5.604-0.981c1.779,0.023,3.468,0.343,4.856,0.716"/>
<path d="M39.994,44.233c0,2.049-3.708,5.719-3.708,5.719H23.715c0,0-3.709-3.67-3.709-5.719v-9.016h19.988V44.233z
						"/>
</svg>