<svg version="1.1" id="Layer_1" xmlns="http://www.w3.org/2000/svg" xmlns:xlink="http://www.w3.org/1999/xlink" x="0px" y="0px"
	 width="400px" height="400px" viewBox="0 0 60 60" style="enable-background:new 0 0 60 60;" xml:space="preserve">
<path d="M37.634,46.599c0-8.951,12.872-10.596,12.872-25.088c0-11.33-9.176-20.507-20.507-20.51
						C18.669,1.005,9.494,10.18,9.494,21.511c0,14.038,13.146,15.969,13.146,25.104L37.634,46.599z"/>
<path d="M23.815,46.621c-0.069,0.27-0.104,1.266-0.104,1.554v0.791c0,0.394,0.115,0.692,0.326,0.924l-0.326,0.654
				c0,0.279,0.056,0.509,0.153,0.708l-0.153,0.872c0,0.397,0.123,0.702,0.346,0.942l-0.119,0.683c0,0.607,0.25,0.993,0.717,1.241
				l-0.075,0.467c0,0.925,0.633,1.269,1.804,1.393l-0.056,0.452c0,1.299,1.457,1.698,3.994,1.698c2.538,0,4.245-0.399,4.245-1.698
				l-0.058-0.475c1.142-0.14,1.807-0.495,1.807-1.37l-0.083-0.511c0.468-0.249,0.724-0.626,0.724-1.197l-0.112-0.647
				c0.22-0.246,0.34-0.561,0.34-0.979l-0.159-0.901c0.101-0.192,0.159-0.414,0.159-0.679l-0.323-0.646
				c0.207-0.233,0.323-0.533,0.323-0.932v-0.791c0-0.458-0.092-1.16-0.256-1.56"/>
</svg>