<svg version="1.1" id="Layer_1" xmlns="http://www.w3.org/2000/svg" xmlns:xlink="http://www.w3.org/1999/xlink" x="0px" y="0px"
	 width="400px" height="400px" viewBox="0 0 60 60" style="enable-background:new 0 0 60 60;" xml:space="preserve">
<path d="M13.594,56.265c17.843,3.329,27.975,2.875,32.66,2.42c4.691-0.452,6.201-3.626,6.201-5.29
			c0-1.966,0.604-3.027,1.361-3.479c3.327-2.722,2.267-3.628,1.361-5.593c-0.908-1.969-0.604-2.572,0.906-3.934
			c1.786-1.515,0.757-3.63,0.151-4.383c-0.604-0.756-1.058-1.061-1.208-1.815c1.208-0.605,2.417-3.024,2.417-3.782
			c-0.149-5.14-4.988-6.199-4.988-6.199s0,0-14.516,0c-1.059-0.151-0.302-3.025,0.303-4.082c2.569-4.536,4.082-8.618,4.082-10.738
			c-0.906-10.435-8.013-8.616-8.315-7.559c-0.151,10.584-2.572,13.003-5.293,14.82c-2.723,1.812-3.025,3.931-6.199,11.188
			c-3.176,7.256-8.893,4.839-8.893,4.839"/>
<path d="M12.683,31.922H3.468c-0.502,0-0.911,0.407-0.911,0.913v24.03c0,0.502,0.409,0.914,0.911,0.914h9.215
			c0.503,0,0.912-0.412,0.912-0.914v-24.03C13.594,32.329,13.186,31.922,12.683,31.922z"/>
</svg>