<svg version="1.1" id="Layer_1" xmlns="http://www.w3.org/2000/svg" xmlns:xlink="http://www.w3.org/1999/xlink" x="0px" y="0px"
	 width="400px" height="400px" viewBox="0 0 60 60" style="enable-background:new 0 0 60 60;" xml:space="preserve">
<path d="M39.203,31.151c-0.589-1.984-1.971-3.978-4.175-6.18c-7.667-7.668-12.797-5.396-23.858,5.665
							C0.108,41.697-2.163,46.827,5.504,54.495c7.669,7.667,12.798,5.396,23.858-5.664c4.263-4.263,7.22-7.644,8.808-10.63
							 M31.225,39.215c-1.315,1.637-3.198,3.528-5.573,5.902c-7.712,7.712-10.331,10.255-15.678,4.909
							c-5.346-5.349-2.806-7.967,4.91-15.679c7.71-7.714,10.33-10.254,15.678-4.907c1.336,1.335,2.18,2.501,2.571,3.62"/>
<path d="M20.778,28.791c0.581,2.004,1.97,4.014,4.192,6.238c7.669,7.669,12.798,5.396,23.859-5.664
						c11.062-11.062,13.333-16.191,5.666-23.86c-7.668-7.666-12.797-5.396-23.859,5.666c-4.149,4.148-7.248,7.74-8.864,10.667
						c0,0,0.855-0.457,1.831-0.815c0.589-0.215,1.261-0.36,1.704-0.444c1.725-0.329,3.481,0.202,3.481,0.202
						c1.309-1.609,3.243-3.583,5.56-5.897c7.712-7.713,10.33-10.256,15.679-4.908c5.347,5.347,2.805,7.965-4.91,15.679
						c-7.713,7.712-10.331,10.254-15.678,4.906c-1.378-1.376-2.231-2.572-2.607-3.72c-0.005-0.021-0.774-0.306-1.769-0.241
						c-0.612,0.037-1.787,0.401-2.677,1.004C21.484,28.214,20.773,28.77,20.778,28.791z"/>
</svg>