<svg version="1.1" id="Layer_1" xmlns="http://www.w3.org/2000/svg" xmlns:xlink="http://www.w3.org/1999/xlink" x="0px" y="0px"
	 width="400px" height="400px" viewBox="0 0 60 60" style="enable-background:new 0 0 60 60;" xml:space="preserve">
<path d="M50.176,29.058l-0.066-6.364C50.109,11.332,41.082,1,29.949,1C18.813,1,9.785,11.332,9.785,22.694c0,0,0.363,2.226,2.521,2.179
			c2.436-0.053,2.695-2.179,2.695-2.179c0-0.607,0.303-3.116,0.355-3.384c1.492-7.048,7.457-12.986,14.592-12.986
			c8.252,0,14.939,7.947,14.939,16.37l0.037,5.235c-10.949-1.008-35.09-0.59-35.09,1.252v25.506C9.836,57.07,11.807,59,14.24,59
			h31.566c2.438,0,4.408-1.931,4.408-4.313V29.181C50.215,29.139,50.199,29.098,50.176,29.058z"/>
<path d="M34.693,39.515c0-2.486-2.016-4.5-4.5-4.5c-2.486,0-4.5,2.014-4.5,4.5c0,1.896,1.174,3.515,2.832,4.177v4.152
					c0,0.879,0.713,1.593,1.592,1.593c0.883,0,1.596-0.714,1.596-1.593v-4.098C33.447,43.123,34.693,41.466,34.693,39.515z"/>
</svg>