<svg version="1.1" id="Layer_1" xmlns="http://www.w3.org/2000/svg" xmlns:xlink="http://www.w3.org/1999/xlink" x="0px" y="0px"
	 width="400px" height="400px" viewBox="0 0 60 60" style="enable-background:new 0 0 60 60;" xml:space="preserve">
<path d="M58.1,53.902l-27.07-26.075"/>
<path d="M27.02,31.734l26.262,27.265c0.014-0.013,0.026-0.022,0.041-0.035"/>
<path d="M31.273,3.7c0.881,0.449-1.083,12.561-0.76,13.346c0.324,0.789,10.574,7.375,10.565,8.193
 				c-0.011,0.818-12.227,2.723-12.929,3.404c-0.216,0.207-0.635,1.459-1.14,3.098c-1.144,3.713-2.73,9.416-3.387,9.479
 				c-0.947,0.09-6.612-10.967-7.232-11.244C15.772,29.7,3.409,30.42,3.031,29.555c-0.379-0.861,8.32-9.48,8.459-10.35
 				C11.628,18.337,7.152,6.958,7.758,6.37c0.607-0.588,11.758,4.879,12.46,4.846C20.92,11.181,30.392,3.251,31.273,3.7z"/>
<path d="M26.098,12.704c0.428,0.219-0.525,6.1-0.368,6.482c0.157,0.381,5.133,3.578,5.129,3.977c-0.004,0.396-5.936,1.322-6.276,1.652
 				c-0.342,0.328-1.738,6.063-2.197,6.107c-0.46,0.043-3.21-5.324-3.512-5.459c-0.302-0.135-6.304,0.215-6.487-0.205
 				c-0.184-0.418,4.04-4.602,4.107-5.025c0.066-0.422-2.106-5.945-1.813-6.23c0.294-0.287,5.709,2.367,6.05,2.352
 				C21.071,16.339,25.67,12.487,26.098,12.704z"/>
<path d="M34.41,14.356l5.292-2.015"/>
<path d="M19.29,5.788l-0.504-4.787"/>
<path d="M6.689,18.64l-4.788-1.512"/>
<path d="M14.25,33.257l-1.765,5.041"/>
</svg>