<svg version="1.1" id="Layer_1" xmlns="http://www.w3.org/2000/svg" xmlns:xlink="http://www.w3.org/1999/xlink" x="0px" y="0px"
	 width="400px" height="400px" viewBox="0 0 60 60" style="enable-background:new 0 0 60 60;" xml:space="preserve">
<path d="M20.505,20.498l-2.036,2.037l3.622-3.625c0.89-0.889,2.219-1.002,2.969-0.254l33.495,33.496"/>
<path d="M32.103,32.547"/>
<path d="M20.505,20.498l-2.036,2.037c-0.891,0.891-1.004,2.221-0.254,2.969l33.492,33.494"/>
<path d="M 51.707 58.998 L 51.707 58.998"/>
<path d="M14.416,19.652c0,0-3.846,2.844-4.21,3.879c-0.36,1.033,0.842,5.723,0.842,5.723s-2.911-3.869-3.912-4.221
				c-0.999-0.352-5.69,0.852-5.69,0.852s3.828-2.793,4.222-3.91c0.392-1.117-0.853-5.691-0.853-5.691s2.793,3.828,3.911,4.223
				C9.843,20.896,14.416,19.652,14.416,19.652z"/>
<path d="M34.904,18.877c0,0-4.971-5.1-6.57-5.428c-1.599-0.324-8.275,2.398-8.275,2.398s5.119-5.076,5.436-6.625
				C25.809,7.678,23.086,1,23.086,1s4.896,5.084,6.623,5.438c1.729,0.352,8.223-2.408,8.223-2.408s-5.081,4.895-5.436,6.623
				C32.145,12.381,34.904,18.877,34.904,18.877z"/>
<path d="M53.601,31.469c0,0-3.378-3.623-4.485-3.875c-1.104-0.252-5.791,1.537-5.791,1.537s3.641-3.453,3.885-4.521
				c0.242-1.07-1.545-5.756-1.545-5.756s3.324,3.611,4.52,3.885c1.199,0.271,5.758-1.545,5.758-1.545s-3.611,3.324-3.884,4.521
				C51.785,26.908,53.601,31.469,53.601,31.469z"/>
<path d="M 30.398 37.703 L 37.229 30.873"/>
</svg>