<svg version="1.1" id="Layer_1" xmlns="http://www.w3.org/2000/svg" xmlns:xlink="http://www.w3.org/1999/xlink" x="0px" y="0px"
	 width="400px" height="400px" viewBox="0 0 60 60" style="enable-background:new 0 0 60 60;" xml:space="preserve">
<path d="M52.844,7.157c-8.207-8.209-21.514-8.209-29.725,0c-6.984,6.985-8.021,17.66-3.119,25.746L1.361,51.546
				c-0.6,0.601-0.426,1.813,0.316,3.134c-0.611,1.023-0.482,2.361,0.4,3.244c0.879,0.879,2.219,1.006,3.242,0.398
				c1.318,0.74,2.533,0.916,3.133,0.317l18.643-18.642c8.088,4.904,18.762,3.869,25.748-3.117
				C61.053,28.672,61.053,15.364,52.844,7.157z M49.096,33.135c-6.135,6.139-16.09,6.139-22.229,0
				c-6.141-6.139-6.141-16.094,0-22.231c6.139-6.139,16.094-6.139,22.229-0.001C55.24,17.042,55.236,26.996,49.096,33.135z"/>
<path d="M39.982,11.526c-8.932,0.919-12.314,8.263-12.402,8.436"/>
</svg>