<svg version="1.1" id="Layer_1" xmlns="http://www.w3.org/2000/svg" xmlns:xlink="http://www.w3.org/1999/xlink" x="0px" y="0px"
	 width="400px" height="400px" viewBox="0 0 60 60" style="enable-background:new 0 0 60 60;" xml:space="preserve">
<path d="M 59,51.355 45.994,48.717 21.388,56.627 1,51.355 1,6.01 20.686,11.279 45.994,3.373 59,6.01 L 
59,51.355 45.994,48.717 21.388,56.627 1,51.355 1,6.01 20.686,11.279 45.994,3.373 59,6.01 z"/>
<path d="M 22.071 52.459 L 21.422 14.293"/>
<path d="M 44.729 7.059 L 44.729 45.176"/>
<path d="M32.446,22.998c-3.342,0-6.05,2.711-6.05,6.049c0,4.4,5.708,10.283,6.222,10.283c0.513,0,5.875-6.402,5.875-10.283       
				C38.493,25.709,35.786,22.998,32.446,22.998z M32.416,31.068c-1.31,0-2.374-1.033-2.374-2.307c0-1.277,1.064-2.313,2.374-2.313       
				c1.311,0,2.374,1.035,2.374,2.313C34.79,30.035,33.727,31.068,32.416,31.068z"/>
</svg>