<svg version="1.1" id="Layer_1" xmlns="http://www.w3.org/2000/svg" xmlns:xlink="http://www.w3.org/1999/xlink" x="0px" y="0px"
	 width="400px" height="400px" viewBox="0 0 60 60" style="enable-background:new 0 0 60 60;" xml:space="preserve">
<path d="M1,27.373v20.979c0,3.933,3.73,3.872,3.73,3.872h50.337c4.171,0,3.93-3.872,3.93-3.872V27.373"/>
<path d="M42.307,32.479c9.141-1.931,16.69-5.101,16.69-5.101v-7.986c0-4.052-3.991-3.872-3.991-3.872H4.791
					c-3.93,0-3.79,3.872-3.79,3.872v8.047c0,0,7.261,2.856,15.759,4.78"/>
<path d="M39.578,15.52v-3.932c0-3.992-3.75-3.811-3.75-3.811H24.091c-3.69,0-3.812,3.871-3.812,3.871v3.871H39.578z
			 M24.091,13.464c0-1.753,1.937-1.876,1.937-1.876h7.802c2.058,0,1.937,2.117,1.937,2.117l-0.06,1.814H24.091V13.464z"/>
<path d="M16.622999999999998,34.308a12.88,12.88 0 1,0 25.76,0a12.88,12.88 0 1,0 -25.76,0"/>
<path d="M37.333,31.699h-5.22v-5.22c0-0.836-0.678-1.515-1.515-1.515h-2.189c-0.836,0-1.515,0.679-1.515,1.515v5.22
			h-5.22c-0.837,0-1.516,0.678-1.516,1.515v2.188c0,0.837,0.679,1.516,1.516,1.516h5.22v5.219c0,0.837,0.679,1.516,1.515,1.516
			h2.189c0.836,0,1.515-0.679,1.515-1.516v-5.219h5.22c0.836,0,1.516-0.679,1.516-1.516v-2.188
			C38.849,32.377,38.169,31.699,37.333,31.699z"/>
</svg>