<svg version="1.1" id="Layer_1" xmlns="http://www.w3.org/2000/svg" xmlns:xlink="http://www.w3.org/1999/xlink" x="0px" y="0px"
	 width="400px" height="400px" viewBox="0 0 60 60" style="enable-background:new 0 0 60 60;" xml:space="preserve">
<path d="M15.391,30.308v2.909c0,7.328,5.436,13.331,12.484,14.341v5.393h-7.746c-1.672,0-3.023,1.354-3.023,3.024
			c0,1.671,1.352,3.025,3.023,3.025h19.74c1.67,0,3.023-1.354,3.023-3.025c0-1.67-1.354-3.024-3.023-3.024h-8.111v-5.369
			c7.164-0.904,12.852-6.953,12.852-14.366v-2.909H15.391z"/>
<path d="M40.729,30.226V11.668C40.729,5.777,35.83,1,29.936,1c-5.893,0-10.67,4.777-10.67,10.668v18.557
				 M29.998,4.58c0.539,0,0.973,0.435,0.973,0.974c0,0.536-0.434,0.973-0.973,0.973c-0.543,0-0.971-0.438-0.971-0.973
				C29.027,5.015,29.455,4.58,29.998,4.58z M23.637,25.809c-0.539,0-0.977-0.436-0.977-0.973c0-0.538,0.438-0.973,0.977-0.973
				c0.535,0,0.973,0.435,0.973,0.973C24.609,25.373,24.172,25.809,23.637,25.809z M23.646,19.35c-0.537,0-0.975-0.437-0.975-0.973
				c0-0.54,0.438-0.974,0.975-0.974s0.973,0.434,0.973,0.974C24.619,18.913,24.184,19.35,23.646,19.35z M23.646,12.891
				c-0.537,0-0.975-0.435-0.975-0.977c0-0.536,0.438-0.973,0.975-0.973s0.973,0.437,0.973,0.973
				C24.619,12.457,24.184,12.891,23.646,12.891z M29.998,25.809c-0.543,0-0.971-0.436-0.971-0.973c0-0.538,0.428-0.973,0.971-0.973
				c0.539,0,0.973,0.435,0.973,0.973C30.971,25.373,30.537,25.809,29.998,25.809z M29.998,19.35c-0.543,0-0.971-0.437-0.971-0.973
				c0-0.54,0.428-0.974,0.971-0.974c0.539,0,0.973,0.434,0.973,0.974C30.971,18.913,30.537,19.35,29.998,19.35z M29.998,12.891
				c-0.543,0-0.971-0.435-0.971-0.977c0-0.536,0.428-0.973,0.971-0.973c0.539,0,0.973,0.437,0.973,0.973
				C30.971,12.457,30.537,12.891,29.998,12.891z M36.648,25.809c-0.535,0-0.975-0.436-0.975-0.973c0-0.538,0.439-0.973,0.975-0.973
				c0.537,0,0.975,0.435,0.975,0.973C37.623,25.373,37.186,25.809,36.648,25.809z M36.672,19.35c-0.535,0-0.975-0.437-0.975-0.973
				c0-0.54,0.439-0.974,0.975-0.974c0.537,0,0.975,0.434,0.975,0.974C37.646,18.913,37.209,19.35,36.672,19.35z M36.672,12.891
				c-0.535,0-0.975-0.435-0.975-0.977c0-0.536,0.439-0.973,0.975-0.973c0.537,0,0.975,0.437,0.975,0.973
				C37.646,12.457,37.209,12.891,36.672,12.891z"/>
</svg>