<svg version="1.1" id="Layer_1" xmlns="http://www.w3.org/2000/svg" xmlns:xlink="http://www.w3.org/1999/xlink" x="0px" y="0px"
	 width="400px" height="400px" viewBox="0 0 60 60" style="enable-background:new 0 0 60 60;" xml:space="preserve">
<path d="M34.02,16.314c10.033,3.023,17.625,16.782,17.625,27.364C51.645,55.63,41.955,59,30,59C18.046,59,8.355,55.63,8.355,43.679
				c0-10.58,7.59-24.336,17.62-27.363"/>
<path d="M33.047,14.946l6.971-8.716V2.895h-4.82V1h-5.079h-0.601h-5.079v1.895h-4.821V6.23l6.973,8.716"/>
<path d="M39.404,29.313c0,1.797-2.04,3.08-2.16,2.919c-1.521-1.761-4.123-3.084-6.764-3.084c-2.682,0-4.322,1.201-4.322,3.005
					c0,2.082,2.2,2.642,5.284,3.323c3.682,0.799,8.525,2.281,8.525,7.522c0,4.046-2.803,6.845-7.487,7.564v1.562
					c0,1.844-0.719,2.723-2.318,2.723H29.96c-1.681,0-2.28-0.84-2.28-2.723v-1.479c-4.844-0.52-7.605-2.723-7.605-4.963
					c0-1.723,1.92-2.961,2.08-2.802c1.521,1.842,4.484,3.361,7.605,3.361c2.842,0,4.483-1.201,4.483-3.005
					c0-2.201-2.481-2.798-5.403-3.479c-3.522-0.76-8.167-2.159-8.167-7.442c0-3.844,2.724-6.605,7.046-7.406v-1.482
					c0-1.841,0.679-2.723,2.282-2.723h0.239c1.641,0,2.281,0.84,2.281,2.723v1.362C36.965,25.27,39.404,27.268,39.404,29.313z"/>
</svg>