<svg version="1.1" id="Layer_1" xmlns="http://www.w3.org/2000/svg" xmlns:xlink="http://www.w3.org/1999/xlink" x="0px" y="0px"
	 width="400px" height="400px" viewBox="0 0 60 60" style="enable-background:new 0 0 60 60;" xml:space="preserve">
<path d="M36.091,46.166v4.529l2.147,3.218v0.627c0,0.509-0.411,0.394-0.922,0.394H22.682c-0.511,0-0.92,0.115-0.92-0.394v-0.627
			l2.151-3.235v-4.513"/>
<path d="M59,42.711c0,1.914-1.55,3.463-3.461,3.463H4.464C2.551,46.175,1,44.625,1,42.711V8.518c0-1.913,1.551-3.462,3.464-3.462h51.075
			C57.45,5.056,59,6.605,59,8.518V42.711z"/>
<path d="M5.145,9.463H54.75v28.079H5.145V9.463z"/>
<path d="M59,42.711c0,1.914-1.55,3.463-3.461,3.463H4.464C2.551,46.175,1,44.625,1,42.711V8.518c0-1.913,1.551-3.462,3.464-3.462h51.075
					C57.45,5.056,59,6.605,59,8.518V42.711z"/>
</svg>