<svg version="1.1" id="Layer_1" xmlns="http://www.w3.org/2000/svg" xmlns:xlink="http://www.w3.org/1999/xlink" x="0px" y="0px"
	 width="400px" height="400px" viewBox="0 0 60 60" style="enable-background:new 0 0 60 60;" xml:space="preserve">
<path d="M17.473,49.505C19.227,56.589,24.168,59,29.998,59c5.834,0,10.775-2.41,12.529-9.494      c0.445-1.434,0.691-6.232,0.691-6.259h-0.004C43.156,31.338,41.146,16.63,29.998,16.63c-11.145,0-13.154,14.708-13.213,26.617      h-0.004C16.781,43.273,17.027,48.07,17.473,49.505z"/>
<path d="M 29.977 44.316 L 29.977 59"/>
<path d="M28.807,50.941c0-1.291,0.104-2.337,1.148-2.337c1.217,0,1.148,1.047,1.148,2.337      c0,1.291,0.068,2.337-1.148,2.337C28.842,53.279,28.807,52.232,28.807,50.941z"/>
<path d="M 29.998 16.63 L 29.998 1"/>
<path d="M 16.9 44.316 L 43.055 44.316"/>
</svg>