<svg version="1.1" id="Layer_1" xmlns="http://www.w3.org/2000/svg" xmlns:xlink="http://www.w3.org/1999/xlink" x="0px" y="0px"
	 width="400px" height="400px" viewBox="0 0 60 60" style="enable-background:new 0 0 60 60;" xml:space="preserve">
<path d="M21.291,42.217c0,0-0.299,3.43-1.089,5.258c-2.794,6.463-18.889,6.316-19.197-1.829
			C0.695,37.492,17.518,36.743,21.291,42.217c2.141-10.353,3.978-21.009,6.172-31.309C39.009,11.729,49.675,10.061,59,7.937
			c-0.564,4.603-5.3,32.726-7.083,37.481c-2.277,6.066-17.669,6.313-18.969-0.916c-1.649-9.165,14.706-9.992,18.283-4.34
			l1.376,2.059"/>
<path d="M57.706,16.296c-7.802,2.342-21.653,3.611-31.714,2.938"/>
</svg>