<svg version="1.1" id="Layer_1" xmlns="http://www.w3.org/2000/svg" xmlns:xlink="http://www.w3.org/1999/xlink" x="0px" y="0px"
	 width="400px" height="400px" viewBox="0 0 60 60" style="enable-background:new 0 0 60 60;" xml:space="preserve">
<path d="M4.988,2.192C2.786,2.192,1,3.235,1,5.438v49.123c0,2.199,1.786,3.246,3.988,3.246
			c4.64,0,24.678-23.43,24.678-27.555C29.666,26.122,7.083,2.192,4.988,2.192z"/>
<path d="M59,53.935c0,1.748-1.423,3.168-3.169,3.168H43.576c-1.749,0-3.169-1.42-3.169-3.168V6.063
				c0-1.748,1.42-3.166,3.169-3.166h12.255C57.577,2.897,59,4.315,59,6.063V53.935z"/>
</svg>