<svg version="1.1" id="Layer_1" xmlns="http://www.w3.org/2000/svg" xmlns:xlink="http://www.w3.org/1999/xlink" x="0px" y="0px"
	 width="400px" height="400px" viewBox="0 0 60 60" style="enable-background:new 0 0 60 60;" xml:space="preserve">
<path d="M 44.381,11.16 L 52.376,9.887 59,50.464 7.624,58.667 1,18.091 38.591,12.088    "/>
<path d="M 48.292 24.909 L 8.203 31.313"/>
<path d="M 49.451 31.244 L 9.362 37.647"/>
<path d="M 50.515 37.982 L 10.424 44.386"/>
<path d="M 33.575 47.385 L 11.473 50.916"/>
<path d="M 42.692,18.13 L 41.758,22.908 40.848,18.18     "/>
<path d="M44.477,12.792l-1.076-6.226c0.873-0.295,2.079-1.149,2.079-3.631c0-1-2.025-1.574-3.859-1.601H41.57      c-1.833,0.027-3.858,0.601-3.858,1.601c0,2.482,1.207,3.336,2.079,3.631l-1.075,6.226c-0.92,0.603-1.412,0.798-1.4,1.734      c0.025,1.666,1.331,3.071,3.14,3.596c0.378,0.111,1.901,0.111,2.278,0c1.811-0.525,3.115-1.93,3.14-3.596      C45.887,13.589,45.396,13.395,44.477,12.792z"/>
</svg>