<svg version="1.1" id="Layer_1" xmlns="http://www.w3.org/2000/svg" xmlns:xlink="http://www.w3.org/1999/xlink" x="0px" y="0px"
	 width="400px" height="400px" viewBox="0 0 60 60" style="enable-background:new 0 0 60 60;" xml:space="preserve">
<path d="M36.999,16.416c0.007-0.007-18.191,18.132-18.191,18.132c-3.766,3.764-2.016,7.091-0.285,8.825
		c3.352,3.349,7.015,1.404,9.122-0.705L54.916,15.4c1.65-1.652,2.533-3.804,2.483-6.053c-0.054-2.159-0.966-4.207-2.511-5.619
		C52.343,1.182,46.894-0.676,42.9,3.319L6.477,39.74c-4.926,4.927-5.171,10.563-0.672,15.467c5.35,5.067,11.026,5.043,16.063,0.012
		l8.489-8.527l19.579-19.631"/>
</svg>