<svg version="1.1" id="Layer_1" xmlns="http://www.w3.org/2000/svg" xmlns:xlink="http://www.w3.org/1999/xlink" x="0px" y="0px"
	 width="400px" height="400px" viewBox="0 0 60 60" style="enable-background:new 0 0 60 60;" xml:space="preserve">
<path d="M 51.639 4.336 L 24.447 20.124"/>
<path d="M 39.838 35.459 L 55.64 8.337"/>
<path d="M55.784,7.09c0.138,0.563,0.064,1.069-0.254,1.388c-0.651,0.653-2.083,0.28-3.196-0.831    c-1.11-1.112-1.482-2.542-0.831-3.195c0.377-0.375,1.007-0.412,1.687-0.165"/>
<path d="M54.646,8.809c0,0,4.877-7.037,4.308-7.606C58.36,0.608,51.2,5.658,51.2,5.658"/>
<path d="M16.45,58.847l23.388-23.387c0,0-5.707-0.584-10.146-5.02c-4.436-4.438-5.222-10.349-5.222-10.349L1,43.561"/>
</svg>