<svg version="1.1" id="Layer_1" xmlns="http://www.w3.org/2000/svg" xmlns:xlink="http://www.w3.org/1999/xlink" x="0px" y="0px"
	 width="400px" height="400px" viewBox="0 0 60 60" style="enable-background:new 0 0 60 60;" xml:space="preserve">
<path d="M54.292,40.283c-3.429-3.297-6.9-5.372-11.055-2.299c-4.179,3.094-4.623,6.527-4.623,6.527s0.393,6.58-15.468-7.688
					C8.872,20.957,15.455,21.35,15.455,21.35s3.434-0.443,6.527-4.623c3.074-4.154,0.903-7.537-2.302-11.057
					C9.431-5.591,3.217,7.207,3.217,7.207c-7.257,12.214,4.84,26.73,14.171,35.377c8.649,9.333,23.161,21.42,35.368,14.164
					C52.756,56.748,65.716,51.274,54.292,40.283z"/>
<path d="M8.896,1.549C8.887,1.553,8.884,1.56,8.877,1.562c0.09-0.037,0.186-0.072,0.279-0.107C9.069,1.487,8.981,1.514,8.896,1.549z"/>
</svg>