<svg version="1.1" id="Layer_1" xmlns="http://www.w3.org/2000/svg" xmlns:xlink="http://www.w3.org/1999/xlink" x="0px" y="0px"
	 width="400px" height="400px" viewBox="0 0 60 60" style="enable-background:new 0 0 60 60;" xml:space="preserve">
<path d="M41.955,3.604c-3.781-1.721-7.805-2.605-11.957-2.605c-3.455,0-6.855,0.669-10.125,1.896
			c0.766,0.695,21.096,19.186,22.082,20.085C41.955,21.649,41.955,4.014,41.955,3.604z"/>
<path d="M45.016,5.271c0,1.155,0,33.737,0,34.354c0.596,0,11.881,0,12.342,0C58.436,36.532,59,33.314,59,30.06
			C59,19.962,53.641,10.532,45.016,5.271z"/>
<path d="M18.119,42.688c0.623,0,36.883,0,37.932,0c-4.443,9.188-13.389,15.377-23.406,16.313h-5.316
			c-3.176-0.298-6.262-1.12-9.209-2.444C18.119,56.141,18.119,43.291,18.119,42.688z"/>
<path d="M15.072,54.881c0-1.138,0-23.65,0-24.988c-0.967,0.885-11.648,10.609-11.98,10.914
			C5.416,46.646,9.658,51.601,15.072,54.881z"/>
<g id="Picasa">
<path d="M16.787,4.223C7.049,9.229,1,19.103,1,30.06c0,2.495,0.377,5.033,1.055,7.549
				c0.789-0.717,25.205-22.944,25.707-23.405C27.27,13.759,17.117,4.522,16.787,4.223z"/>
</svg>