<svg version="1.1" id="Layer_1" xmlns="http://www.w3.org/2000/svg" xmlns:xlink="http://www.w3.org/1999/xlink" x="0px" y="0px"
	 width="400px" height="400px" viewBox="0 0 60 60" style="enable-background:new 0 0 60 60;" xml:space="preserve">
<path d="M59,56.135C59,57.718,57.718,59,56.134,59H3.864C2.282,59,1,57.718,1,56.135V3.865C1,2.282,2.282,1,3.864,1
			h52.27C57.718,1,59,2.282,59,3.865V56.135z"/>
<path d="M 53.052,45.81 L 6.921,45.781 6.99,13.745 53.121,13.779     z"/>
<path d="M52.538,40.086L46.3,33.839c0,0-1.787-2.305-3.448-2.212c-1.495,0.083-3.242,1.955-3.576,2.325
						l-2.09-2.095c0,0-2.093-2.704-4.041-2.594c-1.948,0.108-4.273,2.819-4.273,2.819L28.23,32.72l-3.935-3.942
						c0,0-2.574-3.323-4.965-3.189c-2.392,0.133-5.253,3.465-5.253,3.465l-6.633,6.623"/>
<path d="M35.782,20.699c0.009-0.071,0.058-0.135,0.056-0.21c0-1.146-1.238-2.076-2.766-2.077
						c-0.202,0-0.378,0.054-0.57,0.084c-0.457-0.609-1.293-1.036-2.293-1.038c-1.295,0-2.323,0.702-2.566,1.622
						c-1.257,0.247-2.205,1.066-2.207,2.086c0,0.968,0.843,1.765,1.998,2.061c0.392,0.881,1.465,1.528,2.771,1.528
						c1.183,0.002,2.188-0.528,2.66-1.282c0.306,0.103,0.634,0.165,0.99,0.165c1.356,0.002,2.458-0.823,2.459-1.843
						C36.313,21.378,36.093,21.01,35.782,20.699z"/>
<path d="M41.187,23.894c-0.01-0.057-0.047-0.105-0.047-0.164c0.001-0.896,0.974-1.62,2.166-1.62
						c0.156,0,0.295,0.043,0.444,0.068c0.357-0.477,1.012-0.811,1.791-0.811c1.014,0.002,1.818,0.552,2.01,1.27
						c0.98,0.197,1.719,0.839,1.718,1.635c0,0.755-0.662,1.376-1.562,1.606c-0.308,0.689-1.148,1.191-2.168,1.191
						c-0.926,0.003-1.709-0.414-2.079-1.001c-0.237,0.079-0.499,0.126-0.772,0.126c-1.063-0.002-1.922-0.646-1.919-1.442
						C40.764,24.424,40.937,24.136,41.187,23.894z"/>
</svg>