<svg version="1.1" id="Layer_1" xmlns="http://www.w3.org/2000/svg" xmlns:xlink="http://www.w3.org/1999/xlink" x="0px" y="0px"
	 width="400px" height="400px" viewBox="0 0 60 60" style="enable-background:new 0 0 60 60;" xml:space="preserve">
<path d="M30.001,1C13.987,1,1,13.983,1,30c0,11.875,7.142,22.079,17.358,26.565c-0.081-2.027-0.012-4.461,0.504-6.658
		c0.562-2.359,3.735-15.808,3.735-15.808s-0.929-1.85-0.929-4.587c0-4.295,2.493-7.504,5.598-7.504c2.634,0,3.91,1.979,3.91,4.349
		c0,2.653-1.693,6.62-2.563,10.292c-0.728,3.076,1.541,5.586,4.573,5.586c5.496,0,9.197-7.055,9.197-15.418
		c0-6.354-4.277-11.109-12.068-11.109c-8.794,0-14.275,6.557-14.275,13.882c0,2.53,0.745,4.311,1.912,5.693
		c0.537,0.633,0.611,0.886,0.414,1.614c-0.135,0.534-0.452,1.818-0.586,2.326c-0.196,0.738-0.789,0.998-1.454,0.727
		c-4.052-1.652-5.938-6.089-5.938-11.078c0-8.239,6.945-18.118,20.727-18.118c11.073,0,18.36,8.012,18.36,16.614
		c0,11.375-6.327,19.873-15.649,19.873c-3.134,0-6.078-1.693-7.084-3.612c0,0-1.685,6.682-2.04,7.973
		c-0.614,2.23-1.82,4.472-2.92,6.211C24.389,58.584,27.145,59,30.001,59C46.016,59,59,46.018,59,30C59,13.983,46.016,1,30.001,1z"/>
</svg>