<svg version="1.1" id="Layer_1" xmlns="http://www.w3.org/2000/svg" xmlns:xlink="http://www.w3.org/1999/xlink" x="0px" y="0px"
	 width="400px" height="400px" viewBox="0 0 60 60" style="enable-background:new 0 0 60 60;" xml:space="preserve">
<path d="M21.619,7.834V3.405C21.619,2.078,22.695,1,24.022,1l0,0c1.33,0,2.406,1.078,2.406,2.405v4.429"/>
<path d="M33.746,7.834V3.405C33.746,2.078,34.824,1,36.152,1l0,0c1.328,0,2.405,1.078,2.405,2.405v4.429"/>
<path d="M33.692,59V48.586c1.832-0.524,3.037-1.669,3.037-4.042v-2.78c4.494-1.325,7.558-18.002,7.558-22.815
			c0-5.017-2.761-5.716-7.811-5.716H23.523c-5.05,0-7.811,0.699-7.811,5.716c0,4.722,2.949,20.866,7.303,22.728v2.868
			c0,2.315,1.15,3.458,2.907,3.999v10.415"/>
<path d="M38.96,13.322V7.835h-5.62v5.397h-6.508V7.835h-5.62v5.475c-3.599,0.274-5.601,1.448-5.601,5.639
			c0,0,0.388,0.507,14.389,0.507s14.388-0.507,14.388-0.507C44.389,14.824,42.453,13.62,38.96,13.322z"/>
</svg>