<svg version="1.1" id="Layer_1" xmlns="http://www.w3.org/2000/svg" xmlns:xlink="http://www.w3.org/1999/xlink" x="0px" y="0px"
	 width="400px" height="400px" viewBox="0 0 60 60" style="enable-background:new 0 0 60 60;" xml:space="preserve">
<path d="M49.13,47.148c0-0.238,0.073-0.49,0.216-0.755c0.144-0.265,0.357-0.516,0.635-0.755
									c0.28-0.24,0.625-0.431,1.039-0.576c0.414-0.146,0.875-0.218,1.387-0.218c0.446,0,0.854,0.061,1.222,0.183
									c0.367,0.121,0.688,0.299,0.958,0.529c0.272,0.229,0.475,0.495,0.613,0.798c0.139,0.306,0.208,0.631,0.208,0.981
									c0,0.46-0.101,0.853-0.3,1.183c-0.2,0.328-0.199,1.377,0.048,1.626c0.246,0.247,0.432,0.521,0.556,0.825
									c0.124,0.3,0.186,0.624,0.186,0.976c0,0.418-0.083,0.822-0.251,1.214c-0.168,0.391-0.416,0.737-0.743,1.043
									c-0.326,0.309-0.713,0.548-1.163,0.719c-0.448,0.172-0.944,0.26-1.487,0.26c-0.552,0-1.047-0.101-1.484-0.297
									c-0.436-0.199-0.797-0.444-1.079-0.742c-0.284-0.296-0.497-0.604-0.643-0.921c-0.145-0.318-0.216-0.579-0.216-0.786
									 M50.283,47.888 M51.089,46.592"/>
<path d="M7.79,44.083c0-0.314,0.071-0.646,0.214-0.992c0.142-0.345,0.354-0.657,0.639-0.937
									c0.281-0.281,0.641-0.508,1.075-0.682c0.436-0.172,0.944-0.257,1.529-0.257c0.704,0,1.307,0.104,1.801,0.33
									c0.937,0.429,1.917,2.584,0.741,3.891c-1.176,1.306-6.466,5.955-6.466,5.955h7.446"/>
<path d="M58.336,41.126H43.516V23.828c0-0.919-0.746-1.664-1.665-1.664H20.945c-0.918,0-1.665,0.745-1.665,1.664
			v11.675H3.664C2.744,35.503,2,36.248,2,37.166v19.281c0,0.919,0.744,1.664,1.664,1.664h54.673c0.918,0,1.664-0.745,1.664-1.664
			V42.789C60,41.871,59.255,41.126,58.336,41.126z"/>
<path d="M37.074,10.244c0.712-0.107,1.55-0.63,2.981-2.102c2.542-2.614,2.186-4.947,2.186-4.947
						c0-0.722-0.433-1.307-0.968-1.307l-4.498,0.975"/>
<path d="M25.073,2.844l-4.412-0.955c-0.535,0-0.968,0.585-0.968,1.307c0,0-0.357,2.333,2.186,4.947
						c1.406,1.445,2.238,1.976,2.942,2.095"/>
<path d="M35.209,22.185c0-0.027,0-0.057,0-0.077c0-1.067-0.901-1.824-2.232-2.192l0.501-2.502
					c0.632-0.286,1.023-0.68,1.023-1.114c0-0.327-0.223-0.631-0.606-0.884c1.912-1.084,3.208-3.188,3.208-5.607
					c0-0.089-0.004-0.177-0.008-0.264C37.1,9.5,37.104,9.459,37.104,9.416V3.845c0-1.044-0.848-1.893-1.895-1.893h-8.511
					c-1.045,0-1.892,0.849-1.892,1.893v5.571c0,0.043,0.004,0.084,0.007,0.128c-0.003,0.087-0.007,0.175-0.007,0.264
					c0,2.438,1.317,4.556,3.251,5.631c-0.359,0.248-0.57,0.543-0.57,0.86c0,0.435,0.391,0.828,1.025,1.114l0.496,2.483
					c-1.37,0.359-2.309,1.123-2.309,2.211c0,0.021,0,0.05,0,0.077"/>
<path d="M33.951,7.518c0,0.157-0.125,0.284-0.282,0.284h-5.46c-0.156,0-0.285-0.127-0.285-0.284V4.922
					c0-0.156,0.128-0.283,0.285-0.283h5.46c0.156,0,0.282,0.127,0.282,0.283V7.518z"/>
<path d="M 31.749 26.932 L 31.749 35.64"/>
<path d="M 28.962 28.673 L 31.749 26.932"/>
<path d="M 55 49.659 L 52.78 49.659"/>
</svg>