<svg version="1.1" id="Layer_1" xmlns="http://www.w3.org/2000/svg" xmlns:xlink="http://www.w3.org/1999/xlink" x="0px" y="0px"
	 width="400px" height="400px" viewBox="0 0 60 60" style="enable-background:new 0 0 60 60;" xml:space="preserve">
<path d="M11.99,31.188V20.311c0-1.754,1.422-3.179,3.178-3.179h29.666c1.756,0,3.178,1.425,3.178,3.179v11.343"/>
<path d="M47.939,19.763h5.943c2.826,0,5.117,2.292,5.117,5.119v20.897"/>
<path d="M1,45.779V24.882c0-2.826,2.291-5.119,5.117-5.119h5.918"/>
<path d="M59,24.882c-13.221,13.221-44.141,12.368-58,0"/>
<path d="M48.934,53.029h4.949c2.826,0,5.117-2.291,5.117-5.117v-2.133"/>
<path d="M1,45.779v2.133c0,2.826,2.291,5.117,5.117,5.117h5.359"/>
<path d="M14.551,46.33c-0.342-0.467-0.545-1.042-0.545-1.665v-2.889c0-1.559,1.266-2.822,2.824-2.822h26.609    c1.557,0,2.822,1.263,2.822,2.822v2.889c0,0.505-0.133,0.978-0.367,1.388"/>
<path d="M 51.326,58.57 L 8.961,58.574 16.354,42.51 44.359,42.51   z"/>
<path d="M 44.014,17.16 L 42.938,1.426 16.779,1.426 16.035,17.166   "/>
<path d="M 51.648 24.347 L 54.02 24.347"/>
</svg>