<svg version="1.1" id="Layer_1" xmlns="http://www.w3.org/2000/svg" xmlns:xlink="http://www.w3.org/1999/xlink" x="0px" y="0px"
	 width="400px" height="400px" viewBox="0 0 60 60" style="enable-background:new 0 0 60 60;" xml:space="preserve">
<path d="M52.948,6.332H7.051C3.71,6.332,1,9.042,1,12.383v26.731c0,3.342,2.71,6.052,6.051,6.052h30.464l5.767,8.145
			c0.474,0.476,1.243,0.476,1.719,0l5.765-8.145h2.183c3.341,0,6.052-2.71,6.052-6.052V12.383C59,9.042,56.29,6.332,52.948,6.332z"
			/>
<path d="M22.561,26.626h-0.505c-1.248,0-2.38-0.507-3.395-1.52c-1.017-1.016-1.522-2.214-1.522-3.598
					c0-1.428,0.506-2.623,1.522-3.581c1.015-0.959,2.26-1.439,3.732-1.439c1.669,0,3.038,0.669,4.097,2.007
					c1.058,1.339,1.586,3.2,1.586,5.588c0,2.186-0.461,4.243-1.388,6.173c-0.924,1.928-2.062,3.462-3.413,4.6
					c-1.349,1.137-2.568,1.706-3.664,1.706c-0.692,0-1.253-0.216-1.688-0.653c-0.435-0.433-0.652-0.964-0.652-1.589
					c0-1.003,0.457-1.739,1.374-2.208c1.181-0.691,2.105-1.451,2.775-2.275C22.09,29.015,22.469,27.945,22.561,26.626z
					 M37.281,26.626h-0.402c-1.271,0-2.427-0.501-3.461-1.505c-1.04-1.004-1.557-2.208-1.557-3.612c0-1.405,0.511-2.594,1.54-3.563
					c1.026-0.972,2.275-1.457,3.745-1.457c1.697,0,3.068,0.657,4.117,1.974c1.049,1.316,1.572,3.191,1.572,5.622
					c0,2.252-0.462,4.331-1.387,6.241c-0.926,1.905-2.063,3.422-3.414,4.549c-1.35,1.126-2.583,1.689-3.697,1.689
					c-0.713,0-1.284-0.212-1.708-0.635c-0.421-0.424-0.635-0.959-0.635-1.607c0-0.981,0.457-1.718,1.374-2.208
					c1.268-0.736,2.217-1.5,2.843-2.292C36.835,29.03,37.19,27.966,37.281,26.626z"/>
</svg>