<svg version="1.1" id="Layer_1" xmlns="http://www.w3.org/2000/svg" xmlns:xlink="http://www.w3.org/1999/xlink" x="0px" y="0px"
	 width="400px" height="400px" viewBox="0 0 60 60" style="enable-background:new 0 0 60 60;" xml:space="preserve">
<path d="M24.523,2.858l8.799,12.474c-1.143,0.771-2.287,1.544-3.429,2.315c-0.003,0.002-0.005,0.004-0.008,0.007
				c-0.007,0.004-0.012,0.009-0.017,0.013c-0.463,0.329-0.558,0.807-0.426,1.23c0.076,0.414,0.359,0.783,0.899,0.887
				c3.917,0.759,7.835,1.519,11.753,2.277c0.633,0.124,1.267-0.301,1.39-0.935c0.758-3.917,1.517-7.835,2.276-11.751
				c0.199-1.031-0.979-1.781-1.837-1.201c-1.184,0.797-2.366,1.596-3.548,2.396l-4.923-7.167c-0.498-0.721-1.658-1.274-2.529-1.207
				l-8.719,0.66l-9.466,13.582c-1.27,2.137-0.657,4.989,1.437,6.38s4.997,0.522,6.459-1.176c1.285-1.492,7.488-10.807,7.488-10.807"
				/>
<path d="M58.838,42.486l-15.212,1.292c-0.089-1.376-0.177-2.754-0.265-4.13c0-0.004-0.002-0.006-0.001-0.01
				c0-0.007-0.002-0.014-0.003-0.021c-0.048-0.565-0.414-0.888-0.844-0.989c-0.397-0.143-0.859-0.086-1.221,0.328
				c-2.635,2.996-5.27,5.994-7.905,8.991c-0.425,0.484-0.38,1.246,0.104,1.672c3,2.633,5.995,5.268,8.992,7.901
				c0.79,0.692,2.032,0.056,1.965-0.978c-0.091-1.425-0.184-2.849-0.275-4.273l8.671-0.627c0.874-0.066,1.937-0.788,2.319-1.574
				L59,42.21l-6.938-15.032c-1.204-2.175-3.973-3.087-6.231-1.982c-2.257,1.103-2.975,4.047-2.248,6.167
				c0.638,1.862,5.541,11.922,5.541,11.922"/>
<path d="M7.148,52.386l6.137-13.978c1.252,0.582,2.503,1.162,3.754,1.742c0.004,0.001,0.006,0.001,0.01,0.003
				c0.007,0.003,0.014,0.004,0.02,0.008c0.52,0.227,0.979,0.061,1.273-0.269c0.315-0.281,0.485-0.713,0.296-1.228
				c-1.374-3.748-2.746-7.496-4.12-11.242c-0.222-0.604-0.912-0.928-1.519-0.707c-3.746,1.375-7.493,2.747-11.239,4.121
				c-0.984,0.361-1.02,1.757-0.08,2.193c1.295,0.601,2.589,1.201,3.885,1.802l-3.595,7.917c-0.36,0.798-0.234,2.077,0.274,2.789
				l5.068,7.125l16.519,1.093c2.486-0.018,4.611-2.014,4.721-4.525c0.11-2.51-2.133-4.548-4.341-4.924
				c-1.942-0.328-13.122-0.831-13.122-0.831"/>
</svg>