<svg version="1.1" id="Layer_1" xmlns="http://www.w3.org/2000/svg" xmlns:xlink="http://www.w3.org/1999/xlink" x="0px" y="0px"
	 width="400px" height="400px" viewBox="0 0 60 60" style="enable-background:new 0 0 60 60;" xml:space="preserve">
<path d="M40.149,41.5c-0.296-0.191-0.642-0.309-1.004-0.309c-0.292,0-0.599,0.084-0.87,0.263l0,0
		c-2.563,1.53-5.576,2.368-8.568,2.368c-2.245,0-4.476-0.473-6.499-1.467L23.2,42.35l-0.01-0.003
		c-0.305-0.125-0.652-0.39-1.031-0.643c-0.192-0.125-0.395-0.248-0.616-0.34c-0.221-0.094-0.465-0.159-0.728-0.159
		c-0.216,0-0.444,0.049-0.667,0.15c-0.013,0.005-0.023,0.009-0.034,0.014h0.001c-0.352,0.136-0.627,0.381-0.805,0.674
		c-0.185,0.301-0.276,0.65-0.276,0.998c0,0.314,0.073,0.63,0.228,0.915c0.146,0.271,0.372,0.507,0.666,0.667
		c2.89,1.95,6.292,2.83,9.708,2.829c3.081,0,6.177-0.715,8.936-2.011l0.015-0.01l0.014-0.007c0.366-0.216,0.848-0.408,1.303-0.689
		c0.225-0.143,0.445-0.311,0.635-0.526c0.19-0.215,0.342-0.479,0.426-0.794l0,0c0.036-0.139,0.055-0.273,0.055-0.407
		c0-0.257-0.063-0.5-0.168-0.719C40.693,41.963,40.443,41.692,40.149,41.5z M58.988,27.713v0.005C58.997,27.845,59,27.97,59,28.096
		c0,1.408-0.452,2.764-1.208,3.913c-0.701,1.075-1.673,1.976-2.79,2.586c0.071,0.561,0.113,1.126,0.113,1.688
		c-0.001,3.034-1.048,6.018-2.869,8.406v0.001h-0.005c-3.364,4.479-8.535,7.12-13.756,8.452h-0.002l-0.005,0.004
		c-2.782,0.675-5.654,1.021-8.524,1.021c-4.277,0-8.553-0.772-12.542-2.371l-0.001-0.005h-0.002
		c-4.137-1.703-8.077-4.413-10.495-8.384c-1.298-2.119-2.013-4.604-2.013-7.102c0-0.565,0.038-1.13,0.113-1.689
		c-1.088-0.613-2.031-1.482-2.73-2.52C1.535,30.981,1.061,29.676,1,28.295V28.29v-0.005v-0.012c0.001-1.934,0.841-3.766,2.146-5.113
		c1.306-1.351,3.087-2.233,4.999-2.233c0.026,0,0.052,0,0.081,0c0.199-0.014,0.402-0.022,0.604-0.022
		c0.961,0,1.923,0.156,2.837,0.507l0.003,0.003l0.006,0.001c0.782,0.33,1.555,0.727,2.247,1.275
		c0.224-0.118,0.468-0.249,0.744-0.354c4.188-2.481,9.057-3.438,13.801-3.713c0.041-2.352,0.331-4.812,1.476-6.965
		c0.956-1.788,2.611-3.184,4.586-3.665l0.007-0.004l0.01-0.001c0.75-0.146,1.51-0.212,2.263-0.212c2.003,0,3.985,0.475,5.839,1.216
		c0.82-1.24,1.993-2.206,3.367-2.748l0.014-0.007l0.011-0.006c0.806-0.25,1.66-0.399,2.515-0.399c0.901,0,1.811,0.166,2.663,0.547
		V6.377c0.001,0.003,0.001,0.003,0.001,0.003c0.006,0.002,0.012,0.007,0.018,0.007c1.221,0.469,2.253,1.339,2.987,2.42
		c0.733,1.085,1.167,2.385,1.167,3.721c0,0.246-0.014,0.493-0.044,0.741l-0.001,0.005c0,0.002,0,0.009-0.001,0.013
		c-0.144,1.727-1.019,3.242-2.258,4.322c-1.245,1.085-2.859,1.742-4.516,1.742c-0.265,0-0.533-0.016-0.8-0.052
		c-1.643-0.125-3.175-0.919-4.3-2.103c-1.128-1.18-1.857-2.757-1.857-4.461c0-0.083,0.008-0.166,0.012-0.247
		c-1.543-0.688-3.181-1.257-4.807-1.256c-0.235,0-0.474,0.014-0.707,0.037h-0.003c-1.218,0.117-2.351,0.884-2.901,1.989v0.002v0.003
		c-0.832,1.622-0.999,3.52-1.024,5.402c4.671,0.306,9.371,1.427,13.49,3.794h0.006l0.06,0.034c0.078,0.047,0.222,0.128,0.353,0.196
		c0.283-0.23,0.583-0.465,0.925-0.67c1.249-0.833,2.728-1.244,4.209-1.244c0.656,0,1.316,0.083,1.954,0.246h0.003l0.025,0.008
		c0.01,0.001,0.017,0.004,0.025,0.004v0.001c1.506,0.384,2.873,1.252,3.899,2.418c1.025,1.169,1.716,2.648,1.851,4.256V27.713z
		 M45.229,12.426c0,0.063,0.001,0.128,0.007,0.194v0.002v0.008c0.031,0.812,0.414,1.568,0.996,2.126
		c0.586,0.558,1.362,0.904,2.151,0.906h0.009h0.011c0.056,0.006,0.113,0.006,0.169,0.006c0.796,0.001,1.584-0.344,2.178-0.897
		c0.593-0.56,0.985-1.32,1.017-2.139l0.001-0.003v-0.007c0.004-0.06,0.007-0.121,0.007-0.186c0-0.84-0.393-1.644-1.01-2.238
		c-0.614-0.594-1.441-0.963-2.256-0.961c-0.264,0-0.524,0.038-0.779,0.115l-0.009,0.001l-0.007,0.004
		c-0.673,0.176-1.302,0.59-1.755,1.139C45.505,11.044,45.229,11.722,45.229,12.426z M10.75,24.946
		c-0.623-0.291-1.27-0.498-1.907-0.495c-0.106,0-0.215,0.006-0.322,0.017H8.506l-0.014,0.003c-0.917,0.026-1.843,0.424-2.536,1.064
		c-0.695,0.638-1.154,1.5-1.19,2.449v0.01l-0.001,0.008c-0.006,0.076-0.009,0.153-0.009,0.227c0,0.586,0.18,1.153,0.484,1.666
		c0.225,0.385,0.521,0.734,0.856,1.039C7.167,28.59,8.84,26.6,10.75,24.946z M51.441,36.414c0-2.09-0.753-4.188-1.975-5.88
		c-2.436-3.386-6.211-5.595-10.138-6.827L39.3,23.698c-0.754-0.231-1.515-0.437-2.284-0.611c-2.294-0.522-4.649-0.783-6.999-0.783
		c-3.159,0-6.315,0.467-9.338,1.399c-3.929,1.246-7.716,3.44-10.146,6.839v0.003c-1.231,1.696-1.952,3.802-1.952,5.901
		c0,0.771,0.098,1.543,0.301,2.295l0.003,0.001c0.441,1.686,1.308,3.19,2.425,4.504c1.119,1.313,2.49,2.436,3.935,3.349
		c0.319,0.197,0.641,0.387,0.969,0.571c4.193,2.34,9.02,3.367,13.813,3.367c0.811,0,1.626-0.028,2.431-0.087
		c4.828-0.398,9.675-1.824,13.594-4.735l0.002-0.003c1.246-0.923,2.401-2.037,3.316-3.309c0.916-1.27,1.588-2.688,1.887-4.23v-0.005
		l0.001-0.001C51.382,37.584,51.441,37.002,51.441,36.414z M55.25,28.098c0-0.509-0.116-1.013-0.37-1.483l-0.007-0.006l-0.001-0.007
		c-0.339-0.7-0.874-1.229-1.517-1.589c-0.644-0.362-1.396-0.547-2.15-0.547c-0.683,0-1.363,0.154-1.966,0.455
		c1.917,1.665,3.598,3.665,4.687,6.02c0.348-0.305,0.647-0.678,0.87-1.092C55.086,29.306,55.25,28.698,55.25,28.098z"/>
<path d="M42.467,32.158c0.151,0.382,0.219,0.777,0.219,1.17c0,0.791-0.274,1.559-0.731,2.184
		c-0.454,0.619-1.096,1.102-1.85,1.313h0.002c-0.007,0.004-0.015,0.004-0.018,0.004c-0.001,0-0.006,0.004-0.01,0.004
		c-0.355,0.12-0.716,0.177-1.076,0.177c-0.844,0-1.671-0.303-2.334-0.821c-0.657-0.516-1.153-1.258-1.31-2.137h-0.001
		c0-0.003,0-0.007-0.002-0.01c0-0.001,0-0.004-0.001-0.008h0.001c-0.048-0.228-0.072-0.454-0.072-0.678
		c0-0.761,0.258-1.493,0.688-2.097c0.427-0.6,1.028-1.077,1.732-1.322c0.001,0,0.004-0.002,0.004-0.002
		c0.003,0,0.003-0.002,0.006-0.002c0.4-0.149,0.819-0.222,1.236-0.222c0.756,0,1.504,0.229,2.134,0.649
		c0.621,0.413,1.126,1.02,1.379,1.772c0.001,0.005,0.001,0.01,0.004,0.013c0,0.007,0.001,0.009,0.005,0.013H42.467z"/>
<path d="M19.861,36.814c0.004,0,0.011,0.001,0.018,0.004c0.368,0.134,0.749,0.199,1.125,0.199
		c0.939,0,1.852-0.382,2.543-1.01c0.69-0.628,1.16-1.518,1.16-2.531c0-0.027,0-0.054,0-0.084c0.002-0.045,0.004-0.097,0.004-0.146
		c0-1.006-0.465-1.898-1.149-2.53c-0.686-0.633-1.596-1.019-2.539-1.019c-0.252,0-0.509,0.029-0.76,0.088
		c-0.003,0-0.006,0.001-0.01,0.001c0,0-0.002,0-0.004,0c-1.248,0.262-2.341,1.187-2.746,2.461l0,0v0.002
		c0,0.002-0.001,0.005-0.001,0.005c-0.116,0.349-0.17,0.709-0.17,1.064c0,0.781,0.258,1.541,0.703,2.167
		c0.44,0.614,1.064,1.098,1.813,1.323C19.853,36.81,19.855,36.811,19.861,36.814z"/>
</svg>