<svg version="1.1" id="Layer_1" xmlns="http://www.w3.org/2000/svg" xmlns:xlink="http://www.w3.org/1999/xlink" x="0px" y="0px"
	 width="400px" height="400px" viewBox="0 0 60 60" style="enable-background:new 0 0 60 60;" xml:space="preserve">
<path  d="M51.466,21.721c0-4.534-3.675-8.209-8.211-8.209H16.81c-4.534,0-8.209,3.675-8.209,8.209v9.389"/>
<path d="M1,23.736c-0.016,0.016,7.522,7.521,7.522,7.521s7.536-7.527,7.528-7.527"/>
<path d="M8.534,38.279c0,4.534,3.675,8.209,8.211,8.209H43.19c4.534,0,8.209-3.675,8.209-8.209v-9.389"/>
<path d="M59,36.264c0.016-0.016-7.522-7.521-7.522-7.521s-7.536,7.527-7.528,7.527"/>
</svg>