<svg version="1.1" id="Layer_1" xmlns="http://www.w3.org/2000/svg" xmlns:xlink="http://www.w3.org/1999/xlink" x="0px" y="0px"
	 width="400px" height="400px" viewBox="0 0 60 60" style="enable-background:new 0 0 60 60;" xml:space="preserve">
<path d="M 26.89 49.172 L 14.088 49.172"/>
<path d="M26.817,37.165c0,6.22-5.699,12.007-12.729,12.007c-7.032,0-12.731-5.375-12.731-12.007
					c0-6.631,5.662-12.006,12.731-12.006C21.158,25.158,26.817,30.944,26.817,37.165z"/>
<path d="M10.036,37.165a4.051,3.821 0 1,0 8.102,0a4.051,3.821 0 1,0 -8.102,0"/>
<path d="M26.817,37.31c0,3.535,0.072,18.649,0.072,18.649c0,1.68,1.361,3.042,3.041,3.042H55.47
				c1.679,0,3.042-1.362,3.042-3.042v-6.78c0-0.084-0.019-0.164-0.025-0.246c0.075-3.595,0.157-8.213,0.157-11.624
				c0-6.446-5.391-11.936-12.15-12.223H14.088"/>
<path d="M45.914,1c7.03,0,12.729,5.375,12.729,12.005c0,6.632-5.699,12.079-12.729,12.079"/>
<path d="M 14.088 1 L 46.493 1"/>
<path d="M1.3569999999999993,13.005a12.73,12.009 0 1,0 25.46,0a12.73,12.009 0 1,0 -25.46,0"/>
<path d="M10.036,13.005a4.051,3.821 0 1,0 8.102,0a4.051,3.821 0 1,0 -8.102,0"/>
</svg>