<svg version="1.1" id="Layer_1" xmlns="http://www.w3.org/2000/svg" xmlns:xlink="http://www.w3.org/1999/xlink" x="0px" y="0px"
	 width="400px" height="400px" viewBox="0 0 60 60" style="enable-background:new 0 0 60 60;" xml:space="preserve">
<path d="M 34.581,19.67 L 31.378,24.158 28.177,19.673    "/>
<path d="M55.62,28.821c2.241,0,3.38,1.14,3.379,3.38L59,43.69c0,2.24-1.139,3.38-3.38,3.38H27.91      c-2.24,0-3.379-1.14-3.379-3.38V32.201c0-2.24,1.139-3.38,3.379-3.38H55.62z"/>
<path d="M56.747,37.465c0.129,0,0.233,0.104,0.233,0.231v0.399c0,0.128-0.104,0.231-0.233,0.23H56.35       c-0.129,0-0.232-0.103-0.232-0.23v-0.399c0-0.127,0.104-0.231,0.232-0.231H56.747z"/>
<path d="M 28.84 46.224 L 28.84 29.75"/>
<path d="M 54.016 29.75 L 54.016 46.224"/>
<path d="M19.249,43.855c0,2.24-1.14,3.379-3.379,3.379l-11.49,0c-2.239,0-3.38-1.14-3.38-3.379v-27.71      c0-2.24,1.141-3.38,3.38-3.38h11.49c2.239,0,3.379,1.14,3.379,3.38V43.855z"/>
<path d="M10.605,44.969c0,0.128-0.104,0.232-0.232,0.232H9.974c-0.126,0-0.231-0.104-0.23-0.232V44.57       c0-0.128,0.104-0.231,0.23-0.231h0.399c0.128,0,0.232,0.103,0.232,0.231V44.969z"/>
<path d="M 1.846 17.073 L 18.319 17.073"/>
<path d="M 18.319 42.249 L 1.846 42.249"/>
<path d="M31.316,23.77c0-8.915-1.446-10.938-7.194-10.938"/>
</svg>