<svg version="1.1" id="Layer_1" xmlns="http://www.w3.org/2000/svg" xmlns:xlink="http://www.w3.org/1999/xlink" x="0px" y="0px"
	 width="400px" height="400px" viewBox="0 0 60 60" style="enable-background:new 0 0 60 60;" xml:space="preserve">
<path d="M47.745,58.266c-0.981,0.98-2.575,0.979-3.556-0.003L1.747,15.822c-0.983-0.982-0.983-2.572,0-3.555"/>
<path d="M 1.61,12.32 L 12.937,1 58.99,47.053 47.664,58.381    "/>
<path d="M 9.11 10.633 L 15.82 3.924"/>
<path d="M 16.814 18.339 L 23.528 11.627"/>
<path d="M 24.522 26.045 L 31.233 19.338"/>
<path d="M 32.226 33.753 L 38.941 27.042"/>
<path d="M 16.253 10.944 L 19.548 7.65"/>
<path d="M 23.961 18.651 L 27.256 15.357"/>
<path d="M 31.667 26.357 L 34.961 23.065"/>
<path d="M 40.433 41.958 L 47.144 35.245"/>
<path d="M 48.138 49.662 L 54.85 42.95"/>
<path d="M 39.871 34.562 L 43.166 31.268"/>
<path d="M 47.577 42.267 L 50.871 38.973"/>
</svg>