<svg version="1.1" id="Layer_1" xmlns="http://www.w3.org/2000/svg" xmlns:xlink="http://www.w3.org/1999/xlink" x="0px" y="0px"
	 width="400px" height="400px" viewBox="0 0 60 60" style="enable-background:new 0 0 60 60;" xml:space="preserve">
<path  d="M33.655,2.522C32.508,1.535,31.279,1,30.002,1c-4.004,0-7.522,5.251-9.558,13.188
									c2.802,0.662,5.809,1.644,8.909,2.927c3.424-1.838,6.767-3.263,9.851-4.229c-0.488-1.698-1.048-3.254-1.667-4.644"/>
<path  d="M20.798,47.116C22.873,54.319,26.22,59,30.002,59c4.001,0,7.521-5.25,9.554-13.186
									c-2.8-0.664-5.808-1.646-8.908-2.93C27.225,44.726,23.882,46.148,20.798,47.116z"/>
<path  d="M14.918,48.442c1.802-0.223,3.779-0.669,5.88-1.327c-0.883-3.068-1.533-6.594-1.89-10.413
									c-2.853-1.854-5.394-3.807-7.539-5.766c-5.381,6.006-7.744,11.75-5.563,15.056c0.521,0.789,1.273,1.394,2.222,1.822"/>
<path  d="M48.634,29.065c5.38-6.005,7.744-11.751,5.562-15.056c-2.085-3.152-7.838-3.366-14.991-1.123
									c0.884,3.068,1.533,6.594,1.889,10.413C43.944,25.152,46.487,27.105,48.634,29.065z"/>
<path  d="M30.647,42.884c-1.959-0.811-3.951-1.739-5.95-2.79c-2.043-1.073-3.977-2.213-5.789-3.391
									c0.356,3.818,1.007,7.345,1.89,10.413"/>
<path  d="M18.844,24.002c0.294-3.557,0.848-6.87,1.601-9.814c-7.972-1.893-14.254-1.219-16.117,2.325
									C2.485,20.02,5.413,25.5,11.369,30.937C13.442,28.622,15.964,26.27,18.844,24.002z"/>
<path  d="M40.82,39.167c-0.312,2.366-0.738,4.596-1.265,6.647c7.972,1.89,14.256,1.218,16.118-2.326
									c1.842-3.508-1.088-8.987-7.04-14.424c-1.31,1.461-2.797,2.938-4.438,4.397"/>
<path  d="M39.556,45.814c0.526-2.051,0.953-4.281,1.265-6.647"/>
<path  d="M38.793,37.781c-0.811,0.586-1.647,1.165-2.505,1.732c-1.885,1.245-3.774,2.369-5.641,3.372"/>
<path  d="M18.844,24.002c1.527-1.2,3.153-2.379,4.869-3.513c1.885-1.245,3.773-2.368,5.641-3.374
									c-3.101-1.284-6.107-2.266-8.909-2.927"/>
<path  d="M41.093,23.299c0.2,2.151,0.311,4.393,0.311,6.701c0,0.812-0.014,1.615-0.039,2.408"/>
<path  d="M18.908,36.703c-0.201-2.152-0.31-4.396-0.31-6.703c0-2.056,0.085-4.063,0.245-5.999"/>
<path  d="M41.093,23.299c-1.81-1.18-3.745-2.318-5.788-3.393c-2.001-1.05-3.993-1.979-5.951-2.792"/>
<path  d="M32.193999999999996,5.356a3.469,3.469 0 1,0 6.938,0a3.469,3.469 0 1,0 -6.938,0"/>
<path  d="M7.98,48.104a3.469,3.469 0 1,0 6.938,0a3.469,3.469 0 1,0 -6.938,0"/>
<path  d="M41.64,32.378c-1.914,0-3.467,1.553-3.467,3.47c0,1.915,1.553,3.47,3.467,3.47
									c1.918,0,3.473-1.555,3.473-3.47C45.112,33.931,43.558,32.378,41.64,32.378z"/>
</svg> 