<svg version="1.1" id="Layer_1" xmlns="http://www.w3.org/2000/svg" xmlns:xlink="http://www.w3.org/1999/xlink" x="0px" y="0px"
	 width="400px" height="400px" viewBox="0 0 60 60" style="enable-background:new 0 0 60 60;" xml:space="preserve">
<path d="M33.013,36.618l-2.684-5.059c1.002-2.336,1.32-3.989,2.32-6.324c-4.167-8.001-8.334-16.007-12.501-24.008
					c-4.02,3.358-7.167,8.526-4.183,16.595L28.546,39.6L33.013,36.618z M26.831,28.957c-1.117,0-2.024-0.906-2.024-2.024
					s0.907-2.023,2.024-2.023c1.121,0,2.024,0.905,2.024,2.023S27.952,28.957,26.831,28.957z"/>
<path d="M33.47,31.037l7.715-13.442C44.168,9.526,41.023,4.358,37.003,1l-7.108,13.185"/>
<path d="M49.756,44.375c-1.371-2.549-3.371-4.489-5.497-5.563c-2.415-1.221-5.023-1.375-7.253-0.179
				c-1.092,0.588-1.962,1.429-2.603,2.453c-3.278,6.749,0.381,11.379,0.381,11.379c0.135,0.247,0.275,0.489,0.42,0.723l0.283,0.489
				l0.015-0.023c1.306,1.947,2.99,3.448,4.763,4.345c2.415,1.223,5.023,1.377,7.252,0.18c2.228-1.2,3.539-3.466,3.853-6.155
				C51.644,49.66,51.128,46.924,49.756,44.375z M46.307,51.444c-0.123,1.056-0.533,1.888-1.202,2.249
				c-0.672,0.358-1.597,0.244-2.549-0.24c-1.239-0.627-2.438-1.819-3.302-3.431c-0.865-1.608-1.199-3.271-1.037-4.657
				c0.122-1.058,0.531-1.889,1.202-2.246c0.668-0.363,1.596-0.245,2.547,0.238c1.239,0.627,2.437,1.819,3.304,3.43
				C46.136,48.396,46.469,50.055,46.307,51.444z"/>
<path d="M8.631,52.022c0.313,2.689,1.624,4.955,3.853,6.155c2.229,1.197,4.837,1.043,7.251-0.18
				c1.774-0.896,3.458-2.397,4.764-4.345l0.015,0.023l0.283-0.489c0.147-0.233,0.287-0.476,0.42-0.723c0,0,3.659-4.63,0.38-11.379
				c-0.639-1.024-1.511-1.865-2.603-2.453c-2.229-1.196-4.837-1.042-7.252,0.179c-2.127,1.074-4.127,3.015-5.498,5.563
				C8.871,46.924,8.357,49.66,8.631,52.022z M14.729,46.787c0.869-1.61,2.065-2.803,3.304-3.43c0.952-0.483,1.879-0.602,2.547-0.238
				c0.67,0.357,1.082,1.188,1.203,2.246c0.161,1.387-0.172,3.049-1.035,4.657c-0.865,1.611-2.065,2.804-3.304,3.431
				c-0.951,0.484-1.875,0.599-2.549,0.24c-0.667-0.361-1.078-1.193-1.201-2.249C13.531,50.055,13.865,48.396,14.729,46.787z"/>
</svg>