<svg version="1.1" id="Layer_1" xmlns="http://www.w3.org/2000/svg" xmlns:xlink="http://www.w3.org/1999/xlink" x="0px" y="0px"
	 width="400px" height="400px" viewBox="0 0 60 60" style="enable-background:new 0 0 60 60;" xml:space="preserve">
<path d="M55.474,42.428H4.405V7.888h51.069V42.428z"/>
<path d="M33.972,47.705c10.736-0.391,21.567-1.917,21.567-1.917c1.911,0,3.461-1.551,3.461-3.466V8.129
				c0-1.912-1.55-3.462-3.461-3.462h-4.593H4.463C2.55,4.667,1,6.218,1,8.129v34.193c0,1.915,1.55,3.466,3.463,3.466
				c0,0,8.456,1.085,16.586,1.659l0,0c0.028,0.002,0.055,0.003,0.083,0.006c0.305,0.02,0.608,0.042,0.911,0.063
				c0.054,0.002,0.108,0.006,0.162,0.01c0.301,0.021,0.602,0.037,0.901,0.057c0.062,0.002,0.122,0.006,0.184,0.01
				c0.288,0.018,0.572,0.032,0.855,0.047c0.073,0.004,0.145,0.01,0.217,0.014c0.268,0.012,0.534,0.024,0.799,0.037
				c0.083,0.006,0.167,0.006,0.249,0.01c0.234,0.012,0.467,0.02,0.697,0.029L33.972,47.705z"/>
<path d="M 29.958 47.709 L 29.958 55.332"/>
<path d="M 41.456 55.332 L 18.46 55.332"/>
</svg>