<svg version="1.1" id="Layer_1" xmlns="http://www.w3.org/2000/svg" xmlns:xlink="http://www.w3.org/1999/xlink" x="0px" y="0px"
	 width="400px" height="400px" viewBox="0 0 60 60" style="enable-background:new 0 0 60 60;" xml:space="preserve">
<path d="M59,16.147c0-3.678-2.982-6.66-6.66-6.66H7.66c-3.678,0-6.66,2.982-6.66,6.66v27.705c0,3.678,2.982,6.662,6.66,6.662h44.68
			c3.678,0,6.66-2.984,6.66-6.662V16.147z"/>
<path d="M1,17.494h57.957"/>
<path d="M8.26,12.966c0.374,0,0.677,0.303,0.677,0.677S8.634,14.32,8.26,14.32c-0.374,0-0.677-0.303-0.677-0.677S7.886,12.966,8.26,12.966z"/>
<path d="M13.387,12.966c0.374,0,0.677,0.303,0.677,0.677s-0.303,0.677-0.677,0.677c-0.374,0-0.677-0.303-0.677-0.677
		S13.013,12.966,13.387,12.966z"/>
<path d="M18.45,12.966c0.374,0,0.677,0.303,0.677,0.677s-0.303,0.677-0.677,0.677c-0.374,0-0.677-0.303-0.677-0.677

		S18.076,12.966,18.45,12.966z"/>
<path d="M46.373,45.001h-0.115c-0.277-0.844-0.617-1.658-1.015-2.44l0.084-0.08c1.475-1.478,3.577-5.731,1.448-7.86l-1.297-1.296
				c-2.129-2.129-6.267-0.145-7.857,1.447l-0.083,0.084c-0.781-0.396-1.597-0.734-2.44-1.012v-0.117
				c0-2.086-1.522-6.581-4.533-6.581h-1.833c-3.009,0-4.533,4.329-4.533,6.581v0.117c-0.844,0.276-1.658,0.615-2.439,1.012
				l-0.083-0.084c-1.24-1.24-5.731-3.578-7.858-1.447l-1.298,1.295c-2.128,2.129,0.092,6.501,1.448,7.861l0.085,0.082
				c-0.397,0.781-0.736,1.596-1.014,2.439h-0.115c-1.754,0-6.581,1.521-6.581,4.533v0.847c0.426,0.085,0.866,0.132,1.316,0.132
				h11.873c0-0.021-0.002-0.039-0.002-0.061c0-5.59,4.53-10.12,10.118-10.12c5.59,0,10.122,4.53,10.122,10.12
				c0,0.021-0.004,0.041-0.004,0.061H52.34c0.207,0,0.412-0.013,0.614-0.031v-0.946C52.954,46.523,48.626,45.001,46.373,45.001z"/>
</svg>