<svg version="1.1" id="Layer_1" xmlns="http://www.w3.org/2000/svg" xmlns:xlink="http://www.w3.org/1999/xlink" x="0px" y="0px"
	 width="400px" height="400px" viewBox="0 0 60 60" style="enable-background:new 0 0 60 60;" xml:space="preserve">
<path d="M55.848,10.648l-40.271-3.25c-1.742,0-3.697,1.332-3.154,2.971l6.502,22.811c0.737,2.055,2.438,2.078,4.18,2.078h30.38
			c1.742,0,3.152-1.33,3.152-2.971L59,14.027C59,12.387,58.032,10.836,55.848,10.648z"/>
<path d="M47.57,42.943c2.846,0,5.152,2.308,5.152,5.154c0,2.846-2.307,5.152-5.152,5.152s-5.153-2.307-5.153-5.152
		C42.417,45.251,44.725,42.943,47.57,42.943z"/>
<path d="M22.111,42.943c2.846,0,5.153,2.308,5.153,5.154c0,2.846-2.307,5.152-5.153,5.152c-2.846,0-5.153-2.307-5.153-5.152
		C16.958,45.251,19.265,42.943,22.111,42.943z"/>
<path d="M1,6.75h6.025l8.936,30.789c0.416,1.246,1.213,1.941,2.413,1.941h36.489"/>
<path d="M57.466,18.832"/>
<path d="M18.201,16.014l35.611,1.617"/>
<path d="M55.861,25.742"/>
<path d="M20.464,23.684l32.472,0.921"/>
</svg>