<svg version="1.1" id="Layer_1" xmlns="http://www.w3.org/2000/svg" xmlns:xlink="http://www.w3.org/1999/xlink" x="0px" y="0px"
	 width="400px" height="400px" viewBox="0 0 60 60" style="enable-background:new 0 0 60 60;" xml:space="preserve">
<path d="M20.083,9.362c1.697-3.245,4.844-6.299,10.672-6.299c3.583,0,6.468,1.874,8.571,4.032
					c0.699,0.718,1.265,1.504,1.721,2.311"/>
<path d="M2.284,14.161l0.228-4.362c0-0.463,54.882-0.463,54.882,0l0.211,4.591"/>
<path d="M58.344,41.353l0.018-26.95c0-0.482-56.651-0.631-56.651-0.153L1.68,41.594L1,55.406
				c0,0.477,0.361,1.53,0.809,1.53H58.19c0.448,0,0.81-1.054,0.81-1.53L58.344,41.353z"/>
<path d="M41.527,18.007c0.003-0.053,0.093-4.39-3.235-7.796c-1.822-1.869-4.358-3.89-7.537-3.89
					c-10.979,0-11.221,11.235-11.226,11.713"/>
</svg>