<svg version="1.1" id="Layer_1" xmlns="http://www.w3.org/2000/svg" xmlns:xlink="http://www.w3.org/1999/xlink" x="0px" y="0px"
	 width="400px" height="400px" viewBox="0 0 60 60" style="enable-background:new 0 0 60 60;" xml:space="preserve">
<path d="M45.354,53.313c0,3.768-1.919,5.687-5.687,5.687H20.333c-3.769,0-5.687-1.919-5.687-5.687V6.687
			C14.646,2.918,16.564,1,20.333,1h19.334c3.768,0,5.687,1.918,5.687,5.687V53.313z"/>
<path d="M30.808,55.354c0,0.215-0.174,0.391-0.389,0.391h-0.672c-0.214,0-0.389-0.176-0.389-0.391v-0.671
				c0-0.215,0.175-0.39,0.389-0.39h0.672c0.215,0,0.389,0.175,0.389,0.39V55.354z"/>
<path d="M 14.756 8.251 L 45.213 8.251"/>
<path d="M 45.213 50.612 L 14.756 50.612"/>
</svg>