<svg version="1.1" id="Layer_1" xmlns="http://www.w3.org/2000/svg" xmlns:xlink="http://www.w3.org/1999/xlink" x="0px" y="0px"
	 width="400px" height="400px" viewBox="0 0 60 60" style="enable-background:new 0 0 60 60;" xml:space="preserve">
<path d="M1.0010000000000012,30a28.999,28.999 0 1,0 57.998,0a28.999,28.999 0 1,0 -57.998,0"/>
<path d="M9.818,30.021C10.002,41.147,18.873,50.018,30,50.201c11.127,0.185,20.002-9.331,20.182-20.181"/>
<path d="M16.634999999999998,19.999a4.554,4.554 0 1,0 9.108,0a4.554,4.554 0 1,0 -9.108,0"/>
<path d="M33.852999999999994,19.999a4.554,4.554 0 1,0 9.108,0a4.554,4.554 0 1,0 -9.108,0"/>
</svg>