<svg version="1.1" id="Layer_1" xmlns="http://www.w3.org/2000/svg" xmlns:xlink="http://www.w3.org/1999/xlink" x="0px" y="0px"
	 width="400px" height="400px" viewBox="0 0 60 60" style="enable-background:new 0 0 60 60;" xml:space="preserve">
<path d="M7.574,39.995h44.902"/>
<path d="M7.178,24.362V19.53c0-0.96,0.779-1.738,1.738-1.738h19.169l1.917,0.496v16.589H8.916c-0.535,0-1.014-0.242-1.332-0.623"/>
<path d="M29.999,18.287l1.899-0.495h19.187c0.96,0,1.737,0.778,1.737,1.738v4.832"/>
<path d="M52.459,34.21c-0.318,0.41-0.814,0.673-1.374,0.673H29.999"/>
<path d="M9.257,30.386c0,0,1.843-1.896,0.908-3.921c-0.935-2.025-2.96-2.103-2.96-2.103l-4.323,3.021"/>
<path d="M30.104,30.386H9.257l-1.676,2.868"/>
<path d="M7.542,30.309c0-1.783-1.464-3.229-3.271-3.229S1,28.526,1,30.309c0,1.389,0.889,2.569,2.135,3.025v7.961
		c0,1.217,4.407,1.217,4.407,0V30.543c0-0.027-0.007-0.053-0.007-0.08C7.537,30.412,7.542,30.361,7.542,30.309z"/>
<path d="M52.473,33.395l-1.729-3.009c0,0-1.844-1.896-0.908-3.921c0.936-2.025,2.959-2.103,2.959-2.103l5.168,3.609"/>
<path d="M29.896,30.386h20.847"/>
<path d="M52.457,30.309c0-1.783,1.467-3.229,3.271-3.229c1.808,0,3.271,1.446,3.271,3.229c0,1.389-0.89,2.569-2.136,3.025v7.961
		c0,1.217-4.407,1.217-4.407,0V30.543c0-0.027,0.008-0.053,0.009-0.08C52.463,30.412,52.457,30.361,52.457,30.309z"/>
</svg>