<svg version="1.1" id="Layer_1" xmlns="http://www.w3.org/2000/svg" xmlns:xlink="http://www.w3.org/1999/xlink" x="0px" y="0px"
	 width="400px" height="400px" viewBox="0 0 60 60" style="enable-background:new 0 0 60 60;" xml:space="preserve">
<path d="M9.413,51.619c0.106,0.043,0.219,0.066,0.334,0.066h27.659c0.181,0,0.338-0.033,0.468-0.093"/>
<path d="M9.325,44.118c0.401,0.594,1.081,0.985,1.853,0.985h0.394h24.133h0.393c0.758,0,1.427-0.377,1.832-0.953"/>
<path d="M38.332,31.582V25.37c0-1.234-1.002-2.235-2.235-2.235h-0.27h-24.38h-0.27
					c-1.234,0-2.235,1.001-2.235,2.235v6.212"/>
<path d="M9.346,42.9l2.271-3.571c0,0,2.368-2.438,1.168-5.042c-1.203-2.604-3.808-2.704-3.808-2.704l-6.642,4.643"/>
<path d="M38.423,42.5"/>
<path d="M9.346,42.9"/>
<path d="M35.718,39.329H11.617"/>
<path d="M9.412,39.23c0-2.292-1.885-4.15-4.207-4.15C2.882,35.08,1,36.938,1,39.23c0,1.785,1.142,3.304,2.743,3.892
					v10.237c0,1.565,5.669,1.565,5.669,0V39.531c0-0.034-0.01-0.067-0.01-0.102C9.405,39.364,9.412,39.297,9.412,39.23z"/>
<path d="M37.989,42.9l-2.271-3.571c0,0-2.369-2.438-1.168-5.042c1.203-2.604,3.807-2.704,3.807-2.704l6.643,4.643"/>
<path d="M37.923,39.23c0-2.292,1.883-4.15,4.206-4.15c2.324,0,4.206,1.858,4.206,4.15
					c0,1.785-1.142,3.304-2.745,3.892v10.237c0,1.565-5.667,1.565-5.667,0V39.531c0-0.034,0.01-0.067,0.01-0.102
					C37.931,39.364,37.923,39.297,37.923,39.23z"/>
<path d="M46.714,15.412c0.003,0.109-0.043,0.222-0.125,0.307c-0.17,0.172-0.444,0.175-0.616,0.005
				c0,0-0.002-0.002-0.004-0.003l-8.655-8.536C37.191,7.065,37.15,6.89,37.205,6.73c0.056-0.158,0.197-0.272,0.364-0.292
				l9.606-0.391L46.714,15.412z"/>
<path d="M53.497,38.838c0.356,0.251,0.589,0.664,0.589,1.133l-0.004,10.91l4.79,2.565
				C58.951,53.524,59,53.634,59,53.753c0,0.242-0.194,0.436-0.437,0.436c0,0-0.003,0-0.004,0h-12.16
				c-0.167,0-0.32-0.095-0.394-0.247c-0.071-0.151-0.049-0.332,0.057-0.463l5.245-2.704V39.971c0-0.468,0.232-0.881,0.588-1.132
				L53.497,38.838z"/>
<path d="M52.521,38.803V9.466c0,0,0.746-5.718-5.096-3.48"/>
</svg>