<svg version="1.1" id="Layer_1" xmlns="http://www.w3.org/2000/svg" xmlns:xlink="http://www.w3.org/1999/xlink" x="0px" y="0px"
	 width="400px" height="400px" viewBox="0 0 60 60" style="enable-background:new 0 0 60 60;" xml:space="preserve">
<path d="M3.301,28.659C1.893,29.838,1,31.593,1,33.553 M1,33.553c0,1.96,0.893,3.714,2.301,4.896
		 M6.594,27.371v12.362 M10.596,26.089v13.893 M14.393,26.78v13.202 M18.519,21.518v18.464 M22.146,19.817v20.165 M25.598,20.151
		v19.831 M28.837,18.556v21.426h23.106v-0.028C56.805,39.642,59,36.625,59,32.942c0-3.889-2.94-7.041-6.899-7.041
		c-1.014,0-1.851,0.21-2.734,0.589c-0.634-6.174-5.872-10.997-12.32-10.997C33.89,15.493,31.022,16.649,28.837,18.556"/>
</svg>