<svg version="1.1" id="Layer_1" xmlns="http://www.w3.org/2000/svg" xmlns:xlink="http://www.w3.org/1999/xlink" x="0px" y="0px"
	 width="400px" height="400px" viewBox="0 0 60 60" style="enable-background:new 0 0 60 60;" xml:space="preserve">
<path d="M33.29,47.977c0-2.098-0.21-3.355-0.21-3.355s2.726-3.775,2.937-9.018c0-0.833,0.408-6.747-6.709-7.015
					c0-0.002-0.105-0.002-0.105,0c-7.118,0.268-6.71,6.182-6.71,7.015c0.208,5.242,2.936,9.018,2.936,9.018
					s-0.212,1.257-0.212,3.355c-11.32,2.725-12.895,6.5-12.895,6.5V59h33.866v-4.523C46.188,54.477,44.613,50.702,33.29,47.977z"/>
<path d="M44.134,1H17.241c-1.958,0-3.546,1.587-3.546,3.546v15.661c0,1.959,1.588,3.547,3.546,3.547h17.848
					l3.38,4.772c0.278,0.278,0.729,0.278,1.006,0l3.379-4.772h1.28c1.958,0,3.545-1.588,3.545-3.547V4.546
					C47.679,2.587,46.092,1,44.134,1z"/>
<path d="M 17.825 7.258 L 43.838 7.258"/>
<path d="M 17.825 17.822 L 43.838 17.822"/>
<path d="M 17.825 12.483 L 43.838 12.483"/>
</svg>
