<svg version="1.1" id="Layer_1" xmlns="http://www.w3.org/2000/svg" xmlns:xlink="http://www.w3.org/1999/xlink" x="0px" y="0px"
	 width="400px" height="400px" viewBox="0 0 60 60" style="enable-background:new 0 0 60 60;" xml:space="preserve">
<path d="M49.997,12.669v-0.246c0-2.822-2.293-5.112-5.113-5.112H6.111C3.289,7.312,1,9.601,1,12.423v22.581
				c0,2.704,2.104,4.912,4.76,5.094l0.051,6.899c0.4,0.401,1.054,0.401,1.454,0l4.235-3.011"/>
<path d="M53.891,12.702H15.119c-2.823,0-5.113,2.29-5.113,5.112v22.581c0,2.823,2.29,5.112,5.113,5.112h27.938
				l9.68,6.881c0.4,0.401,1.052,0.401,1.454,0l0.051-6.899C56.897,45.308,59,43.1,59,40.395V17.814
				C59,14.992,56.711,12.702,53.891,12.702z"/>
<path d="M41.647,29.536a3.32,3.32 0 1,0 6.64,0a3.32,3.32 0 1,0 -6.64,0"/>
<path d="M31.239,29.536a3.322,3.322 0 1,0 6.644,0a3.322,3.322 0 1,0 -6.644,0"/>
<path d="M21.053,29.536a3.322,3.322 0 1,0 6.644,0a3.322,3.322 0 1,0 -6.644,0"/>
</svg>