<svg version="1.1" id="Layer_1" xmlns="http://www.w3.org/2000/svg" xmlns:xlink="http://www.w3.org/1999/xlink" x="0px" y="0px"
	 width="400px" height="400px" viewBox="0 0 60 60" style="enable-background:new 0 0 60 60;" xml:space="preserve">
<path d="M47.098,18.976v32.214c0,3.891-4.021,7.811-13.604,7.811c-9.583,0-13.399-3.92-13.399-7.811V18.976"/>
<path d="M37.456,8.811c0,2.074-1.68,3.756-3.756,3.756l0,0c-2.071,0-3.751-1.682-3.753-3.756l0.002-5.274
					c0-2.073,1.68-2.536,3.753-2.536l0,0c2.072,0,3.754,0.463,3.752,2.536L37.456,8.811z"/>
<path d="M37.487,8.271c2.297,0.369,6.778,7.178,9.585,10.704c0,0-6.676,2.146-13.372,2.146
					c-6.695,0-13.579-2.146-13.579-2.146c1.94-2.935,7.539-10.72,9.77-10.72"/>
<path d="M21.063,3.942c-0.173-0.624-0.626-1.127-1.22-1.362c-0.139-0.802-0.989-1.421-2.03-1.421
				c-0.776,0-1.444,0.347-1.798,0.854c-0.098-0.018-0.197-0.031-0.302-0.031c-0.931,0-1.686,0.754-1.686,1.688
				c0,0.094,0.014,0.184,0.027,0.274c-0.684,0.394-1.152,1.125-1.152,1.974c0,1.197,0.925,2.168,2.098,2.266
				c0.203,0.704,0.845,1.221,1.613,1.221c0.542,0,1.021-0.261,1.328-0.66c0.354,0.226,0.771,0.358,1.22,0.358
				c1.262,0,2.287-1.022,2.287-2.285c0-0.185-0.027-0.36-0.068-0.531C23.229,5.7,22.081,4.136,21.063,3.942z"/>
<path d="M 22.06 5.19 L 27.077 5.19"/>
</svg>