<svg version="1.1" id="Layer_1" xmlns="http://www.w3.org/2000/svg" xmlns:xlink="http://www.w3.org/1999/xlink" x="0px" y="0px"
	 width="400px" height="400px" viewBox="0 0 60 60" style="enable-background:new 0 0 60 60;" xml:space="preserve">
<path d="M25.17,38.959H6.291L1,49.547h58l-5.295-10.588H34.893"/>
<path d="M1,49.484v6.789h58v-6.789"/>
<path d="M25.148,27.942v13.751c0,1.32,1.211,2.394,2.709,2.394h4.284c1.5,0,2.713-1.073,2.713-2.394V27.942
	c4.233-1.962,7.196-6.393,7.196-11.564c0-6.987-5.396-12.652-12.051-12.652c-6.654,0-12.051,5.665-12.051,12.652
	C17.949,21.55,20.912,25.98,25.148,27.942z"/>
<path d="M21.496,15.717c0.031-1.975,1.254-4.559,2.398-5.702c1.113-1.113,3.326-2.188,5.113-2.208"/>
</svg>