<svg version="1.1" id="Layer_1" xmlns="http://www.w3.org/2000/svg" xmlns:xlink="http://www.w3.org/1999/xlink" x="0px" y="0px"
	 width="400px" height="400px" viewBox="0 0 60 60" style="enable-background:new 0 0 60 60;" xml:space="preserve">
<path d="M 30,6.29 L 33.684,13.758 41.919,14.955 35.96,20.766 37.368,28.97 30,25.095 22.633,28.97    24.041,20.766 18.081,14.955 26.316,13.758  z" />
<path d="M 47.08,31.0 L 50.764,38.495 59,39.691 53.04,45.501 54.447,53.705 47.08,49.832 39.712,53.705    41.12,45.501 35.16,39.691 43.396,38.495  z" />
<path d="M 12.919,31.0 L 16.604,38.495 24.841,39.691 18.88,45.501 20.288,53.705 12.919,49.832 5.553,53.705    6.96,45.501 1,39.691 9.236,38.495  z" />
</svg>