<svg version="1.1" id="Layer_1" xmlns="http://www.w3.org/2000/svg" xmlns:xlink="http://www.w3.org/1999/xlink" x="0px" y="0px"
	 width="400px" height="400px" viewBox="0 0 60 60" style="enable-background:new 0 0 60 60;" xml:space="preserve">
<path d="M51.836,50.137V26.525"/>
<path d="M7.564,26.526v23.578"/>
<path d="M32.314,50.104V33.15c0-1.615,1.328-2.929,2.969-2.929h6.184c1.641,0,2.967,1.313,2.967,2.929v16.953"/>
<path d="M21.968,30.222h-6.386c-1.695,0-3.066,1.344-3.066,3.002v1.023v1.291v1.02c0,1.658,1.371,3.004,3.066,3.004h6.386
		c1.69,0,3.064-1.346,3.064-3.004v-1.02v-1.291v-1.023C25.032,31.564,23.658,30.222,21.968,30.222z"/>
<path d="M16.182,3.874v17.244c0,1.478-0.654,2.819-1.723,3.836c-1.225,1.168-2.995,1.909-4.969,1.909c-3.695,0-6.688-2.574-6.688-5.745
			v-1.973c0,0,1.982-15.322,8.698-15.322h35.374c5.079,0,8.239,8.951,9.442,13.17c0.375,1.3,0.338,3.902-0.029,4.662
			c-0.316,2.922-3.176,5.208-6.659,5.208c-1.974,0-3.741-0.741-4.969-1.909c-1.065-1.017-1.718-2.358-1.718-3.836"/>
<path d="M16.182,21.118c0,1.478,0.653,2.819,1.722,3.836c1.224,1.168,2.993,1.909,4.966,1.909c1.977,0,3.746-0.741,4.971-1.909
			c1.065-1.017,1.721-2.358,1.721-3.836V3.874"/>
<path d="M29.561,3.874v17.244c0,1.478,0.655,2.819,1.718,3.836c1.229,1.168,2.996,1.909,4.972,1.909c1.974,0,3.743-0.741,4.97-1.909
			c1.064-1.017,1.723-2.358,1.723-3.836V3.874"/>
<path d="M59,53.16c0,1.666-1.352,3.017-3.018,3.017H4.017C2.35,56.177,1,54.826,1,53.16l0,0c0-1.664,1.35-3.018,3.017-3.018h51.967
		C57.648,50.143,59,51.496,59,53.16L59,53.16z"/>
</svg>