<svg version="1.1" id="Layer_1" xmlns="http://www.w3.org/2000/svg" xmlns:xlink="http://www.w3.org/1999/xlink" x="0px" y="0px"
	 width="400px" height="400px" viewBox="0 0 60 60" style="enable-background:new 0 0 60 60;" xml:space="preserve">
<path d="M19.368,36.518c0,0-8.977,3.381-9.795,4.199c-1.547,1.545-1.547,4.049-0.002,5.598c1.548,1.547,4.053,1.547,5.6,0
		C15.989,45.494,19.368,36.518,19.368,36.518z"/>
<path d="M41.082,46.131l-3.572-2.963l10.338-5.115l-9.22-2.047l-8.076,5.93l3.026,0.932l-6.958,5.475l2.705,0.665l-7.908,6.429
			l14.388-4.605l-2.207-1.831L41.082,46.131z"/>
<path d="M57.264,23.214c0.104-0.431,0.159-0.874,0.159-1.328c0-1.674-0.877-3.146-2.132-4.383c0.04-0.289,0.229-0.539,0.229-0.839
			c0-4.58-4.955-8.295-11.067-8.295c-0.8,0-1.511,0.222-2.267,0.344c-1.832-2.435-5.174-4.148-9.172-4.148
			c-5.176,0-9.291,2.815-10.262,6.486c-1.8,0.357-3.441,1.007-4.807,1.883"/>
<path d="M18.164,26.056c1.107,0.683,2.387,1.22,3.779,1.575c1.565,3.523,5.857,6.105,11.071,6.105c3.086,0,5.865-0.902,7.95-2.363"/>
<path d="M26.116,18.399c0.023-0.175,0.138-0.327,0.138-0.51c0-2.782-3.009-5.039-6.723-5.039c-0.486,0-0.918,0.135-1.376,0.209
			c-1.113-1.479-3.144-2.52-5.572-2.52c-3.144,0-5.644,1.709-6.233,3.939C3.3,15.085,1,17.075,1,19.554
			c0,2.347,2.05,4.28,4.857,4.997c0.951,2.14,3.559,3.708,6.726,3.708c2.874,0,5.309-1.287,6.458-3.113
			c0.739,0.246,1.545,0.393,2.406,0.393c3.292,0,5.964-2.004,5.964-4.478C27.411,20.044,26.878,19.151,26.116,18.399z"/>
<path d="M38.121,27.242c-0.021,0.146-0.115,0.272-0.115,0.423c0,2.314,2.502,4.188,5.59,4.188c0.402,0,0.762-0.111,1.143-0.172
			c0.926,1.229,2.613,2.094,4.634,2.094c2.612,0,4.69-1.422,5.181-3.275C57.088,29.997,59,28.343,59,26.282
			c0-1.952-1.705-3.559-4.037-4.156c-0.792-1.778-2.959-3.082-5.592-3.082c-2.391,0-4.414,1.068-5.369,2.587
			c-0.615-0.204-1.285-0.327-2-0.327c-2.736,0-4.958,1.666-4.958,3.722C37.043,25.874,37.486,26.616,38.121,27.242z"/>
</svg>