<svg version="1.1" id="Layer_1" xmlns="http://www.w3.org/2000/svg" xmlns:xlink="http://www.w3.org/1999/xlink" x="0px" y="0px"
	 width="400px" height="400px" viewBox="0 0 60 60" style="enable-background:new 0 0 60 60;" xml:space="preserve">
<path d="M12.796,6.735l11.15,4.69L29.793,1l6.009,10.426l10.987-4.901L45.55,18.538l12.073,2.433l-8.385,8.897
					l8.385,8.949l-11.809,2.377L47,53.475l-10.936-4.899L30.006,59l-5.795-10.425l-11.415,4.899l1.402-11.75L2.386,39.028
					l8.122-8.897l-8.122-8.948c-0.39,0,11.813-2.645,11.813-2.645L12.796,6.735z"/>
<path d="M29.787,14.949c8.376,0,15.166,6.79,15.166,15.166s-6.79,15.166-15.166,15.166s-15.166-6.79-15.166-15.166
		S21.411,14.949,29.787,14.949z"/>
</svg>