<svg version="1.1" id="Layer_1" xmlns="http://www.w3.org/2000/svg" xmlns:xlink="http://www.w3.org/1999/xlink" x="0px" y="0px"
	 width="400px" height="400px" viewBox="0 0 60 60" style="enable-background:new 0 0 60 60;" xml:space="preserve">
<path class="st0" d="M58.209,23.001l-2.696-0.041c-2.296-2.396-6.206-3.264-10.645-3.264c-4.831,0-9.035,0.582-11.215,3.204
			h-7.564c-2.179-2.622-6.383-3.204-11.214-3.204c-4.441,0-8.354,0.868-10.649,3.268l-2.434,0.037C1.353,23.001,1,23.354,1,23.79
			v3.366c0,0.438,0.353,0.791,0.792,0.791H2.12c-0.029,0.329-0.047,0.668-0.047,1.02c0,7.069,1.563,11.337,8.632,11.337
			c9.408,0,16.684-5.032,16.956-11.897c0.64-0.341,1.359-0.54,2.105-0.54c0.83,0,1.627,0.238,2.318,0.653
			c0.347,6.809,7.596,11.784,16.953,11.784c7.069,0,8.63-4.268,8.63-11.337c0-0.352-0.018-0.69-0.045-1.02h0.586
			c0.438,0,0.791-0.354,0.791-0.791V23.79C59,23.354,58.647,23.001,58.209,23.001z M11.263,36.843c-4.928,0-5.452-2.776-5.452-7.704
			c0-4.927,3.996-5.979,8.924-5.979c4.927,0,8.923,0.255,8.923,5.181C23.659,33.268,19.252,36.843,11.263,36.843z M48.617,36.843
			c-7.991,0-12.397-3.575-12.397-8.503c0-4.926,3.996-5.181,8.923-5.181c4.929,0,8.924,1.053,8.924,5.979
			C54.067,34.066,53.543,36.843,48.617,36.843z"/>
</svg>