<svg version="1.1" id="Layer_1" xmlns="http://www.w3.org/2000/svg" xmlns:xlink="http://www.w3.org/1999/xlink" x="0px" y="0px"
	 width="400px" height="400px" viewBox="0 0 60 60" style="enable-background:new 0 0 60 60;" xml:space="preserve">
<path d="M49.625,39.701c-3.451,7.348-10.918,12.436-19.575,12.436c-8.636,0-16.09-5.065-19.552-12.389"/>
<path d="M47.451,26.726l-10.523-9.469c0,0-3.136,5.196-11.51,8.983c-4.579,2.071-9.431,3.169-12.77,3.731"/>
<path d="M23.571,30.602c1.636,0,2.962,1.4,2.962,3.129c0,1.728-1.326,3.129-2.962,3.129c-1.636,0-2.962-1.401-2.962-3.129
		C20.609,32.002,21.935,30.602,23.571,30.602z"/>
<path d="M36.406,30.602c1.635,0,2.961,1.4,2.961,3.129c0,1.728-1.326,3.129-2.961,3.129c-1.636,0-2.961-1.401-2.961-3.129
		C33.445,32.002,34.771,30.602,36.406,30.602z"/>
<path d="M37.331,31.297c0.653,0,1.183,0.56,1.183,1.249c0,0.69-0.529,1.249-1.183,1.249s-1.183-0.559-1.183-1.249
		C36.148,31.856,36.678,31.297,37.331,31.297z"/>
<path d="M25.649,32.546c0,0.688-0.529,1.249-1.186,1.249c-0.653,0-1.183-0.561-1.183-1.249c0-0.692,0.53-1.253,1.183-1.253
								C25.12,31.293,25.649,31.854,25.649,32.546z"/>
<path d="M35.867,58.591c-2.539,0.814-4.936,0.366-5.333-0.929c-0.4-1.298,1.341-2.984,3.889-3.768c2.546-0.783,5.334,0.954,5.34,0.967
					C39.763,54.861,38.89,57.621,35.867,58.591z"/>
<path d="M55.077,36.843c-1.076,1.813-2.676,2.967-4.467,2.967c-3.237,0-3.191-3.761-3.191-8.401c0-4.642-0.046-8.404,3.191-8.404
					c1.019,0,1.977,0.374,2.812,1.031c-4.152-9.168-12.99-16.718-23.23-16.718c-10.109,0-18.848,7.362-23.064,16.373
					c0.711-0.44,1.494-0.686,2.319-0.686c3.236,0,3.189,3.762,3.189,8.404c0,4.641,0.047,8.401-3.189,8.401
					c-3.238,0-5.862-3.761-5.862-8.401c0-1.678,0.347-3.238,0.938-4.549C5.571,13.733,16.66,1,30.192,1
					c13.886,0,25.647,13.54,26.181,27.02C56.373,28.02,56.78,33.957,55.077,36.843z"/>
<path d="M39.54,55.262c0,0,16.264-0.813,16.264-19.923"/>
</svg>