<svg version="1.1" id="Layer_1" xmlns="http://www.w3.org/2000/svg" xmlns:xlink="http://www.w3.org/1999/xlink" x="0px" y="0px"
	 width="400px" height="400px" viewBox="0 0 60 60" style="enable-background:new 0 0 60 60;" xml:space="preserve">
<path d="M55.07,12.184H5.215c-2.58,0-4.68-2.1-4.68-4.68c0-2.58,2.1-4.679,4.68-4.679H55.07
					c2.58,0,4.68,2.099,4.68,4.679C59.75,10.084,57.65,12.184,55.07,12.184z M5.215,4.325c-1.753,0-3.18,1.426-3.18,3.179
					c0,1.753,1.427,3.18,3.18,3.18H55.07c1.753,0,3.18-1.427,3.18-3.18c0-1.753-1.427-3.179-3.18-3.179H5.215z"/>
  <path d="M16.724,55.877c-0.115,0-0.232-0.027-0.343-0.083C6.431,50.667,0.25,40.541,0.25,29.366
					c0-6.769,2.226-13.151,6.436-18.457c0.258-0.324,0.729-0.379,1.054-0.121c0.325,0.257,0.379,0.729,0.122,1.054
					C3.863,16.879,1.75,22.939,1.75,29.366c0,10.611,5.869,20.227,15.318,25.095c0.368,0.189,0.513,0.642,0.323,1.01
					C17.258,55.729,16.996,55.877,16.724,55.877z"/>
  <path d="M41.854,57.273H18.432c-1.504,0-2.596-0.713-2.596-1.696c0-0.337,0.133-0.657,0.386-0.925
					c0.284-0.302,0.759-0.316,1.06-0.032c0.261,0.246,0.308,0.633,0.132,0.929c0.165,0.097,0.51,0.225,1.019,0.225h23.422
					c0.477,0,0.81-0.113,0.985-0.208c-0.128-0.155-0.206-0.359-0.19-0.553c0.021-0.258,0.143-0.513,0.371-0.632
					c9.361-4.891,15.176-14.476,15.176-25.015c0-6.428-2.112-12.488-6.109-17.524c-0.257-0.325-0.203-0.796,0.122-1.054
					c0.324-0.258,0.796-0.203,1.054,0.121c4.209,5.305,6.434,11.687,6.434,18.457c0,10.832-5.831,20.707-15.273,25.963
					c0.017,0.082,0.025,0.165,0.025,0.249C44.447,56.56,43.356,57.273,41.854,57.273z"/>
  <path d="M16.299,19.34c-7.951,0-12.804-0.894-12.876-0.907c-0.407-0.077-0.674-0.469-0.598-0.876
					c0.078-0.408,0.478-0.671,0.877-0.598c0.106,0.02,10.784,1.98,26.515-0.007c15.984-2.018,25.894-0.075,26.307,0.009
					c0.406,0.082,0.669,0.478,0.587,0.883c-0.083,0.406-0.486,0.662-0.884,0.587c-0.099-0.021-10.104-1.978-25.822,0.009
					C25.063,19.115,20.291,19.34,16.299,19.34z"/>
  <path d="M38.393,51.078c-0.409,0-0.743-0.328-0.75-0.738c-0.039-2.451-0.727-5.738-2.543-7.614
				c-0.219-0.227-0.273-0.566-0.136-0.85c0.138-0.283,0.427-0.447,0.753-0.418c0.077,0.008,1.398,0.162,2.652,1.28
				c-0.142-2.207-0.729-4.153-1.756-5.806c-0.166-0.267-0.148-0.609,0.046-0.857c0.193-0.248,0.521-0.349,0.82-0.252
				c0.167,0.054,3.679,1.236,4.613,5.734c1.273-1.172,2.604-1.403,2.677-1.416c0.315-0.046,0.622,0.099,0.775,0.374
				c0.154,0.275,0.12,0.618-0.086,0.856c-1.953,2.266-2.361,5.27-2.359,7.392c0,0.414-0.335,0.75-0.749,0.75
				c-0.001,0-0.001,0-0.001,0c-0.414,0-0.75-0.335-0.75-0.75c-0.001-1.587,0.208-3.622,1.019-5.578
				c-0.143,0.179-0.281,0.378-0.411,0.599c-0.17,0.287-0.505,0.43-0.83,0.346c-0.322-0.081-0.553-0.365-0.565-0.698
				c-0.088-2.245-0.862-3.72-1.688-4.665c0.633,1.87,0.882,3.967,0.74,6.268c-0.021,0.342-0.271,0.625-0.606,0.69
				c-0.34,0.066-0.674-0.106-0.82-0.415c-0.125-0.263-0.262-0.497-0.406-0.705c0.961,2.337,1.097,4.79,1.111,5.708
				c0.007,0.414-0.324,0.755-0.738,0.762C38.4,51.078,38.396,51.078,38.393,51.078z"/>
  <path d="M15.336,54.562L15.336,54.562c-0.415,0-0.751-0.337-0.75-0.751c0.002-1.859,1.425-3.393,3.237-3.572
				c0.679-0.89,1.715-1.41,2.845-1.41c0.618,0,1.216,0.159,1.752,0.464c1.099-0.452,2.354-0.306,3.317,0.336
				c0.547-0.365,1.182-0.573,1.845-0.599c0.678-0.87,1.725-1.395,2.83-1.395c0.892,0,1.747,0.337,2.401,0.927
				c0.561-0.344,1.204-0.529,1.87-0.529c1.171,0,2.246,0.564,2.917,1.504c0.117-0.009,0.232-0.013,0.346-0.01
				c0.637-1.091,1.819-1.792,3.103-1.792c1.568,0,2.95,1.026,3.426,2.491c1.189,0.61,1.965,1.85,1.965,3.197
				c0,0.414-0.336,0.75-0.75,0.75s-0.75-0.336-0.75-0.75c0-0.875-0.535-1.644-1.363-1.957c-0.24-0.091-0.418-0.299-0.469-0.551
				c-0.199-0.974-1.065-1.68-2.059-1.68c-0.862,0-1.647,0.546-1.955,1.358c-0.128,0.339-0.479,0.539-0.837,0.473
				c-0.261-0.049-0.527-0.059-0.863,0.021c-0.341,0.079-0.684-0.083-0.84-0.392c-0.363-0.716-1.08-1.162-1.87-1.162
				c-0.537,0-1.05,0.208-1.445,0.585c-0.157,0.15-0.372,0.229-0.587,0.204c-0.216-0.02-0.413-0.132-0.54-0.309
				c-0.4-0.558-1.021-0.878-1.699-0.878c-0.744,0-1.418,0.391-1.803,1.046c-0.146,0.25-0.424,0.394-0.71,0.367
				c-0.015-0.001-0.117-0.014-0.131-0.016c-0.009,0-0.017,0-0.024,0c-0.58,0-1.091,0.212-1.482,0.594
				c-0.29,0.282-0.754,0.284-1.046,0.001c-0.653-0.635-1.639-0.797-2.482-0.322c-0.257,0.147-0.58,0.125-0.819-0.054
				c-0.973-0.734-2.423-0.43-3.042,0.609c-0.152,0.255-0.47,0.395-0.767,0.356c-1.079,0.004-2.019,0.943-2.02,2.096
				C16.085,54.228,15.75,54.562,15.336,54.562z"/>
  <path d="M28.881,36.721c-1.59,0-3.307-0.523-5.106-1.556c-1.01,0.14-1.941,0.21-2.774,0.21
					c-7.091,0-10.748-4.433-10.748-6.325c0-1.997,4.104-6.801,11.955-6.283c1.523-1.12,4.404-2.833,7.355-2.539
					c0.384,0.038,0.676,0.361,0.676,0.746v3.457c1.999,0.64,3.949,1.412,5.504,2.178c1.921-2.239,5.961-3.77,6.146-3.838
					c0.286-0.106,0.607-0.03,0.813,0.194c0.207,0.224,0.258,0.551,0.128,0.827l-2.421,5.167l2.426,5.355
					c0.125,0.276,0.071,0.6-0.136,0.822c-0.207,0.22-0.525,0.296-0.811,0.19c-0.187-0.07-4.289-1.623-6.19-3.894
					c-1.57,0.768-3.504,1.542-5.459,2.183v2.325c0,0.385-0.292,0.708-0.676,0.746C29.335,36.71,29.107,36.721,28.881,36.721z
					 M23.928,33.635c0.135,0,0.268,0.036,0.384,0.105c1.102,0.657,2.752,1.436,4.427,1.478v-2.149c0-0.328,0.212-0.617,0.524-0.715
					c2.297-0.724,4.6-1.649,6.315-2.54c0.348-0.18,0.77-0.064,0.979,0.263c0.806,1.266,2.687,2.371,4.101,3.068l-1.759-3.881
					c-0.09-0.2-0.089-0.429,0.005-0.628l1.717-3.664c-1.392,0.689-3.218,1.768-4.036,3.003c-0.211,0.32-0.631,0.43-0.975,0.25
					c-1.656-0.871-4.027-1.815-6.341-2.526c-0.315-0.097-0.53-0.387-0.53-0.717v-3.285c-2.474,0.062-4.908,1.716-5.853,2.435
					c-0.146,0.111-0.34,0.165-0.512,0.151c-0.471-0.036-0.93-0.059-1.374-0.059c-6.698,0-9.248,4.11-9.248,4.826
					c0.002,0.688,2.673,4.825,9.248,4.825c0.831,0,1.779-0.078,2.818-0.231C23.854,33.638,23.892,33.635,23.928,33.635z"/>
  <path d="M18.432,29.606c-1.208,0-2.191-0.983-2.191-2.191c0-1.209,0.983-2.192,2.191-2.192
					c1.207,0,2.189,0.983,2.189,2.192C20.621,28.624,19.639,29.606,18.432,29.606z M18.432,26.723c-0.381,0-0.691,0.311-0.691,0.692
					c0,0.381,0.311,0.691,0.691,0.691c0.38,0,0.689-0.31,0.689-0.691C19.121,27.034,18.812,26.723,18.432,26.723z"/></svg>