<svg version="1.1" id="Layer_1" xmlns="http://www.w3.org/2000/svg" xmlns:xlink="http://www.w3.org/1999/xlink" x="0px" y="0px"
	 width="400px" height="400px" viewBox="0 0 60 60" style="enable-background:new 0 0 60 60;" xml:space="preserve">
<path d="M28.447,30.283l0.01-16.729c0-1.476-1.354-2.831-3.025-2.831h-0.168c-1.674,0-3.027,1.355-3.027,3.027v22.426
			c-0.883-1.076-5.789-6.982-7.994-5.318c-2.203,1.666-0.783,3.674-0.783,3.674c2.02,3.623,6.637,11.197,7.883,13.328
			c2.387,4.08,6.713,6.807,11.652,6.807c7.52,0,13.615-6.316,13.615-14.109v-0.512V28.053c0-1.536-1.246-2.978-2.781-2.978h-0.154
			c-1.537,0-2.781,1.441-2.781,2.978"/>
<path d="M28.447,24.573c0-1.672,1.355-3.026,3.027-3.026h0.168c1.672,0,3.025,1.354,3.025,3.026v5.71"/>
<path d="M34.67,26.481c0-1.672,1.355-3.224,3.027-3.224h0.168c1.672,0,3.027,1.552,3.027,3.224v3.802"/>
<path d="M18.43,16.652c-0.539-1.06-0.842-2.258-0.842-3.526c0-4.304,3.488-7.793,7.793-7.793
		c4.303,0,7.791,3.489,7.791,7.793c0,1.427-0.383,2.764-1.053,3.914"/>
<path d="M42.949,14.937l4.043-4.043L42.949,6.85"/>
<path d="M32.846,10.894h14.146"/>
</svg>