<svg version="1.1" id="Layer_1" xmlns="http://www.w3.org/2000/svg" xmlns:xlink="http://www.w3.org/1999/xlink" x="0px" y="0px"
	 width="400px" height="400px" viewBox="0 0 60 60" style="enable-background:new 0 0 60 60;" xml:space="preserve">
<path d="M31.553,28.495l-0.01-16.729c0-1.476,1.354-2.831,3.026-2.831h0.168c1.673,0,3.026,1.355,3.026,3.027v22.426
			c0.883-1.076,5.79-6.982,7.994-5.318c2.204,1.666,0.783,3.674,0.783,3.674c-2.019,3.624-6.637,11.198-7.883,13.329
			c-2.387,4.079-6.713,6.806-11.652,6.806c-7.519,0-13.614-6.316-13.614-14.109v-0.512V26.265c0-1.536,1.245-2.978,2.78-2.978h0.155
			c1.536,0,2.78,1.441,2.78,2.978"/>
<path d="M31.553,22.785c0-1.672-1.354-3.026-3.026-3.026h-0.168c-1.672,0-3.026,1.354-3.026,3.026v5.71"/>
<path d="M25.33,24.693c0-1.672-1.355-3.224-3.027-3.224h-0.168c-1.672,0-3.027,1.552-3.027,3.224v3.802"/>
<path d="M41.57,14.864c0.539-1.06,0.842-2.258,0.842-3.526c0-4.304-3.488-7.793-7.792-7.793s-7.792,3.489-7.792,7.793
		c0,1.427,0.383,2.764,1.053,3.914"/>
<path d="M17.052,13.148l-4.043-4.043l4.043-4.043"/>
<path d="M27.155,9.105H13.009"/>
</svg>