<svg version="1.1" id="Layer_1" xmlns="http://www.w3.org/2000/svg" xmlns:xlink="http://www.w3.org/1999/xlink" x="0px" y="0px"
	 width="400px" height="400px" viewBox="0 0 60 60" style="enable-background:new 0 0 60 60;" xml:space="preserve">
<path d="M30.47,1c1.312,0,2.373,0.927,2.373,2.073v10.745c0,1.144-1.062,2.073-2.373,2.073l0,0c-1.312,0-2.375-0.93-2.375-2.073V3.073
			C28.095,1.927,29.158,1,30.47,1L30.47,1z"/>
<path d="M28.101,6.647c-3.6,2.611-10.467,9.508-10.467,12.343v34.681c0,3.53,2.016,5.329,5.547,5.329h13.856
				c3.531,0,5.329-1.798,5.329-5.329v-34.68c0-2.571-5.636-8.482-9.364-11.508"/>
<path d="M22.245,28.622h15.472v25.89H22.245V28.622z"/>
<path d="M27.133,33.109v16.742"/>
<path d="M32.482,33.109v16.742"/>
</svg>