<svg version="1.1" id="Layer_1" xmlns="http://www.w3.org/2000/svg" xmlns:xlink="http://www.w3.org/1999/xlink" x="0px" y="0px"
	 width="400px" height="400px" viewBox="0 0 60 60" style="enable-background:new 0 0 60 60;" xml:space="preserve">
<path d="M 4.457 10.907 L 46.42 10.907"/>
<path d="M46.42,17.872V8.77C46.42,3.62,43.798,1,38.647,1H12.229c-5.15,0-7.772,2.62-7.772,7.77V59"/>
<path d="M 46.42 58.854 L 46.42 41.558"/>
<path d="M30.359,6.827L30.359,6.827c0-0.501-0.406-0.905-0.905-0.905h-8.031c-0.5,0-0.907,0.404-0.907,0.905l0,0
						H30.359z"/>
<path d="M29.252,20.394h23.456c1.565,0,2.836,1.27,2.836,2.836v12.526c0,1.566-1.271,2.836-2.836,2.836H36.485
					l-2.703,3.815c-0.223,0.224-0.582,0.224-0.805,0l-2.702-3.815h-1.023c-1.565,0-2.835-1.27-2.835-2.836V23.229
					C26.417,21.663,27.687,20.394,29.252,20.394z"/>
<path d="M 52.241 25.399 L 29.488 25.399"/>
<path d="M 52.241 33.847 L 29.488 33.847"/>
<path d="M 52.241 29.578 L 29.488 29.578"/>
</svg>