<svg version="1.1" id="Layer_1" xmlns="http://www.w3.org/2000/svg" xmlns:xlink="http://www.w3.org/1999/xlink" x="0px" y="0px"
	 width="400px" height="400px" viewBox="0 0 60 60" style="enable-background:new 0 0 60 60;" xml:space="preserve">
<path d="M46.075,55.896c10.34,0,12.925,1.94,12.925,1.94V21.259c0,0-6.076-1.941-11.893-1.941
			c-5.814,0-26.968,1.451-26.968,1.451C9.405,20.559,1,16.475,1,11.47v37.067c0,5.017,10.031,9.299,19.367,9.299
			C29.701,57.836,35.734,55.896,46.075,55.896z"/>
<path d="M 41.326 19.486 L 41.326 11.47"/>
<path d="M27.533,20.302c8.014-1.231,13.793-4.721,13.793-8.832c0-5.139-9.027-9.306-20.164-9.306
			C10.026,2.164,1,6.335,1,11.47"/>
<path d="M14.097999999999999,11.47a7.065,3.261 0 1,0 14.13,0a7.065,3.261 0 1,0 -14.13,0"/>
</svg>