<svg version="1.1" id="Layer_1" xmlns="http://www.w3.org/2000/svg" xmlns:xlink="http://www.w3.org/1999/xlink" x="0px" y="0px"
	 width="400px" height="400px" viewBox="0 0 60 60" style="enable-background:new 0 0 60 60;" xml:space="preserve">
<path d="M59,38.128c0,0.25-0.201,0.386-0.451,0.451L25.56,49.689"/>
<path d="M25.254,49.712h-3.143c-0.251,0-0.452-0.201-0.452-0.451V47.33"/>
<path d="M15.544,46.484l-7.491,3.205"/>
<path d="M7.746,49.712H4.604c-0.25,0-0.453-0.201-0.453-0.451V47.33"/>
<path d="M58.994,38.006v-8.568c0,0-5.209-1.464-21.525-9.827c-6.393-3.277-8.291-6.819-11.173-8.741c-0.926-0.617-2.674-0.582-2.674-0.582"/>
<path d="M29.792,41.547c0,2.725-1.758,4.936-3.926,4.936H4.926C2.757,46.482,1,44.271,1,41.547c0,0,0-16.864,0-19.88
		s4.151-11.378,5.909-11.378h16.974c1.757,0,5.909,8.906,5.909,11.513C29.792,24.409,29.792,41.547,29.792,41.547z"/>
<path d="M21.976,35.239c1.136,0,2.057,0.921,2.057,2.057s-0.921,2.058-2.057,2.058c-1.136,0-2.057-0.922-2.057-2.058
		S20.84,35.239,21.976,35.239z"/>
<path d="M7.992,35.239c1.136,0,2.057,0.921,2.057,2.057s-0.921,2.058-2.057,2.058c-1.136,0-2.057-0.922-2.057-2.058
		S6.856,35.239,7.992,35.239z"/>
<path d="M34.178,21.751c0,0,9.482,6.81,20.018,9.048v2.633c0,0-10.4-0.975-19.948-3.607L34.178,21.751z"/>
<path d="M26.263,23.432c0,2.058-1.327,3.726-2.963,3.726H7.492c-1.637,0-2.964-1.667-2.964-3.726c0,0,0,0.932,0-1.346
		c0-2.278,3.134-8.224,4.461-8.224h12.813c1.327,0,4.461,6.357,4.461,8.326S26.263,23.432,26.263,23.432z"/>
</svg>