<svg version="1.1" id="Layer_1" xmlns="http://www.w3.org/2000/svg" xmlns:xlink="http://www.w3.org/1999/xlink" x="0px" y="0px"
	 width="400px" height="400px" viewBox="0 0 60 60" style="enable-background:new 0 0 60 60;" xml:space="preserve">
<path d="M 29.558 34.323 L 29.558 31.211"/>
<path d="M24.5,30.99c3.876,0.373,9.357,0.272,12.335-0.335"/>
<path d="M38.241,24.661c-0.383-0.519-0.908-1.213-1.503-1.995h0.008c0.449-0.889,0.284-2.331-0.164-3.219l-2.26-3.477
			h0.211c0.319-0.633,0.319-1.654,0-2.287l-4.447-8.83c-0.318-0.633-0.833-0.633-1.151,0l-4.447,8.83
			c-0.319,0.633-0.319,1.654,0,2.287h0.212l-2.26,3.477c-0.445,0.882-0.609,2.306-0.174,3.196c-0.063,0.082-0.126,0.165-0.188,0.247
			"/>
<path d="M 46.397 45.496 L 46.397 41.536"/>
<path d="M58.419,34.185c-0.211-0.367-1.323-1.857-2.756-3.736h0.013c0.577-1.146,0.366-3.008-0.212-4.152
			l-2.917-4.487h0.272c0.412-0.815,0.412-2.137,0-2.953L47.079,7.459c-0.411-0.817-1.076-0.817-1.485,0l-5.74,11.396
			c-0.411,0.816-0.411,2.138,0,2.953h0.273l-2.918,4.487c-0.574,1.136-0.786,2.977-0.224,4.123c-1.416,1.86-2.515,3.35-2.733,3.766
			c-0.708,1.348-0.666,4.203,0,5.5c1.191,2.33,22.391,2.446,24.167,0C59.28,38.499,59.103,35.365,58.419,34.185z"/>
<path d="M 15.661 55.621 L 15.661 51.018"/>
<path d="M29.581,42.521c-0.246-0.425-1.532-2.149-3.19-4.323h0.012c0.669-1.329,0.424-3.484-0.245-4.813l-3.376-5.192
			h0.314c0.476-0.944,0.476-2.475,0-3.418l-6.647-13.197c-0.474-0.945-1.246-0.945-1.72,0L8.082,24.773
			c-0.475,0.943-0.475,2.474,0,3.418h0.316l-3.376,5.192c-0.665,1.319-0.91,3.447-0.26,4.779c-1.639,2.152-2.912,3.876-3.165,4.357
			c-0.819,1.563-0.769,4.868,0,6.369c1.38,2.698,25.929,2.834,27.985,0C30.577,47.519,30.372,43.889,29.581,42.521z"/>
</svg>