<svg version="1.1" id="Layer_1" xmlns="http://www.w3.org/2000/svg" xmlns:xlink="http://www.w3.org/1999/xlink" x="0px" y="0px"
	 width="400px" height="400px" viewBox="0 0 60 60" style="enable-background:new 0 0 60 60;" xml:space="preserve">
<path d="M45.484,26.642c-8.107-8.106-16.214-16.211-24.32-24.317c-2.87-2.871-8.01-0.759-8.01,3.31c0,16.049,0,32.099,0,48.149
		c-0.022,0.286-0.019,0.571,0.018,0.851c0.132,2.022,1.347,3.319,2.865,3.886c1.484,0.729,3.303,0.71,4.86-0.635
		c0.256-0.194,0.49-0.417,0.698-0.669c7.974-7.974,15.949-15.949,23.923-23.923C47.337,31.475,47.288,28.446,45.484,26.642z"/>"/>
</svg>