<svg version="1.1" id="Layer_1" xmlns="http://www.w3.org/2000/svg" xmlns:xlink="http://www.w3.org/1999/xlink" x="0px" y="0px"
	 width="400px" height="400px" viewBox="0 0 60 60" style="enable-background:new 0 0 60 60;" xml:space="preserve">
<path class="st0" d="M45.263,58.696c-0.549,0-1.141-0.025-1.763-0.053c-0.669-0.03-1.376-0.061-2.107-0.061H19.007
				c-0.731,0-1.438,0.031-2.108,0.061c-0.623,0.027-1.213,0.053-1.763,0.053c-2.289,0-4.629-0.486-4.629-4.092V19.249l-4.653,1.235
				c-2.389,0.631-2.729-0.758-3.036-1.962l-2.218-8.357C0.324,9.167,0.011,8.037,0.531,7.13C0.822,6.622,1.327,6.271,2.03,6.084
				c1.682-0.468,16.568-4.601,18.319-4.65c0.206-0.016,0.394,0.069,0.539,0.207l0.231,0.221c1.668,1.6,5.14,4.928,9.135,4.928
				c3.959,0,6.994-2.799,9.195-5.237c0.137-0.152,0.33-0.241,0.534-0.247c0,0,0,0,0,0c1.771,0,17.209,4.292,18.964,4.782
				c0.107,0.029,0.199,0.068,0.291,0.11c0.327,0.151,0.577,0.548,0.49,0.897l-3.24,12.938c-0.094,0.377-0.459,0.62-0.846,0.559
				c-0.162-0.026-0.325-0.054-0.523-0.105l-5.226-1.388v35.507C49.893,58.21,47.552,58.696,45.263,58.696z M19.007,57.083h22.385
				c0.754,0,1.483,0.032,2.173,0.062c0.6,0.026,1.168,0.051,1.697,0.051c2.207,0,3.129-0.36,3.129-2.592V18.122
				c0-0.233,0.108-0.453,0.293-0.595c0.184-0.142,0.423-0.19,0.649-0.13l5.875,1.561l2.891-11.541
				C51.839,5.667,42.33,3.122,40.313,2.831c-1.575,1.729-5.202,5.458-10.06,5.458c-4.58,0-8.334-3.582-10.152-5.325
				C18.049,3.276,8.62,5.806,2.423,7.532C2.113,7.614,1.917,7.729,1.833,7.876C1.624,8.24,1.848,9.049,2.046,9.764l0.1,0.364
				l2.126,8.022c0.254,0.996,0.3,0.996,0.521,0.996c0.167,0,0.394-0.038,0.676-0.113l5.595-1.485
				c0.225-0.059,0.465-0.012,0.649,0.131c0.185,0.142,0.293,0.361,0.293,0.594v36.331c0,2.232,0.922,2.592,3.129,2.592
				c0.529,0,1.098-0.025,1.697-0.051C17.524,57.114,18.253,57.083,19.007,57.083z"/>
</svg>