<svg version="1.1" id="Layer_1" xmlns="http://www.w3.org/2000/svg" xmlns:xlink="http://www.w3.org/1999/xlink" x="0px" y="0px"
	 width="400px" height="400px" viewBox="0 0 60 60" style="enable-background:new 0 0 60 60;" xml:space="preserve">
<path d="M27.136,32.348L9.196,50.205c0,0-3.213,3.561-6.905-0.13"/>
<path d="M48.976,10.372C70.648,32.045,48.985,59,48.985,59c-0.3-7.898-7.774-15.375-15.374-15.375
			c0,0-1.639-6.509-6.39-11.258c-4.748-4.749-10.659-5.791-10.659-5.791c0.391-7.208-6.54-14.828-15.173-15.174
			C1.39,11.403,27.303-11.3,48.976,10.372z"/>
<path d="M16.563,26.577c3.679-3.542,29.369-19.249,32.413-16.205c4.139,4.14-12.175,29.22-15.364,33.253"/>
</svg>