<svg version="1.1" id="Layer_1" xmlns="http://www.w3.org/2000/svg" xmlns:xlink="http://www.w3.org/1999/xlink" x="0px" y="0px"
	 width="400px" height="400px" viewBox="0 0 60 60" style="enable-background:new 0 0 60 60;" xml:space="preserve">
<path d="M1,42.834c0,4.002,0,8.008,0,12.012c0,0.828,0.284,1.469,0.713,1.945c0.477,0.635,1.225,1.076,2.266,1.076
				c17.333,0,34.666,0,51.998,0c0.828,0,1.47-0.283,1.945-0.713C58.558,56.678,59,55.93,59,54.889c0-4.004,0-8.008,0-12.014"/>
<path d="M14.861,15.496c4.052-4.057,15.141-13.363,15.141-13.363s11.083,9.34,15.137,13.393"/>
<path d="M30.002,2.133v44.984"/>
</svg>