<svg version="1.1" id="Layer_1" xmlns="http://www.w3.org/2000/svg" xmlns:xlink="http://www.w3.org/1999/xlink" x="0px" y="0px"
	 width="400px" height="400px" viewBox="0 0 60 60" style="enable-background:new 0 0 60 60;" xml:space="preserve">
<path d="M48.084,26.66l8.207-8.207l2.154-2.156c0.639-0.636,0.725-1.614,0.266-2.349L45.368,0.606L33.795,12.179"/>
<path d="M21.875,57.983c-1.883,1.881-4.937,1.881-6.818,0L2.412,45.339c-1.883-1.883-1.883-4.937,0-6.82     l25.502-25.502c1.883-1.883,4.936-1.883,6.818,0l12.645,12.644c1.883,1.884,1.883,4.937,0,6.82L21.875,57.983z"/>
<path d="M48.421,22.335c-0.218,0.217-0.571,0.217-0.789,0l-2.364-2.365c-0.217-0.218-0.217-0.571,0-0.789      l1.626-1.625c0.218-0.219,0.571-0.219,0.79,0l2.363,2.365c0.219,0.217,0.219,0.571,0,0.788L48.421,22.335z"/>
<path d="M41.057,14.971c-0.218,0.217-0.57,0.217-0.788,0l-2.364-2.365c-0.219-0.216-0.219-0.57,0-0.789l1.625-1.625      c0.219-0.219,0.572-0.219,0.789,0l2.365,2.365c0.217,0.217,0.217,0.57,0,0.788L41.057,14.971z"/>
<path d="M 20.898,39.27 L 30.548,39.662 33.553,36.657     "/>
<path d="M16.33,42.614c-1.481-0.91-3.443-0.728-4.725,0.553c-1.499,1.499-1.5,3.93-0.001,5.429      c1.499,1.5,3.933,1.5,5.431,0.001c1.314-1.313,1.477-3.342,0.487-4.833L16.33,42.614z"/>
<path d="M 17.578,42.45 L 17.613,32.46 20.21,29.864     "/>
<path d="M20.962,30.705c1.214,0.888,2.926,0.788,4.022-0.309c1.212-1.211,1.213-3.175,0-4.388      c-1.213-1.212-3.176-1.211-4.387,0c-1.004,1.005-1.174,2.525-0.514,3.707L20.962,30.705z"/>
<path d="M 30.512,23.66 L 36.993,23.168 36.517,29.672     z"/>
<path d="M 17.08 43.09 L 33.508 26.663"/>
</svg>