<svg version="1.1" id="Layer_1" xmlns="http://www.w3.org/2000/svg" xmlns:xlink="http://www.w3.org/1999/xlink" x="0px" y="0px"
	 width="400px" height="400px" viewBox="0 0 60 60" style="enable-background:new 0 0 60 60;" xml:space="preserve">
<path d="M59,52.189c-1.213-1.736-5.983-6.814-22.04-10.678c0-3.645-0.363-5.829-0.363-5.829s4.737-6.561,5.101-15.67
			c0-1.448,0.71-11.723-11.659-12.188c0-0.004,0-0.011,0-0.015c-0.031,0-0.057,0.007-0.092,0.007c-0.031,0-0.058-0.007-0.09-0.007
			c0,0.004,0,0.011,0,0.015C17.489,8.29,18.198,18.565,18.198,20.013c0.363,9.109,5.1,15.67,5.1,15.67s-0.366,2.185-0.366,5.829
			C7.301,45.273,2.368,50.184,1,52.045"/>
</svg>