<svg version="1.1" id="Layer_1" xmlns="http://www.w3.org/2000/svg" xmlns:xlink="http://www.w3.org/1999/xlink" x="0px" y="0px"
	 width="400px" height="400px" viewBox="0 0 60 60" style="enable-background:new 0 0 60 60;" xml:space="preserve">
<path class="st0" d="M19.5,34.984c-1.173-0.406-2.526-0.805-4.089-1.18c0-1.865-0.186-2.982-0.186-2.982s2.424-3.356,2.609-8.018
			c0-0.741,0.364-5.998-5.965-6.235c0,0,0-0.005,0-0.007c-0.016,0-0.03,0.003-0.047,0.003c-0.016,0-0.029-0.003-0.046-0.003
			c0,0.002,0,0.006,0,0.006c-6.328,0.239-5.965,5.496-5.965,6.237c0.185,4.662,2.61,8.018,2.61,8.018s-0.188,1.117-0.188,2.982
			C5.015,34.578,2.683,35.449,1,36.273"/>
<path class="st0" d="M59,36.035c-1.637-0.752-3.82-1.53-6.729-2.23c0-1.865-0.187-2.982-0.187-2.982s2.424-3.356,2.609-8.018
			c0-0.741,0.364-5.998-5.965-6.235c0,0,0-0.005,0-0.007c-0.016,0-0.029,0.003-0.046,0.003s-0.03-0.003-0.046-0.003
			c0,0.002,0,0.006,0,0.006c-6.329,0.239-5.966,5.496-5.966,6.237c0.186,4.662,2.61,8.018,2.61,8.018s-0.188,1.117-0.188,2.982
			c-1.729,0.416-3.019,0.857-4.271,1.309"/>
<path class="st0" d="M9.789,50.379c0,0.014,0.001,0.027,0.001,0.04c0.02,0.005,0.042,0.011,0.062,0.015
			C9.832,50.414,9.809,50.398,9.789,50.379z"/>
<path class="st0" d="M50.063,50.434c0.021-0.02,0.042-0.035,0.063-0.055c0.139-4.431,0.578-8.662,0.41-9.482
			c-0.642-3.133-3.254-3.578-10.123-5.912c-1.565-0.533-3.358-1.056-5.414-1.549c0-2.583-0.26-4.13-0.26-4.13
			s3.355-4.647,3.613-11.102c0-1.025-0.295-8.637-8.439-8.637s-8.353,7.611-8.353,8.637c0.256,6.454,3.613,11.102,3.613,11.102
			s-0.26,1.547-0.26,4.13c-2.055,0.493-3.85,1.016-5.415,1.549c-6.868,2.334-9.482,2.779-10.123,5.912
			c-0.168,0.82,0.271,5.052,0.411,9.482c0.02,0.02,0.042,0.035,0.063,0.055"/>
</svg>