<svg version="1.1" id="Layer_1" xmlns="http://www.w3.org/2000/svg" xmlns:xlink="http://www.w3.org/1999/xlink" x="0px" y="0px"
	 width="400px" height="400px" viewBox="0 0 60 60" style="enable-background:new 0 0 60 60;" xml:space="preserve">
<path d="M50.521,3.571c-8.062-0.263-13.52,4.261-16.375,13.573c1.471-0.605,2.9-0.91,4.295-0.91
		c2.939,0,4.241,1.647,3.895,4.959c-0.174,2.003-1.472,4.92-3.895,8.743c-2.434,3.835-4.249,5.747-5.456,5.747
		c-1.567,0-2.993-2.961-4.296-8.876c-0.438-1.74-1.217-6.176-2.337-13.317c-1.049-6.612-3.817-9.702-8.323-9.269
		c-1.905,0.175-4.762,1.919-8.57,5.223C6.68,11.969,3.863,14.494,1,17.018l2.728,3.521c2.604-1.83,4.126-2.738,4.55-2.738
		c1.994,0,3.86,3.13,5.593,9.391c1.557,5.75,3.123,11.493,4.685,17.235c2.328,6.267,5.195,9.4,8.571,9.4
		c5.458,0,12.14-5.134,20.02-15.4c7.624-9.833,11.56-17.579,11.825-23.242C59.321,7.617,56.506,3.744,50.521,3.571z"/>
</svg>