<svg version="1.1" id="Layer_1" xmlns="http://www.w3.org/2000/svg" xmlns:xlink="http://www.w3.org/1999/xlink" x="0px" y="0px"
	 width="400px" height="400px" viewBox="0 0 60 60" style="enable-background:new 0 0 60 60;" xml:space="preserve">
<path d="M35.514,1L13.406,19.074H4.773c-1.229,0-2.223,0.996-2.223,2.222v17.409c0,1.225,0.994,2.22,2.223,2.22h8.633
		L35.514,59C38.178,59,38.178,1,35.514,1z"/>
<path d="M43.404,18.806c0,0,2.852,5.611,2.852,11.31S43.404,41.96,43.404,41.96"/>
<path d="M47.729,14.225c0,0,3.977,7.831,3.977,15.785c0,7.954-3.977,16.531-3.977,16.531"/>
<path d="M52.369,9.746c0,0,5.08,10.002,5.08,20.16c0,10.161-5.08,21.115-5.08,21.115"/>
</svg>