<svg version="1.1" id="Layer_1" xmlns="http://www.w3.org/2000/svg" xmlns:xlink="http://www.w3.org/1999/xlink" x="0px" y="0px"
	 width="400px" height="400px" viewBox="0 0 60 60" style="enable-background:new 0 0 60 60;" xml:space="preserve">
<path d="M24.118,12.488H7.355C3.845,12.488,1,15.205,1,18.555"/>
<path d="M56.308,53.076c2.15-0.07,2.684-0.513,2.684-3.272V17.038c0-3.35-1.124-4.55-4.634-4.55h-5.389"/>
<path d="M 51.806,18.74 L 44.715,3.12 10.042,18.862       "/>
<path d="M36.83,18.776c-0.067-0.754-0.26-1.51-0.591-2.237c-1.569-3.458-5.645-4.987-9.103-3.418        c-2.338,1.062-3.794,3.269-4.007,5.656"/>
<path d="M53.811,51.727c-0.593,2.217-2.325,2.217-4.466,2.217h-1.539 M42.377,53.943h-7.28 M27.817,53.943h-7.28         M13.257,53.944h-7.28 M47.774,21.882L47.774,21.882l1.739,0.001c1.95,0,3.555,0.286,4.213,2.366 M35.061,21.876        L35.061,21.876l7.28,0.003 M20.5,21.869L20.5,21.869l7.281,0.004 M5.941,21.866l7.28,0.002"/>
<path d="M56.34,29.457v-6.86c0-3.35-1.326-3.789-4.676-3.789H7.93c0,0-1.741,0.079-3.983-0.844      c-1.431-0.588-1.937-2.694-1.937-2.694"/>
<path d="M1,18.892v34.323c0,3.35,0.062,3.665,3.411,3.665h47.253c3.35,0,4.676-0.947,4.676-4.297V40.006"/>
<path d="M59,39.991H43.935c-0.98,0-2.811-1.756-2.811-5.302s1.831-5.202,2.811-5.202H59"/>
</svg>