<svg version="1.1" id="Layer_1" xmlns="http://www.w3.org/2000/svg" xmlns:xlink="http://www.w3.org/1999/xlink" x="0px" y="0px"
	 width="400px" height="400px" viewBox="0 0 60 60" style="enable-background:new 0 0 60 60;" xml:space="preserve">
<path d="M58.658,50.932L31.472,7.118c-0.316-0.512-0.875-0.822-1.475-0.822c-0.602,0-1.159,0.313-1.477,0.822
			L1.261,51.052c-0.333,0.537-0.349,1.21-0.042,1.761c0.306,0.55,0.887,0.892,1.517,0.892h54.519h0.008
			c0.959,0,1.737-0.777,1.737-1.736C59,51.579,58.873,51.222,58.658,50.932z"/>
<path d="M27.984,35.586l-0.564-8.434c-0.105-1.644-0.158-2.823-0.158-3.54c0-0.975,0.255-1.734,0.765-2.279
				c0.512-0.548,1.184-0.82,2.017-0.82c1.01,0,1.686,0.349,2.026,1.048c0.339,0.698,0.51,1.706,0.51,3.019
				c0,0.776-0.042,1.563-0.123,2.36l-0.759,8.681c-0.082,1.034-0.257,1.825-0.528,2.379c-0.27,0.551-0.717,0.826-1.338,0.826
				c-0.634,0-1.074-0.267-1.32-0.802C28.266,37.49,28.089,36.676,27.984,35.586z M29.939,47.171c-0.716,0-1.342-0.231-1.875-0.695
				c-0.535-0.463-0.801-1.112-0.801-1.944c0-0.729,0.255-1.349,0.765-1.859c0.512-0.511,1.137-0.765,1.876-0.765
				c0.74,0,1.37,0.254,1.893,0.765s0.784,1.13,0.784,1.859c0,0.82-0.265,1.465-0.793,1.936
				C31.259,46.936,30.643,47.171,29.939,47.171z"/>
</svg> 