<?xml version="1.0" standalone="no"?>
<!DOCTYPE svg PUBLIC "-//W3C//DTD SVG 1.1//EN" "http://www.w3.org/Graphics/SVG/1.1/DTD/svg11.dtd" >
<svg xmlns="http://www.w3.org/2000/svg">
<metadata>Generated by IcoMoon</metadata>
<defs>
<font id="lineicons" horiz-adv-x="1024">
<font-face units-per-em="1024" ascent="960" descent="-64" />
<missing-glyph horiz-adv-x="1024" />
<glyph unicode="&#x20;" d="" horiz-adv-x="512" />
<glyph unicode="&#xe09c;" d="M1004 47.733l-440 424c6 0 12 2 18 4 124 24 136 30 136 50 0 14-8 22-108 92-26 20-62 44-72 54 0 12 4 46 6 74 14 132 14 154-2 162-2 2-8 2-10 2-16 0-46-20-130-84-22-16-48-36-58-44-12 4-40 18-66 28-86 38-126 56-142 56-8 0-12-4-16-6-12-12-10-24 34-150 10-30 22-66 24-78-6-10-32-40-54-64-84-92-96-106-88-124 6-12 16-18 98-18 24 0 50 2 74 2 30 0 56 0 64 0 6-10 24-40 38-64 66-116 76-128 92-128 2 0 2 0 2 0 20 2 26 18 62 138 2 4 2 6 2 8l430-444c2-4 6-6 12-6 4 0 8 2 12 4 6 6 6 18 0 24 0 2-2 2-2 4l-440 456c8 20 10 30 12 34 6 2 18 6 32 8l456-438c4-4 8-6 12-6s8 2 12 6c6 6 6 18 0 24zM468 479.733c-4-6-10-16-24-60-2-12-6-24-10-36-10-32-24-80-34-104-16 22-44 70-62 102-38 66-42 74-52 78-4 2-8 2-30 2-12 0-30 0-48 0-24 0-50 0-74 0-28 0-46 0-58 0 16 22 50 60 72 84 56 60 64 70 64 80 2 8-2 22-26 96-12 30-28 78-34 104 28-10 78-32 112-46 62-28 74-32 82-32 0 0 0 0 0 0 8 0 16 6 76 50 30 22 74 56 98 72 0-28-6-84-10-120-8-72-8-84-4-92 2-8 14-18 84-68 26-18 62-44 82-60-24-6-66-16-98-22-82-16-98-22-106-28zM488 613.733c-12 6-26 16-32 22 0 8 2 20 4 32 6 64 8 80-6 86-4 2-6 2-10 2-10 0-20-6-68-42-8-6-18-14-24-18-6 2-18 6-26 12-48 20-64 26-74 26-4 0-10-2-14-4-10-10-6-22 14-82 4-12 10-26 12-34-6-6-16-18-24-26-42-46-50-56-44-70 6-12 18-14 56-14 12 0 24 0 36 0 10 0 18 0 26 0 4-6 10-16 14-26 34-58 40-66 54-66 0 0 2 0 2 0 16 0 20 14 38 72 2 12 8 28 10 36 8 2 26 4 38 8 60 12 74 16 74 32 0 12-6 18-56 54zM464 561.733c-42-10-50-12-56-18-6-4-8-12-20-50-2-8-6-22-10-32-6 10-14 24-20 34-20 34-22 38-28 40-4 2-8 4-20 4-6 0-14-2-24-2-14 0-32 0-44 0 8 10 16 20 24 26 26 30 32 36 32 44 2 6 0 12-14 50-2 10-6 24-10 34 12-6 28-12 38-16 32-14 36-16 42-16 8 0 12 4 42 26 10 8 22 16 34 24-2-12-4-28-4-40-4-36-6-42-2-48 2-6 6-10 44-36 6-6 16-12 24-18-10-2-20-6-28-6zM588 693.733c2 0 4 0 6 2l90 34c8 2 12 12 10 22-4 8-14 12-22 10l-90-36c-10-2-14-12-10-22 2-6 8-10 16-10zM330 839.733c0 0 0 0 0 0 10 2 18 10 16 20l-8 80c-2 10-10 16-20 16-8-2-16-10-14-18l8-82c2-10 8-16 18-16zM114 619.733c8 0 14 6 16 12 4 10-2 20-10 22l-82 26c-10 2-18-2-22-12-2-8 2-18 12-20l82-26c0 0 2-2 4-2zM248 403.733c-8 4-18-2-20-10l-32-86c-2-8 2-18 12-22 2 0 4 0 6 0 6 0 12 4 16 10l30 86c2 10-2 20-12 22z" />
<glyph unicode="&#xe0fb;" d="M644 663.733c2 2 4 8 4 12s-2 8-4 12c-12 12-12 12-74-48l-262-262c-82-82-24-154-4-174 30-30 64-42 102-34 36 8 64 32 78 46l466 466c30 30 48 72 46 114 0 42-18 82-48 108-26 26-64 46-102 50-34 4-82 0-126-42l-622-622c-90-90-94-198-10-288 48-46 100-70 150-70s102 24 148 70l478 480c6 6 6 18 0 24s-18 6-24 0l-478-480c-80-80-166-80-250 0-72 76-68 162 10 240l622 622c34 34 72 36 98 32 30-4 62-18 84-40s36-52 36-84c2-34-12-66-36-90l-466-466c-12-12-34-30-62-36-26-6-48 2-70 24s-52 70 6 126z" />
<glyph unicode="&#xe105;" d="M356 679.733c10 0 18 6 18 16v18h188v-16c0-10 8-16 18-16 8 0 16 6 16 16v32c0 10-8 18-16 18h-224c-10 0-16-8-16-18v-34c0-10 6-16 16-16zM596 437.733c0 10-8 18-16 18h-224c-10 0-16-8-16-18v-34c0-10 6-16 16-16s18 6 18 16v18h188v-16c0-8 8-16 18-16 8 0 16 8 16 16zM596 115.733c0 10-8 18-16 18h-224c-10 0-16-8-16-18v-34c0-8 6-16 16-16s18 8 18 16v18h188v-16c0-8 8-16 18-16 8 0 16 8 16 16zM952 937.733c0 10-8 18-16 18h-758c-4 0-8-2-12-4l-88-80c-4-4-6-8-6-14 0 0 0 0 0 0v-908c0-10 8-18 16-18h756c0 0 2 0 2 0 4 0 8 2 12 4l88 80c4 4 6 8 6 14v906c0 2 0 2 0 2zM184 921.733h708l-52-48h-708zM830 579.733h-724v260h724zM106 545.733h724v-278h-724zM106 233.733h724v-268h-724zM918 35.733l-54-48v862l54 48z" />
<glyph unicode="&#xe141;" d="M1000 293.733c18 6 24 20 24 34 0 16-10 36-40 38v538c0 6-2 12-8 14-6 4-12 4-18 0l-78-48c-8-2-28-6-86-16-6-2-12-6-12-12-2-6-2-12 4-18l76-76c4-4 8-6 12-6 2 0 4 2 6 2 6 2 10 8 12 14l10 84 48 30v-506h-908c-30 0-42-20-42-38 0-14 6-28 22-34 14-64 66-274 148-274h12c-4-4-6-6-8-8-10-6-28-10-38-10v-34c6 0 38 2 58 18 12 8 24 24 32 34h574c6-10 16-26 28-34 20-16 52-18 58-18 0 0 0 0 2 0 8 0 16 6 16 16s-8 16-16 18c-12 0-30 4-40 10-2 2-4 6-6 8h12c80 0 132 210 146 274zM862 795.733l-30 30c14 2 26 4 34 6zM56 297.733c2 2 4 6 4 10 0 8-8 16-18 16-4 0-8 2-8 2s0 0 0 2 0 2 0 2 4 2 8 2h940c4 0 8-2 8-2s0 0 0-2 0-2 0-2-4-2-8-2c-10 0-18-8-18-16 0-4 2-6 2-8-26-120-76-246-112-246h-684c-38 0-86 124-114 244zM820 655.733c2 0 4 0 6 0 8 0 14 4 16 10l18 46c4 8 0 18-10 22-8 4-18-2-22-10l-18-46c-2-8 2-18 10-22zM790 557.733l18 44c2 10-2 20-10 22-10 4-20 0-22-8l-18-46c-4-10 0-20 10-22 2-2 4-2 6-2 6 0 14 4 16 12zM728 443.733c2 0 4 0 6 0 8 0 14 4 16 10l18 46c4 8 0 18-10 22-8 4-18 0-22-10l-18-46c-2-8 2-18 10-22zM718 755.733c4 0 6 0 10 2l42 26c8 4 10 14 4 22-4 8-14 12-22 6l-42-24c-8-6-10-16-6-24 4-6 8-8 14-8zM614 699.733c4 0 6 2 10 4l40 24c8 6 12 16 6 24-4 8-14 10-22 6l-42-26c-8-4-12-14-6-22 2-6 8-10 14-10zM504 629.733c4 0 6 2 10 4l40 24c8 6 12 16 6 24-4 8-14 10-22 6l-42-26c-8-4-12-14-6-24 2-4 8-8 14-8zM638 645.733c4-4 8-6 14-6 4 0 8 2 10 4l38 32c6 6 8 18 2 24-6 8-18 8-24 2l-38-32c-6-6-8-16-2-24zM552 571.733c4-4 8-6 14-6 2 0 6 2 10 4l38 32c6 6 8 16 2 24s-18 8-24 2l-38-32c-8-6-8-16-2-24zM786 763.733l-36-44c-6-8-6-18 2-24 2-4 6-4 10-4 6 0 10 2 14 6l36 44c6 8 6 18-2 24s-18 6-24-2zM750 637.733c4 8 4 20-4 24-8 6-18 4-24-2l-30-40c-4-8-4-18 4-24 4-2 6-4 10-4 6 0 10 2 14 8zM654 565.733l-28-40c-6-8-4-18 4-24 2-2 6-2 10-2s10 2 12 6l30 40c6 8 4 18-4 24s-18 4-24-4z" />
<glyph unicode="&#xe142;" d="M986 501.733l-68 46v74c0 26-20 48-46 48h-328c-2 0-2 0-4-2l-28-6-28 6c-2 2-4 2-4 2h-328c-26 0-46-22-46-48v-74l-66-46c0 0 0 0 0 0-24-12-40-36-40-64 0-26 14-48 36-62v-124c0-20 22-34 56-34 32 0 54 14 54 34v4h732v-4c0-20 22-34 54-34 34 0 56 14 56 34v124c22 14 36 36 36 62 0 28-16 52-38 64zM128 521.733c6-2 22-6 30-24 10-24-12-48-12-48s0-2 0-2c0 0 0 0-2 0-2 26-20 46-42 56zM146 381.733l22 38h326v-42h-342c-2 0-4 0-6 2zM530 419.733h326l22-38v-2c-2-2-4-2-6-2h-342zM880 447.733c-2 0-2 0-2 2 0 0-22 24-12 48 8 16 24 22 30 24l26-18c-22-10-40-30-42-56zM546 635.733h326c6 0 12-6 12-14v-68c-14-4-36-16-48-42-10-22-8-42 0-58h-306v176zM152 635.733h326l16-6v-176h-306c8 16 10 36 2 58-14 26-36 38-50 42v68c0 8 6 14 12 14zM112 255.733c-4-2-10-4-20-4s-18 2-22 4v132c0 6-4 12-10 16-16 4-26 18-26 34 0 22 18 38 38 38 22 0 40-16 40-38h16l-16-2c0 0 0-2 0-2zM146 289.733v54c2 0 4 0 6 0h360c0 0 0 0 0 0h360c2 0 4 0 6 0v-54h-732zM964 403.733c-6-4-10-10-10-16v-132c-4-2-12-4-22-4s-16 2-20 4v16c0 0 0 0 0 2 0 0 0 0 0 2v110c0 0 0 2 0 2v46c0 0 0 2 0 2s0 2 0 2c0 22 18 38 40 38 4 0 10 0 14-2l14-10c6-6 10-16 10-26 0-16-10-30-26-34z" />
<glyph unicode="&#xe14d;" d="M894 811.733h-764c-72 0-130-60-130-132v-472c0-64 46-116 104-128 2 0 2 0 2 0 4-2 8-2 12-2s8-2 12-2h764c72 0 130 60 130 132v472c0 72-58 132-130 132zM130 777.733h764c52 0 96-44 96-98v-6h-956v6c0 54 44 98 96 98zM352 109.733c8 80 74 140 154 140s148-62 154-140zM696 109.733c-10 98-90 174-190 174-98 0-180-76-188-174h-188c-2 0-2 2-4 2 0 36 68 58 94 58h2c8 0 14 6 16 12 6 14 10 28 18 40 2 6 2 14-4 20l-2 2c-20 20-50 84-24 110l22 22c6 6 16 8 28 8 30 0 70-22 82-34l2-2c4-4 12-6 20-2 12 6 24 12 38 16 8 2 12 8 12 16v2c0 34 22 96 60 96h32c38 0 60-68 60-96v-2c0-8 4-14 12-16 14-4 26-10 38-16 8-4 16-2 20 2l2 2c18 18 52 36 80 36 14 0 22-4 30-10l22-22c28-28-4-92-24-110l-2-2c-6-6-6-14-4-20 8-12 12-26 18-40 2-6 8-12 16-12h2c32 0 94-22 94-60h-190zM920 113.733c-4 56-72 86-118 90-4 8-6 16-10 22 28 34 62 108 18 152l-22 22c-14 12-32 20-54 20-34 0-72-18-96-38-8 2-14 6-22 8-4 48-36 120-94 120h-32c-58 0-90-72-94-120-8-2-14-6-22-8-22 16-62 38-98 38-22 0-40-8-52-20l-22-22c-44-44-8-118 18-152-4-6-6-14-10-22-38-4-110-30-118-84-34 14-58 48-58 88v432h956v-432c0-44-30-82-70-94zM140 693.733c16 0 30 14 30 30 0 14-14 28-30 28-14 0-28-14-28-28 0-16 14-30 28-30zM140 727.733c4 0 6-2 6-4 0-4-2-6-6-6-2 0-4 2-4 6 0 2 2 4 4 4zM228 693.733c16 0 30 14 30 30 0 14-14 28-30 28s-28-14-28-28c0-16 12-30 28-30zM228 727.733c4 0 6-2 6-4 0-4-2-6-6-6-2 0-6 2-6 6 0 2 4 4 6 4zM314 693.733c16 0 30 14 30 30 0 14-14 28-30 28-14 0-28-14-28-28 0-16 14-30 28-30zM314 727.733c4 0 6-2 6-4 0-4-2-6-6-6-2 0-4 2-4 6 0 2 2 4 4 4z" />
<glyph unicode="&#xe14f;" d="M948 941.733h-872c-42 0-76-36-76-78v-582c0-42 34-76 76-76h416v-72l-158-158c-8-6-8-18 0-24 2-4 6-6 12-6 4 0 8 2 12 6l152 152 150-152c4-4 8-6 12-6 6 0 10 2 12 6 8 6 8 18 0 24l-158 158v72h422c42 0 76 34 76 76v582c0 42-34 78-76 78zM990 281.733c0-24-18-42-42-42h-872c-24 0-42 18-42 42v582c0 24 18 42 42 42h872c24 0 42-18 42-42zM568 599.733c-2 0-2 0-2 0-2 0-4 0-6 0h-196c-10 0-18-6-18-16v-168c0-10 8-18 18-18 120 0 214 48 214 110 0 6 0 68 0 74 0 0 0 2 0 2-2 8-6 12-10 16zM538 565.733c-18-28-78-54-158-58v58zM542 507.733c0-34-64-70-162-74v40c70 4 128 22 162 50 0-8 0-16 0-16zM522 645.733c0 2 0 2 0 4-6 60-98 104-214 104s-208-44-212-104c0-2 0-4 0-4 0-2 0-2 0-2s-2-2-2-2c0-4 2-68 2-72 0-62 92-110 212-110 10 0 18 8 18 16v152h180c8 0 16 8 16 18zM130 569.733c0 0 0 6 0 16 34-28 92-48 162-50v-42c-96 4-162 42-162 76zM308 661.733c-8 0-16-8-16-16v-76c-96 4-162 42-162 76v2c2 34 74 72 178 72 90 0 156-28 174-58zM918 709.733h-238c-8 0-16-8-16-18 0-8 8-16 16-16h238c10 0 18 8 18 16 0 10-8 18-18 18zM918 513.733h-238c-8 0-16-8-16-16 0-10 8-18 16-18h238c10 0 18 8 18 18 0 8-8 16-18 16zM918 613.733h-238c-8 0-16-8-16-18s8-16 16-16h238c10 0 18 6 18 16s-8 18-18 18z" />
<glyph unicode="&#xe159;" d="M402 449.733c-36 0-68-30-68-70 0-38 32-70 68-70 38 0 68 32 68 70 0 40-30 70-68 70zM420 399.733c0-4-6-4-6 0s2 4 4 4c2 0 2-2 2-4zM402 343.733c-18 0-34 16-34 36 0 12 6 22 14 28-2-2-2-4-2-8 0-20 16-38 38-38 6 0 10 2 14 4-4-14-16-22-30-22zM622 449.733c-38 0-68-30-68-70 0-38 30-70 68-70 36 0 66 32 66 70 0 40-30 70-66 70zM640 399.733c0-4-6-4-6 0s2 4 4 4c0 0 2 0 2-4zM622 343.733c-20 0-34 16-34 36 0 12 4 22 12 28 0-2 0-4 0-8 0-20 16-38 38-38 4 0 10 2 14 4-6-14-18-22-30-22zM980 477.733c-10 226-210 478-464 478-250 0-436-234-456-454-10-24-16-54-16-82 0-88 52-160 118-160 2 0 4 0 8 0 64-128 198-210 342-210 146 0 280 82 344 210 4 0 6 0 8 0 24 0 48 10 68 28-28-208-190-248-242-256-12 12-50 24-78 24-10 0-20 0-30-4-24-6-44-18-58-32-18-18-24-36-20-54 8-20 32-34 66-34 16 0 32 2 48 8 38 12 58 40 68 58 54 6 284 54 284 354 0 2 0 2 0 2 14 54 10 122 10 124zM606-28.267c-12-4-24-6-36-6-20 0-32 6-32 10-2 4 2 12 10 20 10 10 26 18 44 24 6 2 12 2 20 2 16 0 34-6 44-10-8-12-22-32-50-40zM800 529.733l-158 144c-4 4-10 6-14 4-6 0-10-4-12-8 0 0-54-84-190-146-68-32-140-50-194-60 0 24-2 46-6 62-10 36-32 54-64 54-2 0-4 0-6 0 80 144 218 234 360 234 158 0 290-112 360-234-4 0-8 0-12 0-32 0-52-16-64-50zM512 83.733c-130 0-250 74-310 188 10 10 18 22 24 42 6 26 6 62 6 102v8c0 2 0 4 0 6 58 10 134 30 208 62 112 50 170 114 194 144l160-144c-2-22-2-44-2-68v-8c0-40 0-76 8-102 4-20 12-34 24-42-60-116-180-188-312-188zM864 293.733c-14 0-26 4-32 28s-6 58-6 94v8c0 36 0 70 6 94s18 28 32 28c12 0 26-4 38-14 6-4 14-4 20 0 6 6 8 14 6 20-68 148-220 296-412 296-168 0-328-114-410-290-4-6-2-14 4-20 6-4 14-4 20 0 10 6 20 8 32 8 14 0 24-4 30-28s6-58 6-94v-8c0-36 0-70-6-94s-16-28-30-28c-46 0-84 58-84 126 0 26 6 50 14 70 2 2 2 4 2 6 16 206 190 426 422 426 236 0 420-234 430-446 0-26 0-104-20-140-16-26-40-42-62-42z" />
<glyph unicode="&#xe16f;" d="M1024 621.733c0 54-44 98-96 98-54 0-98-44-98-98 0-2 0-2 0-4-42-22-138-54-228 42 8 14 14 32 14 48 0 54-44 98-98 98-52 0-96-44-96-98 0-18 6-36 14-50-92-90-200-56-242-38 0 54-44 98-98 98-52 0-96-44-96-98 0-46 34-86 78-94l96-180 72-188c2-42 36-76 80-76h374c44 0 78 34 80 76l72 188 96 182c0 0 0 0 2 0 42 10 74 48 74 94zM520 771.733c34 0 62-28 62-64 0-12-4-24-12-34 0-2 0-2-2-2-2-2-2-4-4-6-12-12-28-20-44-20-36 0-64 28-64 62 0 36 28 64 64 64zM34 619.733c0 34 28 64 62 64 36 0 64-28 64-64 0-34-28-62-64-62 0 0 0 0-2 0s-4 0-6 0c-30 6-54 32-54 62zM822 361.733c0-2-2-2-2-2l-72-192c-2-2-2-4-2-6 0-26-20-46-46-46h-374c-26 0-46 20-46 46 0 2 0 4-2 6l-72 192c-2 0-2 0-2 2l-88 164c34 6 60 30 72 60 24-10 62-22 108-22 50 0 110 16 164 68 16-12 36-20 60-20 22 0 44 8 60 22 54-56 110-74 158-74 40 0 76 12 100 24 12-30 40-52 72-58zM928 559.733c-36 0-64 28-64 62s28 62 64 62c34 0 62-28 62-62s-28-62-62-62zM520 465.733c-10 0-18-8-18-18v-232c0-10 8-18 18-18 8 0 16 8 16 18v232c0 10-8 18-16 18zM664 445.733c-10 2-18-4-22-12l-66-224c-2-8 4-18 12-20 2 0 4-2 6-2 6 0 14 6 16 14l66 222c2 10-4 18-12 22zM400 431.733c-4 8-12 14-22 10-8-2-14-12-12-20l66-224c2-6 10-12 16-12 2 0 4 0 6 2 8 2 14 12 12 20z" />
<glyph unicode="&#xe170;" d="M586 693.733c-2 0-4 0-6 0l116 146c2 2 4 6 4 10v56c0 10-8 18-18 18h-64v14c0 10-8 18-18 18h-182c-10 0-18-8-18-18v-14h-66c-8 0-16-8-16-18v-56c0-4 2-8 4-10l116-146c-184-56-312-300-312-484s130-278 386-278c256 0 386 94 386 278s-128 428-312 484zM512-34.267c-238 0-352 80-352 244 0 172 124 402 288 452 10 2 14 12 12 20 0 2-2 2-2 2 2 2 4 2 6 4 8 6 10 16 4 24l-116 144v34h66c8 0 16 8 16 16v16h150v-16c0-8 8-16 16-16h66v-34l-116-144c-6-8-4-18 4-24 2-2 6-4 10-4 0 0 0 0 2 0-2 0-2 0-2-2-2-8 2-18 12-20 164-50 288-280 288-452 0-164-114-244-352-244zM540 367.733c-56 12-76 20-76 40 0 24 28 34 56 34 38 0 78-18 102-46 4-4 8-8 14-8 16 0 54 30 54 68s-36 78-118 92v8c0 42-18 64-56 64h-4c-26 0-56-12-56-64v-12c-74-18-120-70-120-140 0-110 106-134 152-144 54-12 80-20 80-42 0-32-46-34-60-34-52 0-96 26-118 52-4 4-8 6-12 6-18 0-52-30-52-66 0-48 52-88 130-100v-10c0-16 0-64 56-64h2c22 0 58 10 58 64v12c80 18 128 70 128 144 0 110-112 134-160 146zM552 109.733c-8-2-14-8-14-16v-28c0-26-10-28-24-28h-2c-16 0-22 0-22 28v26c0 8-8 16-16 16-74 8-114 40-114 68 0 12 8 22 14 28 32-34 84-54 134-54 56 0 94 26 94 68 0 52-54 64-106 76-66 14-126 38-126 110 0 56 40 98 106 110 8 2 14 8 14 16v26c0 28 8 30 22 30h4c14 0 22-2 22-30v-24c0-8 6-16 16-16 66-8 102-36 102-60 0-12-10-24-16-30-32 30-78 50-120 50-54 0-90-28-90-68 0-52 52-62 102-74 70-16 134-38 134-112 0-60-42-102-114-112z" />
<glyph unicode="&#xe187;" d="M374 457.733h-108c-38 0-70-32-70-70v-56c0-38 32-68 70-68h108c40 0 70 30 70 68v56c0 38-30 70-70 70zM410 331.733c0-18-16-34-36-34h-108c-20 0-36 16-36 34v56c0 20 16 36 36 36h108c20 0 36-16 36-36zM956 117.733h-54v372c40 18 70 50 76 92 6 20 6 66 0 88-26 90-82 238-178 238h-604c-126 0-162-248-166-276 0-2 0-2 0-2v-34c0-48 34-90 82-106v-372h-44c-38 0-68-32-68-70s30-68 68-68h888c38 0 68 30 68 68s-30 70-68 70zM944 661.733c6-22 4-60 2-68-2-2-2-4-2-6-4-42-48-74-98-74-26 0-54 10-72 28-16 16-24 34-24 54v278h50c78 0 130-162 144-212zM522 873.733h194v-278c0-20-8-38-24-54-18-18-46-28-74-28s-54 10-72 28c-16 16-24 34-24 54v278zM294 873.733h194v-278c0-20-10-38-24-54-20-18-46-28-74-28s-54 10-72 28c-16 16-24 34-24 54zM64 595.733v32c10 70 52 246 132 246h64v-278c0-20-10-38-26-54-18-18-44-28-72-28-8 0-16 2-24 4-2 0-6 2-8 2s-2 0-2 0c-38 12-64 42-64 76zM146 481.733c6-2 10-2 16-2 36 0 72 14 96 38 8 6 14 14 18 22 6-8 10-16 18-22 24-24 60-38 96-38s72 14 96 38c8 6 14 14 18 22 6-8 12-16 18-22 26-24 60-38 96-38 38 0 72 14 98 38 6 6 12 14 16 22 6-8 12-16 18-22 26-24 60-38 96-38 8 0 14 2 22 2v-364h-92v272c0 38-30 68-68 68h-106c-38 0-68-30-68-68v-272h-388zM742 117.733h-174v272c0 18 16 34 34 34h106c18 0 34-16 34-34zM956 13.733h-888c-18 0-34 16-34 34 0 20 16 36 34 36h888c18 0 34-16 34-36 0-18-16-34-34-34z" />
<glyph unicode="&#xe1f9;" d="M324 347.733c-58-22-158-60-172-74-34-34-34-88 0-120 16-16 36-26 60-26 22 0 44 10 60 26 14 14 52 114 74 172 2 8 2 14-4 18-4 6-12 8-18 4zM246 177.733c-18-20-52-20-70 0-20 20-20 52 0 70 8 8 64 32 124 56-22-60-46-118-54-126zM820 323.733l-158 34c-4 2-8 0-12-2l-138-102c-6-4-8-10-8-16 2-6 6-12 12-14l20-6-92-74c-6-4-8-10-6-16 0-8 6-12 12-14l14-2-110-88c-6-6-8-16-4-22s10-10 16-10c2 0 2 2 4 2l246 78c6 2 10 8 12 14 0 6-2 12-6 16l-16 12 102 38c4 2 8 8 10 14 0 6-2 12-6 16l-40 34 152 76c6 2 10 10 10 16-2 8-6 14-14 16zM632 233.733c-4-2-8-8-8-12-2-6 0-12 6-16l38-32-100-38c-6-2-10-8-12-14 0-6 2-12 6-16l14-10-130-42 66 52c4 4 6 12 6 18-2 6-8 10-14 12l-12 4 92 70c4 4 8 12 6 18s-6 10-12 12l-20 6 106 78 102-24zM996 565.733c0 6 2 12 2 16 0 28-12 54-36 80 2 2 2 6 2 10 0 88-92 158-206 158-10 0-20-2-30-4 0 0 0 0-2 0-36 44-96 70-162 70-90 0-166-46-190-114-22-6-44-14-64-24-24 22-58 36-96 36-54 0-102-30-118-70-58-16-96-56-96-102 0-44 36-84 88-100 22-40 72-66 126-66 38 0 74 12 100 34 14-8 32-16 48-20 34-64 112-106 202-106 50 0 98 12 138 38 12-4 26-6 42-6 4 0 10 0 14 0 20-20 50-34 84-34 48 0 88 24 102 58 48 14 80 48 80 88 0 22-10 42-28 58zM116 543.733c-2 4-6 8-12 10-42 10-70 38-70 68 0 32 32 62 78 70 6 2 12 6 12 12 10 32 48 56 90 56 32 0 60-12 76-30 2-2 2-2 2-4 2-2 4-4 6-6 4-2 10-4 14-4s6 2 8 2c6 0 10 2 14 2 52 0 96-30 96-68 0 0 0 0 0 0 0-2 0-4-2-8 0-6 2-10 6-14 12-12 16-22 16-34 0-32-38-58-84-58-12 0-24 2-36 4-8 4-16 0-20-6-2-4-4-6-6-10-4 0-6-2-8-6 0 0-2-2-2-2-20-18-48-28-80-28-44 0-84 22-98 54zM564 397.733c-80 0-148 38-174 94-2 4-6 8-12 8-2 2-4 2-8 4 64 2 114 42 114 92 0 18-6 34-20 50 2 2 2 4 2 4 0 46-38 84-88 98 4 0 10 2 14 2 6 2 12 6 12 14 16 56 82 98 160 98 58 0 112-24 142-64 4-6 10-8 16-8 4 2 10 2 14 2 8 2 16 4 22 4 96 0 172-56 172-124 0 0 0-2 0-2-2-2-2-6-4-10 0-6 2-12 6-14 18-20 30-38 30-58-4 2-8 4-12 4-20 34-60 56-108 56-40 0-76-16-98-42-8 2-18 4-28 4-56 0-100-36-100-82 0-14 4-28 16-42 0 0 0-2 0-2 0-24 12-48 34-64-30-14-66-22-102-22zM928 451.733c-6-2-12-6-14-12-6-26-36-44-72-44-26 0-52 12-64 30-4 4-10 6-14 6-2 0-2 0-4 0s-4 0-6-2c-4 0-8 0-10 0-42 0-76 24-78 52 0 2 2 4 2 6 0 6-2 12-6 16-8 8-12 16-12 24 0 26 30 48 66 48 10 0 20-2 30-6 8-2 16 2 20 8 14 22 44 36 76 36 38 0 70-18 80-42 2-6 6-8 12-10 12-4 24-8 32-14 0-2 2-2 2-2 14-10 22-24 22-38 0-26-26-48-62-56z" />
<glyph unicode="&#xe60b;" d="M1016 95.733l-464 748c-8 14-24 22-40 22s-32-8-40-22l-464-750c-10-14-10-32-2-48 8-14 24-24 40-24h932c26 0 46 22 46 48 0 10-4 18-8 26zM978 55.733h-932c-4 0-8 2-10 6s-2 10 0 14l466 750c2 4 6 6 10 6s8-2 10-6l466-750c0 0 2-4 2-6 0-8-6-14-12-14zM510 257.733c-16 0-32-6-44-18s-18-26-18-44c0-20 6-36 20-46 12-10 26-16 42-16 18 0 32 6 44 16 12 12 20 28 20 46s-8 32-20 44c-12 12-26 18-44 18zM532 175.733c-12-10-30-10-42 0-4 2-8 8-8 20 0 8 2 14 8 20s12 8 20 8c8 0 14-2 20-8s8-12 8-20c0-12-4-18-6-20zM512 621.733c-18 0-34-6-46-18s-18-30-18-50c0-14 2-34 2-62l10-144c2-22 6-38 12-48 6-16 20-24 38-24 16 0 30 8 38 24 4 12 8 26 10 46l12 148c2 14 4 28 4 42 0 26-4 46-12 60-6 12-20 26-50 26zM536 497.733l-12-148c-2-20-4-30-8-36-2-2-2-4-6-4-6 0-6 2-8 4-2 6-6 16-8 36l-8 144c-2 28-4 48-4 60s4 20 8 26c6 6 14 8 22 8 16 0 18-4 20-8 4-6 6-18 6-44 0-12 0-24-2-38z" />
<glyph unicode="&#xe60c;" d="M1002 671.733l-274 264c-14 12-32 20-50 20h-332c-18 0-36-8-50-20l-274-264c-14-14-22-32-22-52v-352c0-20 8-38 22-52l274-264c14-12 32-20 50-20h332c18 0 36 8 50 20l274 264c14 14 22 32 22 52v352c0 20-8 38-22 52zM990 267.733c0-10-4-20-12-28l-274-264c-8-6-16-10-26-10h-332c-10 0-18 4-26 10l-274 264c-8 8-12 18-12 28v352c0 10 4 20 12 28l274 264c8 6 16 10 26 10h332c10 0 18-4 26-10l274-264c8-8 12-18 12-28zM808 725.733c-24 22-64 22-86 0l-200-200-202 200c-22 22-62 22-86 0-24-24-24-62 0-86l202-200-202-202c-24-24-24-62 0-86 24-22 64-22 86 0l202 202 200-202c12-12 26-18 42-18 18 0 32 6 44 18 24 24 24 62 0 86l-200 202 200 200c24 24 24 62 0 86zM784 663.733l-214-212c-2-4-4-8-4-12 0-6 2-10 4-14l214-212c10-10 10-28 0-38s-28-10-38 0l-212 214c-4 2-8 4-12 4-6 0-10-2-12-4l-214-214c-10-10-28-10-38 0s-10 28 0 38l214 214c6 6 6 16 0 24l-214 212c-10 10-10 28 0 38s28 10 38 0l214-214c6-6 16-6 24 0l212 214c10 10 28 10 38 0s10-28 0-38z" />
<glyph unicode="&#xe60d;" d="M636 715.733v20c0 42-34 74-74 74h-62c2 20 6 36 16 46s26 16 48 16h76c-2-4-4-8-4-14 2-6 6-10 12-12l38-12 12-40c2-6 8-10 14-10 2 0 2-2 2-2 6 0 12 4 14 8l24 32h40c6 0 12 4 16 10 2 6 2 12-2 18l-24 32 12 38c4 6 2 12-4 18-4 4-10 6-16 4l-38-14-32 24c-6 4-14 6-18 2-6-2-10-8-10-16v-32h-112c-32 0-56-8-72-26-20-18-24-44-26-70h-20c-42 0-76-32-76-74v-26c-156-58-260-208-260-376 0-222 180-402 402-402s402 180 402 402c0 174-114 328-278 382zM722 895.733c4-4 10-4 16-2l14 4-6-14c0-6 0-10 4-16l8-12-14 2c-6 0-12-4-14-8l-8-12-6 14c0 6-6 10-10 12l-14 4 12 8c4 4 6 8 6 14v14zM404 735.733c0 22 20 40 42 40h116c22 0 40-18 40-40v-34c0 0 0 0 0 0v-28c-10-6-46-12-98-12-54 0-88 6-100 12zM512-34.267c-202 0-368 166-368 368 0 150 90 284 226 340v-6c0-10 0-40 134-40 132 0 132 30 132 40v12c144-52 244-190 244-346 0-202-166-368-368-368zM338 583.733c-28-10-58-30-78-58-22-28-32-60-24-82 4-8 10-12 18-12 0 0 2 0 4 0 10 4 14 14 12 22-4 12 2 32 16 52 18 20 40 38 62 46 8 2 14 12 10 22-2 8-12 12-20 10z" />
<glyph unicode="&#xe60e;" d="M828 423.733h-232c-2 12-6 22-12 32l166 166c6 8 6 18 0 24-6 8-18 8-24 0l-166-166c-14 10-30 14-48 14-48 0-86-38-86-86s38-86 86-86c40 0 76 28 84 68h232c8 0 16 8 16 16 0 10-8 18-16 18zM512 355.733c-30 0-52 24-52 52s22 52 52 52c8 0 16-2 22-6l-32-32c-8-2-12-8-12-16s8-16 16-16h54c-8-20-26-34-48-34zM552 423.733l6 6c2-2 2-4 4-6zM956 541.733c68 74 78 186 20 270-4 6-90 116-218 92-40-6-78-26-108-52-24 6-48 12-72 16v70c0 10-8 18-16 18h-98c-10 0-16-8-16-18v-70c-26-4-50-10-74-16-30 26-68 46-108 52-128 24-214-86-218-92-58-84-48-194 20-268-14-44-20-88-20-136 0-120 46-230 122-314-4 0-6-2-10-4l-56-56c-4-4-8-10-8-20 0-16 10-34 28-52 16-16 36-28 54-28 6 0 14 2 18 8l64 62c2 4 4 8 4 12 72-46 156-72 248-72 90 0 174 26 246 70 0-4 0-8 4-12l62-62c4-4 10-8 20-8 0 0 0 0 0 0 16 0 34 10 52 28 24 24 38 54 20 72l-54 54c-2 4-8 6-12 6 78 82 126 194 126 316 0 46-8 92-20 134zM482 921.733h62v-52c-10 2-22 2-32 2s-20 0-30 0zM74 791.733c2 2 78 98 186 78 28-4 54-16 76-32-116-48-208-140-256-258-46 62-48 148-6 212zM236 27.733l-60-60c-6 2-16 6-28 18s-16 22-18 26l54 54c4 2 4 6 6 8 16-14 32-30 50-42-2-2-2-2-4-4zM890 9.733c-2-4-6-14-18-26s-22-16-26-18l-60 60c-2 2-4 4-6 4 18 14 36 28 54 44 0-4 2-8 4-12zM512-22.267c-238 0-430 194-430 430 0 44 6 88 18 128 4 4 6 8 4 12 60 168 220 290 408 290 190 0 350-124 408-296 0 0 0-2 0-2 14-42 22-86 22-132 0-236-194-430-430-430zM688 837.733c22 16 48 28 76 32 108 20 184-76 184-76 44-66 42-152-6-214-46 116-138 210-254 258z" />
<glyph unicode="&#xe60f;" d="M512-68.267c-184 0-334 134-334 300 0 100 46 176 94 254 28 46 56 94 78 148 46 118 38 302 36 304 0 6 4 12 8 14 6 4 12 4 16 2 6-2 134-56 224-206 52-86 44-196 28-272 20 36 28 72 30 116 0 8 4 14 12 16s16 0 20-8c82-130 122-254 122-368 0-166-150-300-334-300zM422 909.733c0-58-2-192-40-290-22-56-52-104-80-150-46-76-90-148-90-238 0-146 134-266 300-266s300 120 300 266c0 94-30 198-92 306-10-58-38-106-84-152-6-6-16-8-22-2-6 4-10 12-6 20 0 2 74 198-4 326-62 102-142 158-182 180zM508 5.733c0 0 0 0 0 0-70 0-128 56-128 126 0 40 18 72 36 102 8 18 18 34 26 54 14 44 12 114 12 114 0 6 4 12 8 16 6 4 14 2 20-2s166-128 154-286c-6-70-60-124-128-124zM488 365.733c-2-26-4-60-14-88-8-24-18-42-30-60-16-30-30-54-30-86 0-52 42-92 94-92 50 0 90 38 94 92 8 102-72 192-114 234z" />
<glyph unicode="&#xe610;" d="M818 713.733c-46 42-98 72-156 94v130c0 8-2 12-8 16-6 2-12 2-16 0-72-40-228-146-234-150s-8-10-8-14c0-6 4-12 8-16 6-4 162-104 234-142 2-2 4-2 8-2 2 0 6 0 8 2 6 4 8 10 8 16v122c50-18 94-46 132-82 170-156 180-420 24-588-76-82-178-130-290-134-110-4-218 36-298 110-82 76-130 180-134 290-4 112 34 218 110 300 6 6 6 18 0 24-8 6-18 6-24-2-82-88-124-202-120-322 4-122 56-232 144-314 84-78 192-120 306-120 6 0 12 0 18 0 120 6 230 56 312 144 170 182 158 468-24 638zM628 675.733c-58 34-144 88-184 114 40 26 126 84 184 120z" />
<glyph unicode="&#xe611;" d="M842 687.733c-6 8-16 8-24 2-6-6-6-18 0-24 76-82 114-188 110-300-4-110-52-214-134-290-80-74-186-114-298-110s-214 52-290 134c-156 168-146 432 24 588 38 36 82 64 132 82v-122c0-6 2-12 8-16 2-2 6-2 8-2 4 0 6 0 8 2 72 38 228 138 234 144 4 2 8 8 8 14 0 4-2 10-8 14s-162 110-234 150c-4 2-10 2-16 0-6-4-8-8-8-16v-130c-58-22-110-52-156-94-182-170-194-456-24-638 82-88 192-140 312-144 6 0 12 0 18 0 114 0 222 42 306 120 88 82 140 192 144 314 4 120-38 234-120 322zM396 909.733c58-36 144-94 184-120-40-26-126-80-184-114z" />
<glyph unicode="&#xe612;" d="M1020 673.733c-6 6-18 6-24 0l-484-426-484 428c-6 6-18 6-24-2-6-6-6-18 2-24l494-438c4-2 8-4 12-4s8 2 12 4l494 438c8 6 8 16 2 24z" />
<glyph unicode="&#xe613;" d="M1018 237.733l-494 438c-8 6-16 6-24 0l-494-438c-8-6-8-16-2-24 6-6 18-6 24 0l484 426 484-428c2-2 6-4 10-4 6 0 10 2 14 6 6 6 6 18-2 24z" />
<glyph unicode="&#xe614;" d="M316 443.733l428 484c6 6 6 18-2 24-6 6-18 6-24-2l-438-494c-6-8-6-16 0-24l438-494c2-4 8-6 12-6s8 2 12 4c6 6 6 18 0 24z" />
<glyph unicode="&#xe615;" d="M744 455.733l-438 494c-6 8-18 8-24 2-8-6-8-18-2-24l428-484-426-484c-6-6-6-18 0-24 4-2 8-4 12-4s10 2 12 6l438 494c6 8 6 16 0 24z" />
<glyph unicode="&#xe616;" d="M1006 461.733h-952l270 304c6 6 6 18 0 24-8 6-18 6-24-2l-296-332c0-2 0-2-2-4 0 0 0 0 0-2-2-4-2-8 0-12 0-2 0-2 0-2 2-2 2-2 2-4l294-332c4-4 8-6 14-6 4 0 8 2 10 4 8 6 8 18 2 24l-270 304h952c10 0 18 8 18 18s-8 18-18 18z" />
<glyph unicode="&#xe617;" d="M1022 449.733c0 2 0 2 0 2-2 2-2 2-2 4l-296 332c-6 8-16 8-24 2-6-6-6-18 0-24l270-304h-952c-10 0-18-8-18-18s8-18 18-18h952l-270-304c-6-6-6-18 2-24 2-2 6-4 10-4 6 0 10 2 14 6l294 332c0 2 0 2 2 4 0 0 0 0 0 2 2 4 2 8 0 12z" />
<glyph unicode="&#xe618;" d="M942 47.733c0 0 0 2 0 2 2 2 2 2 2 4s0 2 0 2c0 14 0 142-26 188-18 30-42 54-60 70-4 4-10 10-12 12-10 42-18 86-24 130-24 142-48 300-204 350 4 10 6 22 6 34 0 64-52 116-116 116s-114-52-114-116c0-12 2-24 4-34-152-50-176-206-198-346-6-44-14-88-24-128-2-2-6-6-8-8-16-16-48-42-66-82-22-48-26-152-20-184 0 0 0-2 0-4 2-2 2-2 2-4 0 0 0 0 0 0s0 0 0 0c2-2 2-2 4-4 0 0 0 0 2 0 6-4 172-114 418-114s420 106 428 110c0 0 0 0 0 0s2 0 2 0c0 2 0 2 0 2 2 2 2 2 4 4zM574 99.733c4-8 6-18 6-26 0-40-34-74-74-74-42 0-76 34-76 74 0 8 2 16 6 24 26 4 50 4 72 4 20 0 44 0 66-2zM492-34.267c-160 4-286 56-346 86 58 12 158 32 254 44-2-8-4-14-4-22 0-56 42-100 96-108zM614 73.733c0 8-2 14-4 22 98-12 208-34 268-46-64-30-196-82-362-84 54 6 98 52 98 108zM428 839.733c0 46 36 82 80 82 46 0 82-36 82-82 0-8-2-18-4-26-24 4-48 6-76 6-30 0-54-2-78-6-4 8-4 18-4 26zM132 225.733c16 34 42 58 58 72 12 10 16 14 18 22 12 44 18 90 26 134 26 172 50 332 276 332 30 0 58-2 82-8 2 0 2-2 2-2 148-36 170-178 194-326 6-44 14-90 26-134 2-8 8-14 20-26 16-16 40-38 54-64 16-26 20-104 22-148-66 14-272 58-402 58-126 0-316-40-386-54-4 0-6-2-8-2 0 34 2 110 18 146z" />
<glyph unicode="&#xe619;" d="M946 433.733c-56 54-130 82-206 78 28 44 44 94 44 148 0 114-72 216-178 254-8 2-18-2-22-10-2-8 2-18 10-22 62-30 102-94 102-164 0-32-8-62-22-88-48 30-102 46-158 46s-112-18-160-48c-14 26-24 56-24 90 0 70 42 134 104 164 8 4 12 14 8 22s-12 12-22 10c-106-38-176-140-176-254 0-54 14-104 44-148-6 0-14 0-20 0-72 0-140-28-192-78-80-80-100-204-52-306 2-6 8-10 14-10 10 0 18 8 18 18 0 2 0 6-2 8-22 66-4 138 44 186 34 34 78 54 126 54 2-112 66-214 166-260-8-18-20-36-34-50-34-36-80-54-130-54-20 0-40 4-60 10-8 2-18-2-22-10-2-8 0-18 10-22 34-16 74-24 114-24 72 0 140 28 190 78 22 22 38 46 52 74 14-28 30-52 52-74 50-50 118-78 190-78 40 0 80 8 114 24 8 4 12 14 10 22-4 8-14 12-22 10-20-6-40-10-60-10-50 0-96 18-130 54-14 14-24 28-34 46 106 46 174 148 174 264 46-4 86-22 118-54 50-48 66-122 44-188-4-10 0-18 8-22 10-4 18 0 22 8 48 102 28 226-52 306zM516 641.733c50 0 98-14 138-40-34-40-84-66-140-66-54 0-104 24-138 64 42 26 90 42 140 42zM260 381.733c38-8 70-24 98-52 48-46 62-114 46-174-86 42-142 128-144 226zM620 151.733c-18 60-2 130 46 178 30 30 66 48 106 52 0-100-60-190-152-230zM948 353.733c-40 42-94 64-152 64-2 0-4 0-6 0s-2 0-2 0 0 0 0 0c-56-2-106-24-146-64-62-62-78-154-48-230 0 0 0-2 0-2s0 0 0 0c10-26 26-52 48-74 12-10 24-20 36-28-34 12-64 30-90 56-28 28-48 64-60 102-2 6-8 12-16 12s-14-6-16-12c-12-38-32-74-60-102-26-26-56-44-90-56 12 8 24 18 36 28 22 24 38 50 48 76 0 0 2 2 2 2s0 0 0 0c28 78 12 168-50 228-38 38-84 60-136 64 0 0 0 0 0 0s-2 0-2 0c-4 0-10 0-16 0-56 0-112-22-152-64-12-10-20-22-28-34 10 32 30 64 56 88 44 46 102 70 166 70 18 0 38-2 58-8 6-2 14 2 18 8 4 8 2 16-2 20-42 44-64 102-64 162 0 36 8 72 24 104-4-16-6-30-6-46 0-46 16-90 40-124 0 0 0-2 0-2s0 0 2 0c38-54 102-90 174-90 74 0 138 36 178 92 0 0 0 0 0 0 0 2 0 2 0 2 24 34 38 76 38 122 0 16 0 30-4 46 16-32 24-68 24-104 0-60-22-116-64-160-4-6-6-14-2-20s10-8 16-8c0 0 0 0 0 0s0 0 2 0c0 0 0 0 2 0 16 4 34 6 50 6 64 0 122-24 168-70 24-24 44-56 54-88-8 12-16 24-28 34zM508 497.733c-62 0-110-50-110-110 0-62 48-112 110-112s110 50 110 112c0 60-48 110-110 110zM508 309.733c-42 0-76 36-76 78s34 76 76 76c42 0 76-34 76-76s-34-78-76-78z" />
<glyph unicode="&#xe61a;" d="M788 513.733l-414 414c-18 18-42 28-68 28-48 0-98-36-98-96v-820c0-6 0-12 0-18 2-38 24-68 58-80 14-6 28-10 42-10 22 0 42 8 58 22 6 4 12 10 14 14l408 408c38 36 38 100 0 138zM764 399.733l-408-410c-4-2-6-6-10-10-20-16-40-20-66-6-14 4-36 18-38 52 0 4 0 6 0 12v822c0 38 34 62 64 62 12 0 28-4 44-18l414-414c24-26 24-66 0-90z" />
<glyph unicode="&#xe61b;" d="M902 955.733h-780c-68 0-122-54-122-122v-780c0-68 54-122 122-122h780c68 0 122 54 122 122v780c0 68-54 122-122 122zM990 53.733c0-48-40-88-88-88h-780c-48 0-88 40-88 88v780c0 48 40 88 88 88h780c48 0 88-40 88-88zM874 795.733c-2 6-4 8-8 10s-6 2-8 2h-212c-10 0-18-8-18-18 0-8 8-16 18-16h172l-252-252c-6-6-6-16 0-24 4-2 8-4 12-4 6 0 10 2 12 4l252 252v-172c0-10 8-18 16-18 10 0 18 8 18 18v212c0 2 0 4-2 6zM434 389.733l-252-252v172c0 10-8 18-16 18-10 0-18-8-18-18v-212c0-2 0-4 2-6 2-6 4-8 8-10s6-2 8-2h212c10 0 18 8 18 18 0 8-8 16-18 16h-172l252 252c6 6 6 16 0 24-8 6-18 6-24 0z" />
<glyph unicode="&#xe61c;" d="M146 405.733c4 0 8 2 12 4l128 128c6 8 6 18 0 26-6 6-18 6-24 0l-98-98v120c0 68 56 122 122 122h452c68 0 124-54 124-122 0-10 6-18 16-18s18 8 18 18c0 86-72 156-158 156h-452c-86 0-156-70-156-156v-124l-100 100c-8 8-18 8-24 0-8-6-8-16 0-24l128-128c2-2 8-4 12-4zM1020 349.733l-130 128c-6 6-16 6-24 0l-128-128c-6-8-6-18 0-26 4-2 8-4 12-4s8 2 12 4l98 98v-120c0-68-56-122-122-122h-452c-68 0-124 54-124 122 0 10-6 18-16 18s-18-8-18-18c0-86 72-156 158-156h452c86 0 156 70 156 156v124l100-100c8-8 18-8 26 0 6 6 6 16 0 24z" />
<glyph unicode="&#xe61d;" d="M534 467.733c4 0 8 2 12 6l124 124h296l-102-102c-6-6-6-16 0-24 4-2 8-4 12-4s10 2 12 4l130 132c2 0 4 2 4 4 2 4 2 10 0 14 0 2-2 4-4 6l-130 130c-6 6-16 6-24 0-6-6-6-18 0-24l102-102h-302c-6 0-10-2-12-4l-130-130c-8-8-8-18 0-24 2-4 8-6 12-6zM438 413.733l-124-124h-296c-8 0-16-8-16-18 0-8 8-16 16-16h302c6 0 10 2 12 4l130 130c8 8 8 18 0 24-6 8-16 8-24 0zM1022 279.733c0 2-2 4-4 4l-130 132c-6 6-18 6-24 0-6-8-6-18 0-24l102-102h-296l-332 334c-4 2-8 4-12 4h-308c-10 0-18-8-18-16 0-10 8-18 18-18h300l334-334c2-2 6-4 12-4h302l-102-102c-6-6-6-18 0-24 4-4 8-4 12-4s10 0 12 4l130 130c2 2 4 4 4 6 2 4 2 10 0 14z" />
<glyph unicode="&#xe61e;" d="M260 223.733h-156c-32 0-58-24-58-56v-180c0-30 26-56 58-56h156c30 0 56 26 56 56v180c0 32-26 56-56 56zM282-12.267c0-12-10-22-22-22h-156c-12 0-22 10-22 22v180c0 12 10 22 22 22h156c12 0 22-10 22-22v-180zM586 417.733h-156c-32 0-56-24-56-56v-374c0-30 24-56 56-56h156c30 0 56 26 56 56v374c0 32-26 56-56 56zM608-12.267c0-12-10-22-22-22h-156c-12 0-22 10-22 22v374c0 12 10 22 22 22h156c12 0 22-10 22-22zM920 661.733h-156c-30 0-56-26-56-58v-616c0-30 26-56 56-56h156c32 0 58 26 58 56v616c0 32-26 58-58 58zM942-12.267c0-12-10-22-22-22h-156c-12 0-22 10-22 22v616c0 14 10 24 22 24h156c12 0 22-10 22-24zM184 379.733c4 0 10 0 12 4l514 514v-150c0-10 8-16 16-16 10 0 18 6 18 16v190c0 0 0 0 0 0 0 2 0 2 0 2 0 2 0 4-2 6-2 6-8 10-16 10h-190c-8 0-16-8-16-18 0-8 8-16 16-16h150l-514-514c-6-6-6-18 0-24 4-4 8-4 12-4z" />
<glyph unicode="&#xe61f;" d="M966 361.733c-2 2-4 4-6 4 22 20 38 56 38 72-2 80-66 114-100 122 0 0-2 0-4 0h-238c0 10 4 32 12 44 44 80 72 152 72 194-12 134-82 154-112 158-26 2-58-6-64-26 0-2 0-4 0-6-4-170-40-208-84-238-40-26-52-58-82-128-8-20-18-42-30-70-40-94-104-82-124-76-6 10-16 16-28 16h-156c-18 0-34-14-34-32v-410c0-18 16-34 34-34h156c16 0 28 10 32 24 160-30 302-44 422-44 44 0 84 2 122 6 88 8 120 70 120 106 0 24 6 40 16 46 0 0 0 0 2 0 56 48 50 72 32 106-2 4-4 8-4 10-12 26-10 28 10 48 36 30 24 76 6 98-4 4-6 6-8 10zM214-14.267h-154v408h154v-408zM946 279.733c-30-28-40-46-20-88 2-4 4-8 6-10 12-24 16-32-24-64-14-8-30-28-30-74 0-16-16-66-90-72-142-14-324-2-538 38v366c36-6 106-2 150 98 12 28 22 52 30 72 28 68 38 90 70 112 50 32 94 78 98 260 6 2 24 8 44 0 26-10 56-40 64-122 0-34-28-102-68-176-8-14-24-56-12-80 4-8 10-12 20-14 0 0 0 0 2 0h246c10-4 68-22 70-88-2-10-18-44-32-50-8-4-12-12-10-18 4-14 10-24 18-32 2-2 4-4 6-8 2 0 24-30 0-50z" />
<glyph unicode="&#xe620;" d="M742 895.733c-92 0-178-44-232-118-52 74-136 118-228 118-164 0-282-118-282-282 0-232 400-560 446-596 16-16 40-26 64-26s46 10 62 24c46 38 452 372 452 598 0 164-118 282-282 282zM550 41.733c-22-20-58-22-82 2-18 14-434 350-434 570 0 144 104 248 248 248 84 0 162-42 208-114l8-8c2-4 8-8 12-8 0 0 0 0 0 0 6 0 10 4 14 8l10 14c48 68 124 108 208 108 144 0 248-104 248-248 0-214-422-556-440-572z" />
<glyph unicode="&#xe621;" d="M648 447.733c6 4 8 10 6 16l-22 132 96 92c4 6 6 12 4 18s-8 10-14 12l-132 18-58 120c-6 12-26 12-32 0l-58-120-132-18c-6-2-12-6-14-12s0-12 4-18l96-92-22-132c-2-6 0-12 6-16 4-2 6-4 10-4s6 2 8 2l118 62 118-62c6-2 12-2 18 2zM520 541.733c-2 2-6 2-8 2s-6 0-8-2l-96-50 20 106c0 6-2 12-6 16l-76 74 106 16c6 2 10 4 12 10l48 96 48-96c2-6 6-8 12-10l106-16-76-74c-4-4-6-10-6-16l20-106zM1024 283.733c-2 6-8 10-14 12l-132 18-60 120c-2 6-8 10-14 10-8 0-12-4-16-10l-58-120-132-18c-6-2-12-6-14-12s0-14 4-18l96-92-24-132c0-6 2-12 8-16 4-4 12-4 18-2l118 62 118-62c2 0 4-2 8-2 2 0 6 2 10 4 4 4 8 10 6 16l-22 132 94 92c6 4 8 12 6 18zM894 191.733c-4-4-6-10-6-16l18-106-94 50c-6 4-12 4-16 0l-96-50 18 106c2 6 0 12-4 16l-78 74 108 16c4 0 10 4 12 10l48 96 48-96c2-6 6-10 12-10l106-16zM426 295.733l-132 18-58 120c-6 12-26 12-30 0l-60-120-132-18c-6-2-12-6-14-12s0-14 6-18l94-92-22-132c-2-6 2-12 6-16 4-2 8-4 10-4 4 0 6 2 8 2l118 62 118-62c6-2 12-2 18 2s8 10 8 16l-24 132 96 92c4 4 6 12 4 18s-8 10-14 12zM310 191.733c-4-4-6-10-4-16l18-106-96 50c-2 2-4 2-8 2-2 0-4 0-8-2l-94-50 18 106c0 6-2 12-6 16l-76 74 106 16c6 0 10 4 12 10l48 96 48-96c2-6 8-10 12-10l108-16z" />
<glyph unicode="&#xe622;" d="M904 863.733h-784c-66 0-120-52-120-120v-456c0-66 54-120 120-120h512l92-132c2 0 2-2 2-2 8-8 18-10 28-10s18 2 26 10c0 0 2 2 2 2l94 132h28c66 0 120 54 120 120v456c0 68-54 120-120 120zM990 287.733c0-48-38-86-86-86h-38c-6 0-10-2-14-6l-96-138c-2-2-4-2-4 0l-98 138c-4 4-8 6-14 6h-520c-48 0-86 38-86 86v456c0 48 38 86 86 86h784c48 0 86-38 86-86zM634 691.733c-30 0-56-10-76-30s-32-44-32-74c0-28 12-52 32-72 18-18 38-28 58-30-2-12-6-22-12-28-8-12-24-24-42-36-22-10-34-28-34-52 0-16 6-28 16-40 12-10 26-16 42-16 24 0 48 12 74 34 24 20 46 48 62 84 18 34 26 72 26 112 0 46-10 82-30 108-22 26-50 40-84 40zM692 445.733c-14-30-32-54-54-72-20-16-38-24-52-24-8 0-14 0-18 4s-4 10-4 16c0 10 4 18 14 24 24 12 42 28 54 42 12 16 20 38 22 64 0 6-2 10-6 14-2 2-8 4-12 4h-6c-18 0-34 8-48 22s-22 30-22 48c0 20 8 36 22 50 14 12 32 20 52 20 24 0 42-10 56-28 16-18 24-48 24-86 0-34-8-68-22-98zM382 691.733c-30 0-54-10-76-30-20-20-30-44-30-74 0-28 10-52 30-72 18-18 38-28 60-30-4-12-8-20-14-28-10-12-24-24-42-34-20-12-32-30-32-54 0-14 6-28 16-38 10-12 24-18 40-18 24 0 48 12 74 34 26 20 46 50 62 84 18 36 26 74 26 112 0 46-10 82-30 106-22 28-50 42-84 42zM440 445.733c-14-30-32-54-54-72-20-16-36-24-52-24-8 0-14 2-16 6-4 4-6 8-6 14 0 10 4 18 14 24 22 12 40 26 52 42 14 16 22 38 24 64 0 6-2 10-4 14-4 2-8 4-12 4h-10c-16 0-32 8-46 22s-20 30-20 48c0 20 6 36 20 50 14 12 32 20 52 20 24 0 42-10 56-28 16-20 24-48 24-86 0-34-8-66-22-98z" />
<glyph unicode="&#xe623;" d="M586 149.733c-2 20-2 32-4 40 12 18 46 78 50 158v2c2 82-46 132-132 136v0c0 0-2 0-2 0v0c-84-4-132-54-132-136v-2c4-80 38-140 50-158 0-8-2-20-2-40-186-46-216-110-220-118 0-2 0-4 0-6v-76c0-10 6-18 16-18h578c10 0 18 8 18 18v76c0 2-2 4-2 6-2 8-34 72-218 118zM500 451.733c2 0 4 0 6 0-2 0-4 0-6 0zM514 461.733c0-2-2-2-2-4 0 2 2 2 2 4zM510 455.733c0-2-2-2-4-2 2 0 4 2 4 2zM772-34.267h-544v56c8 12 48 60 206 98 8 2 14 10 14 18 0 32 2 54 2 54 2 4 0 8-2 12 0 2-44 62-48 144v2c0 64 32 98 100 100 0 0 0 0 0 0 66-2 98-36 98-100v0c-4-84-46-146-48-146-2-4-4-8-2-12 0 0 4-22 4-54 0-8 4-16 12-18 158-38 200-88 208-98v-56zM754 955.733h-460c-42 0-78-34-78-78v-266c0-44 36-78 78-78h296l52-74c2-2 2-2 2-2 6-6 14-10 22-10 6 0 14 4 20 10 0 0 2 0 2 2l52 74h14c42 0 76 34 76 78v266c0 44-34 78-76 78zM796 611.733c0-24-18-44-42-44h-22c-6 0-12-4-14-8l-52-74-54 74c-2 4-8 8-14 8h-304c-24 0-44 20-44 44v266c0 24 20 44 44 44h460c24 0 42-20 42-44zM748 849.733h-444c-10 0-16-8-16-18s6-16 16-16h444c10 0 18 6 18 16s-8 18-18 18zM748 667.733h-444c-10 0-16-6-16-16s6-18 16-18h444c10 0 18 8 18 18s-8 16-18 16zM748 759.733h-444c-10 0-16-8-16-18 0-8 6-16 16-16h444c10 0 18 8 18 16 0 10-8 18-18 18z" />
<glyph unicode="&#xe624;" d="M920 755.733h-50c-6 52-50 92-104 92h-662c-58 0-104-46-104-104v-386c0-48 34-90 82-102v-102c0-4 2-8 6-12 6-6 14-10 24-10 8 0 16 2 22 8l62 44c16-14 38-22 62-22h472l160-114c6-6 14-8 22-8 10 0 18 4 24 10 4 2 6 8 6 12v102c48 12 82 54 82 102v386c0 58-46 104-104 104zM116 169.733v102c0 8-8 16-16 16-38 4-66 34-66 70v386c0 38 32 70 70 70h662c34 0 64-24 68-58h-576c-58 0-104-46-104-104v-386c0-20 6-40 18-58zM990 265.733c0-36-28-66-66-70-8 0-16-8-16-16v-102l-164 116c-2 2-6 2-10 2h-476c-38 0-70 32-70 70v386c0 38 32 70 70 70h662c38 0 70-32 70-70v-386zM768 525.733c-42 0-74-34-74-74s32-74 74-74c40 0 74 34 74 74s-34 74-74 74zM768 411.733c-22 0-40 18-40 40s18 40 40 40c22 0 40-18 40-40s-18-40-40-40zM590 525.733c-40 0-74-34-74-74s34-74 74-74c40 0 74 34 74 74s-34 74-74 74zM590 411.733c-22 0-40 18-40 40s18 40 40 40c22 0 40-18 40-40s-18-40-40-40zM416 525.733c-40 0-74-34-74-74s34-74 74-74c40 0 74 34 74 74s-34 74-74 74zM416 411.733c-22 0-40 18-40 40s18 40 40 40c22 0 40-18 40-40s-18-40-40-40z" />
<glyph unicode="&#xe625;" d="M962 751.733h-900c-34 0-62-28-62-60 0-2 0-2 0-2v-494c0-32 28-60 62-60h900c34 0 62 28 62 60v496c0 32-28 60-62 60zM62 717.733h900c12 0 22-8 26-18l-472-256-480 256c4 10 14 18 26 18zM34 195.733v466l446-238-422-254c-14 2-24 14-24 26zM516 403.733l386-234h-778zM966 169.733l-416 254 440 238v-466c0-12-10-24-24-26z" />
<glyph unicode="&#xe626;" d="M1014 617.733l-224 114v22c0 4-2 10-6 12l-126 124c-2 4-8 6-12 6h-390c-28 0-50-24-50-50v-128l-196-100c-6-2-10-8-10-16v-78c0 0 0 0 0 0v-470c0-34 28-62 62-62h900c34 0 62 28 62 62v548c0 8-4 14-10 16zM990 591.733v-56l-200-110v268zM256 859.733h384l116-114v-338l-240-132-276 148v284c0 0 0 0 0 0v138c0 8 8 14 16 14zM206 679.733v-238l-172 92v58zM990 53.733c0-14-12-26-28-26h-900c-16 0-28 12-28 26v442l474-256c4-2 10-2 16 0l254 140c2 0 6 2 8 4l204 112z" />
<glyph unicode="&#xe627;" d="M776 751.733v-102c0-8 8-16 18-16s16 8 16 16v156c0 98-50 150-148 150h-452c-98 0-150-52-150-150v-856c0-10 8-18 18-18s16 8 16 18v802zM210 921.733h452c78 0 114-36 114-116v-20h-682v20c0 80 38 116 116 116zM794 263.733c-10 0-18-8-18-18v-294c0-10 8-18 18-18s16 8 16 18v294c0 10-6 18-16 18zM352 821.733h168c10 0 16 8 16 18 0 18-14 32-32 32h-136c-18 0-34-14-34-32 0-10 8-18 18-18zM924 621.733h-468c-22 0-40-18-40-40v-20c0 0 0 0 0 0v-236c0-22 18-40 40-40h468c22 0 40 18 40 40v256c0 22-18 40-40 40zM456 587.733h468c2 0 6-4 6-6v-8l-238-124-242 124v8c0 2 4 6 6 6zM930 325.733c0-4-4-6-6-6h-468c-2 0-6 2-6 6v208l234-120c4-2 10-2 16 0l230 122z" />
<glyph unicode="&#xe628;" d="M776 751.733v-102c0-8 6-16 16-16s18 8 18 16v156c0 98-52 150-150 150h-452c-98 0-148-52-148-150v-856c0-10 6-18 16-18s18 8 18 18v802zM208 921.733h452c78 0 116-36 116-116v-20h-682v20c0 80 36 116 114 116zM792 263.733c-10 0-16-8-16-18v-294c0-10 6-18 16-18s18 8 18 18v294c0 10-8 18-18 18zM350 821.733h168c10 0 18 8 18 18 0 18-16 32-34 32h-136c-18 0-32-14-32-32 0-10 6-18 16-18zM900 625.733h-400c-36 0-66-30-66-66v-214c0-36 30-66 66-66h8l40-58c2 0 2-2 2-2 6-4 12-8 20-8 6 0 14 4 18 8 2 0 2 2 2 2l42 58h268c36 0 66 30 66 66v214c0 36-30 66-66 66zM930 345.733c0-18-14-32-30-32h-278c-4 0-10-2-14-6l-38-56-40 56c-2 4-8 6-14 6h-16c-18 0-32 14-32 32v214c0 16 14 30 32 30h400c16 0 30-14 30-30v-214zM892 539.733h-388c-10 0-18-8-18-18 0-8 8-16 18-16h388c8 0 16 8 16 16 0 10-6 18-16 18zM892 395.733h-388c-10 0-18-8-18-18s8-16 18-16h388c8 0 16 6 16 16s-6 18-16 18zM892 467.733h-388c-10 0-18-8-18-16 0-10 8-18 18-18h388c8 0 16 8 16 18 0 8-6 16-16 16z" />
<glyph unicode="&#xe629;" d="M900 683.733c0 2 0 4-2 6 0 2 0 2 0 2 0 2-2 2-2 4 0 0 0 0 0 0l-266 256c0 0-2 0-2 2-2 0-2 0-4 0-2 2-4 2-6 2h-422c-40 0-72-32-72-72v-880c0-40 32-72 72-72h632c40 0 72 32 72 72zM636 897.733l204-196h-166c-22 0-38 16-38 38zM828-34.267h-632c-22 0-38 18-38 38v880c0 20 16 38 38 38h406v-182c0-40 32-72 72-72h192v-664c0-20-18-38-38-38zM792 547.733h-560c-8 0-16-8-16-16 0-10 8-18 16-18h560c10 0 18 8 18 18 0 8-8 16-18 16zM792 439.733h-560c-8 0-16-8-16-16 0-10 8-18 16-18h560c10 0 18 8 18 18 0 8-8 16-18 16zM536 331.733h-304c-8 0-16-8-16-18 0-8 8-16 16-16h304c8 0 16 8 16 16 0 10-8 18-16 18z" />
<glyph unicode="&#xe62a;" d="M798 305.733v404c0 4 0 6-2 8 0 0 0 0 0 0 0 2-2 4-2 6 0 0 0 0-2 0l-236 228c-2 0-2 0-4 2 0 0 0 0-2 0-2 2-4 2-6 2h-378c-38 0-66-30-66-66v-788c0-36 28-66 66-66h396c32-62 96-104 170-104 106 0 192 86 192 192 0 84-52 154-126 182zM560 897.733l178-170h-144c-18 0-34 14-34 32zM166 69.733c-18 0-32 14-32 32v788c0 18 14 32 32 32h360v-162c0-36 30-66 68-66h170v-380c-10 2-22 4-32 4-106 0-192-86-192-194 0-18 2-36 8-54zM732-34.267c-64 0-118 38-144 92 0 2 0 2 0 2-10 20-14 42-14 64 0 88 70 160 158 160s158-72 158-160c0-86-70-158-158-158zM198 555.733h482c8 0 16 8 16 18s-8 18-16 18h-482c-8 0-16-8-16-18s8-18 16-18zM198 459.733h482c8 0 16 8 16 16 0 10-8 18-16 18h-482c-8 0-16-8-16-18 0-8 8-16 16-16zM448 397.733h-250c-8 0-16-8-16-18s8-18 16-18h250c10 0 18 8 18 18s-8 18-18 18zM846 141.733h-98v98c0 8-6 16-16 16s-18-8-18-16v-98h-96c-10 0-18-8-18-18 0-8 8-16 18-16h96v-98c0-8 8-16 18-16s16 8 16 16v98h98c10 0 18 8 18 16 0 10-8 18-18 18z" />
<glyph unicode="&#xe62b;" d="M798 305.733v404c0 4 0 6-2 8 0 0 0 0 0 0 0 2-2 4-2 6 0 0 0 0-2 0l-236 228c-2 0-2 0-4 2 0 0 0 0-2 0-2 2-4 2-6 2h-378c-38 0-66-30-66-66v-788c0-36 28-66 66-66h396c32-62 96-104 170-104 106 0 192 86 192 192 0 84-52 154-126 182zM560 897.733l178-170h-144c-18 0-34 14-34 32zM166 69.733c-18 0-32 14-32 32v788c0 18 14 32 32 32h360v-162c0-36 30-66 68-66h170v-380c-10 2-22 4-32 4-106 0-192-86-192-194 0-18 2-36 8-54zM732-34.267c-64 0-118 38-144 92 0 2 0 2 0 2-10 20-14 42-14 64 0 88 70 160 158 160s158-72 158-160c0-86-70-158-158-158zM198 555.733h482c8 0 16 8 16 18s-8 18-16 18h-482c-8 0-16-8-16-18s8-18 16-18zM198 459.733h482c8 0 16 8 16 16 0 10-8 18-16 18h-482c-8 0-16-8-16-18 0-8 8-16 16-16zM448 397.733h-250c-8 0-16-8-16-18s8-18 16-18h250c10 0 18 8 18 18s-8 18-18 18zM756 123.733l68 70c8 6 8 18 0 24-6 6-16 6-24 0l-68-68-68 68c-8 6-18 6-24 0-8-6-8-18 0-24l68-70-70-68c-6-6-6-18 0-24 4-4 8-6 14-6 4 0 8 2 12 6l68 68 68-68c4-4 8-6 12-6 6 0 10 2 12 6 8 6 8 18 0 24z" />
<glyph unicode="&#xe62c;" d="M798 305.733v404c0 4 0 6-2 8 0 0 0 0 0 0 0 2-2 4-2 6 0 0 0 0-2 0l-236 228c-2 0-2 0-4 2 0 0 0 0-2 0-2 2-4 2-6 2h-378c-38 0-66-30-66-66v-788c0-36 28-66 66-66h396c32-62 96-104 170-104 106 0 192 86 192 192 0 84-52 154-126 182zM560 897.733l178-170h-144c-18 0-34 14-34 32zM166 69.733c-18 0-32 14-32 32v788c0 18 14 32 32 32h360v-162c0-36 30-66 68-66h170v-380c-10 2-22 4-32 4-106 0-192-86-192-194 0-18 2-36 8-54zM732-34.267c-64 0-118 38-144 92 0 2 0 2 0 2-10 20-14 42-14 64 0 88 70 160 158 160s158-72 158-160c0-86-70-158-158-158zM198 555.733h482c8 0 16 8 16 18s-8 18-16 18h-482c-8 0-16-8-16-18s8-18 16-18zM198 459.733h482c8 0 16 8 16 16 0 10-8 18-16 18h-482c-8 0-16-8-16-18 0-8 8-16 16-16zM448 397.733h-250c-8 0-16-8-16-18s8-18 16-18h250c10 0 18 8 18 18s-8 18-18 18zM800 117.733l-50-52v172c0 10-8 18-18 18s-18-8-18-18v-172l-50 52c-6 6-18 6-24 0-6-8-6-18 0-24l80-80c4-4 8-6 12-6 0 0 0 0 0 0s0 0 0 0c4 0 10 2 12 6l80 80c6 6 6 16 0 24-8 6-18 6-24 0z" />
<glyph unicode="&#xe62d;" d="M798 305.733v404c0 4 0 6-2 8 0 0 0 0 0 0 0 2-2 4-2 6 0 0 0 0-2 0l-236 228c-2 0-2 0-4 2 0 0 0 0-2 0-2 2-4 2-6 2h-378c-38 0-66-30-66-66v-788c0-36 28-66 66-66h396c32-62 96-104 170-104 106 0 192 86 192 192 0 84-52 154-126 182zM560 897.733l178-170h-144c-18 0-34 14-34 32zM166 69.733c-18 0-32 14-32 32v788c0 18 14 32 32 32h360v-162c0-36 30-66 68-66h170v-380c-10 2-22 4-32 4-106 0-192-86-192-194 0-18 2-36 8-54zM732-34.267c-64 0-118 38-144 92 0 2 0 2 0 2-10 20-14 42-14 64 0 88 70 160 158 160s158-72 158-160c0-86-70-158-158-158zM198 555.733h482c8 0 16 8 16 18s-8 18-16 18h-482c-8 0-16-8-16-18s8-18 16-18zM198 459.733h482c8 0 16 8 16 16 0 10-8 18-16 18h-482c-8 0-16-8-16-18 0-8 8-16 16-16zM448 397.733h-250c-8 0-16-8-16-18s8-18 16-18h250c10 0 18 8 18 18s-8 18-18 18zM744 235.733c-4 2-8 4-12 4 0 0 0 0 0 0s0 0 0 0c-4 0-10-2-12-6l-80-78c-6-6-6-18 0-24 6-8 18-8 24 0l50 50v-172c0-8 8-16 18-16s16 8 16 16v172l52-50c2-4 8-6 12-6s8 2 12 6c6 6 6 16 0 24z" />
<glyph unicode="&#xe62e;" d="M894 901.733h-102l-38 42c0 2-2 2-2 2s-2 0-2 2c-2 0-2 0-2 2-2 0-2 0-4 0 0 0-2 0-4 0 0 0 0 0 0 0h-466c0 0 0 0 0 0s-2 0-2 0c-4 0-8-2-10-6l-38-42h-94c-72 0-130-58-130-128v-814c0-10 8-16 18-16 8 0 16 6 16 16v814c0 52 42 94 96 94h102c0 0 0 0 0 0s0 0 0 0h26v-556c0-6 4-12 8-14 6-4 14-4 18 0l224 160 222-160c4-2 6-2 10-2s6 0 8 2c6 2 10 8 10 14v298c0 0 0 0 0 2v256h26c0 0 0 0 0 0s0 0 0 0h110c54 0 96-42 96-94v-820c0-10 8-16 16-16 10 0 18 6 18 16v820c0 70-58 128-130 128zM724 609.733v-264l-206 146c-4 2-6 4-10 4s-8-2-10-4l-206-146v538c0 0 0 0 0 2 0 0 0 0 0 2v28h432v-30c0 0 0 0 0 0s0 0 0-2v-272c0 0 0 0 0-2zM654 775.733l-84 12-38 76c-4 10-14 14-24 14-12 0-20-4-26-14l-36-76-86-12c-10-2-18-10-22-20-2-10 0-20 8-28l60-60-14-84c-2-10 2-20 12-26 4-4 10-6 16-6 4 0 8 2 12 4l76 40 76-40c8-4 20-4 28 2s12 16 10 26l-14 84 62 60c8 8 10 18 6 28-2 10-12 18-22 20zM578 687.733c-4-4-6-10-4-16l12-80-70 38c-6 2-12 2-16 0l-72-38 14 80c0 6-2 12-6 16l-56 56 78 12c6 0 12 4 14 8l36 72 36-72c2-4 6-8 12-8l80-12z" />
<glyph unicode="&#xe62f;" d="M744 567.733c8 6 14 14 14 24l40 200c2 16-4 30-16 38-14 10-30 10-42 0l-46-30-74 108c-12 16-38 30-60 28l-148-12c-6 0-10-2-12-6l-164-234c-26-44-12-104 30-132 16-10 34-14 50-14 32 0 64 16 84 38 16 20 86 122 114 166l30-44-42-28c-2 0-2-2-2-2-14-8-18-24-14-38 2-14 14-26 28-28l202-40c8-2 18 0 28 6zM374 597.733c-20-24-60-36-88-18-28 20-36 58-20 86l150 216 78-110c-38-58-104-156-120-174zM520 635.733c0 2-2 2-2 2 0 2 0 2 2 2 0 0 0 0 0 2l58 38c4 2 6 6 8 12 0 4 0 8-4 12l-132 188 114 10c8 0 22-6 26-14l86-122c4-8 14-10 22-4l62 40c0 2 2 0 2 0 2 0 2-2 2-2l-38-202c0 0-2 0-2-2 0 0-2 0-2 0l-200 40c-2 0-2 0-2 0zM1022 241.733l-118 258c-26 46-84 64-130 42-48-24-60-84-46-126 8-26 62-136 84-184l-52-4-2 52c0 0-2 2-2 2 0 16-10 28-26 32-14 4-28 0-38-12l-136-154c-12-14-12-38 4-52l154-134c6-6 16-10 24-10 6 0 12 2 16 4 14 6 22 22 22 36l-4 56 132 10c20 2 44 18 52 36l66 134c2 4 2 10 0 14zM926 107.733c-4-6-16-16-26-16l-148-12c-8 0-16-8-16-18l6-72c0-2-2-2-2-4-2 0-4 0-4 2l-154 134c0 2 0 4 0 4l136 154c0 0 0 0 0 0 2 0 2 0 2 0s2 0 2 0c0 0 0 0 0-2 0 0 0 0 2 0l4-70c0-4 2-10 6-12 2-4 8-4 12-4l230 20zM848 233.733c-30 62-80 170-88 192-10 30 0 70 30 84 8 4 18 6 28 6 22 0 44-10 56-32l110-238zM416 215.733c-26 6-148 12-202 14l22 48 48-24c0 0 2 0 2 0 14-6 28-2 40 10 10 10 14 24 8 38l-70 192c-8 20-28 30-48 22l-192-70c-14-6-24-18-24-34 0-14 8-28 22-36l50-22-54-120c-8-20-6-48 6-66l86-120c4-4 8-8 14-8l282-18c52 0 96 42 98 94s-44 94-88 100zM118 95.733l-66 92c-4 8-6 24-2 32l60 134c4 10 0 20-8 24l-66 30c-2 0-2 2-2 2 0 4 2 4 2 4l192 70c0 0 0 0 0 0 2 0 4 0 4-2l70-192c0-2 0-2 0-2s-2 0-2-2c0 0 0 0 0 0-2 0-2 0-2 0s0 0 0 0l-64 30c-4 2-8 2-14 0-4-2-8-4-8-8zM408 55.733l-262 18 54 122c68-2 186-8 210-12 30-6 62-34 60-68-2-32-30-60-62-60z" />
<glyph unicode="&#xe630;" d="M512 955.733c-202 0-368-164-368-368 0-138 72-212 136-274 48-50 90-90 90-154 0-4 2-8 4-12 4-2 8-4 12-4h2c0-6 0-10 0-10v-14c0-6 0-12 2-16v-4c-2-2-2-4-2-6 0-6 0-10 2-14l-2-10c0-2 0-2 0-4 0-8 2-14 4-20v-4c0-2 0-2 0-4 0-10 4-20 10-28 0 0 0 0 0 0 0-20 10-32 30-38 6-40 62-40 86-40 22 0 84 0 88 40 20 6 30 18 30 38 0 0 0 0 0 0 8 8 12 18 12 28 0 2 0 2 0 4l-2 4c4 6 6 12 6 20 0 2 0 2 0 4l-2 10c0 4 2 8 2 14 0 2 0 4-2 8l-2 2c2 4 4 10 4 16v14c0 4 0 8-2 12 6 4 10 8 10 14 0 60 38 100 84 148 60 60 136 136 136 280 0 204-166 368-368 368zM618 119.733c0-2-2-4-2-4-4-6-6-12-2-20l4-6c-2 0-2 0-2 0 0-4-2-8 0-12l2-12c0-4-2-4-2-4-4-4-4-10-4-16l2-8c0-2-2-4-4-4-6-4-10-12-8-18v-8c0 0 0 0 0 0s-2-4-16-4c-8-2-16-10-14-20v-6c0-4-12-12-54-12-32 0-50 4-52 12l2 6c0 4-2 8-4 12-4 4-8 6-12 6-12 2-16 4-16 4s0 2 0 2l2 6c0 8-2 16-10 18-2 2-2 2-2 6l2 10c0 4-2 10-4 14-2 0-2 2-2 4l2 12c0 4 0 8-2 10 0 2 0 2 0 2l4 6c2 8 2 14-4 20 0 0 0 2 0 4v14c0 2 0 6 0 10h194c2-4 2-8 2-10zM720 331.733c-44-46-88-90-94-154h-224c-6 66-50 112-98 160-62 62-124 126-124 250 0 184 148 334 332 334s332-150 332-334c0-130-62-194-124-256z" />
<glyph unicode="&#xe631;" d="M686 371.733c2 2 2 4 2 8 0 0 0 0 0 2 0 0 0 2 0 4 0 18-12 36-28 44 0 0-2 0-2 0 6 4 10 10 16 14 0 0 0 0 0 0 2 2 4 4 6 8 0 0 2 2 2 2 0 2 0 2 0 4 0 0 2 0 2 0 0 2 0 4 2 6 0 2 0 4 0 4 2 2 2 4 2 6s0 4 0 4 0 4 0 6c0 2 0 2 0 4s-2 4-2 6c0 2 0 2 0 4-2 2-2 4-4 4 0 2 0 4-2 4 0 2-2 4-2 4-2 2-2 4-2 4-2 0-2 2-4 2 0 2 0 2-2 2 0 2-2 2-4 4 0 0-2 2-4 2 0 0-2 2-2 2s0 0-2 0c6 6 10 10 16 14 2 4 6 8 8 12 0 0 0 2 2 2 0 2 2 6 2 8 0 0 0 2 0 2 2 2 2 4 2 8 0 0 0 2 0 2 0 2 0 4 0 6s0 4 0 4 0 4-2 6c0 2 0 2-2 4 0 2 0 2 0 4-2 2-2 4-4 6 0 0 0 2-2 2 0 2-2 4-4 6 0 0-2 2-2 2-2 2-4 4-6 6h-2c-2 2-4 2-4 2s0 0-2 2c4 2 8 6 12 10s10 10 14 16c0 2 0 2 0 2 0 2 0 4 2 4 0 2 0 4 0 6 2 2 2 4 2 6 0 0 0 2 0 4s0 4 0 4 0 4 0 6c0 2-2 4-2 6 0 0 0 2 0 2-2 2-2 4-4 8 0 0 0 0 0 2-2 2-4 4-6 6s-2 4-4 4c0 2-2 2-2 2 0 2-2 2-2 2-4 2-6 4-10 6 6 4 10 10 16 14 2 2 4 4 6 8 0 0 0 0 2 2 0 2 0 2 0 4 2 0 2 0 2 0 0 2 0 4 2 6 0 2 0 4 0 4 2 2 2 4 2 6s0 4 0 4 0 4 0 6c0 2 0 2 0 4s-2 4-2 6c0 2 0 2 0 4-2 2-2 4-4 4 0 2 0 4-2 4 0 2-2 4-2 4-2 2-2 4-2 4-2 2-2 2-4 2 0 2 0 2-2 2 0 2-2 2-4 4 0 2-2 2-4 2 0 2-2 2-2 2s-2 0-2 2c6 4 10 8 16 12 10 10 14 24 14 38 0 2 0 2 0 4s0 4-2 6c0 2 0 6-2 8 0 0 0 0 0 0 0 2 0 4-2 6-6 12-68 66-214 64-38-2-72-8-104-20-2-2-2-2-6-4 0 0-2 0-2-2-2 0-2 0-2-2-6-2-10-6-12-12-4-4-6-10-8-14 0-2 0-2 0-4 0 0 0-2 0-4-2-2-2-4-2-4 0-2 0-2 0-2 0-2 0-4 2-6 0 0 0-2 0-4s0-4 2-6c0 0 0-2 0-2s0-2 0-2c2-2 2-4 4-6 0 0 0-2 2-2 0-2 2-4 2-6 4-4 8-6 12-8 4-4 8-6 12-8 0 0-2 0-4 0 0 0-2-2-4-2-2-2-4-2-4-2-2-2-4-4-6-4 0-2 0-2-2-2-2-2-2-4-4-6 0 0-2-2-2-2-2-2-2-4-4-6 0 0 0-2 0-2-2-2-2-4-2-6-2-2-2-4-2-4 0-2 0-4 0-6-2-2-2-2-2-4 0 0 0-2 0-2s0-2 0-4c2-2 2-4 2-4 0-2 0-4 0-4 0-2 2-4 2-6 0 0 0 0 0-2 0 0 2-2 2-2 0-2 2-4 2-6 2-2 2-2 4-4s2-2 4-4c0 0 2-2 4-4 0 0 2-2 2-2 2 0 4-2 6-2 0-2 2-2 4-2 0-2 2-2 4-2-18-6-30-20-34-38 0 0 0-4 0-4-2-2-2-4-2-6 0 0 0 0 0 0 0-2 0-4 2-6 0-2 0-2 0-4s0-6 2-8c0 0 0-2 0-2 6-14 18-24 32-30-2 0-2 0-4 0-14-6-26-18-30-34 0 0 0-2 0-2 0-2 0-6-2-6 0-2 0-4 0-4 0-2 0-2 0-4 2-22 16-40 34-46 0 0 0 0-2 0-18-8-32-28-32-48 0-22 14-42 34-48 0 0 0 0-2 0-18-8-30-26-32-46 0 0 0 0 0-2 0 0 0-2 0-2 2-12 6-22 12-30h-2c-10 0-18-8-18-18v-152c0-40 58-100 68-110 4-4 8-6 12-6h2c0-4 2-8 2-12v0c0-2-2-6-2-8 0-4 0-8 2-12l-2-6c0-2 0-2 0-4 0-6 2-12 4-16v-4c0 0 0-2 0-2 0-10 2-18 8-24 0-12 6-26 26-34 6-32 52-32 70-32s70 0 76 34c20 6 24 20 24 32 6 6 10 14 10 24 0 0 0 2 0 2l-2 2c4 6 4 12 4 18 0 2 0 2 0 4l-2 6c2 4 2 8 2 12 0 2 0 6-2 8v0c2 4 2 8 2 14v0c2 2 4 2 6 4 10 10 68 70 68 110v152c0 8-6 16-14 18zM390 385.733c-4 0-6 0-6 0-10 0-16 8-18 18 0 0 0 0 0 0 2 6 6 12 12 16 8 4 12 12 10 22-2 2-4 4-6 6 0 0 0 0 2 0 0 0 2 0 6 0 20 0 70 2 128 14 12-2 26-4 40-8 8-2 18 2 20 12s-2 18-12 20c-16 6-32 8-48 10-2 0-4 0-6 0-54-12-102-14-122-14-2 0-6 0-6 0-10 0-18 8-18 18 0 8 4 14 12 16 8 4 12 14 10 22-2 4-4 6-6 6 0 0 0 0 0 0 2 0 4 0 8 0 20 0 70 2 126 14 14-2 28-4 42-8 8-2 18 4 20 12 2 10-2 18-12 22-16 4-32 6-48 10-2 0-4 0-6-2-54-12-102-14-122-14h-6c-10 2-16 8-18 18 0 0 0 0 0 0 0 2 0 2 0 2s0 2 2 2c0 0 0 0 0 0 0 6 4 10 10 12 8 4 12 14 10 22-2 4-4 6-6 8 0 0 2 0 2 0h6c20 0 70 0 126 14 14-2 28-6 42-8 8-4 18 2 20 12 2 8-4 18-12 20-16 4-32 8-50 10-2 0-4 0-6 0-52-12-100-14-118-14h-8c-8 0-14 4-16 10 0 0 0 0 0 2 0 0 0 2 0 0 0 2 0 2-2 4 0 0 0 0 0 2 0 0 0 0 0 2h2c0 6 6 12 12 14 8 2 14 12 10 20 0 4-2 6-4 8 0 0 2 0 4 0 20 0 70 2 126 14 14-2 28-4 42-8 8-2 18 2 20 12s-2 18-12 20c-16 6-32 8-48 10-2 0-4 0-6 0-54-12-102-14-120-14-4 0-6 0-8 0 0 0 0 0 0 0s0 0-2 0c0 0 0 0-2 2h-2l-2 2c0 0-2 0-2 0s-2 2-2 2l-2 2c0 0 0 0 0 0l-2 2c0 0 0 2 0 2s0 2 0 2c0 0-2 2-2 2v0c0 0 0 2 0 2 0 2 0 2 0 2s2 2 2 2c0 0 0 2 0 2s0 2 0 2c2 0 2 2 2 2s0 0 0 0 0 0 0 0c2 2 2 2 2 2s0 0 0 2c2 0 2 0 2 0s2 2 2 2v2l2-2c8 4 12 14 10 22-2 4-6 6-8 8 0 0 2 0 2 0s2 0 2 0c42 0 74 8 98 16 24 0 50-4 76-10 10-4 18 2 22 12 2 8-4 18-12 20-32 8-60 12-88 14-2 0-4-2-6-2-22-8-52-16-90-16 0 0 0 0 0 0h-4c0 0 0 2 0 2-2 0-4 0-6 2 0 0-2 2-4 4 0 0 0 0 0 0-2 2-2 2-2 2 0 2 0 2 0 2 0 2 0 2 0 2h-2c0 0 0 0 0 2v0c0 0 0 0 0 0v0 2c0 0 0 0 0 0l2 4c0 0 0 0 0 0 0 2 0 4 2 6 0 0 2 2 4 4 0 0 0 0 0 0h2c0 0 2 2 2 2 26 10 58 16 90 18 118 2 172-38 184-46 0 0 0-2 0-2 0-2 2-2 2-4 0 0 0 0 0-2 0-6-2-10-6-14-8-8-20-18-34-26-6-4-8-10-8-16 2-8 6-12 12-14 16-6 26-12 26-12s0 0 0 0c2 0 2-2 2-2 2 0 2 0 2 0 0-2 0-2 0-2 2 0 2 0 2-2 0 0 2-2 2-2s2-2 2-4c0 0 0-2 0-2s0-4 0-4v-2c-2-2-2-2-2-2s0-2 0-2c0 0 0-2-2-2 0 0 0-2 0-2s-2 0-2 0c-10-10-20-20-34-28-6-4-8-10-8-16 2-6 6-12 12-14 12-4 20-8 24-10 2 0 4-2 4-2 2 0 2-2 2-2l2-2c0 0 2-2 2-2 0-2 0-2 2-4 0 0 0-2 0-4 0 0 0 0 0-2v-2c0-2 0-2-2-4 0 0 0-2 0 0 0-2-2-4-6-8-10-8-20-16-32-24-4-4-8-10-8-16 2-6 6-12 12-14 16-6 26-12 26-12s2-2 2-2c2 0 2 0 2 0s0 0 0-2c0 0 0 0 0 0 2 0 2 0 4-2 0 0 0-2 0-4 0 0 2 0 2-2 0 0 0-2 0-2s0-4 0-4c0 0 0 0 0-2-2-2-2-2-2-4-2-2-2-2-4-4-8-10-20-18-34-26-4-4-8-10-6-18 0-6 4-10 10-14 16-6 26-10 26-10s0 0 2 0c0-2 0-2 0-2s2 0 2-2c2 0 2-2 2-2s2-2 2-2c0 0 2-4 2-4s0 0 0 0 0-2 0-2 0-2 0-4v-2c-2-2-2-2-2-2 0-2 0-2 0-4h-2c0 0 0-2 0-2s-2 0-2 0c-10-10-20-20-34-28-4-2-8-10-8-16 2-6 6-12 12-14 16-6 26-10 26-10 6-4 10-10 10-16 0-2 0-2 0-2 0-4-2-6-4-10h-242c-2 8-8 14-18 14zM592 41.733c-4-4-4-10-4-14l2-8h-2c-6-4-10-10-8-18v-4c-2 0-4-2-10-2-8-2-16-10-14-18v-6c-2 0-10-6-42-6-30 0-36 4-38 6l2 4c0 6-2 10-4 14-4 2-8 6-12 6-6 0-8 2-10 2l2 4c0 6-4 14-10 18 0 0 0 0 0 0v8c2 6 0 12-4 16l2 10c0 2 0 6 0 10l2 4c2 6 2 14-2 18h150c-4-6-6-12-2-18l2-4c-2-4-2-8-2-10l2-12c0 0 0 0 0 0zM666 201.733c0-18-30-56-54-82h-186c0 0 0 0 0 0s-2 0-2 0h-12c-24 26-54 64-54 82v136h298c0 0 0 0 2 0 0 0 0 0 2 0h6v-136z" />
<glyph unicode="&#xe632;" d="M914 83.733l-244 388-2 8c2 4 4 10 4 16 0 14-4 24-12 34l218 400c6 10 2 20-6 24s-18 2-24-6l-220-404c0 0-2 2-4 2-18 0-34-12-42-26l-456 22c-10 0-18-8-18-16-2-10 6-18 16-18l452-22c2-4 2-6 4-10l-30-522c-2-10 6-18 14-18 22-2 40-4 62-4 0 0 0 0 0 0 20 0 40 2 60 4 10 0 16 8 16 18l-28 448 212-336c2-4 8-8 14-8 2 0 6 2 8 4 8 4 12 16 6 22zM624 509.733c8 0 14-6 14-14 0-6-6-14-14-14s-14 8-14 14c0 8 6 14 14 14zM624-34.267c-12 0-26 0-40 2l28 482c4 0 8-2 12-2s8 2 12 2l32-482c-14-2-30-2-44-2z" />
<glyph unicode="&#xe633;" d="M612 603.733c12-10 32-10 42 0l212 212c6 6 8 14 8 22s-2 14-8 20l-44 44c-6 8-16 10-26 8-6-2-10-4-14-8l-268-266c0 0 0 0-2 0 0 0-2 0-2 0l-34 34 24 24c6 6 8 12 8 20s-2 16-8 22l-212 212c-6 4-12 8-20 8 0 0 0 0 0 0-8 0-16-4-22-8l-42-44c-8-8-10-18-8-28 0-4 2-10 8-14l264-266c0 0 0-2 0-4s0-2 0-2l-32-34-24 26c-6 4-14 8-22 8s-14-4-20-8l-212-212c-6-6-8-14-8-22s2-14 8-20l44-44c4-6 12-8 20-8 2 0 4 0 6 0 6 2 10 4 14 8l74 74-58-230c0 0 0-2 0-4s0-6 0-10c2 0 2 0 2-2l34-166c0-8 8-14 16-14 0 0 2 0 4 0 8 2 14 12 12 20l-24 124c12-4 26-6 42-6 10 0 18 6 18 16s-8 18-18 18c-28 0-48 10-52 18v2l70 280 144 144c2 0 4 0 6 0s4 0 6 0l20-20 4-16-18-20c-6-6-8-12-8-20s2-16 8-22l176-176 38-150v-2c-4-8-24-18-52-18-10 0-18-8-18-18s8-16 18-16c16 0 30 2 42 6l-24-122c-2-8 4-18 14-20 0 0 2 0 2 0 8 0 16 6 18 14l32 164c0 2 0 2 2 2 0 4 0 8 0 10s0 4 0 4l-26 104c4-2 6-2 10-2 0 0 0 0 0 0 8 0 16 4 22 8l42 44c8 8 10 18 8 28 0 4-2 10-8 14l-264 264c0 2 0 2 0 4s0 4 0 4l32 34zM802 873.733l36-36-204-206-34 34c0 0-2 2-4 2zM222 311.733l-36 36 204 206 34-34c0 0 2-2 4-2zM502 591.733c0 4 4 10 10 10s10-6 10-10c0-6-4-10-10-10 0 0-2 0-4 0 0 0 0 0 0 0-4 2-6 6-6 10zM436 677.733l-206 206 38 36 204-206-32-32c-2-2-2-4-4-4zM588 507.733l206-206-38-36-204 206 32 32c2 2 2 4 4 4zM526 397.733h-32c-16 0-28-14-28-30v-54c0-16 12-30 28-30h32c16 0 30 14 30 30v54c0 16-14 30-30 30zM522 317.733h-22v46h22zM526 233.733h-32c-16 0-28-14-28-30v-54c0-16 12-30 28-30h32c16 0 30 14 30 30v54c0 16-14 30-30 30zM522 153.733h-22v46h22z" />
<glyph unicode="&#xe634;" d="M774 631.733c0 84-44 106-92 112v78c0 6-2 10-6 14v62c0 32-26 58-60 58-32 0-58-26-58-58v-62c-4-4-6-8-6-14v-74h-76v74c0 6-4 10-8 14v62c0 32-26 58-58 58s-58-26-58-58v-62c-4-4-8-8-8-14v-78c0 0 0 0 0 0s0 0 0 0c-50-6-94-28-94-112 0-2 0-4 2-6 2-76 44-338 124-392v-38c0-40 16-66 50-80v-166c0-10 6-18 16-18s18 8 18 18v178c0 8-6 14-12 16-26 8-38 24-38 52v48c0 8-4 14-10 16-56 24-108 248-114 352 32-2 94-6 226-6s194 4 226 6c-6-104-60-336-116-352-8-2-12-10-12-16v-48c0-30-12-44-40-52-8-2-12-10-12-18v-176c0-10 8-18 16-18 10 0 18 8 18 18v164c34 14 52 42 52 82v36c84 48 126 316 128 394 2 2 2 4 2 6zM616 921.733c14 0 24-10 24-24v-58h-46v58c0 14 10 24 22 24zM586 805.733h62v-60c-8 2-16 2-26 2h-36zM410 921.733c14 0 24-10 24-24v-58h-48v58c0 14 10 24 24 24zM380 805.733h60v-58h-38c-8 0-16 0-22-2zM286 645.733c2 26 8 42 22 52 2 0 4 2 6 2 0 0 2 2 2 2 12 6 28 8 48 10 0 0 0 0 0 0 10 0 24 2 38 2h220c16 0 30-2 42-2 0 0 0 0 0 0 18-2 32-6 44-10 2-2 4-2 4-4 2 0 2 0 2 0 16-10 22-26 24-52-22-2-80-4-226-4s-204 2-226 4z" />
<glyph unicode="&#xe635;" d="M996 585.733l-442 136c-12 4-26 6-42 6s-30-2-42-6l-442-136c-24-6-28-18-28-28 0-8 4-20 28-26l174-54-10-106c0-2 0-4 2-6 2-8 52-162 316-162 114 0 188 30 236 62v-88c0-10 8-18 16-18 10 0 18 8 18 18v118c34 34 46 66 46 70 2 2 2 4 2 6l-8 104 176 56c24 6 28 18 28 26 0 10-4 22-28 28zM510 237.733c-222 0-276 114-284 134l8 96 236-72c12-4 26-6 42-6s30 2 42 6l192 58v-144c-40-34-112-72-236-72zM792 371.733c0-4-6-12-12-22v114l6 2zM762 495.733l-214 64c0 0 0 0 0 0-4 12-18 22-34 22-22 4-40-8-42-24 0-18 14-32 36-34 2 0 4-2 4-2 8 0 14 2 20 6 2 0 2 0 4 0 0 0 2 0 2 0l166-50-160-50c-16-4-48-4-64 0l-252 78c-2 0-4 2-8 2 0 0 0 0 0 0l-166 50 426 132c16 4 48 4 64 0l426-132z" />
<glyph unicode="&#xe636;" d="M856 755.733c6 0 10 2 14 6s6 10 4 16c-4 20-24 54-68 70 0 0 2 0 2 2 8 0 14 4 16 10 2 8 0 14-4 20-4 2-54 42-116 30 2 4 6 6 10 10 6 2 10 10 8 18 0 6-6 12-14 12-4 2-110 16-164-50-2 4-4 10-6 14-2 6-10 10-16 8-6 0-12-2-14-8l-4-8-14 26c-2 6-10 10-16 8-8 0-14-4-14-12l-8-22c-22 16-62 42-100 50-8 2-16-2-20-10 0-2-10-22-14-42-20 16-52 34-84 32-6 0-12-4-14-10s-2-12 2-18c10-12 22-26 30-38-28 0-60-14-84-56-4-6-4-12 0-18s10-8 16-8c0 0 16 0 36-6-26-10-56-28-70-68-2-4-2-10 2-16 4-4 10-6 16-6 10 0 26 0 38-2-6-22-18-62-22-102-2-8 4-16 12-18s16 2 20 10c0 0 16 30 54 38 2-14 6-36 16-72 0-6 6-12 12-12 8-2 14 0 18 6 0 0 8 10 28 18 38-52 100-86 168-86 70 0 132 34 170 86 12-8 20-16 24-20 4-6 8-8 14-8v0c6 0 12 2 16 8 4 8 24 40 26 68 8-4 12-12 14-22 2-6 6-10 12-12s12 0 16 4c2 0 30 26 16 70 6-2 12-8 16-14s10-8 16-8c6 2 12 6 14 12 8 30 8 90-44 118 6 4 18 4 34 2zM312 579.733c-10 44-10 56-10 56 0 6-2 10-6 14-2 4-8 4-12 4-24 0-42-8-56-16 8 32 16 56 16 58 2 6 0 14-8 18-10 8-26 10-40 12 26 28 70 30 72 30 6 0 12 4 16 12 2 6 0 14-6 18-22 20-46 28-64 32 28 28 60 14 64 12s12-2 16 2c6 4 8 10 8 16 0 8-10 24-20 40 16-10 30-22 36-28 4-6 12-8 18-4 8 2 12 8 10 16 0 12 6 32 12 46 28-8 56-26 74-40-76-32-130-108-130-194 0-36 8-68 24-98-6-2-10-4-14-6zM512 505.733c-96 0-176 80-176 178 0 90 68 164 156 174 4-2 8-4 14-4s12 4 14 8l2 2c2-6 2-10 2-10 2-8 8-12 16-14 6 0 14 4 16 12 0 0 2 2 2 2 78-20 132-90 132-170 0-36-10-68-28-96 0 0 0 0 0 0 0-2 0-2 0-2-32-48-88-80-150-80zM778 749.733c-2-8 4-16 12-20 34-10 44-34 46-54-24 14-46 12-48 12-6 0-10-4-14-10-2-6-2-12 2-16 8-14 12-24 14-34-20 20-46 24-48 24-8 0-14-4-18-10s-2-14 4-20c4-4 0-26-12-48-4 4-10 8-16 12 16 30 24 62 24 98 0 92-60 172-146 200 26 26 64 32 92 34-6-14-6-28-4-36 2-6 4-10 10-12 4-2 8-2 14 0 24 12 46 10 66 4-24-8-34-18-36-20-4-6-4-12-2-18 4-6 10-10 16-10 54 2 82-18 96-36-34-4-50-26-52-40zM550 709.733c0-16 14-30 28-30 16 0 28 14 28 30 0 14-12 28-28 28-14 0-28-14-28-28zM584 709.733c0-4-2-6-6-6s-6 2-6 6c0 2 2 4 6 4s6-2 6-4zM462 737.733c-14 0-26-14-26-28 0-16 12-30 26-30 16 0 28 14 28 30 0 14-12 28-28 28zM462 703.733c-2 0-6 2-6 6 0 2 4 4 6 4 4 0 8-2 8-4 0-4-4-6-8-6zM564 653.733c-8 4-18 0-22-10-2-8 2-18 12-22s20-10 26-14c-4-2-10-4-18-6-14-2-28-8-46-8-16 0-32 4-48 8-6 2-14 4-20 6 8 6 18 10 30 16 10 2 14 12 12 20-4 10-14 14-22 12-36-12-62-36-70-54-4-10-2-16 0-20s10-16 28-8c2 0 4 2 10 0 6 0 16-2 24-4 16-4 36-10 56-10 22 0 40 6 56 10 8 2 16 4 22 6 6 0 8-2 10-2 18-8 26 6 28 8 2 4 2 10 0 18-8 18-34 42-68 54zM538 761.733l74-16c2 0 4 0 4 0 8 0 16 4 16 12 2 10-2 20-12 22l-74 16c-8 2-18-4-20-14s4-18 12-20zM410 745.733c2 0 2 0 4 0l74 16c8 2 14 10 12 20s-10 16-20 14l-74-16c-8-2-14-12-12-22 2-8 8-12 16-12zM760 55.733c0 0 0 0 0 0 0 10-18 218-32 288-16 80-54 120-114 120h-190c-66 0-96-62-112-118-18-58-40-280-42-292 0-66 52-122 114-122h262c0 0 2 0 2 0s0 0 0 0c62 2 110 54 112 122 0 0 0 0 0 0s0 2 0 2zM694 337.733c12-58 26-214 30-266h-74l-26 246c-2 8-10 16-20 14-8 0-16-8-14-18l28-258c0 0 0 0 0-2 0 0 0-2 0-4l10-84h-92v464h78c30 0 64-12 80-92zM344 335.733c22 66 44 94 80 94h78v-464h-100l52 344c0 10-6 18-14 20-10 2-18-6-20-14l-36-244h-78c6 56 24 218 38 264zM306 37.733h72l-10-70c-32 8-56 36-62 70zM662-32.267l-8 70h70c-6-36-30-64-62-70z" />
<glyph unicode="&#xe637;" d="M854 461.733c94 108 124 204 86 264-24 34-68 52-128 52-38 0-82-6-132-20-6 18-12 36-18 52 14 14 22 34 22 54 0 42-34 76-76 76-12 0-22-2-32-6-20 14-42 22-64 22-72 0-136-80-176-222-44 10-84 14-120 14-80 0-134-22-158-66-32-64 8-156 112-256-94-108-124-204-86-264 10-14 22-24 36-32 2-40 36-72 76-72 34 0 64 24 72 56 24 4 50 10 76 16 40-126 100-198 168-198 72 0 136 80 176 222 44-10 86-14 122-14 78 0 132 22 156 66 32 64-8 156-112 256zM662 195.733c-32 8-66 18-100 30 22 14 46 28 66 42 12 6 22 14 32 20 4-4 10-8 18-12-4-28-10-56-16-80zM362 691.733c6 0 10-2 16-4 4 0 6-2 10-2 8-2 16-6 24-8 4 0 8-2 12-4 8-2 16-6 26-8 2-2 6-2 8-4 2 0 2 0 4 0-24-14-46-28-66-42-18-12-36-24-54-36 6 38 12 74 20 108zM658 713.733c10-38 16-80 22-122-22 14-46 26-70 40-22 12-46 22-70 32 40 20 80 38 118 50zM634 343.733c0-10 2-18 6-28-10-6-20-14-30-20-28-20-58-36-88-52-32 12-62 26-92 42-32 16-62 34-90 54-4 34-6 68-6 104 0 32 2 62 4 94 24 18 50 36 76 54 28 18 58 36 88 52 32-12 62-26 92-42 32-18 62-36 90-54 4-34 6-70 6-104 0-10 0-18 0-26-32-10-56-40-56-74zM304 363.733c-32 20-60 42-86 66 26 26 54 52 84 78 0-20-2-42-2-64 0-28 2-54 4-80zM366 173.733c0 6-2 14-4 20-2 4-2 8-2 12-2 8-4 18-6 28-2 4-2 8-4 14 0 8-2 18-4 28 0 4 0 8-2 14 0 2 0 4 0 6 22-14 46-26 70-40 22-12 46-22 70-34-40-18-80-36-118-48zM710 301.733c-2 0-4 0-6 0-2 2-4 2-6 2 0 0 0 0 0 0-8 4-16 8-22 16 0 0 0 0 0 2 0 0 0 0-2 0-4 6-6 14-6 22 0 22 16 40 38 42 0 0 0 0 0 0s0 0 0 0c2 0 4 0 4 0 24 0 42-18 42-42s-18-42-42-42zM754 407.733c-10 6-20 10-30 12 0 8 0 16 0 24 0 26-2 54-4 80 32-20 60-42 86-66-16-16-34-34-52-50zM812 743.733c34 0 78-6 98-36 30-46-2-130-82-224-32 30-70 58-110 84-6 56-16 108-28 156 46 14 88 20 122 20zM650 863.733c0-14-6-26-16-34 0 0 0 0 0 0-2 0-2 0-4-2-6-4-14-6-22-6-22 0-42 20-42 42 0 24 20 42 42 42 24 0 42-18 42-42zM512 921.733c12 0 24-4 36-12-10-12-16-28-16-46 0-42 34-76 76-76 8 0 16 2 24 4 6-14 10-28 16-44-48-16-98-38-148-66-10 4-18 8-28 12-2 0-2 0-4 2-12 4-24 8-36 12-4 2-8 2-12 4-8 2-16 4-24 8-4 0-10 2-14 2-4 2-8 4-12 4 34 122 88 196 142 196zM88 665.733c18 32 62 48 128 48 32 0 70-4 112-12-10-46-18-96-22-146-42-34-80-68-112-104-90 86-130 166-106 214zM196 91.733c-24 0-42 20-42 44 0 0 0 0 0 0 0 2 0 4 0 4 2 22 20 38 42 38s42-20 42-42c0-24-20-44-42-44zM270 147.733c-6 36-38 64-74 64-32 0-58-20-70-46-4 4-10 10-12 14-30 46 2 130 82 224 32-30 70-58 110-84 2-12 2-22 4-34 0-2 0-4 2-6 2-16 4-30 6-44 0-4 2-8 2-14 2-8 4-18 6-28 2-4 2-10 4-14 2-6 2-12 4-16-22-6-44-12-64-16zM512-34.267c-52 0-102 66-136 174 48 16 98 38 148 66 44-18 88-34 130-44-34-122-88-196-142-196zM936 221.733c-26-48-118-62-240-36 0 2 0 4 0 4 4 14 6 28 10 42 0 2 0 6 0 8 2 8 4 18 6 28 40 0 74 34 74 76 0 14-4 26-10 38 20 18 38 36 54 54 90-86 130-166 106-214z" />
<glyph unicode="&#xe638;" d="M846 387.733c4 0 6 0 8 0 4 0 6 2 8 4 46 36 66 94 58 158 10 20 8 48 2 68-4 12-10 22-18 30 0 56-32 94-68 128-4 6-10 12-16 18-16 18-34 36-60 46-8 4-16 4-20 2-16 12-36 26-58 30-4 2-8 0-10 0 0 0 0 0-2 0-2 2-8 6-14 8-4 2-10 2-16 4-4 0-8 0-12 2-2 0-6 0-8 2-6 2-12 4-18 4-8 0-14-2-20-4-2 0-6-2-6-2-2 0-4 0-4 2-4 2-10 4-16 4-8 2-16 0-22-2-4-2-8-2-10-2 0 0 0 0 0 0h-10c-38 0-80 0-110-24-36-2-56-20-72-36-4 0-6 0-10 0-2 0-4 0-4 0-4 0-8-2-12-4-32-22-54-52-68-90-12-12-26-28-26-58-18-32-24-66-20-96 2-16 12-32 22-46 4-6 8-12 12-18 0-2 0-4 0-6 2-4 4-10 8-16 22-26 54-26 86-26 12 0 26 0 38-2 6 0 10 0 14 4s8 6 14 4c2-26 22-38 34-46 2 0 4-2 6-2 8-26 26-54 76-58 4-14 14-24 24-34 8-8 14-14 18-22 6-12 10-24 16-38 12-36 26-78 72-96 2 0 4 0 6 0 6 0 14 4 16 12 2 4 0 8 0 12 4 2 8 6 8 10 4 10-2 20-12 22-12 4-14 16-14 50 0 4 0 8 0 12 36-14 76-14 114 2 42 16 78 50 96 90zM738 327.733c-26-8-62-16-104 6 0 2-2 2-2 2-4 10-12 20-18 28-8 12-14 18-12 28s-2 18-12 20c-10 2-18-4-20-12-6-26 8-44 18-58 6-8 12-14 12-22 2-10 2-22 2-34 0-10 0-20 0-30-4 8-6 18-10 30-6 14-10 28-18 42-6 12-16 22-24 30-10 12-18 18-18 28-2 10-8 16-18 16 0 0 0 0 0 0-42 0-52 20-56 38 0 4-4 8-6 10-4 2-10 6-14 8-14 10-20 12-18 28 2 8-4 14-12 18-18 6-34 8-52-4-12 2-24 2-36 2-30 0-48 0-60 12 0 2 0 4 0 4 0 4-2 8-4 12-4 8-8 14-12 22-8 12-16 24-18 34-4 24 2 52 18 78 2 2 2 6 2 10-2 18 6 26 20 38 2 2 4 4 4 6 10 32 26 56 52 76 0 0 0 0 2 0 0 0 2 0 4 0 2-2 6-2 8-2 0 0 0 0 0 0 6 0 10 2 12 4l2 2c16 18 30 32 58 32 0 0 2 0 2 0 4 0 8 2 12 4 22 20 56 20 92 20h10c0 0 0 0 0 0 6 0 14 2 18 2 6 2 8 2 10 2s2 0 4 0c4-2 8-6 16-6s16 2 22 4c2 2 6 2 6 2 2 0 6-2 8-2 4-2 10-4 12-4 6-2 12-2 16-2s8-2 10-2c0 0 2-2 4-2 2-4 8-6 14-8 6-4 10-2 16 0 16-4 34-20 48-30 4-4 10-4 16-2 2 0 2 2 4 2 18-6 32-22 48-38 6-6 10-12 18-18 28-28 58-62 56-112 0-6 4-14 10-16 2-2 6-6 10-16 4-18 4-38-2-48-2-2-2-6-2-10 8-52-8-98-40-128-2 0-4 2-8 2-8 0-16-4-18-12-12-36-44-68-82-84zM700 641.733c14 2 24 6 32 16 6 8 10 18 12 30 10 4 24 10 24 30 0 6-2 14-10 16-6 4-12 2-18-2-8-6-18-8-28-6-8 2-16 8-18 16s-12 14-20 10c-10-2-14-12-12-20 6-20 20-34 40-38 2-2 4-2 6-2 2-6 0-10-2-12s-8-4-16-4c0 0 0 0-2 0-6 0-12-4-16-12-2-6-8-12-14-16-8-2-12 0-12 0-6 4-12 2-18 0l-4-2c-4-4-6-6-10-6-4-2-6 0-8 0 0 2-2 2-6 4 8 2 14 10 10 20-2 8-10 14-20 12 0 0-2 0-4 0-4 2-6 8-8 12 0 8-6 14-14 14-22 2-22 12-22 16 0 18 18 40 36 40 10 0 16 8 16 18 0 8-8 16-16 16 0 0-2 0-2 0-4 0-10 0-14-2-2 4-6 8-10 10-22 18-62 20-90 18-10-2-16-10-16-20 2-8 10-16 20-14 26 2 54-2 64-10 2 0 2-2 2-2-14-14-24-34-24-52 0-22 10-44 42-50 4-10 10-18 18-22 6-4 12-6 20-6-2-2-4-4-6-6-6-12-26-14-46-18-18-2-36-4-52-14-10 8-24 16-44 16 0 0 0 0-2 0-2 2-4 6-8 10-12 14-30 34-66 26-8-2-14-12-12-20 2-10 12-16 20-14 16 4 22-2 34-16 4-6 10-12 16-16 4-4 8-4 12-4 16 2 22-4 32-12 2-2 6-4 8-6 4-2 8-4 10-4 6 0 10 2 14 6 6 10 26 12 44 16 20 2 44 6 60 20 6-2 12-2 18 0 0 0 2 0 2 0 8 2 14 6 18 8 10-2 20-2 30 2 12 6 24 16 30 26zM364 709.733c14 2 22 0 26-4 2 0 2 0 4-2s4-4 6-6 4-6 4-8c-2-6 2-10 6-14s10-4 14-4c10 4 18 2 26-2 10-8 16-22 18-32 0-10 8-16 16-16 2 0 2 0 2 0 10 2 16 10 16 20-2 16-12 42-34 56-10 6-22 10-34 10 0 0 0 0 0 0-2 4-6 8-8 10s-2 4-2 6c-4 4-8 8-14 10 0 0-2 2-2 2-12 6-26 10-46 8-10 0-18-8-16-18 0-8 8-16 18-16zM610 505.733c-14 6-34 6-50 0-10 8-22 14-38 14-6 18-22 32-40 36-14 6-28 4-38-2-2 0-2 0-2 0-4 14-16 24-32 28-8 4-18 4-26 2-6 4-12 6-16 6-4 2-6 2-8 4-8 4-20 2-24-4-6-8-4-20 4-24 6-6 14-8 18-8 6-2 8-2 12-6 6-6 14-6 22-2 0 2 4 2 8 0 6-2 10-4 10-6 2-6 8-10 14-12-4-6 0-14 6-18 8-6 20-4 24 4s12 8 18 6c10-2 20-12 20-22 0-4 2-10 6-14 4-2 8-4 14-2 14 2 26-4 34-12 6-4 14-6 20-2 10 6 30 6 34 2 2-8 8-12 16-12 2 0 2 0 4 0 10 2 14 12 12 20-2 12-10 20-22 24zM832 505.733c0 10-10 16-18 16s-14-6-16-14c-6 0-20 2-26 2-2 0-2 0-2 0 0 2-2 4-2 4 0 10-2 20-10 28 16 12 28 24 36 40 22 2 38 14 48 36 2 8-2 18-10 22-10 4-20 0-22-10-4-10-10-16-26-14-6 0-12-4-14-10-16-28-42-48-78-58-6-2-12-8-12-14-2-6 0-12 6-16 16-12 32-8 42-4 2 0 4 2 6 2 0-2 0-4 0-6 2-8 4-16 8-24 2-4 8-8 14-8 2 0 6 0 10-2 10 0 18-2 26-2 12 0 22 2 30 10 6 6 10 14 10 22zM856 845.733c-88 68-234 130-378 104-62-12-126-32-172-56-64-34-170-112-176-262-2-8 0-18 0-28 2-14 4-28 2-42-4-22-32-60-48-78-4-4-10-8-14-12-18-14-42-32-42-66 2-34 28-48 46-58 8-4 16-8 22-12-10-16-14-38-10-56 4-8 8-14 14-18-8-24 8-40 16-50 6-4 10-10 10-14 4-12 0-24-4-36-4-14-8-30-4-46 2-18 16-38 30-48 44-28 90-18 140-10 34 8 68 14 102 10 8-12 12-30 16-54s16-68 16-70c2-6 10-12 16-12 2 0 4 0 6 0 8 2 14 12 12 22 0 0-12 44-16 68-6 28-10 56-28 74-2 4-6 6-10 6-44 6-84-2-120-10-46-8-84-16-114 4-8 6-16 18-18 26 0 8 2 20 6 30 4 16 8 32 4 52-2 14-12 24-18 32-12 12-12 14-6 22 4 6 4 12 2 16-2 6-6 10-12 12-4 0-6 2-6 4-4 10 2 26 10 34 4 4 6 14 2 20-10 18-26 28-42 34-20 10-26 16-28 30 0 14 10 24 28 36 6 6 12 10 18 16 20 20 52 64 58 94 2 20 0 38-2 54 0 8-2 16 0 24 6 132 100 202 158 232 42 22 104 42 162 52 132 24 270-34 352-96 90-68 132-160 124-276-4-78-26-118-64-166l-4-4c-16-20-34-42-50-68-18-26-46-70-42-112 4-30 14-58 26-88 2-8 6-16 8-24 4-12 10-22 14-32 10-22 18-42 20-66 0-10 8-18 18-16 8 0 16 8 16 16-2 30-12 56-22 80-6 10-10 20-12 28-4 10-8 18-10 28-10 26-22 52-24 76-2 32 22 70 36 92 14 24 32 44 48 64l4 4c42 50 68 100 72 186 8 128-38 230-138 304z" />
<glyph unicode="&#xe639;" d="M758 495.733c-4 8-12 12-20 12-8 6-20 20-30 30s-60 64-70 70c-4 2-6 4-10 4h-4c-20 0-46 2-58 8-6 6-18 14-38 14-12 0-26-2-40-8 0 0-2-2-2-2-10-6-84-56-86-114-2-10-10-58 14-96 14-18 34-32 60-36 2 0 6 0 8 2 8 2 36 10 56 10 8 0 16 0 18-4 2-22 4-48 14-60 4-6 8-16 8-20-2-8-8-48 4-80 2-12 6-24 6-28 0-6 2-12 6-16 4-2 6-4 10-4 2 0 4 0 6 2 4 0 84 26 110 110 2 8 12 50 14 68 4 10 20 60 24 78 4 12 12 44 0 60zM726 443.733c-4-18-24-78-24-78 0-2-2-2-2-4 0-8-8-44-14-62-12-44-46-68-68-80-2 6-2 12-4 18-10 26-2 62-2 62 0 2 0 2 0 2 2 18-10 38-16 44-2 6-6 26-6 46 0 0 0 2-2 4-2 10-14 28-50 28-24 0-52-8-64-10-14 2-24 10-32 20-18 28-10 70-10 72 0 0 2 2 2 2 0 34 48 74 68 86 10 4 18 6 26 6s12-4 12-4c0 0 0 0 0 0 2-2 4-2 6-4 22-12 56-14 76-14 10-10 38-38 60-62 16-16 36-38 36-38 4-4 8-4 12-4 0-8 0-20-4-30zM738 899.733c-6 4-12 8-18 12-2 0-2 2-2 2-6 4-12 6-20 10 0 0 0 2-2 2-6 2-12 6-20 10 0 0 0 0 0 0-8 4-14 6-22 10h-2c-6 2-12 4-18 8h-4c-4 2-10 2-14 0s-6-4-8-8l-24-62c-36 10-72 14-110 14-222 0-402-180-402-402 0-144 74-270 188-342 2-2 4-4 8-4 16-10 34-20 54-28l-24-58c-2-4-2-10 0-14s6-8 10-8c50-18 104-28 158-28v-48h-72c-10 0-18-8-18-16 0-10 8-18 18-18h178c10 0 18 8 18 18 0 8-8 16-18 16h-72v50l24 2c174 20 326 134 392 296 4 8 6 16 10 24 72 208-4 440-188 562zM556 817.733c2 4 6 10 8 14 6 6 8 10 10 14 0 2 2 4 2 4 92-26 170-88 218-168-2-2-6-2-8-4-2 2-8 4-12 6-20 12-32 16-42 12-4-2-8-6-10-10-4-8-2-14 8-44 2-8 6-18 10-30l-62 58c8 12 12 26 4 38-12 18-32 12-42 8-2-2-6-4-8-4-8 0-14-2-20-2-4-2-6-2-8-2-4 4-10 8-20 10s-18-6-22-10c-4-2-6-2-8-4-4 2-10 2-14 4-2 0-2 0-4 0 0 2-2 2-4 4-12 4-20 0-44-14-6-4-18-10-22-12-2 0-4 0-8 0-2-2-8-2-12-2 0 4-2 10-2 12 4 0 6 0 10 0 12 2 24 2 30 10 4 4 6 10 4 16v2c0 4-2 12-2 16 4 4 6 8 10 16 4 4 8 12 12 16 2 0 6-2 10-2 12-2 32-8 38 10 2 2 2 4 2 6 0 16 0 26-2 32zM260 301.733c-6-20-10-34-6-44 0-2 0-4 2-8 0 0 2-2 2-4 0 0-2 0-2-2-6-2-20-8-18-28 0-2 0-2 0-4-80 68-132 168-132 282 0-2 2-2 4-4 10-12 26-32 32-40 4-8 10-14 16-20 4-2 8-6 10-8 0-2-2-4-2-6 0-12-2-26 4-38 6-14 16-18 26-22 2 0 4-2 6-2l6-2c10-6 26-12 34-18l2-4c6-4 18-14 18-18s-2-6-2-10zM466 47.733c-44 0-88 8-130 20l18 42c36-10 72-16 112-18v-44zM474 125.733c-68 0-134 20-190 54-2 8-8 26-12 34 2 2 6 4 8 4 20 12 10 36 8 44 0 2-2 4-2 4 0 4 4 20 6 26 2 4 2 8 2 12 6 22-14 40-26 52l-4 4c-12 10-30 18-42 22l-8 4c-2 0-4 2-6 2-8 4-8 4-8 6-2 2 0 14 0 18 2 6 2 10 2 12 0 12-10 22-20 30-4 4-10 10-10 12-8 12-26 34-38 48-10 10-18 14-28 14 18 188 176 336 368 336 12 0 24 0 34 0 2-2 2-2 4-2 4 0 16-6 24-10-10-16-24-34-12-46 0 0 0-2 0-2-10 2-20 4-28 0-10-4-18-14-28-30-2-4-6-8-6-10-10-8-12-20-10-34-12 0-26 0-34-8-18-18 0-58 0-58 8-16 28-14 44-12 2 0 4 0 6 0 8 0 16 4 38 16 4 2 10 6 16 10 4-2 10-4 12-4s2 0 4 0c2-2 4-4 8-6 8-4 20 0 34 12 12-10 30-6 40-4 4 2 8 2 12 2 2 0 6 0 8 2-2-4-4-8-4-12s2-8 6-12l104-96c14-10 24-6 28-2 14 10 10 32-12 94 0 0 0 0 0 0 10-4 14-6 20-8 6 0 12 0 18 4 10-16 26-54 38-94 0 0 0-2 2-2 2-18 4-38 4-56 0-204-166-370-370-370zM894 349.733c-4-8-6-16-10-22-62-152-202-258-364-278h-20v44c210 12 378 188 378 402 0 172-110 320-262 378l18 44c2-2 4-2 6-4l4-2c6-2 10-4 16-6l8 14-6-16c6-2 12-6 18-8 0 0 2-2 2-2 6-2 12-6 18-10 0 0 0 0 0 0 6-4 14-8 20-12 170-114 242-330 174-522z" />
<glyph unicode="&#xe63a;" d="M252 577.733c-46 0-170 0-170-120 0-80 8-148 110-148 140 0 228 64 228 162 0 106-98 106-168 106zM192 343.733c-66 0-76 28-76 114 0 62 40 86 136 86 100 0 134-12 134-72 0-78-74-128-194-128zM994 579.733l-40 2c-38 36-102 54-188 54-74 0-154-6-200-54h-114c-44 48-126 54-198 54-86 0-150-18-190-54l-34-2c-16 0-30-14-30-30v-58c0-12 8-22 18-28 0 0 0-2 0-2 0-110 20-210 164-210 166 0 294 88 306 208 14 4 30 4 44-2 12-120 138-206 304-206 146 0 166 100 166 210 0 0 0 0 0 0 12 4 22 16 22 30v58c0 16-14 30-30 30zM990 495.733h-6c-6 0-10-2-14-6-2-2-4-8-4-12 0-6 2-10 2-16 0-130-34-176-132-176-148 0-266 78-272 184 0 6-2 10-8 14-14 8-32 14-48 14-14 0-30-4-44-12-6-2-8-8-8-14-6-106-122-186-274-186-96 0-130 46-130 176 0 6 0 10 2 16 0 4-2 10-6 12-2 4-8 6-12 6h-2v50l38 2c4 0 10 0 12 4 32 34 90 50 170 50 64 0 142-4 178-48 4-4 8-6 14-6h128c6 0 10 2 14 6 36 44 114 48 178 48 80 0 138-16 170-50 2-2 6-4 12-4l42-2zM770 577.733c-72 0-168 0-168-106 0-98 88-162 228-162 102 0 110 68 110 148 0 120-124 120-170 120zM830 343.733c-120 0-194 50-194 128 0 60 34 72 134 72 96 0 136-24 136-86 0-86-10-114-76-114z" />
<glyph unicode="&#xe63b;" d="M956 109.733c-2 4-2 8 0 10 4 8 6 18 6 28 0 8-2 16-4 24-4 8-8 14-16 20-6 4-14 8-22 12-16 6-38 4-54 0-10-4-18-8-24-14s-12-12-14-18c-4-6-6-14-6-20 0-10 8-18 16-18 10 0 18 8 18 18 0 0 0 2 2 4 0 2 2 6 6 8s8 6 12 6c10 4 24 4 34 2 4-2 8-4 10-6 4-2 6-6 6-8 2-4 2-6 2-10s0-8-2-12c-2-2-4-6-4-10h-22c-8 0-16-8-16-18 0-8 8-16 16-16h26c2-2 2-2 4-4s4-6 6-8c0-4 0-6 0-10 0-6 0-10-2-14s-4-8-8-12c-4-4-10-8-14-10-12-4-28-4-38 0-6 4-10 6-14 10s-6 8-8 10c-2 6-2 8-2 8 0 8-8 16-16 16-10 0-18-8-18-16 0-6 2-14 6-22 2-6 8-14 14-20s14-12 24-16c10-4 20-6 32-6s22 2 32 4c10 4 18 10 24 16 8 8 14 16 18 24s6 18 6 28c0 8-2 16-6 22-2 6-6 12-10 18zM252 95.733h-82c28 26 66 60 78 74 12 12 16 30 12 48-4 20-16 38-30 44-10 6-24 8-38 8-12 0-24-2-32-6-10-4-18-8-24-16-6-6-12-12-16-20-2-8-4-16-4-24 0-10 8-18 16-18 10 0 18 8 18 18 0 2 0 6 2 10s4 8 8 10c2 4 6 6 12 8s12 4 20 4c10 0 18-2 24-4 2-2 8-10 10-20 2-6 2-14-4-20-18-22-108-100-108-100-6-4-8-12-4-20 2-6 8-10 14-10h128c10 0 18 8 18 16 0 10-8 18-18 18zM996 271.733h-236v278c0 24-20 44-46 44h-98c-6 14-18 26-34 34l4 20c18 10 20 22 20 30 0 2 0 6-2 12 24 18 40 46 44 78 14 6 28 18 48 38 44 44 42 88 42 96 0 22-16 38-34 38 0 0-2 0-4 0l-66-14c-8 8-20 14-34 14h-144c-14 0-26-6-34-14l-66 14c0 0-2 0-4 0-18 0-32-16-32-38-2-8-4-52 42-96 18-20 32-32 46-38 6-32 22-60 46-80-2-4-2-8-2-10 0-8 2-20 20-30l4-20c-18-8-30-20-34-34h-84c-26 0-46-20-46-44v-182h-250c-24 0-44-22-44-46v-330c0-24 20-44 44-44h934c24 0 46 20 46 44v234c0 24-22 46-46 46zM702 905.733c2-2 2-2 2-4s0-2 0-2c0-2 4-34-32-72-8-8-16-14-22-18v80c0 2 0 4 0 4zM352 897.733c2 2 2 2 2 4s0 2 0 4l52-12c0 0 0-2 0-4v-80c-6 4-12 10-20 18-36 38-34 70-34 70zM512 619.733l-8 42c-2 6-6 10-10 12s-6 2-6 4c0 0 0 0 0 0 6 4 8 10 8 16s-4 10-8 14c-30 16-48 46-48 80v4c0 2 0 2 0 4v94c0 8 8 16 16 16h144c6 0 10-2 12-6 2-2 2-2 4-4 0-2 0-4 0-6v-96c0 0 0-2 0-2v-4c0-34-18-64-46-80-6-4-8-8-8-14s2-12 8-16c0 0 0 0 0 0 0-2-2-2-6-4s-8-6-10-12l-8-42c-2-10 4-18 12-20 4-2 8-2 12-6h-84c6 4 10 6 14 6 8 2 14 10 12 20zM1006-8.267c0-6-4-10-10-10h-934c-6 0-10 4-10 10v330c0 6 4 12 10 12h268c8 0 16 6 16 16v200c0 6 6 10 12 10h356c6 0 12-4 12-10v-296c0-10 8-16 16-16h254c6 0 10-6 10-12v-234zM596 827.733v44c0 12-10 22-22 22h-92c-12 0-22-10-22-22v-44c0-12 10-22 22-22h92c12 0 22 10 22 22zM562 839.733h-68v20h68zM558 499.733c0 2 0 4-2 4 0 0 0 2 0 2s0 0 0 0c-2 2-2 2-4 4 0 0-2 0-2 2 0 0-2 0-2 0-2 0-4 0-4 2 0 0-2 0-2 0s0 0-2 0c0 0-2-2-2-2-2 0-2 0-4 0 0 0 0 0-2-2l-46-28c-8-6-12-16-6-24 4-6 8-8 14-8 4 0 6 0 10 2l20 14v-118c0-10 8-18 18-18s16 8 16 18v148c0 0 0 2 0 2s0 2 0 2z" />
<glyph unicode="&#xe63c;" d="M512 955.733c-282 0-512-230-512-512s230-512 512-512c282 0 512 230 512 512s-230 512-512 512zM512-34.267c-264 0-478 214-478 478s214 478 478 478c264 0 478-214 478-478s-214-478-478-478zM856 459.733c-10 2-16-6-16-16-2-86-38-170-98-232-62-62-144-98-230-96-180 4-324 148-328 328 0 10-8 18-16 16-10 0-18-8-18-16 4-200 162-358 362-362 2 0 4 0 6 0 92 0 180 38 248 106 66 68 106 162 108 256 0 8-8 16-18 16zM362 519.733c52 0 94 42 94 94s-42 96-94 96c-52 0-96-44-96-96s44-94 96-94zM362 675.733c34 0 60-28 60-62 0-32-26-60-60-60s-62 28-62 60c0 34 28 62 62 62zM656 519.733c52 0 94 42 94 94s-42 96-94 96c-52 0-96-44-96-96s44-94 96-94zM656 675.733c32 0 60-28 60-62 0-32-28-60-60-60-34 0-62 28-62 60 0 34 28 62 62 62z" />
<glyph unicode="&#xe63d;" d="M1020 75.733c-22 34-106 120-372 184 0 42-4 70-6 82 18 26 82 132 86 272v4c2 136-72 216-212 222-2 0-2 0-4 0-4 0-4 0-6 0-140-6-214-86-212-222v-4c6-140 68-246 86-272-2-12-6-40-6-82-260-64-346-148-370-182-6-8-4-18 2-24 8-6 20-4 24 4 18 24 98 108 366 172 8 2 12 10 12 18 0 60 6 96 6 96 2 4 0 10-2 14-2 0-78 110-84 256v4c-2 118 60 182 182 188 0 0 0 0 2 0 0 0 0 0 0 0 122-6 184-70 182-188v-2c-6-148-82-258-84-258-2-4-4-10-2-14 0 0 6-36 6-96 0-8 6-16 12-18 272-64 350-150 366-174 4-6 10-8 14-8s8 2 10 4c8 4 10 16 4 24z" />
<glyph unicode="&#xe63e;" d="M1014 355.733c-30 14-64 26-106 36 0 16 0 28-2 34 12 18 42 70 44 140v2c2 74-40 118-116 122 0 0-2 0-4 0 0 0-2 0-2 0-76-4-118-48-116-122v-2c2-70 32-122 44-140-2-6-2-18-4-34-22-6-40-12-56-18 0 0 0 0 0 2-26 8-52 16-82 22 0 26-2 44-4 54 14 20 58 94 62 194 0 16-4 164-162 164-118 0-160-88-160-166 4-98 48-172 62-192-2-10-4-28-4-54-26-6-52-14-76-22-16 6-34 12-52 16 0 16-2 28-2 34 10 18 40 70 44 140v2c0 74-42 118-116 122-2 0-2 0-4 0s-2 0-4 0c-74-4-118-48-116-122v-2c2-70 32-122 44-140 0-6-2-18-2-34-44-10-84-24-114-40-8-4-12-14-8-22 2-6 8-10 16-10 2 0 4 0 6 2 32 16 72 30 120 40 8 2 14 10 14 18 0 28 2 46 2 48 2 4 0 8-2 12 0 0-38 54-42 126v4c0 54 28 84 86 86 0 0 0 0 0 0 58-2 86-32 86-86v-2c-4-74-42-128-42-128-2-4-4-8-2-12 0 0 2-20 2-48 0-8 6-16 14-18 4 0 10-2 16-4-82-28-122-42-132-96-2-10-2-30 2-74 0-26 2-60 4-92 0 0 0 0 0 0s0 0 0 0c0-8 4-14 12-16 0 0 0 0 0 0s0 0 2-2c0 0 0 0 0 0 2 0 2 0 4 0 6 0 10 4 14 8 0 0 0 0 0 2 0 0 0 0 0 0 2 0 2 0 2 2 0 0 0 0 0 2 0 0 0 2 0 2 0 2 0 2 0 2 0 2 0 2 0 4v0c0 32-4 64-4 90-2 28-4 58-4 64 8 36 32 46 122 76 12 4 26 8 40 12 28 10 58 18 92 26 6 2 12 10 12 18 0 42 4 66 4 68 2 4 0 8-2 12-2 0-54 76-58 180 0 30 8 130 124 130 122 0 128-108 128-130-4-104-58-180-58-180-4-4-4-8-4-12 0-2 4-26 4-68 0-8 6-16 14-18 32-8 62-16 90-26 16-4 28-8 42-12 88-30 112-40 120-76 0-6-2-36-2-64-2-24-4-56-6-88-2-6 0-12 4-18 6-6 18-6 24 0 4 2 6 8 6 12 2 32 4 66 6 92 2 44 4 64 2 74-12 52-50 68-130 94 8 2 16 4 24 6s12 10 12 18c0 28 4 46 4 48 0 4 0 8-4 12 0 0-38 54-40 126v4c-2 54 28 84 84 86 0 0 0 0 0 0 58-2 88-32 86-86v-2c-2-74-40-128-40-128-4-4-4-8-4-12 0-2 2-20 2-48 0-8 6-16 14-18 44-10 82-22 112-36 2-2 4-2 6-2 8 0 14 4 16 10 4 8 0 18-8 22z" />
<glyph unicode="&#xe63f;" d="M930 375.733c-8 118-36 232-170 274l-6 90c0 18-8 36-20 46 6 110-66 148-128 160-18 4-36 6-56 6-36 0-64-6-88-12-16-4-28-6-38-6-6 2-18 4-30 6-28 8-66 16-100 16-18 0-30-2-44-6-90-30-132-108-146-140-2-4-36-84 20-144 16-16 32-26 50-26l-36-522c0-2 0-2 0-4 0 0 0-2 0-2-18-70-18-72-18-74 0-74 180-106 348-106s348 32 348 106c0 2 0 6-18 68 94 80 140 176 132 270zM714 759.733c0 0 0 0 0 0 4-4 6-12 6-20l2-36c-46 8-158 24-254 24-64 0-132-6-182-12 48 42 128 64 234 64 102 0 192-20 194-20zM136 795.733c12 28 48 96 126 122 8 2 18 4 32 4 30 0 66-8 92-14 14-4 26-6 34-8 14-2 30 2 50 6 22 6 48 12 80 12 16 0 34-2 50-4 70-14 102-52 102-116-34 6-104 16-182 16-124 0-214-28-268-82-2-4-6-8-10-10-16-20-42-48-66-48-8 0-18 4-26 14-42 44-16 106-14 108zM172 113.733l36 534c14 6 28 16 38 28 48 6 138 18 222 18 98 0 218-18 256-24l40-558c0 0 0 0 0 0 0-24-130-72-298-72s-290 42-296 66c2 2 2 2 2 4s0 2 0 4zM468-34.267c-190 0-312 42-314 70 0 4 4 16 8 32 56-42 200-62 304-62 108 0 250 22 306 66 6-18 8-32 10-36-4-28-124-70-314-70zM794 147.733l-32 466c86-32 124-102 134-240 6-78-30-156-102-226zM392 231.733c26 0 46 20 46 46s-20 48-46 48c-26 0-48-22-48-48s22-46 48-46zM392 289.733c6 0 12-4 12-12 0-6-6-12-12-12-8 0-12 6-12 12 0 8 4 12 12 12zM498 419.733c-26 0-46-20-46-44 0-26 20-46 46-46 24 0 44 20 44 46 0 24-20 44-44 44zM498 363.733c-6 0-12 6-12 12s6 10 12 10c6 0 10-4 10-10s-4-12-10-12zM506 469.733c30 0 56 24 56 56 0 30-26 54-56 54-32 0-56-24-56-54 0-32 24-56 56-56zM506 545.733c12 0 22-8 22-20s-10-22-22-22c-12 0-22 10-22 22s10 20 22 20z" />
<glyph unicode="&#xe640;" d="M604 663.733c58-58 84-106 78-146-2-12-16-38-84-68-4-2-18-6-14-20 2-8 8-14 16-14 4 0 6 0 10 2l2 2c64 28 98 58 104 94 8 50-20 108-88 174-90 90-46 148-44 150 4 8 4 18-4 24s-18 6-24-2c-2-4-64-84 48-196zM458 651.733c62-62 104-104 44-200-4-8-2-20 6-24 4-2 6-2 10-2 6 0 10 2 14 8 74 118 14 178-50 242-14 12-26 26-40 40-22 26-32 50-26 78 12 72 114 130 116 130 8 4 10 14 6 24-4 8-14 10-22 6-6-2-120-66-134-154-6-38 6-74 36-106 12-16 26-30 40-42zM274 619.733c82-42 128-70 108-172-2-10 4-18 14-20 0 0 2 0 2 0 8 0 16 6 18 14 24 130-52 170-126 208-22 12-36 28-38 48-12 54 46 122 48 122 6 8 4 18-2 24-8 6-18 6-24-2-4-2-70-82-56-152 6-30 24-54 56-70zM900 45.733h-182c20 16 36 36 48 58 70 14 118 70 118 144 0 56-22 126-80 146-2 0-4 2-6 2h-572c-10 0-18-8-18-18v-12c0-84 0-234 96-320h-180c-10 0-18-8-18-18 0-90 398-96 402-96 96 0 410 6 410 96 0 10-8 18-18 18zM242 361.733h554c36-16 54-68 54-114 0-60-40-104-96-112-6 0-10-4-14-8-18-36-46-64-80-82h-296c-120 66-122 220-122 316zM508-34.267c-130 0-286 22-344 46h500c0 0 0 0 0 0s2 0 2 0h200c-44-24-178-46-358-46zM760 175.733c0 0 2 0 4 0 8 0 14 6 16 14l24 118c2 8-4 18-12 20-10 2-18-4-20-14l-26-118c-2-8 4-18 14-20z" />
<glyph unicode="&#xe641;" d="M1016 949.733c-4 6-12 8-18 6-10-4-260-90-352-204-38-48-54-82-52-108l-586-498c-6-6-8-18-2-24 4-4 8-6 14-6 4 0 8 2 10 4l134 114 142-140-114-134c-6-8-6-18 2-24 2-2 6-4 10-4 6 0 10 2 14 6l122 144c0 0 0 0 0 0s0 0 0 0l380 446c26 2 56 18 98 54 110 92 198 340 202 352 2 6 2 12-4 16zM190 255.733l418 354c6-8 14-14 20-20 6-4 12-8 16-12s8-10 12-16c8-8 16-18 28-26l-356-416zM796 607.733c-38-32-66-48-82-48-12 0-18 8-30 24-6 6-10 12-16 18s-12 10-18 16c-14 10-22 16-22 26-2 18 14 46 46 86 64 82 230 152 302 180-30-72-100-234-180-302z" />
<glyph unicode="&#xe642;" d="M252 681.733c-6 0-12 2-20 2-50 0-94-34-102-80-4-26 4-52 20-74 18-22 42-36 70-40 6-2 14-2 20-2 52 0 94 34 102 80 4 26-2 52-20 74-16 20-42 34-70 40zM308 573.733c-4-30-34-52-68-52-4 0-10 0-14 2-20 2-38 12-48 28-12 14-16 30-14 46 4 30 34 50 68 50 6 0 10 0 14 0 20-4 38-14 50-28 10-14 16-30 12-46zM854 437.733c8 0 18 2 30 2 24 4 44 20 54 44s8 50-6 68c-30 38-70 50-108 34-40-18-66-36-46-104 8-28 34-44 76-44zM838 553.733c6 4 14 4 20 4 20 0 36-14 46-28 8-8 8-22 4-34-4-6-10-20-30-22-8 0-18-2-24-2-38 0-42 14-42 20-14 44-6 48 26 62zM832 239.733c2-2 6-2 8-2 24 0 46 12 60 34 12 20 14 44 6 62-20 46-54 66-94 60-44-6-74-18-72-88 2-56 70-64 92-66zM816 359.733c4 2 6 2 10 2 26 0 40-22 50-42 2-8 2-20-6-30-2-6-14-20-34-16-54 6-60 22-62 32-2 48 8 48 42 54zM602 209.733c-30-44 18-92 34-106 12-14 30-20 48-20 32 0 62 22 68 52 10 48-4 86-40 104-14 8-30 16-46 16-24 0-42-14-64-46zM720 141.733c-4-12-20-24-36-24-6 0-16 2-24 10-40 38-36 54-30 64 18 26 30 30 36 30 8 0 18-6 30-12 22-12 30-34 24-68zM520 189.733c-16 14-32 28-54 28-18 0-38-10-60-32-40-38-2-94 10-112 14-20 34-30 58-30 28 0 52 14 64 36 20 44 12 84-18 110zM506 93.733c-4-10-18-16-32-16-8 0-20 2-30 14-30 46-22 62-14 68 16 16 28 24 36 24s18-8 32-20c20-16 22-40 8-70zM1020 831.733c-6 8-16 8-24 2l-68-56-66 66 58 66c6 6 4 18-2 24-8 6-18 6-24-2l-174-204c-4 0-6 0-10 0-40-4-66-14-90-22-28-10-52-18-100-12-14 0-24 24-36 50-24 50-56 118-148 108-214-22-336-166-336-400 0-276 228-502 508-502s508 226 508 502c0 118-44 204-126 248l128 108c8 6 8 18 2 24zM902 755.733l-214-184c-2 4-4 6-6 6-2 2-6 4-8 8-2 2-4 4-6 8-4 2-6 6-10 10l182 214zM630 581.733c2 0 6-2 10-10 4-4 6-8 10-10 4-4 6-6 10-10 6-4 10-6 10-10 0-2-2-12-24-40-30-38-100-70-144-88 18 42 52 112 90 144 24 22 36 24 38 24zM982 451.733c0-258-214-468-474-468-262 0-474 210-474 468 0 216 108 346 306 366 68 6 90-42 112-90 16-32 32-64 64-68 56-8 84 4 116 14 16 6 32 12 54 16l-64-76c-14-2-30-12-52-30-62-52-112-188-114-194s0-14 4-18c4-4 8-4 14-4 0 0 2 0 4 0 6 2 144 50 196 112 20 26 28 44 30 60l158 136c78-36 120-112 120-224z" />
<glyph unicode="&#xe643;" d="M958 955.733h-892c-36 0-66-30-66-66v-892c0-36 30-66 66-66h892c36 0 66 30 66 66v892c0 36-30 66-66 66zM990-2.267c0-18-14-32-32-32h-892c-18 0-32 14-32 32v892c0 18 14 32 32 32h892c18 0 32-14 32-32zM906 737.733h-786c-10 0-18-8-18-16v-548c0-4 0-8 4-12 4-2 8-4 12-4h788c0 0 0 0 0 0 8 0 16 6 16 16l2 546c0 6-2 10-6 12-2 4-6 6-12 6zM890 703.733l-2-400-86 86c-6 8-38 46-72 44-22-2-44-20-60-34l-22 24c-8 8-44 52-84 50-36-2-74-44-82-52l-54 54c-8 10-52 62-100 60-46-2-96-58-100-64l-92-92v324zM136 191.733v140c0 2 2 2 4 4l114 114c10 12 50 50 76 52s62-34 72-48c0 0 0 0 0-2l68-66c6-8 18-8 24 0l12 12c12 12 42 40 60 42 20 0 46-26 56-38 0 0 0-2 0-2l36-36c4-2 8-4 12-4 6 0 10 2 12 6 16 16 36 32 50 34 14 0 34-18 44-32 2 0 2-2 2-2l106-106c2-2 4-2 4-2v-66zM456 545.733c12-18 34-30 60-30 0 0 0 0 0 0 20 0 38 8 52 20 2 0 6 0 10 0 32 0 58 20 58 48 0 6 0 14-8 24 0 28-28 50-64 50 0 0-2 0-4 0-10 12-28 18-44 18-26 0-48-12-56-32-26-8-42-26-42-50 0-20 14-40 38-48zM476 613.733c6 0 10 6 12 12 2 8 12 14 28 14 12 0 22-4 26-10 2-4 10-8 16-6h4c0 0 2 0 2 0 16 0 28-8 30-16 0-2 0-2 0-4 0-4 0-10 4-14 4-2 4-4 4-6 0-8-18-18-36-12-8 2-16 0-20-8-4-6-16-14-30-14v0c-18 0-28 8-32 16-2 6-6 8-12 10-12 4-20 10-20 18s10 16 24 20zM728 491.733c2 0 6 0 8 0 10-10 24-16 42-16v36c-12 0-18 4-22 8-4 6-12 10-20 8-10-4-18 0-22 2 0 2-2 2-2 4 0 0 2 0 2 2 4 4 6 10 6 16 0 0 0 0 0 0 0 4 8 10 18 10 2 0 2 0 2 0l4-2c6 0 12 2 16 8 2 2 8 6 18 6s16-6 18-8c0-6 6-12 12-14 10 0 16-6 16-10s-6-10-14-12c-6 0-10-4-12-8-2-6-10-10-20-10l-2-18 2-18c20 0 38 10 48 24 20 8 32 24 32 42s-14 34-34 42c-8 14-26 24-46 24-14 0-28-4-38-12 0 0 0 0 0 0-30 0-54-18-54-42-6-8-8-16-8-20 0-10 4-20 12-28 10-8 24-14 38-14z" />
<glyph unicode="&#xe644;" d="M326 321.733c0 46-38 82-86 82s-86-36-86-82c0-46 38-82 86-82s86 36 86 82zM188 321.733c0 26 24 48 52 48 30 0 52-22 52-48s-22-48-52-48c-28 0-52 22-52 48zM872 527.733c86 32 146 112 146 206 0 118-98 214-222 222 0 0-2 0-2 0h-554c-128 0-234-100-234-222 0-94 62-174 148-206-86-32-148-112-148-206 0-122 106-222 234-222h202c0-56 0-100 0-100 0-38 30-68 68-68h436c38 0 70 30 70 68v116c0 2 0 4 0 6 2 84 2 150 2 198 0 92-60 174-146 208zM784 921.733c110 0 200-84 200-188s-90-190-200-190c0 0 0 0 0 0h-422c68 40 112 110 112 190s-44 148-110 188h420zM40 733.733c0 104 90 188 200 188s200-84 200-188c0-104-90-188-200-188s-200 84-200 188zM40 321.733c0 104 90 188 200 188 108 0 200-88 200-188s-92-188-200-188c-110 0-200 84-200 188zM362 133.733c32 20 60 46 78 76 2-24 2-50 2-76zM982 119.733c0 0 0-4 0-4v-116c0-18-16-34-36-34h-436c-18 0-34 16-34 36 0 0 0 50 0 112 0 2 0 2 0 2 0 2 0 2 0 4 0 76-2 166-2 200 0 0 0 0 0 0s0 2 0 2c0 78-46 150-114 188h432c106-4 192-90 192-190 0-48-2-114-2-198 0-2 0-2 0-2zM326 733.733c0 46-38 82-86 82s-86-36-86-82c0-46 38-82 86-82s86 36 86 82zM188 733.733c0 26 24 48 52 48 30 0 52-22 52-48s-22-48-52-48c-28 0-52 22-52 48z" />
<glyph unicode="&#xe645;" d="M892 613.733c0 10 2 140-92 238-66 70-164 104-288 104-126 0-222-34-288-104-96-100-92-232-92-238 0 0 0 0 0 0s0 0 0-2l68-612c0-38 30-68 68-68h488c38 0 68 30 68 68l68 612c0 2 0 2 0 2s0 0 0 0 0 0 0 0 0 0 0 0 0 0 0 0zM248 827.733c60 62 148 94 264 94 114 0 204-32 264-94 62-64 78-150 80-190-8 2-18 4-30 6-2 0-2 0-2 0s-2 0-2 0c-54 6-146 10-310 10-208 0-302-8-344-16 2 40 16 124 80 190zM802 611.733c-2-12-6-30-10-54-4-18-12-32-20-34-8-4-14 0-20 2-24 18-44 14-56 10-30-14-52-58-64-138-8-44-18-54-22-56-8 0-22 16-26 26-2 8-2 20-4 34-2 38-6 90-44 134-18 22-38 34-60 34 0 0 0 0 0 0-34 0-58-30-58-30-2-2-2-2-2-2-26-38-50-56-76-52-46 4-90 80-110 126 60 4 156 6 282 6 130 0 230-2 290-6zM790 1.733c0 0 0 0 0-2 0-18-16-34-34-34h-488c-18 0-34 16-34 34 0 2 0 2 0 2l-66 602c6 2 14 4 26 4 16-38 68-148 144-156 38-6 74 18 106 66 2 2 16 18 32 18 0 0 0 0 0 0 12 0 22-8 34-20 30-38 34-82 36-118 2-14 2-28 6-38 4-18 28-52 56-52 2 0 2 0 2 0 28 2 48 30 56 84 14 90 34 108 44 112 2 2 8 4 24-6s34-12 50-6c14 6 32 20 42 60 4 24 8 44 10 56 8-2 16-2 20-4z" />
<glyph unicode="&#xe646;" d="M1012 77.733l-572 572c-20 20-54 18-76-4l-60-62c-12-12-18-26-18-42 0-12 4-24 12-34l208-206c0-2 0-2 0-2s2 0 2 0l362-362c2-2 4-4 6-4 0 0 0 0 0 0 2-2 2-2 4-2 0 0 2 0 2 0 2 0 4 0 4 0 2 2 2 2 2 2s0 0 2 0c0 0 2 2 4 2 0 0 0 0 0 0v0c2 2 4 4 4 6 0 0 0 0 0 0 0 2 0 2 0 2 2 2 2 4 2 6 0 4-2 8-6 12 0 0 0 0 0 0l-350 350 92 94 352-352c2-4 6-6 12-6 4 0 8 2 12 6 6 6 6 18 0 24zM518 335.733l-196 196c-2 4-2 8-2 10 0 6 2 12 8 18l34 34c0 0 0 0 0 0l28 28c8 8 20 10 26 4l196-196zM242 637.733c-16-6-62-16-82-16-4 0-6 0-6 0-8 4-34 34-58 66-4 6-14 10-22 6-6-4-10-12-8-20 10-38 16-78 14-88-2-8-34-34-66-58-6-4-8-14-4-22 2-6 12-10 18-8 18 4 64 14 84 14 2 0 4 0 4 0 8-4 38-38 58-66 4-4 10-6 14-6s6 0 8 2c8 2 12 12 10 18-10 36-18 80-16 88 4 10 38 38 66 58 6 6 8 14 6 22-4 8-12 12-20 10zM158 559.733c-2-8-2-22 0-40-12 12-22 22-30 24-4 2-10 2-16 2s-14 0-22-2c10 12 20 22 22 32 4 8 4 22 2 38 10-12 20-22 30-24 4-2 8-2 16-2 6 0 14 0 22 2-12-12-22-22-24-30zM348 669.733c38 16 108 40 130 40 0 0 2 0 2 0 14-2 64-48 104-88 2-4 8-6 12-6 0 0 0 0 0 0 10 0 18 8 18 18 0 4-2 6-4 10-22 50-42 112-38 126 2 16 48 66 88 104 6 6 6 16 2 22-4 8-14 10-22 6-26-10-100-40-126-40-2 0-2 0-4 0-14 4-66 48-104 88-6 6-14 8-22 4-6-6-8-14-6-22 22-52 42-116 40-130s-48-64-88-104c-6-6-6-16-2-22s14-10 20-6zM452 795.733c2 14-6 48-16 78 24-20 52-42 68-44 16-4 48 4 78 14-20-24-40-50-44-66s4-48 14-80c-24 22-50 42-66 46-2 0-4 0-8 0-16 0-46-8-72-18 22 26 42 54 46 70zM746 441.733c26 10 72 26 88 26 10-2 44-34 68-60 4-4 8-6 12-6 0 0 2 0 2 0 8 0 16 8 16 16 0 4 0 8-2 10-14 34-26 76-24 86 2 8 30 40 60 68 6 6 8 14 4 22-6 6-14 10-22 6-24-10-70-26-88-26 0 0 0 0 0 0-10 4-42 34-68 62-6 6-14 8-22 2-6-4-10-12-6-20 12-34 26-78 26-88-4-10-36-44-62-68-6-6-8-16-4-22 6-8 14-10 22-8zM822 531.733c2 8 0 24-4 42 12-12 26-20 34-22 10-2 24 0 42 4-12-14-20-26-22-36-2-8 0-24 4-40-12 12-26 20-34 22-2 0-6 0-8 0-8 0-22-2-34-6 12 14 20 28 22 36z" />
<glyph unicode="&#xe647;" d="M1016 723.733c-36 86-188 230-260 230-16 0-26-6-30-12-2 0-2-2-2-2l-174-242-86-84c-34-36-48-82-36-130l-422-348c-8-6-8-18-2-24 4-4 8-6 14-6 2 0 6 0 10 4l432 356c4 4 6 12 4 18-12 40-4 76 24 104l64 64c26-46 116-140 172-170l-64-64c-30-28-66-36-106-24-6 2-14 0-18-4l-356-428c-6-8-4-18 2-24 4-2 8-4 12-4s8 2 12 6l348 418c48-12 94 2 130 36l84 86 242 174c0 0 2 0 2 2 10 10 20 30 4 68zM988 679.733l-238-172c-34 6-166 138-172 172l172 238c0 0 2 2 6 2 54 0 196-132 228-210 6-16 6-26 4-30zM786 875.733c-8 6-18 4-24-4l-144-194c-6-6-4-18 4-24 2-2 6-2 10-2s10 2 14 6l144 194c4 8 4 18-4 24zM928 721.733l-204-148c-8-6-10-16-4-24 4-4 8-6 14-6 4 0 8 0 10 2l204 148c8 6 10 16 4 24-6 6-16 8-24 4zM876 805.733c-6 8-16 8-24 0l-180-180c-6-6-6-16 0-24 4-2 8-4 12-4s8 2 12 4l180 180c8 8 8 18 0 24z" />
<glyph unicode="&#xe648;" d="M578 339.733l-42 78c8 18 12 34 18 48 6 18 10 34 18 52 2 6 2 10 0 16l-212 408c-4 6-8 8-12 10-6 0-12 0-16-4-94-80-120-182-76-302 0 0 2-2 2-2l214-372c2-4 6-8 12-8 0 0 2 0 4 0s6 0 8 2l76 50c8 6 10 16 6 24zM492 303.733l-204 356c-36 98-20 180 50 248l200-384c-6-16-12-32-16-48-6-16-12-32-20-52-2-4-2-10 0-14l40-74zM458 547.733c-28 0-52-24-52-52s24-52 52-52c28 0 52 24 52 52s-24 52-52 52zM458 477.733c-10 0-18 8-18 18s8 18 18 18c10 0 18-8 18-18s-8-18-18-18zM502 697.733c8-4 18 0 24 8l110 206c72-68 88-150 52-250l-132-228c-4-8-2-18 6-22 4-2 6-2 10-2 6 0 10 2 14 8l132 230c0 0 0 0 0 2 46 120 20 222-76 302-4 4-8 4-14 4-4-2-10-4-12-8l-120-226c-6-8-2-18 6-24zM864 205.733c-24 46-60 82-100 102-48 24-98 26-140 4-22-12-38-28-52-48 0 0 0-2 0-2-56-116-2-200 8-210 2-4 4-8 6-12l4-8c2-2 2-4 4-4 24-34 52-60 86-78 24-12 50-18 74-18s46 6 66 16c40 22 68 64 74 118 4 46-6 96-30 140zM860 69.733c-6-42-26-74-58-92-30-16-70-16-108 4-28 14-54 38-74 68 0 0 0 2-2 2l-2 6c-4 2-6 6-8 10 0 2 0 2 0 4-2 0-56 70-6 174 10 16 22 28 38 36 32 16 70 16 108-4 34-18 66-48 86-88 22-38 30-82 26-120zM724 231.733c-22 10-44 12-60 4-16-10-26-28-28-52-4-28 2-60 18-90s40-52 64-66c14-6 26-10 36-10s16 2 24 6c16 10 26 28 30 52 2 28-4 60-20 90s-38 52-64 66zM774 79.733c-2-12-6-22-12-26-6-2-16 0-28 4-18 10-36 30-50 52-12 24-18 48-14 70 0 12 6 22 10 26 2 0 6 0 8 0 6 0 14-2 20-6 20-8 36-28 50-50 12-24 18-48 16-70zM360 235.733c-16 8-38 6-60-4-26-14-48-36-64-66s-22-62-20-90c4-24 14-42 30-52 8-4 16-6 24-6 10 0 24 4 36 10 24 14 48 36 64 66s22 62 18 90c-2 24-12 42-28 52zM340 109.733c-14-22-32-42-50-52-12-4-22-6-28-4-6 4-10 14-12 26-2 22 4 46 16 70 14 22 30 42 50 50 8 4 14 6 20 6 2 0 6 0 8 0 6-4 10-14 10-26 4-22-2-46-14-70zM452 263.733c-14 20-30 36-52 48-40 22-92 20-140-4-40-20-76-56-100-102-24-44-34-94-30-140 6-54 34-96 74-118 20-10 42-16 66-16s50 6 74 18c34 18 62 44 86 78 2 0 2 2 4 4l4 8c2 4 4 8 6 12 10 12 64 94 8 210 0 0 0 2 0 2zM416 71.733c0-2 0-2 0-4-2-4-4-6-8-12l-2-4c-2 0-2-2-2-2-20-30-46-54-74-68-20-10-40-16-60-16-18 0-34 4-48 12-32 18-52 50-58 92-4 38 4 82 26 120 20 40 52 70 86 88 20 10 40 16 60 16 18 0 34-4 48-12 16-8 28-20 38-36 50-102-2-172-6-174z" />
<glyph unicode="&#xe649;" d="M106 473.733c-32 38-28 96 12 128 22 18 52 24 80 18 6-2 14 0 18 6s4 14 0 20l-30 34c-14 20-22 44-20 68s14 46 34 60c18 16 42 24 66 20 24-2 46-12 60-32l30-36c4-4 10-6 16-6 4 0 10 4 12 8s6 8 8 10c8 6 16 10 24 10s14 4 16 10c2 6 2 12-2 18l-40 46c-6 8-10 18-8 30 0 10 6 20 14 26 18 14 42 12 56-4l140-170c6-8 18-8 24-2 8 6 8 16 2 24l-140 170c-26 30-72 36-104 10-14-14-24-32-26-52-2-18 4-38 16-54l22-26c-6-2-10-6-14-10-2 0-2 0-2 0l-16 20c-22 26-52 42-86 44-32 4-64-6-90-26-26-22-42-52-46-86-2-32 8-66 28-90l4-4c-26-2-48-12-68-28-54-44-62-122-18-176l68-82c4-4 8-6 14-6 4 0 8 0 10 4 8 6 8 16 2 24zM964 51.733l-166 202c14 54 16 90 6 102-4 6-10 10-18 10-16 0-50-26-100-78-2 4-4 6-6 8l-2 2c-2 2-2 4-4 4l162 228c0 0 0 0 0 2 20 38 20 48-12 84l-30 38c-20 24-34 36-50 38-14 2-26-6-38-16l-20 22c-10 14-24 20-40 20-14 0-26-4-34-12l-414-340c-10-10-18-22-18-36-2-14 2-28 12-40l74-90c10-12 24-18 42-18 12 0 24 4 34 12l412 340c10 8 18 22 18 36 2 14-2 28-12 40l-32 40c4 4 10 8 12 8s10-4 28-26l30-38c20-24 20-24 8-46l-162-228c-14-20 0-34 8-44l2-2c2-2 4-4 6-8-100-64-100-84-100-90 0-28 36-30 70-30 16 0 30 2 40 2l166-202c8-8 20-14 32-14 8 0 18 4 26 10l64 54c10 6 14 16 16 26 0 12-2 22-10 30zM738 573.733c0-6-2-10-6-14l-412-340c-4-4-10-4-12-4-6 0-12 2-16 6l-74 90c-4 4-6 10-4 14 0 6 2 10 6 14l412 340c6 4 10 4 14 4 6 0 10-2 14-6l74-90c4-4 6-10 4-14zM938 21.733l-66-54c-2-2-4-2-4-2-2 0-4 0-6 2l-172 208c-2 4-8 6-12 6 0 0-2 0-2 0s-22-2-46-2c-12 0-22 2-28 2 16 14 50 38 78 56 2 2 2 2 2 2l20 16c2 2 2 2 2 2 24 26 54 54 72 66-2-16-6-44-14-70 0-6 0-12 4-16l172-208c2-2 2-4 2-4 0-2-2-2-2-4z" />
<glyph unicode="&#xe64a;" d="M816 643.733c-12 14-22 30-36 46-52 72-92 122-124 138v68c0 28-14 42-28 50-12 6-30 10-52 10-54 0-82-20-82-60v-68c-52-22-134-140-164-184-2-2-4-8-4-12v-550c0-70 64-150 246-150 184 0 248 80 248 150v550c0 6-2 10-4 12zM528 895.733c0 10 0 26 48 26 16 0 28-2 36-6 6-4 10-8 10-20v-90c0-26-20-48-46-48s-48 22-48 48zM496 789.733c6-36 40-66 80-66 38 0 70 28 78 64 28-22 72-80 100-118 6-10 14-20 20-28-38-10-118-30-198-30-82 0-166 20-206 30 48 70 98 128 126 148zM572-34.267c-156 0-212 62-212 116v528c40-10 128-32 216-32 86 0 172 20 210 32v-528c0-54-56-116-214-116zM384 837.733c4 4 8 8 10 12h68c10 0 18 8 18 18 0 8-8 16-18 16h-70c-4 8-12 14-20 18-4 10-10 16-20 22-6 18-26 30-48 30-14 0-28-6-38-14-22-2-42-20-44-42-12-12-18-26-18-44 0-24 16-46 40-52 8-14 24-24 40-24 8 0 18 4 26 8 6-2 12-2 18-2 30 0 54 24 56 54zM292 817.733c-4-8-18-6-20 4-2 6-8 10-14 12-12 0-20 10-20 20 0 8 4 16 10 20s10 10 8 18c0 0 0 0 0 2 0 6 6 12 12 12 0 0 2-2 2-2 6 0 14 2 18 8 2 4 8 8 16 8 10 0 16-6 18-10 0-6 4-12 10-14s10-6 12-12c0-6 6-10 12-12 2 0 2 0 4-2 0 0 0-2 0-2 0-2 0-2 0-2s0 0 0-2c-8-2-14-10-12-20 0-2 0-2 0-4 0-12-8-22-20-22-6 0-10 0-12 4-8 4-18 2-24-4z" />
<glyph unicode="&#xe64b;" d="M1018 165.733l-786 784c-6 8-16 8-24 0l-192-192c-2-2-4-4-4-6-8-12-12-24-12-36 0-16 6-30 18-42l724-724c12-12 26-18 42-18 0 0 0 0 0 0 14 0 26 4 36 12 2 0 4 2 6 4l192 192c8 8 8 18 0 26zM804-26.267c0 0 0 0-2 0-4-6-10-8-18-8v0c-6 0-12 2-18 8l-724 724c-6 4-8 12-8 18 0 8 2 14 8 18 2 2 2 4 2 4l176 176 26-24-102-104c-8-6-8-16 0-24 2-2 8-4 12-4s8 2 12 4l102 104 40-40-44-44c-8-8-8-18 0-24 2-4 8-6 12-6s8 2 12 6l44 44 44-44-104-102c-6-8-6-18 0-26 4-2 8-4 12-4 6 0 10 2 14 4l102 104 40-40-46-44c-6-6-6-18 0-24 4-4 8-6 12-6 6 0 10 2 12 6l46 44 44-44-104-102c-6-8-6-18 0-24 4-4 8-6 12-6s10 2 12 6l104 102 38-40-44-44c-6-6-6-18 0-24 4-4 8-4 12-4s10 0 12 4l46 44 42-44-102-102c-6-6-6-18 0-24 4-4 8-6 12-6s8 2 12 6l102 102 48-48-44-44c-6-6-6-18 0-24 4-4 8-4 12-4s10 0 12 4l46 44 42-44-102-102c-6-6-6-18 0-24 4-4 8-6 12-6s8 2 12 6l102 102 40-38-44-46c-6-6-6-16 0-24 4-2 8-4 12-4s8 2 12 4l44 46 44-44-102-104c-8-6-8-16 0-24 2-2 8-4 12-4s8 2 12 4l102 104 46-48z" />
<glyph unicode="&#xe64c;" d="M442 307.733v-72c0-22 20-42 42-42h38c24 0 44 20 44 42v72h72c22 0 42 20 42 44v38c0 22-20 42-42 42h-72v72c0 24-20 44-44 44h-38c-22 0-42-20-42-44v-72h-72c-24 0-44-20-44-42v-38c0-24 20-44 44-44zM362 351.733v38c0 4 4 8 8 8h88c10 0 18 8 18 16v90c0 4 4 8 8 8h38c6 0 8-4 8-8v-90c0-8 8-16 18-16h90c4 0 8-4 8-8v-38c0-6-4-10-8-10h-90c-10 0-18-6-18-16v-90c0-4-2-8-8-8h-38c-4 0-8 4-8 8v90c0 10-8 16-18 16h-88c-4 2-8 4-8 10zM1024 129.733v496c0 24-8 44-24 60-24 24-60 22-62 22h-246v50c0 66-50 82-80 82 0 0 0 0 0 0h-200c-64 0-82-54-82-82v-50h-248c-24 0-44-8-60-22-24-24-22-60-22-60v-496c0-24 8-44 22-60 24-22 54-22 58-22 0 0 0 0 0 0h860c26 0 48 8 62 24 24 24 22 58 22 58zM364 755.733c0 6 2 50 48 50h200c14 0 46-4 46-48v-50h-30v14c0 2 0 24-14 38-6 8-18 16-36 16h-134c-20-2-50-16-50-50v-18h-30zM592 707.733h-164v18c0 12 12 14 16 16h134c8 0 10-4 10-4 4-4 6-12 6-16zM48 661.733c8 8 18 12 34 12h594c0 0 0 0 0 0h264c0 0 22 0 38-14 8-8 12-20 12-34v-126c-32-12-134-52-256-78-22 106-118 186-230 186s-206-78-230-182c-112 26-208 62-240 74v126c0 0 0 22 14 36zM504 573.733c112 0 202-92 202-204s-90-202-202-202c-112 0-204 90-204 202s92 204 204 204zM978 93.733c-8-8-22-12-38-12h-860c0 0-20 0-34 12-8 10-12 22-12 36v334c42-16 132-48 234-72 0-6-2-14-2-22 0-130 106-236 238-236 130 0 236 106 236 236 0 6 0 12 0 18 110 24 206 60 250 76v-334c0 0 0-22-12-36z" />
<glyph unicode="&#xe64d;" d="M1006 523.733h-44c12 30 18 58 18 84 0 144-104 246-246 246-82 0-160-40-204-108l-20-24-16 20c-44 70-122 112-206 112-142 0-246-102-246-246 0-26 8-54 18-84h-42c-10 0-18-8-18-18 0-8 8-16 18-16h56c96-198 370-422 392-438 12-12 26-18 42-18s32 6 44 18c20 16 298 242 394 438h60c10 0 18 8 18 16 0 10-8 18-18 18zM78 607.733c0 126 86 212 210 212 72 0 140-36 180-98l28-38c4-4 8-6 14-6v0c6 0 10 2 14 6l32 42c40 60 106 94 178 94 122 0 212-88 212-212 0-26-8-54-20-84h-328l-48 56c-4 6-12 10-22 10-8 0-16-4-22-10l-34-40-30 34c-6 6-14 10-24 8-8 0-18-6-22-14l-62-104-78 204c-4 12-16 18-28 18s-22-8-26-20l-50-142h-56c-12 30-18 58-18 84zM530 77.733c0-2 0-2-2-2-10-10-28-10-40 0 0 0 0 0 0 2-4 2-276 222-376 412h52c8 0 14 4 16 12l50 140 86-224c2-6 8-10 14-10 0 0 0 0 0 0 6 0 12 4 16 8l76 130 38-44c2-4 8-6 12-6 6 0 10 2 14 6l42 52 50-58c2-4 8-6 12-6h318c-100-188-374-410-378-412z" />
<glyph unicode="&#xe64e;" d="M1012 609.733c-4 0-108 34-208 34-20 0-48-2-82-4v120c0 98-158 176-360 176-204 0-362-78-362-176v-632c0-100 184-176 348-176 78 0 142 8 210 16s138 16 228 16c164 0 210-28 210-28 4-4 8-4 10-4 4 0 6 0 8 2 6 2 10 8 10 14v626c0 6-4 14-12 16zM688 639.733c-22-2-44-2-68-4 28 14 52 30 68 48zM362 901.733c176 0 326-64 326-142 0-58-90-112-218-134-68-4-120-8-126-8-170 4-310 68-310 142 0 78 150 142 328 142zM990-4.267c-30 10-92 24-204 24-92 0-164-10-232-18s-130-16-206-16c-156 0-314 72-314 142v556c54-58 170-96 310-100 2 0 54 4 124 8 2 0 2 0 2 0s2 0 2 0 2 0 2 0c114 8 270 18 330 18 76 0 156-22 186-30v-584zM362 687.733c78 0 136 30 136 72s-58 74-136 74c-80 0-138-32-138-74s58-72 138-72zM362 797.733c62 0 102-22 102-38s-40-38-102-38c-64 0-104 22-104 38s40 38 104 38z" />
<glyph unicode="&#xe64f;" d="M1024 405.733c0 24-6 42-20 56-12 12-32 20-54 20h-474c-48 0-74-28-74-76v-196c0-48 26-74 74-74h474c46 0 74 26 74 74zM510 447.733h394v-278h-394zM436 209.733v196c0 28 12 40 40 40v-276c-28 0-40 12-40 40zM950 169.733h-12v278h12c14 0 24-4 30-10s10-18 10-32v-196c0-28-12-40-40-40zM968 333.733h-6c-12 0-22-10-22-22v-6c0-12 10-22 22-22h6c12 0 22 10 22 22v6c0 12-10 22-22 22zM966 299.733c-6 2-8 4-10 10 2 4 4 8 10 8 4 0 8-4 8-8 0-6-4-8-8-10zM270 755.733h-196c-46 0-74-28-74-76v-472c0-48 28-76 74-76h196c48 0 76 28 76 76v472c0 48-28 76-76 76zM34 647.733h278v-396h-278zM74 721.733h196c30 0 42-12 42-40h-278c0 28 12 40 40 40zM302 175.733c-6-6-16-10-32-10h-196c-28 0-40 12-40 42v10h278v-10c0-14-4-26-10-32zM178 215.733h-8c-12 0-20-10-20-20v-8c0-4 2-10 6-14s8-6 14-6h8c10 0 20 8 20 20v8c0 10-10 20-20 20zM174 181.733c-4 2-8 6-10 10 2 4 6 8 10 10 2-2 4-2 6-4s2-4 2-6-4-8-8-10zM516 599.733l-22 30c-4 8-16 10-24 4-6-6-8-16-4-24l56-76c2-4 8-8 14-8s10 4 14 8l54 76c6 8 4 18-4 24s-18 4-24-4l-26-36c-4 112-32 160-138 160-10 0-18-8-18-18 0-8 8-16 18-16 68 0 98-10 104-120z" />
</font>
</defs>
</svg>
